<?xml version="1.0" encoding="utf-8"?>
<!-- Generator: Adobe Illustrator 19.0.0, SVG Export Plug-In . SVG Version: 6.00 Build 0)  -->
<svg version="1.1" id="图层_1" xmlns="http://www.w3.org/2000/svg" xmlns:xlink="http://www.w3.org/1999/xlink" x="0px" y="0px"
	 viewBox="-20 244.9 554 352" style="enable-background:new -20 244.9 554 352;" xml:space="preserve">
<style type="text/css">
	.st0{fill:#E8B33D;}
	.st1{fill:#A57F21;}
	.st2{fill:#FFFFFF;}
</style>
<g>
	<rect x="-20" y="244.9" class="st0" width="214.1" height="68.1"/>
</g>
<g>
	<rect x="-20" y="244.9" class="st1" width="214.1" height="2.9"/>
</g>
<g>
	<rect x="-20" y="386.7" class="st0" width="254" height="68.1"/>
</g>
<g>
	<rect x="-20" y="386.7" class="st1" width="254" height="2.9"/>
</g>
<g>
	<rect x="397.9" y="390.6" class="st0" width="136.1" height="58.8"/>
</g>
<g>
	<rect x="397.9" y="390.6" class="st1" width="136.1" height="2.5"/>
</g>
<g>
	<rect x="-20" y="528.4" class="st0" width="233" height="68.1"/>
</g>
<g>
	<rect x="-20" y="528.4" class="st1" width="233" height="2.9"/>
</g>
<g>
	<rect x="419.4" y="528.4" class="st0" width="114.6" height="68.1"/>
</g>
<g>
	<rect x="419.4" y="528.4" class="st1" width="114.6" height="2.9"/>
</g>
<g>
	<path class="st2" d="M51.3,411.2c0-1.4,0.4-2.6,1.2-3.4c0.8-0.8,1.8-1.3,3.1-1.3c1.2,0,2.2,0.4,3,1.2c0.8,0.8,1.1,1.9,1.1,3.2
		c0,1.4-0.4,2.6-1.2,3.4c-0.2,0.2-0.4,0.4-0.6,0.5l2.5,1.8h-1.9l-1.7-1.2c-0.4,0.1-0.9,0.2-1.4,0.2c-1.3,0-2.3-0.4-3-1.2
		C51.7,413.6,51.3,412.5,51.3,411.2z M52.5,411.1c0,1.1,0.3,1.9,0.8,2.6c0.5,0.6,1.3,1,2.1,1c0.9,0,1.7-0.3,2.2-0.9s0.8-1.5,0.8-2.6
		s-0.3-2-0.8-2.6s-1.3-0.9-2.2-0.9c-0.9,0-1.6,0.3-2.2,1C52.8,409.2,52.5,410.1,52.5,411.1z"/>
	<path class="st2" d="M60.2,415c0-0.2,0.1-0.4,0.2-0.5s0.3-0.2,0.5-0.2s0.4,0.1,0.5,0.2s0.2,0.3,0.2,0.5c0,0.2-0.1,0.4-0.2,0.5
		s-0.3,0.2-0.5,0.2s-0.4-0.1-0.5-0.2C60.3,415.3,60.2,415.1,60.2,415z"/>
	<path class="st2" d="M73.9,415.5h-1.3l-0.9-2.4H68l-0.9,2.4h-1.3l3.4-8.8h1.2L73.9,415.5z M71.4,412.1l-1.3-3.7
		c0-0.1-0.1-0.3-0.1-0.6l0,0c0,0.3-0.1,0.5-0.1,0.6l-1.3,3.7H71.4z"/>
	<path class="st2" d="M78.4,410.3c-0.2-0.1-0.4-0.2-0.8-0.2s-0.8,0.2-1.1,0.6c-0.3,0.4-0.4,0.9-0.4,1.6v3.2H75v-6.3h1.1v1.3l0,0
		c0.3-0.9,0.9-1.4,1.7-1.4c0.3,0,0.5,0,0.6,0.1C78.4,409.2,78.4,410.3,78.4,410.3z"/>
	<path class="st2" d="M82.9,415.5c-0.2,0.1-0.6,0.2-1,0.2c-1.1,0-1.7-0.6-1.7-1.9v-3.7h-1.1v-0.9h1.1v-1.5l1.1-0.4v1.9h1.6v0.9h-1.6
		v3.5c0,0.4,0.1,0.7,0.2,0.9c0.1,0.2,0.4,0.3,0.7,0.3c0.3,0,0.5-0.1,0.7-0.2C82.9,414.6,82.9,415.5,82.9,415.5z"/>
	<path class="st2" d="M89.5,415.5h-1.1v-3.6c0-1.3-0.5-1.9-1.4-1.9c-0.5,0-0.9,0.2-1.2,0.6c-0.3,0.4-0.5,0.8-0.5,1.4v3.6h-1.1v-9.4
		h1.1v4.1l0,0c0.5-0.8,1.2-1.2,2.1-1.2c1.4,0,2.1,0.9,2.1,2.6V415.5z"/>
	<path class="st2" d="M96.6,415.5h-1.1v-1l0,0c-0.4,0.8-1.1,1.1-1.9,1.1c-1.5,0-2.2-0.9-2.2-2.7v-3.8h1.1v3.6c0,1.3,0.5,1.9,1.5,1.9
		c0.5,0,0.9-0.2,1.2-0.5c0.3-0.4,0.5-0.8,0.5-1.4v-3.6h1.1v6.4H96.6z"/>
	<path class="st2" d="M102,410.3c-0.2-0.1-0.4-0.2-0.8-0.2s-0.8,0.2-1.1,0.6c-0.3,0.4-0.4,0.9-0.4,1.6v3.2h-1.1v-6.3h1.1v1.3l0,0
		c0.3-0.9,0.9-1.4,1.7-1.4c0.3,0,0.5,0,0.6,0.1C102,409.2,102,410.3,102,410.3z"/>
	<path class="st2" d="M111.2,407.7h-3.4v3h3.2v1h-3.2v3.9h-1.1v-8.8h4.6v0.9H111.2z"/>
	<path class="st2" d="M118,415.5h-1.1v-1l0,0c-0.4,0.8-1.1,1.1-1.9,1.1c-1.5,0-2.2-0.9-2.2-2.7v-3.8h1.1v3.6c0,1.3,0.5,1.9,1.5,1.9
		c0.5,0,0.9-0.2,1.2-0.5c0.3-0.4,0.5-0.8,0.5-1.4v-3.6h1.1v6.4H118z"/>
	<path class="st2" d="M125.3,415.5h-1.1v-3.6c0-1.3-0.5-1.9-1.4-1.9c-0.5,0-0.9,0.2-1.2,0.5c-0.3,0.4-0.5,0.8-0.5,1.4v3.6H120v-6.3
		h1.1v1l0,0c0.5-0.8,1.2-1.2,2.1-1.2c0.7,0,1.2,0.2,1.6,0.7s0.5,1.1,0.5,1.9L125.3,415.5L125.3,415.5z"/>
	<path class="st2" d="M132.7,415.5h-1.1v-1.1l0,0c-0.5,0.8-1.2,1.2-2.1,1.2c-0.8,0-1.4-0.3-1.9-0.9s-0.7-1.3-0.7-2.3
		s0.3-1.9,0.8-2.5s1.2-0.9,2.1-0.9c0.9,0,1.5,0.3,1.9,1l0,0v-3.9h1.1v9.4H132.7z M131.6,411.8c0-0.5-0.2-0.9-0.5-1.3
		c-0.3-0.4-0.7-0.5-1.2-0.5c-0.6,0-1.1,0.2-1.4,0.7s-0.5,1-0.5,1.8c0,0.7,0.2,1.3,0.5,1.7s0.8,0.6,1.3,0.6s1-0.2,1.3-0.6
		s0.5-0.9,0.5-1.5L131.6,411.8L131.6,411.8z"/>
	<path class="st2" d="M142.9,415.5h-4.7v-8.8h1.1v7.8h3.5L142.9,415.5L142.9,415.5z"/>
	<path class="st2" d="M148.9,415.5h-4.7v-8.8h1.1v7.8h3.5L148.9,415.5L148.9,415.5z"/>
	<path class="st2" d="M151.4,412.2v3.3h-1.1v-8.8h2.5c1,0,1.7,0.2,2.2,0.7s0.8,1.1,0.8,2s-0.3,1.6-0.9,2.1c-0.6,0.5-1.4,0.8-2.3,0.8
		h-1.2V412.2z M151.4,407.7v3.5h1.1c0.7,0,1.2-0.2,1.6-0.5c0.4-0.3,0.5-0.8,0.5-1.4c0-1.1-0.7-1.7-2-1.7L151.4,407.7L151.4,407.7z"
		/>
	<path class="st2" d="M28.1,435.1c-1.3-1.5-1.9-3.3-1.9-5.4s0.6-4,1.9-5.5h1c-1.3,1.6-1.9,3.4-1.9,5.5s0.6,3.9,1.9,5.4H28.1z"/>
	<path class="st2" d="M34.4,423.4h0.9v1.1h5.3v0.8h-5.3v1.4h4.3v4.7h-0.9v-0.8h-7c-0.1,1.4-0.6,2.7-1.6,4c-0.2-0.3-0.4-0.5-0.7-0.8
		c0.6-0.8,1-1.6,1.2-2.4c0.2-0.7,0.3-1.7,0.3-2.9v-1.9h3.6L34.4,423.4L34.4,423.4z M31.7,427.6c0,0.6,0,1.4,0,2.3h7v-2.3H31.7z"/>
	<path class="st2" d="M41,432.9c0.9-0.7,1.8-1.6,2.6-2.8h-2.1v-0.7h2.2V428h0.8v1.4h1.9v0.7h-1.9v0.7l0.3-0.3c0.8,0.6,1.4,1,1.7,1.3
		l-0.5,0.6c-0.3-0.3-0.8-0.8-1.4-1.2v3.4h-0.8V431c-0.6,1-1.3,1.8-2.1,2.5C41.4,433.3,41.2,433.1,41,432.9z M41.7,424.8h4.6v-1.4
		h0.8v1.4h4.7v0.8h-4.3c1.4,1,3,1.6,4.8,1.9c-0.2,0.3-0.4,0.5-0.5,0.8c-1.9-0.5-3.5-1.3-4.8-2.4v2.6h-0.8V426
		c-1.5,1.1-3,1.9-4.8,2.4c-0.1-0.3-0.3-0.5-0.5-0.8c1.8-0.4,3.4-1.1,4.8-2h-4.2v-0.8H41.7z M52.5,432.7c-0.2,0.2-0.4,0.5-0.5,0.8
		c-1-0.6-1.8-1.5-2.5-2.6v3.8h-0.8v-3.8c-0.7,1.1-1.5,2-2.5,2.7c-0.2-0.2-0.4-0.4-0.6-0.6c1.2-0.7,2.2-1.7,3-2.9h-1.8v-0.7h1.9V428
		h0.8v1.4H52v0.7h-2.4C50.4,431.3,51.4,432.2,52.5,432.7z"/>
	<path class="st2" d="M52.7,427.5c1-1.2,1.9-2.6,2.5-4.2l0.8,0.3c-0.4,0.8-0.7,1.5-1.1,2.2v4.9h-0.8v-3.6c-0.3,0.5-0.7,0.9-1,1.2
		C53,428,52.9,427.8,52.7,427.5z M52.9,433.4H58v-1.3h-4.2v-0.7H58v-0.8h0.8v0.8H63v0.7h-4.2v1.3H64v0.7H52.9V433.4z M64.1,429.7
		c-0.2,0.3-0.4,0.5-0.5,0.8c-1.4-0.5-2.5-1.2-3.2-2.2l0,0v2.3h-0.8v-2.3h-0.1c-0.7,0.9-1.8,1.7-3.3,2.3c-0.2-0.3-0.4-0.5-0.6-0.7
		c1.2-0.4,2.2-0.9,3-1.6H56v-0.7h3.4v-1h-1.8v0.4h-0.8v-3.1h6v3.2H62v-0.4h-1.8v1h3.6v0.7H61C61.9,429.1,62.9,429.5,64.1,429.7z
		 M62.1,424.6h-4.4v1.4h4.4V424.6z"/>
	<path class="st2" d="M64.9,429.4h3.5c0-0.4,0.1-0.8,0.1-1.3h1c0,0.5-0.1,0.9-0.1,1.3H75c-0.1,1.1-0.1,1.9-0.2,2.6
		c-0.1,0.9-0.3,1.6-0.6,1.9c-0.3,0.4-0.9,0.5-1.7,0.5c-0.6,0-1.4,0-2.2-0.1c0-0.4-0.1-0.7-0.2-1c0.8,0.1,1.6,0.1,2.3,0.1
		c0.5,0,0.9-0.1,1.1-0.3c0.2-0.2,0.3-0.6,0.4-1.2c0-0.6,0.1-1.2,0.1-1.7h-4.7c-0.2,0.8-0.4,1.5-0.6,1.9c-0.6,1.1-1.8,1.9-3.5,2.5
		c-0.2-0.3-0.4-0.5-0.7-0.8c1.8-0.6,2.9-1.3,3.4-2.3c0.2-0.3,0.3-0.8,0.5-1.3H65v-0.8H64.9z M66,423.8h8.4v4.4h-0.9v-0.5h-6.6v0.5
		H66V423.8z M73.5,424.7h-6.6v2.2h6.6V424.7z"/>
	<path class="st2" d="M87.6,433.7c-0.2,0.2-0.4,0.5-0.6,0.9c-2.5-0.5-4.2-1.5-5.1-3.2c-0.7,1.7-2.4,2.8-5.1,3.3
		c-0.1-0.3-0.3-0.5-0.5-0.8c2.6-0.4,4.2-1.3,4.8-2.7h-4.5v-0.8h4.8c0.1-0.3,0.1-0.6,0.1-0.9h0.9c-0.1,0.3-0.1,0.6-0.2,0.9h5v0.8
		h-4.6C83.6,432.6,85.3,433.5,87.6,433.7z M76.6,426.3h4.8v-2.9h0.9v2.9h4.8v0.8h-4.8v0.7l0.3-0.4c2.1,0.8,3.7,1.5,4.8,1.9l-0.4,0.6
		c-1.3-0.7-2.8-1.3-4.7-2.1v1.2h-0.9v-1.9c-1.4,1.3-2.9,2.2-4.6,2.7c-0.2-0.2-0.3-0.5-0.6-0.8c1.7-0.5,3.2-1.2,4.4-2.1h-4
		C76.6,426.9,76.6,426.3,76.6,426.3z M77.7,424.3l0.6-0.6c0.8,0.6,1.5,1.1,2,1.6l-0.6,0.7C79.1,425.5,78.5,424.9,77.7,424.3z
		 M86.2,424.3c-0.5,0.4-1.2,0.9-2.1,1.6l-0.6-0.6c0.6-0.4,1.3-1,2.1-1.6L86.2,424.3z"/>
	<path class="st2" d="M87.9,429.5c0.5-0.1,1.1-0.3,1.7-0.5v-2.5H88v-0.8h1.5v-2.2h0.9v2.2h1.4v0.8h-1.4v2.3c0.4-0.1,0.8-0.3,1.2-0.4
		c0,0.2,0,0.5,0,0.9c-0.4,0.1-0.8,0.3-1.2,0.4v3.6c0,0.8-0.4,1.2-1.1,1.2h-1.1c0-0.3-0.1-0.6-0.1-1c0.4,0,0.8,0.1,1,0.1
		c0.3,0,0.5-0.2,0.5-0.5v-3.2c-0.5,0.2-1,0.4-1.6,0.5L87.9,429.5z M92.2,429.4v-0.8h5.9v0.8c-0.5,1.2-1.2,2.2-2.2,3
		c0.9,0.6,2.1,1,3.4,1.2c-0.2,0.3-0.4,0.6-0.6,0.9c-1.4-0.3-2.6-0.8-3.6-1.5c-1,0.7-2.3,1.3-3.7,1.6c-0.2-0.3-0.3-0.6-0.5-0.8
		c1.4-0.3,2.6-0.7,3.5-1.4c-0.8-0.8-1.4-1.8-1.8-3H92.2z M98,426.9h1.3c-0.1,0.3-0.1,0.6-0.2,0.8h-1.2c-0.9,0-1.3-0.4-1.3-1.3v-1.8
		H94v0.4c0,1.5-0.6,2.6-1.7,3.3c-0.2-0.3-0.4-0.5-0.6-0.7c1-0.5,1.5-1.4,1.5-2.6v-1.1h4.3v2.5C97.4,426.8,97.6,426.9,98,426.9z
		 M97.1,429.4h-3.6c0.3,1,0.9,1.9,1.6,2.5C96,431.3,96.7,430.4,97.1,429.4z"/>
	<path class="st2" d="M102.6,425.9c0.1,0.3,0.3,0.6,0.4,0.8c-0.9,0.7-1.9,1.4-2.8,2.2l-0.6-0.8C100.7,427.4,101.7,426.7,102.6,425.9
		z M105.7,430.2c0,0.8-0.1,1.5-0.2,1.9c1.7,0.6,3.4,1.2,5,1.8l-0.5,0.8c-1.4-0.6-3-1.2-4.8-1.8c-0.5,0.9-2.1,1.5-4.9,1.9
		c-0.1-0.3-0.3-0.6-0.5-0.9c2.5-0.2,4-0.7,4.6-1.4c0.3-0.4,0.4-1.1,0.4-2.2h0.9V430.2z M100.6,423.4c0.7,0.4,1.3,0.8,1.9,1.3
		l-0.6,0.7c-0.5-0.4-1.2-0.9-1.8-1.4L100.6,423.4z M101.3,428.9h7.9v3.7h-0.9v-2.9h-6.2v2.9h-0.9L101.3,428.9L101.3,428.9z
		 M102.8,428.1c2.3-0.6,3.5-1.6,3.7-3h-1.8c-0.3,0.6-0.6,1.1-0.9,1.5c-0.2-0.2-0.5-0.3-0.8-0.5c0.7-0.8,1.2-1.8,1.5-2.9l0.9,0.2
		c-0.1,0.3-0.2,0.7-0.4,0.9h5.4v0.7l-0.8,1.6c-0.3-0.1-0.5-0.2-0.8-0.4l0.6-1.2h-2c-0.1,0.2-0.1,0.5-0.2,0.7
		c0.7,1.1,1.9,1.8,3.7,2.3c-0.2,0.3-0.4,0.6-0.6,0.8c-1.6-0.5-2.8-1.3-3.5-2.3c-0.5,0.9-1.7,1.7-3.5,2.2
		C103.2,428.6,103,428.4,102.8,428.1z"/>
	<path class="st2" d="M122.7,431.8c-0.3,0.3-0.5,0.6-0.6,0.8c-0.7-0.3-1.3-0.7-1.9-1.2v0.6h-2.7v1.2h4.5v0.7h-9.8v-0.7h4.5V432h-2.8
		v-0.6c-0.6,0.5-1.2,0.9-1.9,1.3c-0.1-0.2-0.3-0.4-0.6-0.7c1.2-0.6,2.2-1.3,3-2.2h-2.9v-0.7h2.3v-3.8h-1.9v-0.7h1.9v-1.2h0.9v1.2
		h4.9v-1.2h0.9v1.2h1.9v0.7h-1.9v3.8h2.2v0.7h-3C120.4,430.7,121.4,431.4,122.7,431.8z M116.5,430.2h0.9v1.1h2.6
		c-0.5-0.4-1-0.9-1.5-1.5h-3.1c-0.5,0.5-1,1-1.5,1.5h2.7L116.5,430.2L116.5,430.2z M114.5,426.1h4.9v-0.8h-4.9V426.1z M114.5,427.6
		h4.9v-0.8h-4.9V427.6z M114.5,429.1h4.9v-0.8h-4.9V429.1z"/>
	<path class="st2" d="M123.4,433.3h4.8v-2.8h-4.1v-0.8h4.1v-1.6h-3v-0.8c-0.5,0.3-1.1,0.7-1.8,1c-0.2-0.3-0.4-0.6-0.6-0.9
		c2.5-1.2,4.3-2.6,5.4-4.1h1.2l-0.3,0.3c1.2,1.5,2.9,2.7,5.1,3.6c-0.2,0.3-0.4,0.6-0.6,0.9c-0.6-0.3-1.2-0.6-1.7-0.9v0.8h-3v1.6h4.1
		v0.8h-4.1v2.8h4.9v0.8h-10.6v-0.7H123.4z M124.6,431.3l0.7-0.5c0.6,0.6,1.1,1.2,1.6,1.8l-0.8,0.6
		C125.7,432.5,125.2,431.9,124.6,431.3z M128.7,424.4c-0.8,1-1.9,2-3.4,2.9h6.7C130.8,426.5,129.7,425.6,128.7,424.4z M130.3,432.6
		c0.6-0.6,1.1-1.3,1.6-1.9l0.8,0.5c-0.5,0.7-1.1,1.3-1.7,1.9L130.3,432.6z"/>
	<path class="st2" d="M138.1,426.6c-0.3-0.4-0.6-0.8-0.9-1.2l0.5-0.4h-1c-0.4,0.6-0.9,1-1.5,1.5c-0.2-0.2-0.3-0.4-0.6-0.6
		c0.9-0.7,1.6-1.6,2.2-2.6h1c-0.2,0.4-0.4,0.7-0.6,1.1h3.4v0.7h-2.7c0.3,0.3,0.7,0.7,1,1L138.1,426.6z M135.2,426.7h4.9
		c-0.1-0.2-0.3-0.5-0.5-0.8l0.8-0.3c0.3,0.4,0.5,0.7,0.7,1.1h4.5v1.8h-0.9v-1H136v1h-0.9L135.2,426.7L135.2,426.7z M136.4,428.3h7
		v2.8h-0.9v-0.3h-5.3v0.9h7.1v3h-0.9v-0.4h-6.2v0.4h-0.9L136.4,428.3L136.4,428.3z M142.6,429h-5.3v1.1h5.3V429z M143.6,432.3h-6.2
		v1.1h6.2V432.3z M143.4,426.6c-0.3-0.4-0.6-0.7-0.9-1.2l0.5-0.4h-1c-0.2,0.4-0.5,0.7-0.7,1c-0.2-0.2-0.4-0.4-0.7-0.6
		c0.5-0.6,1-1.3,1.3-2.2h1c-0.2,0.4-0.3,0.7-0.5,1.1h3.7v0.7h-2.9c0.3,0.3,0.7,0.7,0.9,1L143.4,426.6z"/>
	<path class="st2" d="M146.3,432.7c0.6-0.1,1.2-0.3,1.7-0.4v-3.5h-1.4V428h1.4v-2.9h-1.5v-0.8h3.9v0.8h-1.5v2.9h1.5v0.8h-1.5v3.2
		c0.5-0.1,1-0.3,1.5-0.4c0,0.3,0.1,0.6,0.1,0.9c-1.3,0.4-2.6,0.7-3.8,1.1L146.3,432.7z M149.9,433.4h3.6v-1.6h-2.9v-0.9h2.9v-1.5
		h-1.8v0.4h-0.8v-5.9h6.2v5.9h-0.8v-0.4h-1.8v1.5h2.9v0.8h-2.9v1.6h3.4v0.8h-7.8v-0.7H149.9z M151.7,426.3h1.8v-1.6h-1.8V426.3z
		 M151.7,428.7h1.8v-1.6h-1.8V428.7z M156.2,424.7h-1.8v1.6h1.8V424.7z M154.3,428.7h1.8v-1.6h-1.8V428.7z"/>
	<path class="st2" d="M158,428.8c1.7-1.4,3-3,3.8-4.9l0.9,0.4c-1,2.1-2.4,3.9-4,5.3C158.6,429.2,158.3,429,158,428.8z M165.5,430.2
		c1.1,1.4,2,2.7,2.8,3.9l-0.9,0.6c-0.2-0.4-0.4-0.7-0.7-1.1c-2.5,0.1-4.6,0.2-6.1,0.4c-0.3,0-0.6,0.1-1.1,0.2l-0.5-1
		c0.3-0.1,0.7-0.3,0.9-0.6c0.9-1,1.9-2.5,2.9-4.6l1,0.4c-0.9,1.6-2,3.1-3,4.5c1.6,0,3.4-0.1,5.3-0.2c-0.4-0.7-0.9-1.4-1.4-2.1
		L165.5,430.2z M164.5,424l0.8-0.3c0.7,2,2.1,3.6,4.1,4.7c-0.2,0.2-0.4,0.5-0.7,0.9C166.7,427.9,165.2,426.1,164.5,424z"/>
	<path class="st2" d="M169.9,426.2h8.7v0.8h-8.7V426.2z M170.6,424.8V424h9.9v8.9c0,1.1-0.5,1.6-1.5,1.6c-0.5,0-1.3,0-2.3,0
		c0-0.3-0.1-0.6-0.2-1c0.9,0.1,1.7,0.1,2.2,0.1s0.8-0.3,0.8-0.9v-7.8h-8.9V424.8z M171.1,428.4h6v4H172v0.8h-0.9V428.4z
		 M176.2,431.6v-2.4H172v2.4H176.2z"/>
	<path class="st2" d="M181.4,435.1c1.3-1.5,1.9-3.3,1.9-5.4s-0.6-3.9-1.9-5.5h1c1.3,1.5,1.9,3.3,1.9,5.5c0,2.2-0.6,3.9-1.9,5.4
		H181.4z"/>
</g>
<g>
	<path class="st2" d="M18.5,561.7c0-1.4,0.4-2.6,1.2-3.4s1.8-1.3,3.1-1.3c1.2,0,2.2,0.4,3,1.2s1.1,1.9,1.1,3.2
		c0,1.4-0.4,2.6-1.2,3.4c-0.2,0.2-0.4,0.4-0.6,0.5l2.5,1.8h-1.9l-1.7-1.2c-0.4,0.1-0.9,0.2-1.4,0.2c-1.3,0-2.3-0.4-3-1.2
		C18.8,564.1,18.5,563,18.5,561.7z M19.7,561.6c0,1.1,0.3,1.9,0.8,2.6c0.5,0.6,1.3,1,2.1,1c0.9,0,1.7-0.3,2.2-0.9
		c0.5-0.6,0.8-1.5,0.8-2.6c0-1.1-0.3-2-0.8-2.6c-0.5-0.6-1.3-0.9-2.2-0.9s-1.6,0.3-2.2,1C19.9,559.7,19.7,560.5,19.7,561.6z"/>
	<path class="st2" d="M27.3,565.4c0-0.2,0.1-0.4,0.2-0.5c0.1-0.1,0.3-0.2,0.5-0.2s0.4,0.1,0.5,0.2c0.1,0.1,0.2,0.3,0.2,0.5
		s-0.1,0.4-0.2,0.5c-0.1,0.1-0.3,0.2-0.5,0.2s-0.4-0.1-0.5-0.2C27.4,565.8,27.3,565.6,27.3,565.4z"/>
	<path class="st2" d="M41,566h-1.3l-0.9-2.4h-3.7l-0.9,2.4H33l3.4-8.8h1.2L41,566z M38.5,562.6l-1.3-3.7c0-0.1-0.1-0.3-0.1-0.6l0,0
		c0,0.3-0.1,0.5-0.1,0.6l-1.3,3.7H38.5z"/>
	<path class="st2" d="M45.5,560.8c-0.2-0.1-0.4-0.2-0.8-0.2s-0.8,0.2-1.1,0.6c-0.3,0.4-0.4,0.9-0.4,1.6v3.2h-1.1v-6.3h1.1v1.3l0,0
		c0.3-0.9,0.9-1.4,1.7-1.4c0.3,0,0.5,0,0.6,0.1C45.5,559.7,45.5,560.8,45.5,560.8z"/>
	<path class="st2" d="M50,565.9c-0.2,0.1-0.6,0.2-1,0.2c-1.1,0-1.7-0.6-1.7-1.9v-3.7h-1.1v-0.9h1.1v-1.5l1.1-0.4v1.9H50v0.9h-1.6
		v3.5c0,0.4,0.1,0.7,0.2,0.9s0.4,0.3,0.7,0.3c0.3,0,0.5-0.1,0.7-0.2C50,565,50,565.9,50,565.9z"/>
	<path class="st2" d="M56.7,566h-1.1v-3.6c0-1.3-0.5-1.9-1.4-1.9c-0.5,0-0.9,0.2-1.2,0.6c-0.3,0.4-0.5,0.8-0.5,1.4v3.6h-1.1v-9.4
		h1.1v4.1l0,0c0.5-0.8,1.2-1.2,2.1-1.2c1.4,0,2.1,0.9,2.1,2.6V566z"/>
	<path class="st2" d="M63.8,566h-1.1v-1l0,0c-0.4,0.8-1.1,1.1-1.9,1.1c-1.5,0-2.2-0.9-2.2-2.7v-3.8h1.1v3.6c0,1.3,0.5,1.9,1.5,1.9
		c0.5,0,0.9-0.2,1.2-0.5c0.3-0.4,0.5-0.8,0.5-1.4v-3.6H64v6.4H63.8z"/>
	<path class="st2" d="M69.1,560.8c-0.2-0.1-0.4-0.2-0.8-0.2s-0.8,0.2-1.1,0.6c-0.3,0.4-0.4,0.9-0.4,1.6v3.2h-1.1v-6.3h1.1v1.3l0,0
		c0.3-0.9,0.9-1.4,1.7-1.4c0.3,0,0.5,0,0.6,0.1C69.1,559.7,69.1,560.8,69.1,560.8z"/>
	<path class="st2" d="M78.5,566h-4.7v-8.8H75v7.8h3.5V566z"/>
	<path class="st2" d="M82.6,565.9c-0.2,0.1-0.6,0.2-1,0.2c-1.1,0-1.7-0.6-1.7-1.9v-3.7h-1.1v-0.9h1.1v-1.5l1.1-0.4v1.9h1.6v0.9H81
		v3.5c0,0.4,0.1,0.7,0.2,0.9s0.4,0.3,0.7,0.3c0.3,0,0.5-0.1,0.7-0.2C82.6,565,82.6,565.9,82.6,565.9z"/>
	<path class="st2" d="M89.2,566h-1.1v-1.1l0,0c-0.5,0.8-1.2,1.2-2.1,1.2c-0.8,0-1.4-0.3-1.9-0.9c-0.5-0.6-0.7-1.3-0.7-2.3
		s0.3-1.9,0.8-2.5c0.5-0.6,1.2-0.9,2.1-0.9s1.5,0.3,1.9,1l0,0v-3.9h1.1v9.4H89.2z M88.1,562.2c0-0.5-0.2-0.9-0.5-1.3
		c-0.3-0.3-0.7-0.5-1.2-0.5c-0.6,0-1.1,0.2-1.4,0.7c-0.3,0.4-0.5,1-0.5,1.8c0,0.7,0.2,1.3,0.5,1.7s0.8,0.6,1.3,0.6s1-0.2,1.3-0.6
		c0.3-0.4,0.5-0.9,0.5-1.5C88.1,563.1,88.1,562.2,88.1,562.2z"/>
	<path class="st2" d="M96.5,568c-1.3-1.5-1.9-3.3-1.9-5.4c0-2.1,0.6-4,1.9-5.5h1c-1.3,1.6-1.9,3.4-1.9,5.5c0,2.1,0.6,3.9,1.9,5.4
		H96.5z"/>
	<path class="st2" d="M97.8,563.1h1.4v-3h3.7c0-0.4,0-0.7,0-1.1h0.9c0,0.4,0,0.8,0,1.1h3.7v3h1.5v0.8h-5c0.9,1.5,2.6,2.4,5,2.6
		c-0.3,0.3-0.5,0.6-0.7,0.9c-2.6-0.5-4.2-1.6-5-3.2c-0.6,1.4-2.3,2.5-5.1,3.4c-0.2-0.3-0.4-0.5-0.7-0.8c2.7-0.7,4.3-1.6,5-2.8h-4.9
		v-0.9H97.8z M97.9,557.6h3v-1.3h0.9v1.3h3.3v-1.3h0.9v1.3h3v0.8h-3v1h-0.9v-1h-3.3v1h-0.9v-1h-3C97.9,558.4,97.9,557.6,97.9,557.6z
		 M103,560.9h-2.8v2.2h2.8C103,562.5,103,561.8,103,560.9z M103.8,563.1h2.8v-2.2h-2.8C103.9,561.8,103.9,562.5,103.8,563.1z"/>
	<path class="st2" d="M110.1,556.9h10v10.7h-0.9V567H111v0.6h-0.9V556.9z M119.2,557.7H111v8.5h8.2V557.7z M111.5,564.2h3.2v-2.3
		h-2.8v-0.8h2.8v-1.5h-3v-0.8h6.8v0.8h-3v1.5h2.8v0.8h-2.8v2.3h3.2v0.8h-7.2V564.2z M116.1,562.6l0.6-0.5c0.4,0.4,0.8,0.8,1.1,1.2
		l-0.7,0.5C116.8,563.4,116.4,563,116.1,562.6z"/>
	<path class="st2" d="M124.4,567.5h-0.9v-5.9c-0.6,0.6-1.2,1.3-1.8,1.9c-0.2-0.3-0.3-0.5-0.5-0.8c1.5-1.2,2.6-2.6,3.4-4.1h-3.1v-0.8
		h3.6c0.2-0.5,0.4-1,0.6-1.5l0.9,0.2c-0.2,0.4-0.3,0.8-0.5,1.2h6.5v0.8h-6.9c-0.2,0.4-0.5,0.9-0.8,1.3h6.3v6.1
		c0,0.9-0.5,1.4-1.4,1.4c-0.4,0-1,0-1.8,0c0-0.3-0.1-0.6-0.2-0.9c0.7,0.1,1.3,0.1,1.7,0.1c0.5,0,0.8-0.3,0.8-0.8v-0.8h-5.8v2.6
		H124.4z M130.1,560.6h-5.8v1.4h5.8V560.6z M124.4,564.1h5.8v-1.4h-5.8V564.1z"/>
	<path class="st2" d="M136.8,563.1c0.2,1.5-0.1,2.3-1.1,2.4c-0.3,0.1-0.7,0.1-1.2,0c-0.1-0.3-0.1-0.6-0.3-1c0.4,0.1,0.8,0.1,1.1,0.1
		c0.5-0.1,0.7-0.6,0.5-1.6c-0.1-0.6-0.5-1.3-1-2.1c0.3-0.8,0.6-1.9,1.1-3.3h-1.7v10h-0.9v-10.7h3.5v0.8c-0.4,1.1-0.7,2.1-1.1,3.2
		C136.4,561.7,136.7,562.4,136.8,563.1z M137.6,556.9h5.4v5.7h-0.8v-0.3h-1.9c0.2,0.7,0.6,1.3,1,1.9c0.7-0.4,1.4-1,2.2-1.6l0.6,0.7
		c-0.8,0.6-1.6,1.1-2.2,1.5c0.7,0.7,1.5,1.2,2.5,1.6c-0.3,0.3-0.5,0.6-0.7,0.8c-2.1-1.1-3.5-2.7-4.1-4.9h-1v3.9c0.5-0.2,1.2-0.6,2-1
		c0,0.4,0,0.7,0.1,0.9c-0.7,0.3-1.3,0.7-2,1.1c-0.2,0.1-0.4,0.2-0.6,0.5l-0.7-0.9c0.2-0.2,0.3-0.4,0.3-0.8v-9.1H137.6z M142.1,557.7
		h-3.7v1.5h3.7V557.7z M142.1,561.5V560h-3.7v1.5H142.1z"/>
	<path class="st2" d="M144.5,561.7c1.7-1.4,3-3,3.8-4.9l0.9,0.4c-1,2.1-2.4,3.9-4,5.3C145,562.2,144.8,561.9,144.5,561.7z
		 M151.9,563.1c1.1,1.4,2,2.7,2.8,3.9l-0.9,0.6c-0.2-0.4-0.4-0.7-0.7-1.1c-2.5,0.1-4.6,0.2-6.1,0.4c-0.3,0-0.6,0.1-1.1,0.2l-0.5-1
		c0.3-0.1,0.7-0.3,0.9-0.6c0.9-1,1.9-2.5,2.9-4.6l1,0.4c-0.9,1.6-2,3.1-3,4.5c1.6,0,3.4-0.1,5.3-0.2c-0.4-0.7-0.9-1.4-1.4-2.1
		L151.9,563.1z M151,557l0.8-0.3c0.7,2,2.1,3.6,4.1,4.7c-0.2,0.2-0.4,0.5-0.7,0.9C153.1,560.8,151.7,559,151,557z"/>
	<path class="st2" d="M156.4,559.1h8.7v0.8h-8.7V559.1z M157,557.7v-0.8h9.9v8.9c0,1.1-0.5,1.6-1.5,1.6c-0.5,0-1.3,0-2.3,0
		c0-0.3-0.1-0.6-0.2-1c0.9,0.1,1.7,0.1,2.2,0.1s0.8-0.3,0.8-0.9v-7.8H157V557.7z M157.5,561.3h6v4h-5.1v0.8h-0.9V561.3z
		 M162.6,564.5v-2.4h-4.2v2.4H162.6z"/>
	<path class="st2" d="M167.9,568c1.3-1.5,1.9-3.3,1.9-5.4c0-2.1-0.6-3.9-1.9-5.5h1c1.3,1.5,1.9,3.3,1.9,5.5c0,2.1-0.6,3.9-1.9,5.4
		H167.9z"/>
</g>
<g>
	<g>
		<polygon points="91.4,372.5 86.5,377.3 81.6,372.5 		"/>
	</g>
</g>
<g>
	<path d="M13,343v9h-0.6v-8.1c-0.3,0.3-0.6,0.5-1,0.7c-0.4,0.2-0.8,0.4-1.2,0.5v-0.5c0.3-0.1,0.5-0.2,0.7-0.3s0.4-0.2,0.6-0.4
		c0.2-0.2,0.4-0.3,0.6-0.4s0.4-0.3,0.6-0.5C12.7,343,13,343,13,343z"/>
	<path d="M15.6,352.1c-0.1,0-0.3,0-0.4-0.1c-0.1-0.1-0.1-0.2-0.1-0.4c0-0.1,0-0.3,0.1-0.4s0.2-0.1,0.4-0.1s0.3,0,0.4,0.1
		s0.1,0.2,0.1,0.4c0,0.1,0,0.3-0.1,0.4C15.9,352.1,15.8,352.1,15.6,352.1z"/>
	<path d="M17.4,347.1c0.9-0.6,1.9-1.3,2.8-2.1c0,0.1,0.1,0.3,0.3,0.6c-0.9,0.6-1.7,1.3-2.6,2.1L17.4,347.1z M22.6,349.3h0.6
		c0,0.4,0,0.8-0.1,1.2v0.1c0,0.1-0.1,0.2-0.1,0.3c1.5,0.6,3.1,1.2,4.9,1.9l-0.3,0.6c-1.8-0.8-3.4-1.5-4.8-2
		c-0.5,0.9-2.1,1.6-4.8,2.1c-0.1-0.2-0.2-0.4-0.3-0.6c3-0.4,4.6-1.2,4.9-2.4C22.6,350.1,22.6,349.7,22.6,349.3z M19.7,344.4
		c-0.6-0.5-1.2-0.9-1.8-1.4l0.4-0.4c0.5,0.4,1.2,0.8,1.8,1.3L19.7,344.4z M19.1,348h7.6v3.3h-0.6v-2.8h-6.4v2.8h-0.6V348z
		 M20.9,347.6c-0.1-0.2-0.2-0.4-0.4-0.6c2.3-0.5,3.5-1.5,3.7-3.1h-1.8c-0.3,0.5-0.7,1-1.2,1.6c-0.2-0.2-0.3-0.3-0.5-0.4
		c0.8-0.8,1.4-1.7,1.8-2.8l0.6,0.2c-0.1,0.3-0.3,0.6-0.4,0.9h5.2v0.6l-0.7,1.4c-0.2-0.1-0.4-0.2-0.6-0.2l0.6-1.2h-2.4
		c0,0.1,0,0.2-0.1,0.3c0.6,1.5,1.7,2.4,3.5,2.8c-0.1,0.2-0.2,0.4-0.3,0.6c-1.8-0.5-3-1.4-3.4-2.6C24.2,346.1,23,347,20.9,347.6z"/>
	<path d="M30.2,347h5.5c0.5-0.7,0.9-1.4,1.4-2.2l0.6,0.3c-0.4,0.6-0.8,1.2-1.3,1.9h3.3v0.6h-8.9v0.9c0.1,2-0.4,3.7-1.3,4.9
		c-0.2-0.2-0.4-0.3-0.5-0.4c0.5-0.6,0.8-1.2,1-1.8c0.2-0.7,0.3-1.5,0.3-2.6V347H30.2z M34.2,342.6l0.6-0.2c0.2,0.5,0.3,0.9,0.5,1.3
		H40v0.6H29.3v-0.6h5.4C34.6,343.5,34.4,343.2,34.2,342.6C34.3,342.7,34.2,342.6,34.2,342.6z M31.8,345.1l0.5-0.3
		c0.3,0.4,0.8,1,1.3,1.7l-0.6,0.4C32.7,346.2,32.2,345.7,31.8,345.1z"/>
	<path d="M45.7,342.4h0.7c0,1.2-0.1,2.2-0.2,3.1h4.9c0,1.8-0.1,3.6-0.2,5.4c0,1.6-0.7,2.3-2.2,2.3c-0.7,0-1.3,0-2,0
		c0-0.3-0.1-0.5-0.2-0.8c0.4,0,1.1,0,2.1,0c0.6,0,1-0.1,1.2-0.3c0.2-0.2,0.4-0.6,0.4-1.2c0.1-1.4,0.2-3,0.2-4.8h-4.3
		c-0.2,3.2-1.8,5.7-4.6,7.4c-0.1-0.2-0.3-0.4-0.5-0.5c2.8-1.7,4.3-4,4.5-6.9h-4.3v-0.6h4.4C45.7,344.6,45.7,343.6,45.7,342.4z
		 M42.1,343.1l0.5-0.4c0.5,0.4,1.1,1,1.7,1.6l-0.5,0.5C43.2,344.2,42.7,343.6,42.1,343.1z M46.6,348.3l0.5-0.4
		c0.7,0.7,1.3,1.3,1.8,1.8l-0.5,0.5C48,349.7,47.4,349,46.6,348.3z"/>
	<path d="M52.5,348.2h2.3v-4h-1.9v-0.5h1.9v-1.2h0.6v1.2h5.1v-1.2h0.6v1.2H63v0.5h-1.9v4h2.3v0.5h-3.5c0.8,0.9,2,1.6,3.6,2.2
		c-0.1,0.1-0.2,0.2-0.3,0.4c0,0.1-0.1,0.1-0.1,0.1c-1.8-0.8-3.1-1.7-3.9-2.7h-2.5c-0.9,1.1-2.1,2.1-3.8,2.9
		c-0.1-0.2-0.2-0.3-0.4-0.5c1.5-0.6,2.6-1.4,3.5-2.3h-3.4L52.5,348.2L52.5,348.2z M57.7,349.3h0.6v1.1h2.6v0.5h-2.6v1.4h4.5v0.5
		h-9.6v-0.5h4.5v-1.4H55v-0.5h2.7V349.3z M55.4,344.2v1h5.1v-1H55.4z M55.4,345.7v1h5.1v-1H55.4z M55.4,347.2v1h5.1v-1H55.4z"/>
	<path d="M74.8,346.6c-2.2-0.8-3.9-1.9-5.1-3.4c-1.3,1.4-3,2.6-5.1,3.5c-0.1-0.1-0.2-0.3-0.4-0.5c2.5-1.1,4.4-2.4,5.5-3.8l0.7,0.1
		l-0.1,0.1c-0.1,0.1-0.1,0.1-0.1,0.2c1.3,1.5,3,2.5,5.1,3.2C75,346.2,74.9,346.4,74.8,346.6z M66.1,346.2h7v0.6H70v1.9h4.1v0.6H70
		v3.2h4.9v0.6H64.5v-0.6h4.8v-3.2h-4.1v-0.6h4.1v-1.9H66L66.1,346.2L66.1,346.2z M65.8,350.2l0.5-0.4c0.5,0.5,1.1,1.1,1.5,1.6
		l-0.5,0.4C66.9,351.3,66.4,350.8,65.8,350.2z M71.8,351.8l-0.5-0.4c0.5-0.5,1.1-1,1.6-1.6l0.5,0.4
		C72.9,350.8,72.4,351.3,71.8,351.8z"/>
	<path d="M77,347h5.5c0.5-0.7,0.9-1.4,1.4-2.2l0.6,0.3c-0.4,0.6-0.8,1.2-1.3,1.9h3.3v0.6h-8.9v0.9c0.1,2-0.4,3.7-1.3,4.9
		c-0.2-0.2-0.4-0.3-0.5-0.4c0.5-0.6,0.8-1.2,1-1.8c0.2-0.7,0.3-1.5,0.3-2.6L77,347L77,347z M81,342.6l0.6-0.2
		c0.2,0.5,0.3,0.9,0.5,1.3h4.7v0.6H76.1v-0.6h5.4C81.4,343.5,81.2,343.2,81,342.6C81.1,342.7,81,342.6,81,342.6z M78.6,345.1
		l0.5-0.3c0.3,0.4,0.8,1,1.3,1.7l-0.6,0.4C79.5,346.2,79,345.7,78.6,345.1z"/>
	<path d="M90,343l0.6,0.2c-0.2,0.6-0.5,1.2-0.8,1.7h3v-2.5h0.7v2.5h4.4v0.6h-4.4v2.9h4.1v0.6h-4.1v3.2h5v0.6h-11v-0.6h5.4V349h-4.1
		v-0.6h4.1v-2.9h-3.3c-0.4,0.8-1,1.6-1.6,2.3c-0.1-0.2-0.3-0.3-0.5-0.5C88.6,346.1,89.4,344.7,90,343z"/>
	<path d="M99.4,347.2h1.5V344h-1.7v-0.5h4v0.5h-1.7v3.2h1.5v0.5h-1.5v3.2c0.7-0.1,1.3-0.2,1.7-0.3c0,0.2,0,0.4,0,0.6
		c-1.6,0.2-3,0.5-4,0.6l-0.1-0.6c0.1,0,0.4-0.1,0.9-0.1c0.4-0.1,0.7-0.1,0.9-0.1v-3.3h-1.5C99.4,347.7,99.4,347.2,99.4,347.2z
		 M106.2,344.6h0.6c0,0.9,0,1.5,0,2c-0.1,1.9-0.4,3.3-0.9,4.1c-0.5,0.9-1.5,1.8-3.2,2.7c-0.2-0.2-0.4-0.4-0.5-0.5
		c2.6-1.2,4-3.1,4-5.7c0-0.1,0-0.2,0-0.4C106.2,346.1,106.2,345.4,106.2,344.6z M103.7,343h5.7v6.6h-0.6v-6.1h-4.4v6.1h-0.6
		L103.7,343L103.7,343z M106.6,349h0.6v2.7c0,0.3,0.1,0.5,0.2,0.7c0.1,0.1,0.3,0.2,0.7,0.2h0.6c0.6,0,0.9-0.2,1-0.7
		c0.1-0.3,0.1-0.8,0.1-1.4c0.2,0.1,0.4,0.2,0.6,0.2c0,0.5-0.1,0.9-0.1,1.3c-0.1,0.8-0.6,1.2-1.6,1.1H108c-0.9,0-1.3-0.4-1.3-1.4
		L106.6,349L106.6,349z"/>
	<path d="M121.6,346.6c-2.2-0.8-3.9-1.9-5.1-3.4c-1.3,1.4-3,2.6-5.1,3.5c-0.1-0.1-0.2-0.3-0.4-0.5c2.5-1.1,4.4-2.4,5.5-3.8l0.7,0.1
		l-0.1,0.1c-0.1,0.1-0.1,0.1-0.1,0.2c1.3,1.5,3,2.5,5.1,3.2C121.8,346.2,121.7,346.4,121.6,346.6z M112.9,346.2h7v0.6h-3.1v1.9h4.1
		v0.6h-4.1v3.2h4.9v0.6h-10.3v-0.6h4.8v-3.2H112v-0.6h4.1v-1.9h-3.3L112.9,346.2L112.9,346.2z M112.6,350.2l0.5-0.4
		c0.5,0.5,1.1,1.1,1.5,1.6l-0.5,0.4C113.7,351.3,113.2,350.8,112.6,350.2z M118.6,351.8l-0.5-0.4c0.5-0.5,1.1-1,1.6-1.6l0.5,0.4
		C119.7,350.8,119.2,351.3,118.6,351.8z"/>
	<path d="M124.3,347.5c-0.5-0.4-1.1-0.9-1.7-1.5l0.4-0.4c0.7,0.5,1.3,1,1.8,1.4L124.3,347.5z M122.9,353.1c0.4-1.1,0.8-2.5,1.3-4.2
		c0.2,0.1,0.4,0.2,0.6,0.3c-0.5,1.7-0.9,3-1.2,4.2L122.9,353.1z M124.7,344.6c-0.5-0.5-1.1-1-1.7-1.5l0.4-0.4
		c0.5,0.4,1.1,0.9,1.8,1.5L124.7,344.6z M126.7,348.4h0.6c0,1.5-0.1,2.6-0.4,3.2c-0.3,0.7-0.8,1.3-1.6,1.9c-0.1-0.2-0.3-0.3-0.5-0.5
		c0.8-0.5,1.2-1.1,1.5-1.7S126.7,349.7,126.7,348.4z M132.7,348.1c-0.1-0.1-0.1-0.2-0.2-0.3c-0.2-0.2-0.3-0.3-0.4-0.4
		c-1.2,0-2.7,0.1-4.5,0.1c-0.3,0-0.5,0-0.6,0c-0.4,0-0.7,0-0.9,0.1l-0.3-0.6c0.2-0.1,0.5-0.3,0.7-0.5c0.6-0.5,1.3-1.2,2-2.1h-2.9
		v-0.5h3.8c-0.2-0.5-0.5-0.9-0.7-1.3l0.6-0.3c0.2,0.4,0.5,0.9,0.7,1.3l-0.4,0.2h3.7v0.6h-4.5l0.4,0.2c-0.8,0.8-1.5,1.6-2.3,2.3
		c1.4,0,3-0.1,4.7-0.1c-0.4-0.4-0.7-0.8-1.1-1.2l0.5-0.4c0.8,0.8,1.5,1.6,2.3,2.4L132.7,348.1z M128.9,348.4h0.6v4.9h-0.6V348.4z
		 M131,348.3h0.6v3.7c0,0.4,0.2,0.6,0.6,0.6h0.3c0.3,0,0.5-0.2,0.5-0.6c0.1-0.4,0.1-0.8,0.1-1.4c0.2,0.1,0.4,0.1,0.6,0.2
		c0,0.6-0.1,1.1-0.2,1.4c-0.1,0.6-0.4,0.9-1,0.9H132c-0.7,0-1.1-0.3-1.1-1L131,348.3L131,348.3z"/>
	<path d="M134.5,345.9h2.1v-2c-0.8,0.1-1.5,0.1-1.9,0.1c0-0.2-0.1-0.4-0.2-0.6c1.6-0.1,3.1-0.2,4.4-0.4l0.2,0.6c-0.1,0-0.3,0-0.5,0
		c-0.6,0.1-1.1,0.1-1.4,0.1v2.1h2.1v0.6h-2.1v1.6l0.3-0.3c0.4,0.3,0.9,0.8,1.6,1.5c0.1,0,0.1,0.1,0.1,0.1l-0.5,0.5
		c-0.6-0.7-1.2-1.2-1.6-1.6v5.1h-0.6v-5.8c-0.5,1.3-1.1,2.5-2,3.6c-0.1-0.2-0.2-0.5-0.3-0.7c1-1.2,1.7-2.5,2.3-4.1h-2.1L134.5,345.9
		L134.5,345.9z M140.1,343.8h4.8v9.3h-0.6V352h-3.5v1.1h-0.6L140.1,343.8L140.1,343.8z M140.7,344.4v7h3.5v-7H140.7z"/>
	<path d="M146.8,343h3.2v9.1c0,0.8-0.3,1.2-1.1,1.2c-0.1,0-0.3,0-0.4,0c-0.1,0-0.1,0-0.2,0c-0.1,0-0.1,0-0.3,0
		c0-0.2-0.1-0.4-0.1-0.6c0.2,0,0.5,0,0.8,0s0.5,0,0.5-0.1c0.1-0.1,0.1-0.3,0.1-0.5v-2.7h-2c0,0.1,0,0.2,0,0.4c0,1.5-0.3,2.8-0.9,3.7
		c-0.2-0.1-0.3-0.3-0.5-0.4c0.4-0.6,0.6-1.1,0.7-1.6c0.1-0.5,0.2-1.3,0.2-2.3V343z M147.4,343.5v2.4h2v-2.4H147.4z M147.4,346.5v2.4
		h2v-2.4H147.4z M150.9,348.3v-0.6h5.2v0.6c-0.6,1.3-1.3,2.3-2,3c0.7,0.5,1.7,1,3,1.4c-0.1,0.2-0.3,0.4-0.4,0.6
		c-1.4-0.5-2.4-1-3.1-1.6c-0.7,0.6-1.8,1.1-3.1,1.7c-0.1-0.2-0.2-0.3-0.4-0.6c1.4-0.6,2.4-1.1,3-1.6c-0.7-0.7-1.3-1.7-1.7-3h-0.5
		V348.3z M156.3,346.3c0.2,0,0.4,0,0.5,0s0.2,0,0.3,0c0,0.2-0.1,0.4-0.1,0.6c-0.1,0-0.2,0-0.4,0c-0.1,0-0.1,0-0.2,0
		c-0.1,0-0.2,0-0.3,0c-0.8,0-1.2-0.4-1.2-1.3v-2h-2.4v0.4c0,0.9-0.1,1.6-0.3,2c-0.2,0.4-0.7,0.9-1.4,1.3c-0.1-0.1-0.2-0.3-0.4-0.4
		c0.7-0.4,1.1-0.8,1.3-1.1c0.2-0.4,0.3-0.9,0.3-1.8v-0.9h3.7v2.4c0,0.3,0.1,0.5,0.2,0.6C155.8,346.3,156,346.3,156.3,346.3z
		 M155.4,348.3H152c0.4,1.2,1,2,1.6,2.6C154.3,350.3,154.9,349.5,155.4,348.3z"/>
	<path d="M158.7,350.2l0.6,0.2c-0.4,0.9-0.7,1.7-1,2.3l-0.6-0.3C158,351.8,158.4,351,158.7,350.2z M159.2,343.6h2.8
		c0.1-0.4,0.2-0.8,0.3-1.2l0.6,0.1v0.1c-0.1,0.4-0.2,0.7-0.3,1h4.5v5.6h-7.9L159.2,343.6L159.2,343.6z M159.8,344.1v1.2h6.7v-1.2
		H159.8z M159.8,345.8v1.2h6.7v-1.2H159.8z M159.8,347.5v1.2h6.7v-1.2H159.8z M160.4,350.1h0.6v1.6c0,0.4,0.1,0.6,0.2,0.7
		c0.1,0.1,0.4,0.2,0.8,0.2h2.4c0.7,0,1.1-0.2,1.1-0.7c0.1-0.3,0.1-0.6,0.2-1.2c0.3,0.1,0.5,0.2,0.6,0.2c-0.1,0.5-0.2,0.8-0.2,1.1
		c-0.2,0.8-0.7,1.1-1.7,1.1h-2.6c-1.1,0-1.6-0.4-1.5-1.5L160.4,350.1L160.4,350.1z M162.5,350l0.4-0.4c0.5,0.4,0.9,0.9,1.4,1.4
		l-0.5,0.4C163.3,350.8,162.8,350.4,162.5,350z M166.9,350.4l0.5-0.3c0.5,0.5,1,1.1,1.5,1.7l-0.5,0.4
		C167.9,351.5,167.4,350.9,166.9,350.4z"/>
</g>
<g>
	<rect x="86" y="313" width="1" height="26.7"/>
</g>
<g>
	<rect x="86" y="359.2" width="1" height="14"/>
</g>
<g>
	<g>
		<polygon points="92.4,519.2 87.5,524.1 82.6,519.2 		"/>
	</g>
</g>
<g>
	<g>
		<polygon points="406.1,561.7 411,566.6 406.1,571.5 		"/>
	</g>
</g>
<g>
	<path d="M-4.6,497.8v-0.4c0-0.3,0-0.5,0.1-0.7c0-0.2,0.1-0.4,0.2-0.6s0.2-0.4,0.3-0.5c0.1-0.2,0.3-0.3,0.5-0.5
		c0.2-0.2,0.4-0.3,0.6-0.5c0.2-0.2,0.5-0.4,0.8-0.6c0.3-0.2,0.5-0.4,0.7-0.6c0.2-0.2,0.4-0.4,0.6-0.6c0.2-0.2,0.3-0.5,0.4-0.7
		c0.1-0.2,0.2-0.6,0.2-0.9c0-0.6-0.2-1-0.5-1.4s-0.8-0.5-1.4-0.5c-0.4,0-0.8,0.1-1.1,0.3c-0.4,0.2-0.7,0.4-1.1,0.7v-0.7
		c0.3-0.3,0.7-0.5,1.1-0.6s0.8-0.2,1.2-0.2c0.4,0,0.7,0.1,1,0.2c0.3,0.1,0.5,0.3,0.7,0.5c0.2,0.2,0.4,0.4,0.5,0.7
		c0.1,0.3,0.2,0.6,0.2,0.9c0,0.4-0.1,0.8-0.2,1.1c-0.1,0.3-0.3,0.6-0.5,0.9s-0.4,0.5-0.7,0.7c-0.3,0.2-0.6,0.4-0.9,0.6
		c-0.4,0.3-0.7,0.5-1,0.8c-0.3,0.2-0.5,0.4-0.7,0.6c-0.2,0.2-0.3,0.4-0.4,0.6c-0.1,0.2-0.1,0.5-0.1,0.8v0.1h4.4v0.5H-4.6L-4.6,497.8
		z"/>
	<path d="M2.7,497.9c-0.1,0-0.3,0-0.4-0.1s-0.1-0.2-0.1-0.4c0-0.1,0-0.3,0.1-0.4c0.1-0.1,0.2-0.1,0.4-0.1c0.1,0,0.3,0,0.4,0.1
		s0.1,0.2,0.1,0.4c0,0.1,0,0.3-0.1,0.4C3,497.9,2.9,497.9,2.7,497.9z"/>
	<path d="M4.5,493.9h2.3v-4H4.9v-0.5h1.9v-1.2h0.6v1.2h5.1v-1.2h0.6v1.2H15v0.5h-1.9v4h2.3v0.5h-3.5c0.8,0.9,2,1.6,3.6,2.2
		c-0.1,0.1-0.2,0.2-0.3,0.4c0,0.1-0.1,0.1-0.1,0.1c-1.8-0.8-3.1-1.7-3.9-2.7H8.7c-0.9,1.1-2.1,2.1-3.8,2.9c-0.1-0.2-0.2-0.3-0.4-0.5
		c1.5-0.6,2.6-1.4,3.5-2.3H4.6v-0.6H4.5z M9.7,495.1h0.6v1.1h2.6v0.5h-2.6v1.4h4.5v0.5H5.2v-0.5h4.5v-1.4H7v-0.5h2.7V495.1z
		 M7.4,489.9v1h5.1v-1H7.4z M7.4,491.4v1h5.1v-1H7.4z M7.4,493v1h5.1v-1H7.4z"/>
	<path d="M26.8,492.3c-2.2-0.8-3.9-1.9-5.1-3.4c-1.3,1.4-3,2.6-5.1,3.5c-0.1-0.1-0.2-0.3-0.4-0.5c2.5-1.1,4.4-2.4,5.5-3.8l0.7,0.1
		l-0.1,0.1c-0.1,0.1-0.1,0.1-0.1,0.2c1.3,1.5,3,2.5,5.1,3.2C27,492,26.9,492.2,26.8,492.3z M18.1,491.9h7v0.6H22v1.9h4.1v0.6H22v3.2
		h4.9v0.6H16.5v-0.6h4.8v-3.3h-4.1v-0.6h4.1v-1.9H18L18.1,491.9L18.1,491.9z M17.8,495.9l0.5-0.4c0.5,0.5,1.1,1.1,1.5,1.6l-0.5,0.4
		C18.9,497.1,18.4,496.5,17.8,495.9z M23.8,497.6l-0.5-0.4c0.5-0.5,1.1-1,1.6-1.6l0.5,0.4C24.9,496.5,24.4,497.1,23.8,497.6z"/>
	<path d="M28.3,491.9c-0.1-0.2-0.3-0.4-0.4-0.5c1.1-1,2-2,2.6-3.3l0.7,0.1c-0.1,0.2-0.2,0.4-0.4,0.7c-0.1,0.1-0.1,0.2-0.1,0.2h8.1
		v0.6h-8.4C29.7,490.5,29,491.2,28.3,491.9z M28.9,497.4l0.5-2.9h-1.6v-0.6h1.7L30,491h7.3c0,0.3,0,0.8-0.1,1.4c0,0.6,0,1.1-0.1,1.4
		h1.7v0.6h-1.7c0,0.3,0,0.8-0.1,1.4c0,0.4,0,0.8-0.1,1h1.4v0.6H37c-0.1,1.2-0.7,1.7-1.8,1.7c-0.3,0-0.5,0-0.7,0c-0.1,0-0.2,0-0.3,0
		s-0.3,0-0.5,0c0-0.2-0.1-0.4-0.1-0.7c0.4,0,0.9,0,1.5,0c0,0,0.1,0,0.2,0c0.7,0,1.1-0.4,1.2-1.1h-7.6V497.4z M36.4,496.8
		c0-0.1,0-0.3,0-0.6c0-0.7,0.1-1.3,0.1-1.7H30l-0.4,2.3H36.4z M30.6,491.6l-0.4,2.3h6.4c0-0.3,0-0.8,0.1-1.4c0-0.4,0-0.7,0-0.9
		L30.6,491.6L30.6,491.6z M32.3,495.3l0.4-0.4c0.6,0.4,1.1,0.8,1.5,1.1l-0.4,0.4C33.3,496,32.8,495.6,32.3,495.3z M32.4,492.4
		l0.4-0.4c0.5,0.4,1,0.7,1.5,1.1l-0.4,0.4C33.4,493.1,32.9,492.8,32.4,492.4z"/>
	<path d="M50.2,493.8c-2.1-0.6-3.8-1.5-4.9-2.5v1.8h-0.6v-1.8c-1.2,1.1-2.8,2-4.8,2.7c-0.1-0.2-0.2-0.4-0.4-0.5
		c2-0.6,3.5-1.3,4.6-2.1h-4.4v-0.5h5.1v-1.4c-1.7,0.1-3,0.1-4.1,0.1c0-0.2-0.1-0.4-0.1-0.6c3,0,5.9-0.1,8.8-0.3l0.1,0.6
		c-0.9,0-2.3,0.1-4.1,0.1v1.4h5v0.5h-4.3c1.1,0.8,2.6,1.5,4.5,2C50.5,493.4,50.3,493.6,50.2,493.8z M44.9,495.4l2.2-1.1h-5.2v-0.6
		H48v0.6l-2.5,1.3v0.3h5.1v0.6h-5.1v1.1c0.1,0.9-0.4,1.4-1.4,1.4c-0.2,0-0.5,0-0.7,0c-0.1,0-0.3,0-0.4,0c-0.1,0-0.3,0-0.5,0
		c0-0.2-0.1-0.5-0.1-0.7c0.2,0,0.4,0,0.7,0c0.1,0,0.2,0,0.4,0c0.1,0,0.3,0,0.6,0c0.3,0,0.6-0.1,0.7-0.2c0.1-0.1,0.2-0.3,0.2-0.7
		v-1.1h-5.3v-0.6H45L44.9,495.4L44.9,495.4z"/>
	<path d="M56.9,488.3l0.6-0.1c0.1,0.5,0.2,0.9,0.3,1.3h4.3v0.6H53v3.3c0,1.5-0.1,2.6-0.3,3.4c-0.2,0.8-0.5,1.6-1,2.5
		c-0.1-0.2-0.3-0.3-0.5-0.4c0.5-0.8,0.8-1.6,1-2.3c0.1-0.6,0.2-1.7,0.2-3.3v-3.8h4.8c0-0.2-0.1-0.4-0.2-0.8
		C57,488.5,56.9,488.4,56.9,488.3z M61.9,499.1c-1.8-0.3-3.2-0.7-4.3-1.3c-1,0.5-2.4,1-4.3,1.4c-0.1-0.2-0.2-0.4-0.3-0.6
		c1.5-0.3,2.9-0.7,4-1.1c-0.9-0.5-1.6-1.2-2.3-2.1h-0.8v-0.5h6.9v0.6c-0.8,0.9-1.7,1.6-2.5,2.1c1,0.4,2.3,0.8,4,1
		C62.1,498.7,62,498.9,61.9,499.1z M59.3,490.4h0.6v1H62v0.5h-2.1v1.8h-4.7v-1.8h-1.7v-0.5h1.7v-1h0.6v1h3.5V490.4z M60,495.4h-4.6
		c0.7,0.8,1.4,1.4,2.2,1.8C58.4,496.7,59.2,496.1,60,495.4z M55.8,492v1.2h3.5V492H55.8z"/>
	<path d="M64.4,499.1h-0.6v-9.2h3.4c0.2-0.6,0.3-1.1,0.4-1.7l0.6,0.1c-0.1,0.4-0.3,1-0.5,1.6h5.4v7.8c0,0.9-0.4,1.3-1.3,1.3
		c-0.5,0-1,0-1.5,0c0-0.2-0.1-0.4-0.1-0.7c0.5,0,1,0,1.4,0c0.6,0,0.9-0.2,0.9-0.8v-7.1h-8.2L64.4,499.1L64.4,499.1z M66.2,492.4h4.5
		v4h-4.5V492.4z M66.8,493v2.9H70V493H66.8z"/>
	<path d="M82.6,497.9c-1.2,0-2.2-0.4-3-1.2c-0.7-0.8-1.1-1.9-1.1-3.2c0-1.4,0.4-2.5,1.1-3.4s1.8-1.3,3.1-1.3c1.2,0,2.2,0.4,2.9,1.2
		c0.7,0.8,1.1,1.9,1.1,3.2c0,1.5-0.4,2.6-1.1,3.5c-0.2,0.3-0.5,0.5-0.8,0.7l2.1,1.6h-1l-1.7-1.3C83.7,497.8,83.2,497.9,82.6,497.9z
		 M82.6,489.3c-1,0-1.9,0.4-2.5,1.1s-1,1.7-1,2.9c0,1.2,0.3,2.2,0.9,2.9c0.6,0.7,1.5,1.1,2.5,1.1c1.1,0,2-0.4,2.6-1.1s1-1.7,1-3
		c0-1.2-0.3-2.2-0.9-2.9C84.5,489.7,83.7,489.3,82.6,489.3z"/>
	<path d="M87.9,497.9c-0.1,0-0.3,0-0.4-0.1s-0.1-0.2-0.1-0.4c0-0.1,0-0.3,0.1-0.4c0.1-0.1,0.2-0.1,0.4-0.1c0.1,0,0.3,0,0.4,0.1
		s0.1,0.2,0.1,0.4c0,0.1,0,0.3-0.1,0.4C88.2,497.8,88,497.9,87.9,497.9z"/>
	<path d="M99.7,497.8l-1-2.8h-3.8l-1,2.8h-0.7l3.3-8.8h0.6l3.3,8.8H99.7z M97,490.4c0-0.1-0.1-0.2-0.1-0.4c0-0.1-0.1-0.2-0.1-0.3
		l0,0c-0.1,0.3-0.1,0.5-0.2,0.7l-1.5,4.1h3.4L97,490.4z"/>
	<path d="M106.4,497.8l-1.2-2.6c-0.2-0.5-0.5-0.9-0.7-1.1s-0.5-0.3-0.9-0.3h-1.1v3.9h-0.6v-8.8h2.5c0.8,0,1.4,0.2,1.8,0.6
		c0.4,0.4,0.7,1,0.7,1.7c0,0.6-0.2,1.2-0.5,1.6c-0.3,0.4-0.9,0.7-1.5,0.8l0,0c0.4,0.1,0.7,0.6,1,1.3l1.3,2.8L106.4,497.8
		L106.4,497.8z M102.5,489.5v3.8h1.5c0.7,0,1.2-0.2,1.6-0.5c0.4-0.4,0.6-0.8,0.6-1.5c0-0.6-0.2-1-0.5-1.3c-0.4-0.3-0.9-0.5-1.5-0.5
		H102.5z"/>
	<path d="M111.3,489.5v8.3h-0.6v-8.3h-2.6v-0.6h5.7v0.6H111.3z"/>
	<path d="M121,497.8v-4.2h-5.1v4.2h-0.6v-8.9h0.6v4.1h5.1v-4.1h0.6v8.8H121V497.8z"/>
	<path d="M129.9,494.2c0,2.5-1,3.7-3.1,3.7c-2,0-3-1.2-3-3.6v-5.4h0.6v5.4c0,2.1,0.8,3.1,2.5,3.1c1.6,0,2.4-1,2.4-3v-5.5h0.6V494.2z
		"/>
	<path d="M136.6,497.8l-1.2-2.6c-0.2-0.5-0.5-0.9-0.7-1.1s-0.5-0.3-0.9-0.3h-1.1v3.9h-0.6v-8.8h2.5c0.8,0,1.4,0.2,1.8,0.6
		c0.4,0.4,0.7,1,0.7,1.7c0,0.6-0.2,1.2-0.5,1.6c-0.4,0.4-0.9,0.7-1.5,0.8l0,0c0.4,0.1,0.7,0.6,1,1.3l1.3,2.8L136.6,497.8
		L136.6,497.8z M132.7,489.5v3.8h1.5c0.7,0,1.2-0.2,1.6-0.5c0.4-0.4,0.6-0.8,0.6-1.5c0-0.6-0.2-1-0.5-1.3c-0.4-0.3-0.9-0.5-1.5-0.5
		H132.7z"/>
	<path d="M142.6,497.8v-8.9h0.6v8.3h3.5v0.6H142.6L142.6,497.8z"/>
	<path d="M149.7,489.5v8.3h-0.6v-8.3h-2.6v-0.6h5.7v0.6H149.7z"/>
	<path d="M153.7,497.8v-8.9h2.2c1.5,0,2.6,0.4,3.4,1.1c0.8,0.7,1.1,1.8,1.1,3.2c0,1.3-0.4,2.4-1.2,3.3c-0.8,0.8-2,1.3-3.4,1.3H153.7
		L153.7,497.8z M154.3,489.5v7.7h1.4c1.3,0,2.3-0.3,3-1c0.7-0.7,1.1-1.7,1.1-2.9c0-2.5-1.3-3.8-4-3.8H154.3z"/>
	<path d="M165.3,493.3c-0.1-0.2-0.3-0.4-0.5-0.5c1.7-1.1,3.1-2.6,4.1-4.4l0.6,0.3C168.4,490.6,167,492.1,165.3,493.3z M166.3,493.2
		h7.4c0,1.4-0.1,2.6-0.2,3.7c0,1.3-0.7,2-2,2c-0.3,0-0.5,0-0.8,0c-0.1,0-0.3,0-0.4,0c-0.1,0-0.3,0-0.5,0c0-0.2-0.1-0.4-0.1-0.7
		c0.5,0,1.1,0,1.8,0c0.9,0.1,1.4-0.4,1.4-1.4c0.1-1,0.1-2,0.1-3h-3.9c0,2.6-1.2,4.4-3.5,5.4c-0.1-0.2-0.2-0.4-0.4-0.5
		c2.2-0.9,3.3-2.5,3.3-4.9h-2.2L166.3,493.2L166.3,493.2z M171.3,488.4l0.6-0.2c0.8,2,2.1,3.5,4,4.5c-0.2,0.2-0.4,0.4-0.5,0.6
		C173.5,492.1,172.2,490.5,171.3,488.4z"/>
	<path d="M177.9,495c1-0.1,1.9-0.2,2.7-0.3c0,0.1,0,0.3-0.1,0.6c-1.7,0.2-2.8,0.3-3.3,0.4l-0.3-0.6c0.2-0.2,0.5-0.4,0.8-0.8
		s0.7-0.9,1.2-1.6c-0.9,0-1.7,0.1-2.1,0.1l-0.2-0.6c0.2-0.2,0.5-0.5,0.7-0.8c0.7-1.1,1.3-2.1,1.8-3.1l0.7,0.2
		c-0.8,1.4-1.5,2.6-2.3,3.7c0.1,0,0.2,0,0.5,0c0.7,0,1.2,0,1.4,0c0.3-0.5,0.6-1,1-1.6l0.6,0.3C179.8,492.5,178.8,494,177.9,495z
		 M176.8,498.2l-0.2-0.6c1.2-0.2,2.6-0.4,4.1-0.7c0,0.1,0,0.2,0,0.3s0,0.2,0,0.3C179.2,497.7,177.9,497.9,176.8,498.2z M181,489.3
		h6.2v0.6h-2.8v8h3.2v0.6h-7.2v-0.6h3.4v-8H181V489.3z"/>
</g>
<g>
	<rect x="87" y="454.8" width="1" height="26.7"/>
</g>
<g>
	<rect x="87" y="505.9" width="1" height="14"/>
</g>
<g>
	<path d="M248.7,556.7c-1,0-1.8-0.3-2.4-1s-0.9-1.6-0.9-2.7c0-1.2,0.3-2.1,0.9-2.8c0.6-0.7,1.5-1.1,2.5-1.1s1.7,0.3,2.3,1
		s0.9,1.6,0.9,2.7c0,1.2-0.3,2.2-0.9,2.9c-0.2,0.2-0.4,0.4-0.6,0.5l1.7,1.4h-0.8l-1.3-1.1C249.7,556.7,249.2,556.7,248.7,556.7z
		 M248.8,549.6c-0.8,0-1.5,0.3-2,0.9c-0.5,0.6-0.8,1.4-0.8,2.4s0.3,1.8,0.8,2.4c0.5,0.6,1.2,0.9,2,0.9c0.9,0,1.6-0.3,2.1-0.9
		c0.5-0.6,0.8-1.4,0.8-2.5c0-1-0.3-1.9-0.8-2.4C250.3,549.9,249.6,549.6,248.8,549.6z"/>
	<path d="M253,556.7c-0.1,0-0.2,0-0.3-0.1c-0.1-0.1-0.1-0.2-0.1-0.3s0-0.2,0.1-0.3s0.2-0.1,0.3-0.1c0.1,0,0.2,0,0.3,0.1
		c0.1,0.1,0.1,0.2,0.1,0.3c0,0.1,0,0.2-0.1,0.3C253.3,556.7,253.2,556.7,253,556.7z"/>
	<path d="M262.5,556.6l-0.8-2.3h-3.1l-0.8,2.3h-0.5l2.7-7.4h0.5l2.7,7.4H262.5z M260.3,550.4c0-0.1-0.1-0.2-0.1-0.3
		c0-0.1,0-0.2-0.1-0.3l0,0c-0.1,0.2-0.1,0.4-0.2,0.6l-1.2,3.4h2.7L260.3,550.4z"/>
	<path d="M267.9,556.6l-0.9-2.2c-0.2-0.4-0.4-0.7-0.6-0.9s-0.4-0.2-0.7-0.2h-0.9v3.3h-0.5v-7.4h2c0.6,0,1.1,0.2,1.5,0.5
		c0.4,0.4,0.5,0.8,0.5,1.4c0,0.5-0.1,1-0.4,1.3c-0.3,0.4-0.7,0.6-1.2,0.7l0,0c0.3,0.1,0.6,0.5,0.8,1.1l1.1,2.4L267.9,556.6
		L267.9,556.6z M264.8,549.7v3.2h1.2c0.5,0,1-0.1,1.3-0.4s0.5-0.7,0.5-1.2s-0.1-0.8-0.4-1.1s-0.7-0.4-1.2-0.4L264.8,549.7
		L264.8,549.7z"/>
	<path d="M271.9,549.7v6.9h-0.5v-6.9h-2.1v-0.5h4.6v0.5H271.9z"/>
	<path d="M279.7,556.6v-3.5h-4.1v3.5h-0.5v-7.4h0.5v3.4h4.1v-3.4h0.5v7.4H279.7z"/>
	<path d="M286.9,553.7c0,2-0.8,3.1-2.5,3.1c-1.6,0-2.4-1-2.4-3v-4.5h0.5v4.5c0,1.7,0.7,2.6,2,2.6s1.9-0.8,1.9-2.5v-4.5h0.5V553.7z"
		/>
	<path d="M292.2,556.6l-0.9-2.2c-0.2-0.4-0.4-0.7-0.6-0.9s-0.4-0.2-0.7-0.2h-0.9v3.3h-0.5v-7.4h2c0.6,0,1.1,0.2,1.5,0.5
		c0.4,0.4,0.5,0.8,0.5,1.4c0,0.5-0.1,1-0.4,1.3c-0.3,0.4-0.7,0.6-1.2,0.7l0,0c0.3,0.1,0.6,0.5,0.8,1.1l1.1,2.4L292.2,556.6
		L292.2,556.6z M289.1,549.7v3.2h1.2c0.5,0,1-0.1,1.3-0.4s0.5-0.7,0.5-1.2s-0.1-0.8-0.4-1.1s-0.7-0.4-1.2-0.4L289.1,549.7
		L289.1,549.7z"/>
	<path d="M297,556.6v-7.4h0.5v6.9h2.9v0.5H297z"/>
	<path d="M302.8,549.7v6.9h-0.5v-6.9h-2.1v-0.5h4.6v0.5H302.8z"/>
	<path d="M306,556.6v-7.4h1.8c1.2,0,2.1,0.3,2.7,0.9c0.6,0.6,0.9,1.5,0.9,2.7c0,1.1-0.3,2-1,2.7s-1.6,1.1-2.7,1.1H306L306,556.6z
		 M306.5,549.7v6.4h1.1c1.1,0,1.9-0.3,2.4-0.9c0.6-0.6,0.9-1.4,0.9-2.5c0-2.1-1.1-3.1-3.2-3.1h-1.2V549.7z"/>
	<path d="M315.3,553.7c-0.1-0.2-0.2-0.4-0.2-0.5c0.9-1.3,1.5-2.8,2-4.5l0.5,0.1c-0.2,0.8-0.5,1.5-0.8,2.3v6.7h-0.5v-5.7
		C315.9,552.6,315.6,553.1,315.3,553.7z M317.6,549.9h2.9v-1.3h0.5v1.3h3v0.5h-3v1.1h2.5v2.8H323v-0.4h-2.1c-0.1,1-0.3,1.7-0.7,2.2
		c0.7,0.5,1.9,0.8,3.6,1c-0.1,0.2-0.2,0.4-0.2,0.5c-1.7-0.2-3-0.6-3.7-1.1c-0.4,0.4-1.2,0.8-2.4,1.3c-0.1-0.2-0.2-0.3-0.3-0.5
		c1.1-0.4,1.8-0.8,2.3-1.1c-0.4-0.4-0.8-0.8-1.2-1.5l0.4-0.3c0.4,0.6,0.8,1.1,1.1,1.4c0.3-0.4,0.5-1,0.6-1.9H318v-2.4h2.5v-1.1h-2.9
		L317.6,549.9L317.6,549.9z M320.4,553.5c0-0.3,0-0.7,0-1.1V552h-2v1.5H320.4z M320.9,552.4c0,0.4,0,0.8,0,1.1h2V552h-2V552.4z"/>
	<path d="M329.4,557.7h-0.5v-3H326c-0.1,1.1-0.4,2.2-1.1,3.2c-0.1-0.1-0.3-0.2-0.5-0.4c0.5-0.7,0.8-1.4,0.9-2
		c0.2-0.6,0.2-1.6,0.2-2.9v-3.4h7.3v7.3c0,0.8-0.4,1.2-1.2,1.2c-0.2,0-0.3,0-0.5,0c-0.1,0-0.2,0-0.3,0c-0.1,0-0.2,0-0.3,0
		c0-0.2,0-0.4-0.1-0.6c0.3,0,0.7,0,1.1,0c0.5,0,0.8-0.2,0.7-0.7v-1.9h-2.9L329.4,557.7L329.4,557.7z M326,552.6c0,0.5,0,1,0,1.6h2.9
		v-2H326V552.6z M326,549.7v2h2.8v-2H326z M332.3,549.7h-2.9v2h2.9V549.7z M329.4,552.1v2h2.9v-2H329.4z"/>
	<path d="M336.2,548.6h0.5v9.1h-0.5v-3.1c-0.5,0.3-0.9,0.5-1.3,0.8c-0.2,0.1-0.3,0.2-0.4,0.4l-0.4-0.5c0.1-0.1,0.2-0.2,0.2-0.4
		c0-0.1,0.1-0.3,0.1-0.5v-4.6h0.5v5c0.2-0.1,0.6-0.4,1.4-0.8v-5.4H336.2z M337.3,553.1c-0.1-0.1-0.2-0.3-0.4-0.4
		c1-1.2,1.7-2.6,2.1-4l0.5,0.1c-0.2,0.6-0.5,1.2-0.7,1.8h3.8v0.5h-1c-0.3,2.1-0.8,3.6-1.5,4.5c0.6,0.7,1.4,1.2,2.6,1.7
		c-0.1,0.2-0.3,0.3-0.3,0.5c-1.2-0.6-2.1-1.2-2.7-1.8c-0.5,0.6-1.3,1.2-2.4,1.9c-0.1-0.2-0.2-0.3-0.3-0.4c1.1-0.7,1.9-1.3,2.4-1.9
		c-0.6-0.8-1.1-2-1.3-3.6C337.8,552.3,337.5,552.7,337.3,553.1z M339.7,555.1c0.7-0.9,1.1-2.3,1.4-4.1h-2.6v0.1c0,0.1,0,0.1-0.1,0.1
		C338.7,552.9,339.1,554.2,339.7,555.1z"/>
	<path d="M345.7,552.9h0.5v1.2h2.1v0.5h-2.1v2c0.6-0.1,1.4-0.2,2.3-0.3c0,0.2,0,0.4,0,0.5c-1.3,0.2-3,0.4-5.1,0.7l-0.1-0.5
		c0.7-0.1,1.5-0.2,2.4-0.3v-2h-2.2v-0.5h2.2L345.7,552.9L345.7,552.9z M348,552.9c0-0.1-0.1-0.2-0.2-0.3c-0.1-0.1-0.1-0.2-0.2-0.3
		c-0.9,0-1.9,0.1-2.8,0.2c-0.4,0-0.7,0.1-1,0.1l-0.3-0.5c0.2-0.1,0.4-0.3,0.5-0.4c0.5-0.7,1-1.4,1.3-2h-1.9v-0.5h5.1v0.5h-2.6
		c-0.5,0.8-1,1.6-1.5,2.3c0.8,0,1.8-0.1,3-0.2c-0.2-0.4-0.5-0.7-0.7-1.2l0.4-0.2c0.3,0.5,0.7,1.1,1.3,2.1c0,0.1,0.1,0.1,0.1,0.1
		L348,552.9z M349.2,549.6h0.5v5.9h-0.5V549.6z M351.2,548.7h0.5v7.8c0,0.7-0.3,1.1-1,1.1c-0.2,0-0.6,0-1.2,0c0-0.3-0.1-0.5-0.1-0.6
		c0.2,0,0.6,0,1.2,0c0.4,0,0.6-0.2,0.6-0.6V548.7z"/>
	<path d="M353.1,550.2h1c0.2-0.6,0.3-1.1,0.4-1.6l0.5,0.1c0,0.1-0.1,0.3-0.2,0.6c-0.1,0.4-0.2,0.7-0.3,0.8h1.9v7.4h-0.5v-0.8h-2.3
		v0.8h-0.5V550.2z M353.6,550.7v2.6h2.3v-2.6H353.6z M353.6,553.7v2.6h2.3v-2.6H353.6z M357.2,552.3c-0.1-0.1-0.2-0.2-0.4-0.3
		c0.6-0.9,1-2.1,1.4-3.4l0.5,0.1c-0.2,0.5-0.3,1-0.5,1.4h3c0,2.2-0.1,4.2-0.2,5.8c0,1.1-0.5,1.6-1.6,1.6c-0.2,0-0.4,0-0.6,0
		c-0.1,0-0.2,0-0.4,0c-0.1,0-0.3,0-0.5,0c0-0.2-0.1-0.4-0.1-0.5c0.5,0,1,0,1.5,0c0.8,0,1.2-0.3,1.2-1.2c0.1-1,0.1-2.8,0.2-5.3H358
		C357.7,551.3,357.5,551.8,357.2,552.3z M357.6,552.7l0.4-0.3c0.4,0.5,0.9,1.2,1.5,2l-0.4,0.3C358.6,554,358.1,553.3,357.6,552.7z"
		/>
	<path d="M362.8,549.1h2.6v7.6c0,0.7-0.3,1-0.9,1c-0.1,0-0.2,0-0.3,0c0,0-0.1,0-0.2,0c0,0-0.1,0-0.2,0c0-0.2,0-0.3-0.1-0.5
		c0.2,0,0.4,0,0.7,0c0.2,0,0.4,0,0.4-0.1c0.1-0.1,0.1-0.2,0.1-0.4v-2.2h-1.6c0,0.1,0,0.2,0,0.3c0,1.3-0.3,2.3-0.8,3.1
		c-0.1-0.1-0.3-0.2-0.4-0.3c0.3-0.5,0.5-0.9,0.6-1.3c0.1-0.4,0.1-1,0.1-1.9L362.8,549.1L362.8,549.1z M363.2,549.5v2h1.6v-2H363.2z
		 M363.2,552v2h1.6v-2H363.2z M366,553.5V553h4.2v0.5c-0.5,1.1-1,1.9-1.6,2.5c0.5,0.4,1.3,0.8,2.4,1.1c-0.1,0.2-0.2,0.3-0.3,0.5
		c-1.1-0.4-1.9-0.8-2.5-1.3c-0.6,0.5-1.4,1-2.5,1.5c-0.1-0.1-0.2-0.3-0.3-0.5c1.1-0.5,1.9-0.9,2.4-1.3c-0.6-0.6-1-1.4-1.4-2.5
		L366,553.5L366,553.5z M370.4,551.8c0.2,0,0.3,0,0.4,0s0.2,0,0.3,0c0,0.2-0.1,0.3-0.1,0.5c-0.1,0-0.2,0-0.3,0c-0.1,0-0.1,0-0.2,0
		s-0.1,0-0.3,0c-0.6,0-1-0.3-0.9-1.1v-1.6h-2v0.3c0,0.8-0.1,1.3-0.3,1.7c-0.2,0.4-0.5,0.7-1.1,1.1c-0.1-0.1-0.2-0.2-0.3-0.4
		c0.5-0.3,0.9-0.6,1-0.9c0.2-0.3,0.2-0.8,0.2-1.5v-0.8h2.9v2c0,0.3,0,0.4,0.1,0.5C370,551.8,370.1,551.8,370.4,551.8z M369.7,553.5
		H367c0.4,1,0.8,1.7,1.3,2.2C368.8,555.2,369.3,554.5,369.7,553.5z"/>
	<path d="M372.3,555l0.5,0.2c-0.3,0.8-0.6,1.4-0.8,1.9l-0.5-0.2C371.8,556.4,372,555.7,372.3,555z M372.7,549.5h2.3
		c0.1-0.4,0.2-0.7,0.3-1l0.5,0.1v0.1c-0.1,0.3-0.2,0.6-0.2,0.8h3.7v4.7h-6.4v-4.7H372.7z M373.2,550v1h5.4v-1H373.2z M373.2,551.4v1
		h5.4v-1H373.2z M373.2,552.8v1h5.4v-1H373.2z M373.7,555h0.5v1.3c0,0.3,0.1,0.5,0.2,0.6c0.1,0.1,0.3,0.2,0.7,0.2h1.9
		c0.5,0,0.8-0.2,0.9-0.6c0.1-0.2,0.1-0.5,0.2-1c0.2,0.1,0.4,0.2,0.5,0.2c-0.1,0.4-0.1,0.7-0.2,0.9c-0.1,0.6-0.6,1-1.3,0.9H375
		c-0.8,0-1.3-0.4-1.2-1.2V555H373.7z M375.3,554.9l0.3-0.3c0.4,0.4,0.7,0.8,1.1,1.1l-0.4,0.3C376,555.6,375.6,555.2,375.3,554.9z
		 M378.9,555.2l0.4-0.3c0.4,0.4,0.8,0.9,1.2,1.4l-0.4,0.3C379.7,556.2,379.3,555.7,378.9,555.2z"/>
	<path d="M248.7,564.2l0.5,0.1c-0.2,0.4-0.3,0.9-0.5,1.3h5.3v0.5h-5.5c-0.4,0.8-0.8,1.6-1.3,2.2v5.1h-0.5v-4.5
		c-0.4,0.4-0.8,0.8-1.2,1.2c-0.1-0.1-0.2-0.3-0.3-0.4c1.3-1.1,2.2-2.4,2.8-3.7h-2.4v-0.5h2.6C248.3,565.2,248.5,564.8,248.7,564.2z
		 M250.5,566.8h0.5v1.9h2.4v0.5H251v3h3v0.5h-6.4v-0.5h2.9v-3h-2.4v-0.5h2.4V566.8z"/>
	<path d="M255,569.1c-0.1-0.1-0.3-0.3-0.4-0.4c1.4-1,2.4-2.4,3.1-4l0.5,0.2C257.4,566.6,256.3,568,255,569.1z M262.4,573.4
		c-0.2-0.3-0.4-0.6-0.7-0.9c-2.1,0.1-3.8,0.1-5.2,0.2c-0.4,0-0.7,0.1-0.9,0.1l-0.3-0.6c0.2-0.1,0.5-0.3,0.7-0.5
		c0.9-1,1.7-2.3,2.5-3.7l0.5,0.3c-0.8,1.3-1.7,2.6-2.7,3.8c0.1,0,0.3,0,0.6,0c1.7-0.1,3.2-0.1,4.4-0.2c-0.4-0.5-0.9-1.1-1.5-1.9
		l0.4-0.3c0.8,1,1.7,2.1,2.6,3.2L262.4,573.4z M259.9,564.7l0.5-0.2c0.6,1.7,1.6,3,3.1,3.9c-0.2,0.2-0.3,0.4-0.4,0.5
		C261.5,567.8,260.5,566.4,259.9,564.7z"/>
	<path d="M264.5,564.9h8v0.5h-1.9v3h2.3v0.5h-2.3v4.4h-0.5v-4.4H267c0,0.1,0,0.2,0,0.4c0,1.9-0.8,3.3-2.4,4.1
		c-0.1-0.2-0.2-0.3-0.4-0.5c0.9-0.5,1.5-1,1.8-1.6c0.3-0.5,0.5-1.3,0.5-2.4h-2.4v-0.5h2.4v-3h-2V564.9z M267,565.4v3h3.1v-3H267z"/>
	<path d="M273.5,565.7h4.4c-0.2-0.4-0.4-0.8-0.7-1.2l0.5-0.2c0.3,0.4,0.5,0.8,0.7,1.3l-0.4,0.2h4.3v0.5h-4.1v1.5h3.3v3.4
		c0,0.8-0.4,1.2-1.1,1.2c-0.4,0-0.8,0-1.1,0c0-0.2-0.1-0.4-0.1-0.6c0.4,0,0.8,0,1.1,0c0.3,0,0.5-0.1,0.6-0.2
		c0.1-0.1,0.2-0.3,0.2-0.6v-2.8h-2.8v5.2h-0.5v-5.2H275v4.2h-0.5v-4.7h3.3v-1.5h-4.1v-0.5H273.5z"/>
	<path d="M283,571.7l-0.2-0.5c0.1,0,0.3-0.1,0.5-0.2c0.4-0.2,0.7-0.3,0.8-0.4v-3.5h-1.2v-0.5h1.2v-2.4h0.5v2.4h1.1v0.5h-1.1v3.2
		c0.1,0,0.2-0.1,0.4-0.2c0.3-0.1,0.5-0.2,0.6-0.3c0,0.2,0,0.3,0.1,0.5C284.8,570.8,283.9,571.3,283,571.7z M284.8,572.1
		c1.4-0.9,2.2-2.2,2.6-3.7H286v-0.6l4-2.5h-3.8v-0.5h4.6v0.5l-4.1,2.6h4.6c-0.1,1.7-0.1,2.9-0.2,3.7c0,1.1-0.5,1.6-1.4,1.6
		c-0.2,0-0.6,0-1,0c0-0.2-0.1-0.4-0.1-0.5c0.1,0,0.3,0,0.4,0s0.1,0,0.2,0s0.2,0,0.4,0c0.3,0,0.6-0.1,0.7-0.2
		c0.1-0.1,0.2-0.4,0.2-0.8c0.1-1,0.1-2.1,0.1-3.3h-1.2c-0.3,2.3-1.2,4-2.6,5.1c-0.1-0.1-0.3-0.2-0.4-0.4c1.3-0.9,2.2-2.5,2.5-4.7
		h-1.3c-0.4,1.8-1.3,3.2-2.6,4.1C285.1,572.4,285,572.2,284.8,572.1z"/>
	<path d="M296,564.4h0.5v2.9h3.8v0.5h-3.8v4.5h4.5v0.5h-8.8v-0.5h3.7L296,564.4L296,564.4z"/>
	<path d="M305.1,572.9c-0.5-0.7-1.1-1.3-1.5-1.8c-0.2,0.8-0.7,1.5-1.6,2.3c-0.1-0.1-0.1-0.2-0.3-0.3l-0.1-0.1
		c0.7-0.6,1.2-1.2,1.4-1.8c0.2-0.6,0.4-1.4,0.4-2.6v-2.3h0.5v2.3c0,0.8,0,1.4-0.1,2c0.5,0.5,1.1,1.2,1.8,2L305.1,572.9z
		 M302.1,564.8h2.9v5.7h-0.5v-5.2h-2v5.3H302v-5.8H302.1z M305.7,567.7c-0.1-0.1-0.3-0.2-0.5-0.3c0.6-1,1-2.1,1.4-3.2l0.5,0.1
		c-0.2,0.6-0.4,1-0.5,1.3h3.5c0,2.1,0,4.1-0.1,6c0,1-0.5,1.4-1.5,1.5c-0.5,0-1,0-1.5,0c0-0.2-0.1-0.4-0.1-0.5c0.6,0,1.1,0,1.5,0
		c0.8,0,1.2-0.3,1.2-1.1c0.1-1.7,0.1-3.5,0.1-5.5h-3.2C306.3,566.5,306.1,567,305.7,567.7z M306.2,570.5c0.6,0,1.3-0.1,2-0.1
		c-0.1-0.3-0.3-0.7-0.6-1.2c-0.1-0.1-0.1-0.2-0.1-0.3l0.4-0.2c0.4,0.8,0.8,1.6,1.2,2.5l-0.4,0.2c0-0.1-0.1-0.1-0.1-0.2
		c-0.1-0.1-0.1-0.2-0.1-0.3c-0.9,0.1-1.6,0.1-2.1,0.2c-0.2,0-0.4,0.1-0.6,0.1l-0.2-0.4c0.2-0.1,0.3-0.3,0.4-0.5
		c0.4-0.9,0.8-1.9,1.1-3l0.5,0.1C307.1,568.4,306.6,569.5,306.2,570.5z"/>
	<path d="M311.8,573.4c-0.1-0.2-0.2-0.4-0.3-0.5c2.6-0.7,4-1.6,4.3-2.6h-4.6v-0.5h4.7c0.2-0.8,0.3-2.1,0.3-3.9h0.5
		c0,1.7-0.1,3-0.3,3.9h3.5v0.5h-3.6c0,0.1-0.1,0.3-0.2,0.4c1.6,0.9,2.8,1.6,3.6,2l-0.3,0.5c-1.3-0.8-2.5-1.5-3.5-2.1
		C315.3,572,313.9,572.8,311.8,573.4z M311.5,565.3v-0.5h8v0.5l-0.9,2c-0.2-0.1-0.3-0.2-0.5-0.2l0.9-1.8H311.5z M312,567.8l0.3-0.4
		c0.7,0.4,1.3,0.9,2,1.3l-0.3,0.4C313.3,568.7,312.6,568.2,312,567.8z M313,566.3l0.3-0.4c0.7,0.4,1.3,0.8,1.9,1.3l-0.3,0.4
		C314.2,567.2,313.6,566.7,313,566.3z"/>
	<path d="M326.9,572.3c-1,0-1.8-0.3-2.4-1s-0.9-1.6-0.9-2.7c0-1.2,0.3-2.1,0.9-2.8s1.5-1.1,2.5-1.1s1.7,0.3,2.3,1
		c0.6,0.7,0.9,1.6,0.9,2.7c0,1.2-0.3,2.2-0.9,2.9c-0.2,0.2-0.4,0.4-0.6,0.5l1.7,1.4h-0.8l-1.3-1.1
		C327.8,572.3,327.4,572.3,326.9,572.3z M326.9,565.2c-0.8,0-1.5,0.3-2,0.9c-0.5,0.6-0.8,1.4-0.8,2.4s0.3,1.8,0.8,2.4
		c0.5,0.6,1.2,0.9,2,0.9c0.9,0,1.6-0.3,2.1-0.9c0.5-0.6,0.8-1.4,0.8-2.5c0-1-0.3-1.9-0.8-2.4S327.8,565.2,326.9,565.2z"/>
	<path d="M331.2,572.3c-0.1,0-0.2,0-0.3-0.1c-0.1-0.1-0.1-0.2-0.1-0.3c0-0.1,0-0.2,0.1-0.3c0.1-0.1,0.2-0.1,0.3-0.1
		c0.1,0,0.2,0,0.3,0.1c0.1,0.1,0.1,0.2,0.1,0.3s0,0.2-0.1,0.3S331.3,572.3,331.2,572.3z"/>
	<path d="M335.2,565.3v6.9h-0.5v-6.9h-2.1v-0.5h4.6v0.5H335.2z"/>
	<path d="M338.8,572.3c-0.7,0-1.3-0.3-1.8-0.8c-0.4-0.5-0.6-1.2-0.6-2c0-0.9,0.2-1.6,0.7-2.1s1-0.7,1.8-0.7c0.7,0,1.3,0.2,1.7,0.7
		c0.4,0.5,0.6,1.2,0.6,2s-0.2,1.5-0.6,2C340.1,572.1,339.5,572.3,338.8,572.3z M338.8,567.2c-0.6,0-1.1,0.2-1.4,0.6
		c-0.4,0.4-0.5,1-0.5,1.7s0.2,1.2,0.5,1.7c0.3,0.4,0.8,0.6,1.4,0.6s1.1-0.2,1.4-0.6c0.3-0.4,0.5-1,0.5-1.7s-0.2-1.3-0.5-1.7
		C339.9,567.4,339.4,567.2,338.8,567.2z"/>
	<path d="M345.3,572.2l-2.4-2.6l0,0v2.6h-0.5v-7.8h0.5v5l0,0l2.3-2.5h0.6l-2.4,2.6l2.6,2.7H345.3L345.3,572.2z"/>
	<path d="M347.1,569.6c0,0.7,0.2,1.3,0.5,1.7c0.3,0.4,0.8,0.6,1.3,0.6c0.6,0,1.1-0.2,1.7-0.7v0.5c-0.5,0.4-1.1,0.6-1.8,0.6
		c-0.7,0-1.2-0.2-1.6-0.7s-0.6-1.2-0.6-2.1c0-0.8,0.2-1.4,0.6-1.9s1-0.8,1.6-0.8s1.1,0.2,1.5,0.7c0.3,0.5,0.5,1.1,0.5,1.9v0.2H347.1
		L347.1,569.6z M350.3,569.2c0-0.6-0.2-1.1-0.4-1.4c-0.3-0.3-0.6-0.5-1.1-0.5s-0.9,0.2-1.2,0.5c-0.3,0.3-0.5,0.8-0.6,1.4H350.3z"/>
	<path d="M355.5,572.2v-3.1c0-1.3-0.4-1.9-1.3-1.9c-0.5,0-0.9,0.2-1.2,0.6c-0.3,0.4-0.5,0.8-0.5,1.4v3H352v-5.3h0.5v1l0,0
		c0.4-0.7,1-1.1,1.7-1.1c0.5,0,1,0.2,1.3,0.6c0.3,0.4,0.4,0.9,0.4,1.6v3.2H355.5L355.5,572.2z"/>
	<path d="M249.9,589.5c-1-1.2-1.5-2.7-1.5-4.5c0-1.9,0.5-3.4,1.5-4.6h0.5c-1,1.2-1.6,2.8-1.6,4.6c0,1.7,0.5,3.2,1.5,4.5H249.9z"/>
	<path d="M253.1,587.9c-0.7,0-1.2-0.3-1.5-0.9c-0.4-0.6-0.6-1.5-0.6-2.7c0-1.3,0.2-2.3,0.6-3s0.9-1,1.7-1c1.4,0,2.1,1.3,2.1,3.8
		c0,1.3-0.2,2.2-0.6,2.9C254.3,587.6,253.8,587.9,253.1,587.9z M253.2,580.7c-0.5,0-1,0.3-1.3,0.9c-0.3,0.6-0.5,1.4-0.5,2.6
		c0,1.1,0.1,1.9,0.4,2.4c0.3,0.6,0.7,0.9,1.2,0.9s0.9-0.3,1.2-0.9c0.3-0.6,0.4-1.4,0.4-2.5C254.8,581.9,254.3,580.7,253.2,580.7z"/>
	<path d="M256.9,587.9c-0.1,0-0.2,0-0.3-0.1c-0.1-0.1-0.1-0.2-0.1-0.3s0-0.2,0.1-0.3s0.2-0.1,0.3-0.1c0.1,0,0.2,0,0.3,0.1
		c0.1,0.1,0.1,0.2,0.1,0.3c0,0.1,0,0.2-0.1,0.3C257.1,587.9,257,587.9,256.9,587.9z"/>
	<path d="M260.7,580.3v7.5h-0.5V581c-0.2,0.2-0.5,0.4-0.8,0.6s-0.6,0.3-1,0.4v-0.4c0.2-0.1,0.4-0.2,0.6-0.2c0.2-0.1,0.3-0.2,0.5-0.3
		c0.2-0.1,0.3-0.2,0.5-0.4c0.2-0.1,0.3-0.3,0.5-0.4L260.7,580.3L260.7,580.3z"/>
	<path d="M262.5,587.7v-0.5c0.5,0.3,0.9,0.4,1.4,0.4c0.6,0,1-0.2,1.4-0.5c0.3-0.3,0.5-0.8,0.5-1.3c0-1.2-0.7-1.8-2-1.8
		c-0.3,0-0.6,0-1,0.1l0.2-3.5h3v0.4h-2.6l-0.2,2.6c0.3,0,0.6,0,0.7,0c0.8,0,1.3,0.2,1.7,0.6c0.4,0.4,0.6,0.9,0.6,1.6
		s-0.2,1.2-0.6,1.7c-0.4,0.4-1,0.6-1.8,0.6C263.3,587.9,262.8,587.8,262.5,587.7z"/>
	<path d="M269.7,584.1c-0.5,0-0.9-0.2-1.2-0.5c-0.3-0.3-0.4-0.8-0.4-1.3c0-0.6,0.2-1.1,0.5-1.4s0.7-0.5,1.2-0.5s0.9,0.2,1.2,0.5
		c0.3,0.3,0.4,0.8,0.4,1.4c0,0.5-0.2,1-0.5,1.3C270.6,583.9,270.2,584.1,269.7,584.1z M269.7,580.7c-0.4,0-0.7,0.1-0.9,0.4
		c-0.2,0.3-0.3,0.6-0.3,1.1c0,0.4,0.1,0.8,0.3,1.1c0.2,0.3,0.5,0.4,0.9,0.4s0.7-0.1,0.9-0.4c0.2-0.3,0.3-0.6,0.3-1.1
		s-0.1-0.8-0.3-1.1C270.4,580.8,270.1,580.7,269.7,580.7z M269.7,588h-0.5l4.3-7.5h0.5L269.7,588z M273.6,587.9
		c-0.5,0-0.9-0.2-1.2-0.5c-0.3-0.3-0.4-0.8-0.4-1.3c0-0.6,0.2-1.1,0.5-1.4s0.7-0.5,1.2-0.5s0.9,0.2,1.2,0.5c0.3,0.3,0.4,0.8,0.4,1.4
		c0,0.5-0.2,1-0.5,1.3C274.5,587.8,274.1,587.9,273.6,587.9z M273.6,584.6c-0.4,0-0.7,0.1-0.9,0.4c-0.2,0.3-0.3,0.6-0.3,1.1
		c0,0.4,0.1,0.8,0.3,1.1c0.2,0.3,0.5,0.4,0.9,0.4s0.7-0.1,0.9-0.4c0.2-0.3,0.3-0.6,0.3-1.1s-0.1-0.9-0.3-1.1
		C274.3,584.7,274,584.6,273.6,584.6z"/>
	<path d="M279.4,584c0.5,1,1,1.8,1.6,2.3c0.5-0.5,1.1-1.3,1.5-2.4l0.5,0.2c-0.5,1.1-1,2-1.6,2.6c0.8,0.7,2.1,1.2,3.9,1.6
		c-0.1,0.1-0.2,0.3-0.3,0.6c-1.8-0.5-3.2-1.1-4-1.8c-0.8,0.7-2.1,1.3-4.1,1.9l-0.3-0.5c1.9-0.5,3.2-1.1,4-1.7
		c-0.6-0.6-1.1-1.4-1.6-2.5L279.4,584z M276.7,581.2h4.3c-0.2-0.4-0.4-0.8-0.6-1.2l0.5-0.2c0.3,0.4,0.5,0.8,0.7,1.2l-0.4,0.2h4.2
		v0.5h-8.6v-0.5H276.7z M279.6,582.3l0.4,0.4c-0.8,0.7-1.8,1.5-2.8,2.2c-0.1-0.1-0.2-0.3-0.3-0.5
		C277.8,583.8,278.7,583.1,279.6,582.3z M284.8,584.7c-0.8-0.6-1.7-1.3-2.7-2l0.3-0.4c0.9,0.6,1.8,1.2,2.8,1.9L284.8,584.7z"/>
	<path d="M286.4,586.5c-0.1-0.1-0.2-0.2-0.3-0.4c1-0.6,1.8-1.4,2.3-2.3l0.5,0.2c-0.2,0.3-0.4,0.5-0.5,0.7h5.9c0,0.7,0,1.4-0.1,2.2
		c0,1.3-0.6,2-1.8,1.9c-0.3,0-0.7,0-1.1,0c0-0.2-0.1-0.3-0.1-0.6c0.4,0,0.8,0,1.2,0h0.1c0.8,0,1.2-0.5,1.2-1.4
		c0.1-0.7,0.1-1.3,0.1-1.7h-1.5c-0.3,1.6-1.4,2.9-3.2,3.8c-0.1-0.2-0.2-0.3-0.3-0.4c1.7-0.8,2.8-2,3.1-3.4h-1.6
		c-0.6,1.4-1.8,2.5-3.8,3.2c-0.1-0.1-0.2-0.3-0.3-0.4c1.9-0.7,3.1-1.7,3.6-2.8h-1.7C287.5,585.7,287,586.1,286.4,586.5z
		 M287.3,580.2h6.6v3.4h-6.6V580.2z M287.7,580.7v1h5.6v-1H287.7z M287.7,582.2v1.1h5.6v-1.1H287.7z"/>
	<path d="M295.6,584.8c-0.1-0.2-0.2-0.4-0.3-0.6c0.8-1.3,1.5-2.8,1.9-4.4l0.5,0.1c-0.2,0.7-0.4,1.4-0.7,2.1v7h-0.5v-5.9
		C296.3,583.8,296,584.3,295.6,584.8z M301.4,588.5h-0.5v-2.7h-2c-0.1,1.1-0.4,2.2-0.9,3.2c-0.1-0.1-0.3-0.2-0.5-0.3
		c0.4-0.6,0.6-1.2,0.8-1.9c0.1-0.6,0.2-1.6,0.2-2.8v-3.6h5.4v7.5c0,0.7-0.3,1.1-1,1.1c-0.1,0-0.2,0-0.3,0c-0.1,0-0.1,0-0.2,0
		s-0.2,0-0.3,0c0-0.2-0.1-0.4-0.1-0.5c0.3,0,0.6,0,0.8,0c0.4,0,0.6-0.2,0.6-0.6v-2h-2V588.5z M298.9,584c0,0.5,0,1,0,1.4h2v-2H299
		v0.6H298.9z M298.9,580.8v2h1.9v-2H298.9z M303.4,580.8h-2v2h2V580.8z M301.4,583.3v2h2v-2H301.4z"/>
	<path d="M313.4,583.2c-1.7-0.7-3.1-1.6-4.1-2.8c-1,1.2-2.4,2.1-4.1,2.9c-0.1-0.1-0.2-0.3-0.3-0.4c2-0.9,3.5-2,4.4-3.2l0.6,0.1
		l-0.1,0.1c0,0.1-0.1,0.1-0.1,0.1c1.1,1.2,2.4,2.1,4.1,2.7C313.6,583,313.5,583.1,313.4,583.2z M306.4,582.9h5.7v0.5h-2.5v1.6h3.3
		v0.5h-3.3v2.7h3.9v0.5h-8.3v-0.5h3.9v-2.7h-3.3V585h3.3v-1.6h-2.6v-0.5H306.4z M306.2,586.2l0.4-0.3c0.4,0.5,0.9,0.9,1.2,1.3
		l-0.4,0.3C307.1,587.2,306.7,586.8,306.2,586.2z M311,587.6l-0.4-0.3c0.4-0.4,0.9-0.8,1.3-1.3l0.4,0.3
		C311.9,586.7,311.5,587.2,311,587.6z"/>
	<path d="M314.6,589.5h-0.5c1-1.3,1.5-2.8,1.5-4.5c0-1.8-0.5-3.3-1.6-4.6h0.5c1,1.2,1.5,2.7,1.5,4.6
		C316.1,586.8,315.6,588.3,314.6,589.5z"/>
</g>
<g>
	<rect x="213" y="563.9" width="26.7" height="1"/>
</g>
<g>
	<rect x="383.7" y="566.1" width="22.4" height="1"/>
</g>
<g>
	<rect x="234" y="421.9" width="150.1" height="0.8"/>
</g>
<g>
	<g>
		<polygon points="384.1,417 389,421.9 384.1,426.8 		"/>
	</g>
</g>
<g>
	<path d="M283.7,407.4v9h-0.6v-8.2c-0.3,0.3-0.6,0.5-1,0.7c-0.4,0.2-0.8,0.4-1.2,0.5v-0.5c0.3-0.1,0.5-0.2,0.7-0.3s0.4-0.2,0.6-0.4
		c0.2-0.1,0.4-0.3,0.6-0.4c0.2-0.2,0.4-0.3,0.6-0.5h0.3V407.4z"/>
	<path d="M287.5,412c-0.6,0-1.1-0.2-1.5-0.6c-0.4-0.4-0.5-1-0.5-1.6c0-0.7,0.2-1.3,0.6-1.7s0.9-0.6,1.5-0.6s1.1,0.2,1.5,0.6
		s0.5,1,0.5,1.7c0,0.6-0.2,1.2-0.6,1.6C288.6,411.7,288.1,412,287.5,412z M287.5,407.9c-0.5,0-0.8,0.2-1.1,0.5
		c-0.3,0.3-0.4,0.8-0.4,1.3s0.1,1,0.4,1.3c0.3,0.3,0.6,0.5,1.1,0.5s0.8-0.2,1.1-0.5c0.3-0.3,0.4-0.8,0.4-1.3c0-0.6-0.1-1-0.4-1.3
		C288.3,408.1,288,407.9,287.5,407.9z M287.5,416.7h-0.6l5.3-9h0.6L287.5,416.7z M292.3,416.6c-0.6,0-1.1-0.2-1.5-0.6
		c-0.4-0.4-0.6-1-0.6-1.6c0-0.7,0.2-1.3,0.6-1.7s0.9-0.6,1.5-0.6s1.1,0.2,1.5,0.6c0.4,0.4,0.5,1,0.5,1.7c0,0.6-0.2,1.2-0.6,1.6
		C293.5,416.4,293,416.6,292.3,416.6z M292.4,412.6c-0.5,0-0.8,0.2-1.1,0.5c-0.3,0.3-0.4,0.8-0.4,1.3s0.1,1,0.4,1.3
		c0.3,0.3,0.6,0.5,1.1,0.5s0.8-0.2,1.1-0.5c0.3-0.3,0.4-0.8,0.4-1.3c0-0.6-0.1-1-0.4-1.3C293.2,412.8,292.8,412.6,292.4,412.6z"/>
	<path d="M300.7,406.8l0.6,0.1c-0.2,0.4-0.4,0.7-0.5,0.9h3.4v0.5h-3.8c-0.4,0.5-0.9,1-1.4,1.5c-0.1-0.1-0.3-0.3-0.4-0.4
		C299.6,408.7,300.3,407.8,300.7,406.8z M303.6,409.4l0.5-0.2c0,0,0,0.1,0.1,0.1c0.2,0.4,0.3,0.7,0.4,0.9h4.6v1.6h-0.6v-1.1h-8.9
		v1.1h-0.6v-1.6h4.9C303.9,410,303.8,409.7,303.6,409.4z M300.4,411.8h7.4v2.2H301v1h7.1v2.8h-0.6v-0.4H301v0.5h-0.6V411.8z
		 M301,412.3v1.2h6.2v-1.2H301z M307.5,415.5H301v1.3h6.5V415.5z M302.1,409.9c-0.3-0.4-0.7-0.7-1-1l0.4-0.3c0.4,0.3,0.7,0.7,1,1
		L302.1,409.9z M305.8,406.8l0.6,0.1c-0.1,0.3-0.3,0.6-0.5,0.9h3.7v0.5h-4c-0.2,0.3-0.5,0.7-0.8,1c-0.2-0.1-0.3-0.3-0.5-0.4
		C305.1,408.4,305.5,407.6,305.8,406.8z M307.7,409.5l-0.4,0.4c-0.3-0.3-0.6-0.7-1-1l0.4-0.3C307.1,408.8,307.4,409.2,307.7,409.5z"
		/>
	<path d="M310.5,411.7h1.5v-3.3h-1.6v-0.5h3.7v0.5h-1.5v3.3h1.4v0.5h-1.4v3.4c0.5-0.1,1-0.2,1.5-0.4c0,0.2,0,0.5,0,0.6
		c-1.3,0.3-2.5,0.5-3.7,0.8l-0.1-0.6c0.6-0.1,1.2-0.2,1.6-0.3v-3.6h-1.5v-0.4H310.5z M314.5,414.5h2.9v-1.6h-2.7v-5.4h5.9v5.4H318
		v1.6h2.9v0.5H318v1.9h3.4v0.5h-7.6v-0.5h3.6V415h-2.9V414.5z M315.4,408v1.9h2.1V408H315.4z M315.4,410.4v1.9h2.1v-1.9H315.4z
		 M320.1,408H318v1.9h2.1V408z M318,410.4v1.9h2.1v-1.9H318z"/>
	<path d="M328.9,406.9h0.6v1h2.7v2.2h-2.7v1.1h3.3c0,0.3,0,0.6-0.1,0.9c0,0.5-0.3,0.8-0.9,0.8c-0.1,0-0.3,0-0.5,0
		c-0.1,0-0.2,0-0.2,0c-0.1,0-0.2,0-0.3,0c0-0.2-0.1-0.4-0.1-0.5c0.4,0,0.7,0,1,0s0.5-0.1,0.5-0.4c0-0.1,0-0.3,0-0.3h-2.7v1.1h-0.6
		v-1.1h-2.6c-0.2,0.6-0.6,1.1-1.3,1.5h6.2v2.8h-0.6v-2.3h-5.9v2.4h-0.6v-2.5c-0.5,0.2-1.1,0.4-1.7,0.6c-0.1-0.2-0.2-0.4-0.3-0.6
		c2-0.5,3.2-1.2,3.5-2H323l0.3-2.2h2.7c0-0.2,0-0.6,0.1-1.1h-3.2v-0.4h3.3c0-0.1,0-0.3,0-0.5c0-0.2,0-0.3,0-0.4h0.6
		c0,0.1,0,0.3,0,0.5c0,0.2,0,0.4,0,0.5h2.2v-1.1H328.9z M327.4,414.4h0.6c0,0.4-0.1,0.8-0.3,1.1c1.8,0.6,3.4,1.2,4.8,1.8l-0.3,0.6
		c-1.9-0.8-3.4-1.4-4.7-1.9c-0.5,0.9-2,1.5-4.5,2c-0.1-0.2-0.2-0.4-0.3-0.6c1.8-0.3,3-0.6,3.7-1C327,415.9,327.4,415.3,327.4,414.4z
		 M323.6,411.2h2.1c0.1-0.3,0.1-0.7,0.2-1.1h-2.1L323.6,411.2z M326.6,410c0,0.5-0.1,0.8-0.2,1.1h2.5V410H326.6z M326.6,408.4
		c0,0.1,0,0.4,0,0.6c0,0.2,0,0.4,0,0.5h2.3v-1.1H326.6z M331.6,408.4h-2.2v1.1h2.2V408.4z"/>
</g>
<g>
	<path class="st2" d="M441.2,420.8l-0.1-0.7c0.1,0,0.3-0.1,0.5-0.1c0.5-0.1,0.9-0.3,1.2-0.3V417h-1.5v-0.6h1.5v-2.2h0.6v2.2h1.4v0.6
		h-1.4v2.6c0.4-0.1,0.8-0.3,1.3-0.4c0,0.3,0,0.5,0,0.6h-0.1c-0.5,0.2-0.9,0.3-1.2,0.4v3.5c0,0.9-0.3,1.3-1.2,1.3c-0.4,0-0.6,0-0.8,0
		v-0.1c0-0.2-0.1-0.4-0.1-0.5c0.4,0,0.6,0,0.8,0c0.5,0,0.7-0.2,0.7-0.7v-3.2c-0.1,0-0.3,0.1-0.5,0.2
		C442.1,420.4,441.7,420.6,441.2,420.8z M445.4,419.8v-0.6h5.6v0.6c-0.6,1.2-1.3,2.3-2.3,3.1c0.8,0.6,2,1.1,3.4,1.4
		c-0.1,0.2-0.2,0.4-0.3,0.6c-1.5-0.4-2.7-1-3.6-1.6c-0.9,0.7-2.1,1.2-3.6,1.7c-0.1-0.2-0.2-0.4-0.4-0.6c1.4-0.4,2.6-0.9,3.5-1.5
		c-0.8-0.8-1.5-1.8-1.9-3.1L445.4,419.8L445.4,419.8z M451.1,417.6h1c0,0.2-0.1,0.4-0.1,0.6h-1c-0.9,0-1.3-0.4-1.3-1.2v-1.8H447v0.5
		c0.1,1.3-0.5,2.4-1.6,3.1c-0.2-0.2-0.3-0.4-0.5-0.5c0.6-0.4,1-0.8,1.1-1.1c0.2-0.4,0.3-0.9,0.3-1.5v-1.1h4v2.3
		c0,0.3,0.1,0.5,0.2,0.6C450.6,417.5,450.8,417.6,451.1,417.6z M450.4,419.8h-3.8c0.4,1.1,1,2,1.8,2.7
		C449.2,421.7,449.9,420.8,450.4,419.8z"/>
	<path class="st2" d="M452.9,418.6c0.9-0.6,1.9-1.3,2.8-2.1c0,0.1,0.1,0.3,0.3,0.6c-0.9,0.6-1.7,1.3-2.6,2.1L452.9,418.6z
		 M458.2,420.8h0.6c0,0.4,0,0.8-0.1,1.2v0.1c0,0.1-0.1,0.2-0.1,0.3c1.5,0.6,3.1,1.2,4.9,1.9l-0.3,0.6c-1.8-0.8-3.4-1.5-4.8-2
		c-0.5,0.9-2.1,1.6-4.8,2.1c-0.1-0.2-0.2-0.4-0.3-0.6c3-0.4,4.6-1.2,4.9-2.4C458.1,421.6,458.2,421.2,458.2,420.8z M455.2,415.9
		c-0.6-0.5-1.2-0.9-1.8-1.4l0.4-0.4c0.5,0.4,1.2,0.8,1.8,1.3L455.2,415.9z M454.6,419.5h7.6v3.3h-0.6V420h-6.4v2.8h-0.6V419.5z
		 M456.4,419.1c-0.1-0.2-0.2-0.4-0.4-0.6c2.3-0.5,3.5-1.5,3.7-3.1h-1.8c-0.3,0.5-0.7,1-1.2,1.6c-0.2-0.2-0.3-0.3-0.5-0.4
		c0.8-0.8,1.4-1.7,1.8-2.8l0.6,0.2c-0.1,0.3-0.3,0.6-0.4,0.9h5.2v0.6l-0.7,1.4c-0.2-0.1-0.4-0.2-0.6-0.2l0.6-1.2h-2.4
		c0,0.1,0,0.2-0.1,0.3c0.6,1.5,1.7,2.4,3.5,2.8c-0.1,0.2-0.2,0.4-0.3,0.6c-1.8-0.5-3-1.4-3.4-2.6
		C459.7,417.6,458.5,418.5,456.4,419.1z"/>
	<path class="st2" d="M465.9,415.2v3.7c0,1.7-0.1,2.9-0.2,3.7c-0.1,0.8-0.4,1.6-0.7,2.4c-0.2-0.1-0.3-0.3-0.5-0.4
		c0.4-0.8,0.6-1.5,0.7-2.2c0.1-0.7,0.2-1.8,0.2-3.5v-4.2h4.4v0.6h-3.9V415.2z M466.9,416.6h2.6v3.4c0,0.8-0.3,1.2-1,1.1
		c-0.1,0-0.3,0-0.6,0V421c0-0.2-0.1-0.4-0.1-0.5c0.1,0,0.3,0,0.6,0c0.4,0,0.5-0.2,0.5-0.6V417h-1.5v6.4c0.7-0.3,1.5-0.7,2.2-1.1
		c0,0.2,0,0.4,0.1,0.6c-0.8,0.4-1.6,0.8-2.2,1.2c-0.2,0.1-0.4,0.2-0.5,0.4l-0.4-0.5c0.2-0.2,0.3-0.5,0.3-1V416.6z M475.1,424.9
		c-0.5-0.5-1-1.1-1.7-1.7c-0.3-0.3-0.6-0.6-0.8-0.8c-0.3,1-1.2,1.8-2.6,2.6c-0.1-0.2-0.3-0.4-0.4-0.5c1.2-0.6,2-1.2,2.3-1.9
		c0.4-0.6,0.5-1.7,0.5-3.3v-1.1h0.6v1.1c0,1.4-0.1,2.4-0.3,3l0.3-0.3c0.6,0.6,1.4,1.4,2.5,2.4L475.1,424.9z M470.5,416.9h1.5
		l0.4-1.7h-2.2v-0.6h5.3v0.6H473l-0.4,1.7h2.5v5.2h-0.6v-4.7h-3.4v4.8h-0.6L470.5,416.9L470.5,416.9z"/>
	<path class="st2" d="M476.9,416.2h0.6v8.8h-0.6V416.2z M477.5,414.4l0.5-0.4c0.6,0.6,1.2,1.1,1.6,1.6l-0.5,0.4
		C478.6,415.6,478.1,415,477.5,414.4z M479.5,417.4h4.6v4.4h-4.6V417.4z M480.1,418v3.2h3.4V418H480.1z M480.3,415.3v-0.6h6.4v8.4
		c0.1,1-0.5,1.6-1.6,1.6c-0.5,0-1.1,0-1.8,0c0-0.2-0.1-0.4-0.1-0.7c0.6,0,1.2,0,1.8,0c0.4,0,0.7-0.1,0.8-0.2
		c0.2-0.2,0.2-0.4,0.2-0.8v-7.8h-5.7V415.3z"/>
</g>
<g>
	<g>
		<g>
			<path class="st0" d="M476.4,589.7c-2.4,0-5.1-0.8-7.9-3.1c-0.8-0.7-1.6-1.5-2.1-2.4c-4.6-7.3-6-14.8-4.3-22.2
				c3.5-15.2,19-25,19.7-25.4l0.4-0.3l0.7,0.7l-0.3,0.4c-2.7,4.5-2.7,10.3-2.2,14.8c0.8-1.4,2-3.4,3.3-5.1l0.3-0.4l0.5,0.1
				c0.3,0.1,0.4,0.4,0.4,0.6c-0.5,6.4,4.1,10.7,7.2,13.5l0.4,0.4c0.4,0.4,0.8,0.9,1.2,1.3c1.8,2.5,2.6,4.9,2.2,7
				c-0.5,3-3.2,4.7-4.8,5.7c-0.1,0.1-0.2,0.1-0.3,0.2c0.5,2.3-2.1,7.6-6.2,11C482.7,588,479.9,589.7,476.4,589.7z M480.5,538.9
				c-4.3,3.1-14.5,11.6-17.3,23.4c-1.6,7.1-0.2,14.3,4.2,21.3c0.5,0.8,1.1,1.5,1.9,2.1c6,4.8,11.1,2.6,14.4,0
				c4.2-3.4,6.4-8.7,5.8-9.9c-0.2-0.3-0.1-0.7,0.2-0.9c0.2-0.1,0.4-0.3,0.7-0.4c1.5-1,3.8-2.5,4.2-4.9c0.3-1.7-0.3-3.8-2-6.1
				c-0.3-0.4-0.6-0.8-1-1.2l-0.4-0.4c-2.7-2.6-7.1-6.7-7.5-12.6c-1.3,2-2.5,4.1-2.8,4.8c-0.1,0.3-0.5,0.4-0.8,0.4s-0.6-0.3-0.6-0.6
				C478.7,549.7,478.4,543.9,480.5,538.9z"/>
		</g>
	</g>
	<g>
		<g>
			<path class="st0" d="M477.4,586.1c-2,0-4.1-0.8-6-2.3l0,0c-6.6-7-8.1-15.3-4.4-24.2c2.9-6.9,8-11.8,8.6-12.3l0.2-0.2l0.6,0.3
				l-0.1,0.3c-2.4,6.8,1.8,13.4,3.8,16.1c-0.2-3.3,0.7-5.3,1.7-7.5c0.1-0.3,0.2-0.5,0.4-0.8l0.1-0.3h0.3c0.2,0,0.3,0.2,0.4,0.4
				c0.6,5.3,4.5,6.9,6.7,7.8c1.1,0.5,2,1.4,2.4,2.5c0.7,2,0.6,3.6-0.4,4.9c-1.2,1.5-3.2,2-4.4,2.1c1.2,3.3-0.6,8-4.1,10.8
				C481.3,585.4,479.4,586.1,477.4,586.1z M471.9,583.2c4.9,3.9,9.2,1.4,10.7,0.1c3.4-2.8,5.1-7.4,3.6-10.4l-0.1-0.2l0.1-0.2
				c0.1-0.1,0.2-0.2,0.4-0.2c1,0.1,3.2-0.4,4.3-1.8c0.8-1,0.9-2.4,0.3-4.1c-0.3-0.9-1.1-1.7-2-2.1c-2.1-0.9-5.9-2.5-7-7.3
				c-1,2.3-1.8,4.2-1.4,8v0.3l-0.3,0.2c-0.2,0.1-0.4,0-0.5-0.1c-1.2-1.4-7-8.6-5.2-16.4c-1.7,1.8-5.2,5.9-7.3,11
				C464.1,568.6,465.5,576.4,471.9,583.2z"/>
		</g>
	</g>
</g>
<g>
	<path class="st2" d="M75.1,274.7c0.2,0.3,0.3,0.7,0.5,0.9c-1.1,0.8-2.2,1.6-3.3,2.6l-0.7-0.9C72.9,276.4,74,275.6,75.1,274.7z
		 M78.7,279.6c0,1-0.1,1.7-0.2,2.2c2,0.7,4,1.3,5.8,2.1l-0.6,1c-1.7-0.7-3.6-1.4-5.6-2.1c-0.6,1.1-2.5,1.8-5.7,2.2
		c-0.2-0.3-0.4-0.7-0.6-1c2.9-0.3,4.7-0.8,5.3-1.7c0.3-0.4,0.5-1.3,0.5-2.6h1.1V279.6z M72.7,271.8c0.8,0.5,1.5,1,2.2,1.5l-0.7,0.8
		c-0.6-0.5-1.4-1-2.1-1.6L72.7,271.8z M73.5,278.2h9.3v4.3h-1v-3.4h-7.2v3.4h-1v-4.3H73.5z M75.3,277.3c2.7-0.7,4.1-1.8,4.3-3.5
		h-2.1c-0.3,0.7-0.7,1.2-1.1,1.8c-0.3-0.2-0.6-0.4-0.9-0.6c0.8-1,1.4-2.1,1.8-3.4l1,0.2c-0.1,0.4-0.3,0.8-0.4,1.1h6.3v0.8l-0.9,1.8
		c-0.3-0.1-0.6-0.3-1-0.4l0.7-1.4h-2.4c-0.1,0.3-0.2,0.6-0.2,0.8c0.8,1.3,2.2,2.1,4.3,2.6c-0.2,0.3-0.5,0.7-0.7,1
		c-1.9-0.6-3.2-1.5-4.1-2.7c-0.6,1.1-2,1.9-4,2.6C75.8,277.9,75.5,277.6,75.3,277.3z"/>
	<path class="st2" d="M86.6,277.1h6.3c0.6-0.9,1.1-1.8,1.6-2.6l1,0.7c-0.5,0.7-1,1.3-1.5,2h3.9v0.9H87.6v0.8c0,1.6-0.1,2.7-0.4,3.5
		c-0.2,0.9-0.7,1.7-1.4,2.4c-0.2-0.3-0.5-0.6-0.7-0.9c0.5-0.6,0.9-1.2,1.1-2c0.2-0.7,0.3-1.8,0.3-3.1L86.6,277.1L86.6,277.1z
		 M85.5,273.2h6.1c-0.2-0.4-0.4-0.7-0.6-1.1l1-0.5c0.3,0.5,0.6,1,0.9,1.6h5.5v0.9H85.6L85.5,273.2L85.5,273.2z M88.3,275l0.9-0.6
		c0.6,0.7,1,1.4,1.5,2l-0.9,0.7C89.3,276.4,88.9,275.7,88.3,275z"/>
</g>
<g>
	<path class="st2" d="M463.7,555.8h11.9v12.5h-1.1v-0.9h-9.7v0.9h-1.1V555.8z M474.5,556.8h-9.7v9.7h9.7V556.8z M466.8,558.9h5.8v6
		h-1.1v-0.8h-3.7v0.8h-1.1V558.9z M471.5,559.9h-3.7v3.3h3.7V559.9z"/>
	<path class="st2" d="M479.5,558h1v2.7c0,1.8-0.1,3.1-0.4,4.1l0.4-0.4c0.9,1,1.7,1.8,2.4,2.6l-0.9,0.7c-0.6-0.8-1.4-1.7-2.1-2.5
		c-0.3,1-1.1,2.1-2.4,3.2c-0.2-0.3-0.4-0.6-0.7-0.8c1.1-0.8,1.8-1.6,2.1-2.5c0.3-0.8,0.5-2.1,0.5-4V558z M477.7,555.8h4.6v3.9
		c0.9-1.4,1.6-3,2-4.7l1.1,0.2c-0.2,0.7-0.4,1.3-0.7,1.9h5.2c-0.1,4.4-0.1,7.4-0.2,8.8c-0.1,1.5-0.8,2.2-2.3,2.2
		c-0.8,0-1.6,0-2.5-0.1c-0.1-0.4-0.1-0.7-0.2-1.1c0.9,0.1,1.7,0.2,2.4,0.2c1,0,1.5-0.5,1.5-1.4c0.1-1.5,0.1-4.1,0.1-7.6h-4.6
		c-0.3,0.8-0.7,1.5-1.1,2.2c-0.3-0.2-0.6-0.3-1-0.5v4.5h-1v-7.5h-2.7v7.6h-1V555.8z M485.9,561.5l0.9-0.3c0.4,1.3,0.8,2.7,1.2,4.1
		l-1,0.3c-0.1-0.3-0.1-0.6-0.2-0.8c-1,0.1-1.8,0.1-2.6,0.2c-0.4,0-0.8,0.1-1.2,0.2l-0.4-0.9c0.3-0.2,0.6-0.5,0.7-0.8
		c0.5-1.2,1-2.7,1.4-4.4l1,0.2c-0.5,1.7-1.1,3.2-1.6,4.7c0.8,0,1.6-0.1,2.5-0.2C486.4,563.1,486.2,562.3,485.9,561.5z"/>
</g>
</svg>
