<?xml version="1.0" encoding="utf-8"?>
<!-- Generator: Adobe Illustrator 19.0.0, SVG Export Plug-In . SVG Version: 6.00 Build 0)  -->
<svg version="1.1" id="图层_1" xmlns="http://www.w3.org/2000/svg" xmlns:xlink="http://www.w3.org/1999/xlink" x="0px" y="0px"
	 viewBox="0 0 64 68" style="enable-background:new 0 0 64 68;" xml:space="preserve">
<style type="text/css">
	.st0{fill:#FFF;}
  rect{fill:#FFF;}
</style>
<g>
	<path class="st0" d="M32,68c-0.7,0-1.3-0.2-1.9-0.5L2,52.4c-1.2-0.7-2-1.9-2-3.3V18.8c0-1.3,0.8-2.6,2-3.3L30.1,0.4c1.2-0.6,2.6-0.6,3.8,0
		L62,15.6c1.2,0.7,2,1.9,2,3.3v30.3c0,1.3-0.8,2.6-2,3.3L33.9,67.5C33.3,67.8,32.6,68,32,68z M32,3.6c-0.1,0-0.1,0-0.2,0L3.7,18.7
		c-0.1,0-0.1,0.1-0.1,0.1l0,30.3c0,0,0,0,0.1,0.1l28.1,15.2c0.1,0.1,0.2,0.1,0.3,0l28.1-15.2c0.1,0,0.1-0.1,0.1-0.1l0-30.3
		c0,0,0,0-0.1-0.1L32.1,3.6C32.1,3.6,32,3.6,32,3.6z"/>
</g>
<g>
	<rect x="0.5" y="23.8" transform="matrix(0.8999 0.4361 -0.4361 0.8999 12.923 -5.0179)" width="33.7" height="3.6"/>
</g>
<g>
	<rect x="45.5" y="9.3" transform="matrix(0.4237 0.9058 -0.9058 0.4237 50.6739 -27.9124)" width="3.6" height="33.2"/>
</g>
<g>
	<rect x="30.5" y="30.9" width="3.6" height="34.4"/>
</g>
</svg>
