<?xml version="1.0" encoding="utf-8"?>
<!-- Generator: Adobe Illustrator 19.0.0, SVG Export Plug-In . SVG Version: 6.00 Build 0)  -->
<svg version="1.1" id="图层_1" xmlns="http://www.w3.org/2000/svg" xmlns:xlink="http://www.w3.org/1999/xlink" x="0px" y="0px"
	 viewBox="0 0 64 58" style="enable-background:new 0 0 64 58;" xml:space="preserve">
<style type="text/css">
	.st0{fill:#FFF;}
  rect{fill:#FFF;}
</style>
<g>
	<g>
		<g>
			<path class="st0" d="M32,15.5c-4.3,0-7.7-3.5-7.7-7.7S27.7,0,32,0s7.7,3.5,7.7,7.7S36.3,15.5,32,15.5z M32,3.3c-2.4,0-4.4,2-4.4,4.4
				c0,2.4,2,4.4,4.4,4.4s4.4-2,4.4-4.4C36.4,5.3,34.4,3.3,32,3.3z"/>
		</g>
		<g>
			<path class="st0" d="M7.7,57.8c-4.3,0-7.7-3.5-7.7-7.7s3.5-7.7,7.7-7.7s7.7,3.5,7.7,7.7S12,57.8,7.7,57.8z M7.7,45.6c-2.4,0-4.4,2-4.4,4.4
				c0,2.4,2,4.4,4.4,4.4s4.4-2,4.4-4.4C12.1,47.6,10.2,45.6,7.7,45.6z"/>
		</g>
		<g>
			<path class="st0" d="M56.3,57.8c-4.3,0-7.7-3.5-7.7-7.7s3.5-7.7,7.7-7.7s7.7,3.5,7.7,7.7S60.5,57.8,56.3,57.8z M56.3,45.6
				c-2.4,0-4.4,2-4.4,4.4c0,2.4,2,4.4,4.4,4.4s4.4-2,4.4-4.4C60.7,47.6,58.7,45.6,56.3,45.6z"/>
		</g>
	</g>
	<g>
		<g>
			<line x1="13.8" y1="50.5" x2="50.2" y2="50.5"/>
			<rect x="13.8" y="48.6" width="36.4" height="3.8"/>
		</g>
		<g>
			<line x1="53.7" y1="44.5" x2="35.6" y2="13.4"/>
			<rect x="26.7" y="27.1" transform="matrix(0.5027 0.8644 -0.8644 0.5027 47.2732 -24.2213)" width="36" height="3.8"/>
		</g>
		<g>
			<line x1="28.2" y1="13.4" x2="11.2" y2="44.5"/>
			<rect x="17.8" y="11.3" transform="matrix(0.8778 0.479 -0.479 0.8778 16.2884 -5.8964)" width="3.8" height="35.4"/>
		</g>
	</g>
</g>
</svg>
