<?xml version="1.0" encoding="utf-8"?>
<!-- Generator: Adobe Illustrator 19.0.0, SVG Export Plug-In . SVG Version: 6.00 Build 0)  -->
<svg version="1.1" id="Layer_1" xmlns="http://www.w3.org/2000/svg" xmlns:xlink="http://www.w3.org/1999/xlink" x="0px" y="0px"
	 viewBox="0 0 64 62" style="enable-background:new 0 0 64 62;" xml:space="preserve">
<style type="text/css">
	.st0{fill:#FFF;}
  path{fill:#FFF;}
</style>
<path calss="st0" d="M23.5,16.6c-1.4,0-8.2-0.1-8.2-2.7c0-0.5,0.4-0.9,0.9-0.9c0.4,0,0.8,0.3,0.9,0.7c0.4,0.4,2.7,1.1,6.4,1.1
	c3.2,0,5.3-0.5,6.1-0.9c-0.8-0.4-2.9-0.9-6.1-0.9c-1.4,0-8.2-0.1-8.2-2.7c0-2.6,6.8-2.7,8.2-2.7s8.2,0.1,8.2,2.7
	c0,0.5-0.4,0.9-0.9,0.9c-0.4,0-0.8-0.3-0.9-0.7c-0.4-0.4-2.7-1.1-6.4-1.1c-3.2,0-5.3,0.5-6.1,0.9c0.8,0.4,2.9,0.9,6.1,0.9
	c1.4,0,8.2,0.1,8.2,2.7C31.7,16.5,24.9,16.6,23.5,16.6L23.5,16.6z M23.5,16.6"/>
<path calss="st0" d="M23.5,18.7c-0.5,0-0.9-0.4-0.9-0.9V6.8c0-0.5,0.4-0.9,0.9-0.9s0.9,0.4,0.9,0.9v10.9C24.4,18.3,24,18.7,23.5,18.7L23.5,18.7z
	 M23.5,18.7"/>
<path calss="st0" d="M42.2,62c-11.8,0-21.4-9.6-21.4-21.4s9.6-21.4,21.4-21.4c11.8,0,21.4,9.6,21.4,21.4C63.6,52.4,54,62,42.2,62L42.2,62z
	 M42.2,21.9c-10.3,0-18.7,8.4-18.7,18.7c0,10.3,8.4,18.7,18.7,18.7c10.3,0,18.7-8.4,18.7-18.7C60.9,30.3,52.5,21.9,42.2,21.9
	L42.2,21.9z M42.2,21.9"/>
<path calss="st0" d="M29.6,57.9c-1.9,0.3-4,0.4-6.1,0.4C12.4,58.4,3,54,3,48.8c0-0.2,0-0.3-0.1-0.5C3,48.1,3,48,3,47.8v-2.3
	C6.9,49.4,14.5,52,23.5,52c0.2,0,0.3,0,0.5,0c-0.6-0.9-1-1.8-1.5-2.7C11.9,49,3,44.7,3,39.7v-3.2c3.5,3.5,10,5.9,17.9,6.3
	c-0.1-0.7-0.1-1.5-0.1-2.2c0-0.2,0-0.4,0-0.6C10.9,39.4,3,35.3,3,30.6v-3.2c3.6,3.6,10.6,6.1,18.9,6.4c0.3-0.9,0.7-1.8,1.1-2.7
	c-10.9-0.1-20-4.5-20-9.6v-3.2c3.9,3.9,11.5,6.4,20.5,6.4c1.6,0,3.2-0.1,4.7-0.2c3.8-3.3,8.7-5.2,14-5.2c0.2,0,0.5,0,0.7,0
	c0.4-0.3,0.8-0.6,1.1-1v1c0.9,0.1,1.8,0.2,2.7,0.4v-7.3C46.8,5.4,36.6,0,23.5,0C10.5,0,0.3,5.4,0.3,12.3v35.5c0,0.2,0,0.3,0.1,0.5
	c-0.1,0.2-0.1,0.3-0.1,0.5c0,6.9,10.2,12.3,23.3,12.3c3.5,0,6.7-0.4,9.7-1.1C31.9,59.4,30.7,58.7,29.6,57.9L29.6,57.9z M23.5,2.7
	c11.1,0,20.5,4.4,20.5,9.6c0,5.2-9.4,9.6-20.5,9.6S3,17.5,3,12.3C3,7.1,12.4,2.7,23.5,2.7L23.5,2.7z M23.5,2.7"/>
<path calss="st0" d="M42.2,47.2c-3.1,0-5.5-1.7-5.5-4c0-0.5,0.4-0.9,0.9-0.9c0.5,0,0.9,0.4,0.9,0.9c0,1.1,1.7,2.1,3.6,2.1c1.9,0,3.7-1,3.7-2.1
	s-1.7-2.1-3.7-2.1c-3.1,0-5.5-1.7-5.5-4c0-2.2,2.4-4,5.5-4c3.1,0,5.5,1.7,5.5,4c0,0.5-0.4,0.9-0.9,0.9c-0.5,0-0.9-0.4-0.9-0.9
	c0-1.1-1.7-2.1-3.7-2.1c-1.9,0-3.6,1-3.6,2.1c0,1.1,1.7,2.1,3.6,2.1c3.1,0,5.5,1.7,5.5,4C47.7,45.4,45.3,47.2,42.2,47.2L42.2,47.2z
	 M42.2,47.2"/>
<path calss="st0" d="M42.2,50.6c-0.5,0-0.9-0.4-0.9-0.9V31.5c0-0.5,0.4-0.9,0.9-0.9c0.5,0,0.9,0.4,0.9,0.9v18.2C43.1,50.2,42.7,50.6,42.2,50.6
	L42.2,50.6z M42.2,50.6"/>
</svg>
