<?xml version="1.0" encoding="utf-8"?>
<!-- Generator: Adobe Illustrator 19.0.0, SVG Export Plug-In . SVG Version: 6.00 Build 0)  -->
<svg version="1.1" id="Layer_1" xmlns="http://www.w3.org/2000/svg" xmlns:xlink="http://www.w3.org/1999/xlink" x="0px" y="0px"
	 viewBox="0 0 68 52" style="enable-background:new 0 0 68 52;" xml:space="preserve">
<style type="text/css">
	.st0{fill:#FFF;}
  path{fill:#FFF;}
</style>
<g>
	<path d="M38.2,52c-1,0-1.9-0.7-2.2-1.7l-9.7-34.6l-5.7,27.8c-0.2,1-1.1,1.8-2.2,1.8c-1.1,0-2-0.7-2.3-1.7l-3.5-13.5H0v-3.9h15.8
		l2.5,9.5l5.6-27.6c0.2-1,1.1-1.8,2.1-1.8c1,0,2,0.6,2.2,1.6l9.5,34l6.3-40.1c0.2-1.1,1-1.8,2.1-1.9c1.1-0.1,2,0.6,2.3,1.6l6.6,24
		h12.1v3.9H52.1l-5.4-19.4l-6.3,39.9c-0.2,1.1-1,1.9-2.1,1.9C38.3,52,38.3,52,38.2,52z"/>
</g>
</svg>
