<?xml version="1.0" encoding="utf-8"?>
<!-- Generator: Adobe Illustrator 19.0.0, SVG Export Plug-In . SVG Version: 6.00 Build 0)  -->
<svg version="1.1" id="图层_1" xmlns="http://www.w3.org/2000/svg" xmlns:xlink="http://www.w3.org/1999/xlink" x="0px" y="0px"
	 viewBox="29.4 244.5 554 352" style="enable-background:new 29.4 244.5 554 352;" xml:space="preserve">
<style type="text/css">
	.st0{fill:#E8B33D;}
	.st1{fill:#A57F21;}
	.st2{enable-background:new    ;}
	.st3{fill:#FFFFFF;}
</style>
<g>
	<rect x="245.5" y="566" width="22.5" height="1"/>
</g>
<g>
	<rect x="34.6" y="244.5" class="st0" width="210.9" height="67"/>
</g>
<g>
	<rect x="34.6" y="244.5" class="st1" width="210.9" height="2.9"/>
</g>
<g>
	<rect x="34.6" y="384.1" class="st0" width="250.1" height="67"/>
</g>
<g>
	<rect x="34.6" y="384.1" class="st1" width="250.1" height="2.9"/>
</g>
<g>
	<rect x="446.2" y="388" class="st0" width="134" height="58"/>
</g>
<g>
	<rect x="446.2" y="388" class="st1" width="134" height="2.5"/>
</g>
<g>
	<rect x="50.2" y="529.5" class="st0" width="198.6" height="67"/>
</g>
<g>
	<rect x="50.2" y="529.5" class="st1" width="198.6" height="2.9"/>
</g>
<g>
	<rect x="467.4" y="529.5" class="st0" width="112.9" height="67"/>
</g>
<g>
	<rect x="467.4" y="529.5" class="st1" width="112.9" height="2.9"/>
</g>
<g>
	<g class="st2">
		<path class="st3" d="M104.7,408.3c0-1.4,0.4-2.5,1.1-3.4c0.8-0.8,1.8-1.2,3.1-1.2c1.2,0,2.2,0.4,2.9,1.2c0.7,0.8,1.1,1.9,1.1,3.2
			c0,1.4-0.4,2.5-1.1,3.4c-0.2,0.2-0.4,0.4-0.6,0.5l2.4,1.8h-1.9l-1.7-1.2c-0.4,0.1-0.9,0.2-1.4,0.2c-1.2,0-2.2-0.4-3-1.2
			C105.1,410.7,104.7,409.6,104.7,408.3z M105.9,408.2c0,1.1,0.3,1.9,0.8,2.5s1.2,1,2.1,1c0.9,0,1.7-0.3,2.2-0.9
			c0.5-0.6,0.8-1.5,0.8-2.6c0-1.1-0.3-2-0.8-2.6s-1.2-0.9-2.1-0.9c-0.9,0-1.6,0.3-2.2,1C106.1,406.3,105.9,407.2,105.9,408.2z"/>
		<path class="st3" d="M113.4,412c0-0.2,0.1-0.4,0.2-0.5c0.1-0.1,0.3-0.2,0.5-0.2c0.2,0,0.4,0.1,0.5,0.2c0.1,0.1,0.2,0.3,0.2,0.5
			c0,0.2-0.1,0.4-0.2,0.5c-0.1,0.1-0.3,0.2-0.5,0.2c-0.2,0-0.4-0.1-0.5-0.2C113.5,412.3,113.4,412.2,113.4,412z"/>
		<path class="st3" d="M126.9,412.5h-1.2l-0.9-2.4h-3.6l-0.8,2.4h-1.2l3.3-8.7h1.2L126.9,412.5z M124.4,409.2l-1.3-3.6
			c0-0.1-0.1-0.3-0.1-0.6h0c0,0.3-0.1,0.5-0.1,0.6l-1.3,3.6H124.4z"/>
		<path class="st3" d="M131.3,407.4c-0.2-0.1-0.4-0.2-0.8-0.2c-0.4,0-0.8,0.2-1.1,0.6c-0.3,0.4-0.4,0.9-0.4,1.6v3.2H128v-6.2h1.1
			v1.3h0c0.3-0.9,0.9-1.4,1.6-1.4c0.3,0,0.4,0,0.6,0.1V407.4z"/>
		<path class="st3" d="M135.8,412.5c-0.2,0.1-0.6,0.2-1,0.2c-1.1,0-1.7-0.6-1.7-1.9v-3.6H132v-0.9h1.1v-1.5l1.1-0.3v1.8h1.5v0.9
			h-1.5v3.4c0,0.4,0.1,0.7,0.2,0.9s0.4,0.3,0.7,0.3c0.2,0,0.5-0.1,0.6-0.2V412.5z"/>
		<path class="st3" d="M142.3,412.5h-1.1V409c0-1.3-0.5-1.9-1.4-1.9c-0.5,0-0.9,0.2-1.2,0.5c-0.3,0.4-0.5,0.8-0.5,1.4v3.5h-1.1v-9.2
			h1.1v4h0c0.5-0.8,1.2-1.2,2-1.2c1.4,0,2.1,0.8,2.1,2.5V412.5z"/>
		<path class="st3" d="M149.3,412.5h-1.1v-1h0c-0.4,0.8-1.1,1.1-1.9,1.1c-1.5,0-2.2-0.9-2.2-2.6v-3.7h1.1v3.6c0,1.3,0.5,1.9,1.5,1.9
			c0.5,0,0.9-0.2,1.2-0.5s0.4-0.8,0.4-1.3v-3.6h1.1V412.5z"/>
		<path class="st3" d="M154.6,407.4c-0.2-0.1-0.4-0.2-0.8-0.2c-0.4,0-0.8,0.2-1.1,0.6c-0.3,0.4-0.4,0.9-0.4,1.6v3.2h-1.1v-6.2h1.1
			v1.3h0c0.3-0.9,0.9-1.4,1.6-1.4c0.3,0,0.4,0,0.6,0.1V407.4z"/>
		<path class="st3" d="M163.7,404.8h-3.4v2.9h3.1v1h-3.1v3.8h-1.1v-8.7h4.5V404.8z"/>
		<path class="st3" d="M170.3,412.5h-1.1v-1h0c-0.4,0.8-1.1,1.1-1.9,1.1c-1.5,0-2.2-0.9-2.2-2.6v-3.7h1.1v3.6c0,1.3,0.5,1.9,1.5,1.9
			c0.5,0,0.9-0.2,1.2-0.5s0.4-0.8,0.4-1.3v-3.6h1.1V412.5z"/>
		<path class="st3" d="M177.5,412.5h-1.1V409c0-1.3-0.5-1.9-1.4-1.9c-0.5,0-0.9,0.2-1.2,0.5c-0.3,0.4-0.5,0.8-0.5,1.4v3.5h-1.1v-6.2
			h1.1v1h0c0.5-0.8,1.1-1.2,2-1.2c0.7,0,1.2,0.2,1.6,0.7c0.4,0.4,0.5,1.1,0.5,1.9V412.5z"/>
		<path class="st3" d="M184.8,412.5h-1.1v-1h0c-0.5,0.8-1.2,1.2-2.1,1.2c-0.8,0-1.4-0.3-1.9-0.8c-0.5-0.6-0.7-1.3-0.7-2.3
			c0-1,0.3-1.9,0.8-2.5c0.5-0.6,1.2-0.9,2.1-0.9s1.5,0.3,1.8,1h0v-3.8h1.1V412.5z M183.7,408.8c0-0.5-0.2-0.9-0.5-1.3
			c-0.3-0.3-0.7-0.5-1.2-0.5c-0.6,0-1,0.2-1.4,0.7s-0.5,1-0.5,1.8c0,0.7,0.2,1.2,0.5,1.6c0.3,0.4,0.8,0.6,1.3,0.6
			c0.5,0,1-0.2,1.3-0.6c0.3-0.4,0.5-0.9,0.5-1.5V408.8z"/>
		<path class="st3" d="M194.9,412.5h-4.6v-8.7h1.1v7.7h3.5V412.5z"/>
		<path class="st3" d="M200.8,412.5h-4.6v-8.7h1.1v7.7h3.5V412.5z"/>
		<path class="st3" d="M203.3,409.3v3.3h-1.1v-8.7h2.5c0.9,0,1.7,0.2,2.2,0.7c0.5,0.5,0.8,1.1,0.8,1.9c0,0.9-0.3,1.5-0.9,2.1
			c-0.6,0.5-1.4,0.8-2.3,0.8H203.3z M203.3,404.8v3.5h1c0.7,0,1.2-0.2,1.6-0.5c0.4-0.3,0.5-0.8,0.5-1.3c0-1.1-0.7-1.7-2-1.7H203.3z"
			/>
	</g>
	<g class="st2">
		<path class="st3" d="M125.7,431.8c-1.3-1.4-1.9-3.2-1.9-5.3s0.6-3.9,1.9-5.4h1c-1.3,1.6-1.9,3.3-1.9,5.4c0,2,0.6,3.8,1.9,5.3
			H125.7z"/>
		<path class="st3" d="M132.5,429.8h-4.6v-8.7h1.1v7.7h3.5V429.8z"/>
		<path class="st3" d="M138.8,429.8h-1.1v-1h0c-0.4,0.8-1.1,1.1-1.9,1.1c-1.5,0-2.2-0.9-2.2-2.6v-3.7h1.1v3.6c0,1.3,0.5,1.9,1.5,1.9
			c0.5,0,0.9-0.2,1.2-0.5s0.4-0.8,0.4-1.3v-3.6h1.1V429.8z"/>
		<path class="st3" d="M145.5,423.6l-2.1,3.1l2.1,3.1h-1.3l-1.2-2c-0.1-0.1-0.2-0.3-0.3-0.5h0c0,0-0.1,0.2-0.3,0.5l-1.2,2H140
			l2.1-3.1l-2-3.2h1.3l1.2,2.1c0.1,0.1,0.2,0.3,0.3,0.5h0l1.5-2.6H145.5z"/>
		<path class="st3" d="M151.6,427h-4.4c0,0.7,0.2,1.2,0.5,1.5c0.3,0.4,0.8,0.5,1.4,0.5c0.7,0,1.3-0.2,1.9-0.7v1
			c-0.5,0.4-1.3,0.6-2.2,0.6c-0.9,0-1.6-0.3-2.1-0.9s-0.8-1.4-0.8-2.4c0-1,0.3-1.7,0.8-2.4s1.2-0.9,2.1-0.9c0.8,0,1.4,0.3,1.9,0.8
			s0.7,1.3,0.7,2.2V427z M150.5,426.1c0-0.6-0.1-1-0.4-1.3c-0.3-0.3-0.6-0.5-1.1-0.5c-0.4,0-0.8,0.2-1.1,0.5
			c-0.3,0.3-0.5,0.8-0.6,1.3H150.5z"/>
		<path class="st3" d="M162,429.8h-1.1v-3.6c0-0.7-0.1-1.2-0.3-1.4c-0.2-0.3-0.6-0.4-1-0.4c-0.4,0-0.8,0.2-1,0.6
			c-0.3,0.4-0.4,0.8-0.4,1.3v3.5H157v-3.7c0-1.2-0.5-1.8-1.4-1.8c-0.4,0-0.8,0.2-1,0.5c-0.3,0.4-0.4,0.8-0.4,1.4v3.5h-1.1v-6.2h1.1
			v1h0c0.4-0.8,1.1-1.1,1.9-1.1c0.4,0,0.8,0.1,1.1,0.3s0.5,0.5,0.7,0.9c0.5-0.8,1.2-1.3,2.1-1.3c1.4,0,2.1,0.8,2.1,2.5V429.8z"/>
		<path class="st3" d="M165,429v0.9h-1.1v-9.2h1.1v4.1h0c0.5-0.8,1.2-1.2,2.1-1.2c0.8,0,1.4,0.3,1.9,0.8c0.5,0.5,0.7,1.3,0.7,2.3
			c0,1-0.3,1.9-0.8,2.5c-0.5,0.6-1.2,0.9-2.1,0.9C166,430,165.4,429.6,165,429L165,429z M165,427.3c0,0.5,0.2,0.9,0.5,1.3
			c0.3,0.3,0.7,0.5,1.2,0.5c0.6,0,1-0.2,1.4-0.7s0.5-1.1,0.5-1.9c0-0.7-0.2-1.2-0.5-1.6c-0.3-0.4-0.7-0.6-1.3-0.6
			c-0.5,0-1,0.2-1.3,0.6c-0.4,0.4-0.5,0.9-0.5,1.5V427.3z"/>
		<path class="st3" d="M176.4,429.8h-1.1v-1h0c-0.4,0.8-1.1,1.1-1.9,1.1c-1.5,0-2.2-0.9-2.2-2.6v-3.7h1.1v3.6c0,1.3,0.5,1.9,1.5,1.9
			c0.5,0,0.9-0.2,1.2-0.5s0.4-0.8,0.4-1.3v-3.6h1.1V429.8z"/>
		<path class="st3" d="M181.7,424.7c-0.2-0.1-0.4-0.2-0.8-0.2c-0.4,0-0.8,0.2-1.1,0.6c-0.3,0.4-0.4,0.9-0.4,1.6v3.2h-1.1v-6.2h1.1
			v1.3h0c0.3-0.9,0.9-1.4,1.6-1.4c0.3,0,0.4,0,0.6,0.1V424.7z"/>
		<path class="st3" d="M188,429.3c0,2.3-1.1,3.5-3.4,3.5c-0.8,0-1.4-0.1-2-0.4v-1.1c0.7,0.4,1.4,0.6,2,0.6c1.5,0,2.3-0.8,2.3-2.4
			v-0.7h0c-0.5,0.8-1.2,1.2-2.1,1.2c-0.8,0-1.4-0.3-1.9-0.8c-0.5-0.6-0.7-1.3-0.7-2.2c0-1.1,0.3-1.9,0.8-2.5s1.2-0.9,2.1-0.9
			c0.8,0,1.4,0.3,1.8,1h0v-0.8h1.1V429.3z M186.9,426.1c0-0.5-0.2-0.9-0.5-1.2c-0.3-0.3-0.7-0.5-1.2-0.5c-0.6,0-1.1,0.2-1.4,0.7
			c-0.3,0.4-0.5,1-0.5,1.8c0,0.7,0.2,1.2,0.5,1.6c0.3,0.4,0.8,0.6,1.3,0.6c0.5,0,1-0.2,1.3-0.6c0.3-0.4,0.5-0.9,0.5-1.5V426.1z"/>
		<path class="st3" d="M189.1,431.8c1.3-1.5,1.9-3.3,1.9-5.3c0-2-0.6-3.8-1.9-5.4h1c1.3,1.5,1.9,3.3,1.9,5.4c0,2.1-0.6,3.9-1.9,5.3
			H189.1z"/>
	</g>
</g>
<g>
	<g class="st2">
		<path class="st3" d="M86.4,562.2c0-1.4,0.4-2.5,1.1-3.4c0.8-0.8,1.8-1.2,3.1-1.2c1.2,0,2.2,0.4,2.9,1.2c0.7,0.8,1.1,1.9,1.1,3.2
			c0,1.4-0.4,2.5-1.1,3.4c-0.2,0.2-0.4,0.4-0.6,0.5l2.4,1.8h-1.9l-1.7-1.2c-0.4,0.1-0.9,0.2-1.4,0.2c-1.2,0-2.2-0.4-3-1.2
			C86.8,564.6,86.4,563.5,86.4,562.2z M87.6,562.2c0,1.1,0.3,1.9,0.8,2.5s1.2,1,2.1,1c0.9,0,1.7-0.3,2.2-0.9s0.8-1.5,0.8-2.6
			c0-1.1-0.3-2-0.8-2.6s-1.2-0.9-2.1-0.9c-0.9,0-1.6,0.3-2.2,1C87.9,560.3,87.6,561.1,87.6,562.2z"/>
		<path class="st3" d="M95.1,565.9c0-0.2,0.1-0.4,0.2-0.5c0.1-0.1,0.3-0.2,0.5-0.2c0.2,0,0.4,0.1,0.5,0.2s0.2,0.3,0.2,0.5
			c0,0.2-0.1,0.4-0.2,0.5s-0.3,0.2-0.5,0.2c-0.2,0-0.4-0.1-0.5-0.2C95.2,566.3,95.1,566.1,95.1,565.9z"/>
		<path class="st3" d="M108.6,566.5h-1.2l-0.9-2.4h-3.6l-0.8,2.4h-1.2l3.3-8.7h1.2L108.6,566.5z M106.1,563.1l-1.3-3.6
			c0-0.1-0.1-0.3-0.1-0.6h0c0,0.3-0.1,0.5-0.1,0.6l-1.3,3.6H106.1z"/>
		<path class="st3" d="M113.1,561.4c-0.2-0.1-0.4-0.2-0.8-0.2c-0.4,0-0.8,0.2-1.1,0.6c-0.3,0.4-0.4,0.9-0.4,1.6v3.2h-1.1v-6.2h1.1
			v1.3h0c0.3-0.9,0.9-1.4,1.6-1.4c0.3,0,0.4,0,0.6,0.1V561.4z"/>
		<path class="st3" d="M117.5,566.4c-0.2,0.1-0.6,0.2-1,0.2c-1.1,0-1.7-0.6-1.7-1.9v-3.6h-1.1v-0.9h1.1v-1.5l1.1-0.3v1.8h1.5v0.9
			h-1.5v3.4c0,0.4,0.1,0.7,0.2,0.9s0.4,0.3,0.7,0.3c0.2,0,0.5-0.1,0.6-0.2V566.4z"/>
		<path class="st3" d="M124,566.5h-1.1v-3.6c0-1.3-0.5-1.9-1.4-1.9c-0.5,0-0.9,0.2-1.2,0.5c-0.3,0.4-0.5,0.8-0.5,1.4v3.5h-1.1v-9.2
			h1.1v4h0c0.5-0.8,1.2-1.2,2-1.2c1.4,0,2.1,0.8,2.1,2.5V566.5z"/>
		<path class="st3" d="M131,566.5h-1.1v-1h0c-0.4,0.8-1.1,1.1-1.9,1.1c-1.5,0-2.2-0.9-2.2-2.6v-3.7h1.1v3.6c0,1.3,0.5,1.9,1.5,1.9
			c0.5,0,0.9-0.2,1.2-0.5s0.4-0.8,0.4-1.3v-3.6h1.1V566.5z"/>
		<path class="st3" d="M136.3,561.4c-0.2-0.1-0.4-0.2-0.8-0.2c-0.4,0-0.8,0.2-1.1,0.6c-0.3,0.4-0.4,0.9-0.4,1.6v3.2H133v-6.2h1.1
			v1.3h0c0.3-0.9,0.9-1.4,1.6-1.4c0.3,0,0.4,0,0.6,0.1V561.4z"/>
		<path class="st3" d="M145.5,566.5h-4.6v-8.7h1.1v7.7h3.5V566.5z"/>
		<path class="st3" d="M149.5,566.4c-0.2,0.1-0.6,0.2-1,0.2c-1.1,0-1.7-0.6-1.7-1.9v-3.6h-1.1v-0.9h1.1v-1.5l1.1-0.3v1.8h1.5v0.9
			H148v3.4c0,0.4,0.1,0.7,0.2,0.9s0.4,0.3,0.7,0.3c0.2,0,0.5-0.1,0.6-0.2V566.4z"/>
		<path class="st3" d="M156.1,566.5H155v-1h0c-0.5,0.8-1.2,1.2-2.1,1.2c-0.8,0-1.4-0.3-1.9-0.8c-0.5-0.6-0.7-1.3-0.7-2.3
			c0-1,0.3-1.9,0.8-2.5c0.5-0.6,1.2-0.9,2.1-0.9s1.5,0.3,1.8,1h0v-3.8h1.1V566.5z M155,562.8c0-0.5-0.2-0.9-0.5-1.3
			c-0.3-0.3-0.7-0.5-1.2-0.5c-0.6,0-1,0.2-1.4,0.7s-0.5,1-0.5,1.8c0,0.7,0.2,1.2,0.5,1.6c0.3,0.4,0.8,0.6,1.3,0.6
			c0.5,0,1-0.2,1.3-0.6c0.3-0.4,0.5-0.9,0.5-1.5V562.8z"/>
		<path class="st3" d="M163.2,568.5c-1.3-1.4-1.9-3.2-1.9-5.3s0.6-3.9,1.9-5.4h1c-1.3,1.6-1.9,3.3-1.9,5.4c0,2,0.6,3.8,1.9,5.3
			H163.2z"/>
		<path class="st3" d="M171.9,562.9c0,2.5-1.1,3.7-3.4,3.7c-2.1,0-3.2-1.2-3.2-3.6v-5.3h1.1v5.2c0,1.7,0.7,2.6,2.2,2.6
			c1.4,0,2.1-0.8,2.1-2.5v-5.3h1.1V562.9z"/>
		<path class="st3" d="M180.2,566.5h-1.5l-3.3-4c-0.1-0.1-0.2-0.2-0.2-0.3h0v4.3H174v-8.7h1.1v4.1h0c0.1-0.1,0.1-0.2,0.2-0.3
			l3.2-3.8h1.4l-3.7,4.2L180.2,566.5z"/>
		<path class="st3" d="M189.4,566.5h-4.6v-8.7h1.1v7.7h3.5V566.5z"/>
		<path class="st3" d="M195.3,558.8h-2.5v7.7h-1.1v-7.7h-2.5v-1h6.1V558.8z"/>
		<path class="st3" d="M196.6,566.5v-8.7h2.5c1.3,0,2.4,0.4,3.3,1.2c0.9,0.8,1.3,1.8,1.3,3.1c0,1.3-0.4,2.4-1.3,3.2
			c-0.9,0.8-2,1.2-3.4,1.2H196.6z M197.7,558.8v6.7h1.3c1.1,0,2-0.3,2.6-0.9c0.6-0.6,0.9-1.5,0.9-2.5c0-1.1-0.3-1.9-1-2.5
			s-1.5-0.8-2.5-0.8H197.7z"/>
		<path class="st3" d="M204.4,568.5c1.3-1.5,1.9-3.3,1.9-5.3c0-2-0.6-3.8-1.9-5.4h1c1.3,1.5,1.9,3.3,1.9,5.4c0,2.1-0.6,3.9-1.9,5.3
			H204.4z"/>
	</g>
</g>
<g>
	<g>
		<polygon points="144.4,376.7 139.6,381.5 134.8,376.7 		"/>
	</g>
</g>
<g class="st2">
	<path d="M33.3,342.6v7.4h-0.5v-6.7c-0.2,0.2-0.5,0.4-0.8,0.6c-0.3,0.2-0.6,0.3-1,0.4v-0.4c0.2-0.1,0.4-0.2,0.6-0.2s0.4-0.2,0.5-0.3
		c0.2-0.1,0.3-0.2,0.5-0.4c0.2-0.1,0.3-0.3,0.5-0.4H33.3z"/>
	<path d="M35.5,350.1c-0.1,0-0.2,0-0.3-0.1s-0.1-0.2-0.1-0.3c0-0.1,0-0.2,0.1-0.3c0.1-0.1,0.2-0.1,0.3-0.1c0.1,0,0.2,0,0.3,0.1
		c0.1,0.1,0.1,0.2,0.1,0.3c0,0.1,0,0.2-0.1,0.3C35.7,350.1,35.6,350.1,35.5,350.1z"/>
	<path d="M42.3,350l-0.8-2.3h-3.1l-0.8,2.3h-0.5l2.7-7.3h0.5l2.7,7.3H42.3z M40.1,343.9c0-0.1-0.1-0.2-0.1-0.3c0-0.1,0-0.2-0.1-0.3
		h0c-0.1,0.2-0.1,0.4-0.2,0.5l-1.2,3.4h2.8L40.1,343.9z"/>
	<path d="M43.7,349.8v-0.6c0.2,0.1,0.4,0.3,0.6,0.4s0.5,0.1,0.6,0.1c0.8,0,1.2-0.3,1.2-1c0-0.2-0.1-0.4-0.3-0.6s-0.5-0.3-0.9-0.5
		c-0.5-0.2-0.8-0.4-1-0.7c-0.2-0.2-0.3-0.5-0.3-0.8c0-0.4,0.2-0.8,0.5-1c0.3-0.3,0.7-0.4,1.2-0.4c0.4,0,0.8,0.1,1.1,0.3v0.5
		c-0.4-0.3-0.8-0.4-1.2-0.4c-0.3,0-0.6,0.1-0.8,0.3c-0.2,0.2-0.3,0.4-0.3,0.7c0,0.2,0.1,0.4,0.2,0.6c0.1,0.2,0.4,0.3,0.9,0.5
		c0.5,0.2,0.9,0.5,1.1,0.7c0.2,0.2,0.3,0.5,0.3,0.8c0,0.4-0.2,0.7-0.5,1c-0.3,0.3-0.7,0.4-1.3,0.4C44.5,350.1,44,350,43.7,349.8z"/>
	<path d="M47.7,349.8v-0.6c0.2,0.1,0.4,0.3,0.6,0.4s0.5,0.1,0.6,0.1c0.8,0,1.2-0.3,1.2-1c0-0.2-0.1-0.4-0.3-0.6s-0.5-0.3-0.9-0.5
		c-0.5-0.2-0.8-0.4-1-0.7c-0.2-0.2-0.3-0.5-0.3-0.8c0-0.4,0.2-0.8,0.5-1c0.3-0.3,0.7-0.4,1.2-0.4c0.4,0,0.8,0.1,1.1,0.3v0.5
		c-0.4-0.3-0.8-0.4-1.2-0.4c-0.3,0-0.6,0.1-0.8,0.3c-0.2,0.2-0.3,0.4-0.3,0.7c0,0.2,0.1,0.4,0.2,0.6c0.1,0.2,0.4,0.3,0.9,0.5
		c0.5,0.2,0.9,0.5,1.1,0.7c0.2,0.2,0.3,0.5,0.3,0.8c0,0.4-0.2,0.7-0.5,1c-0.3,0.3-0.7,0.4-1.3,0.4C48.5,350.1,48.1,350,47.7,349.8z"
		/>
	<path d="M52.1,347.4c0,0.7,0.2,1.3,0.5,1.7c0.3,0.4,0.8,0.6,1.4,0.6c0.6,0,1.1-0.2,1.7-0.6v0.5c-0.5,0.4-1.1,0.6-1.8,0.6
		c-0.7,0-1.2-0.2-1.6-0.7c-0.4-0.5-0.6-1.2-0.6-2c0-0.8,0.2-1.4,0.6-1.9c0.4-0.5,1-0.8,1.7-0.8c0.6,0,1.1,0.2,1.5,0.7
		c0.3,0.5,0.5,1.1,0.5,1.9v0.2H52.1z M55.5,347c0-0.6-0.2-1.1-0.4-1.4s-0.6-0.5-1.1-0.5c-0.5,0-0.9,0.2-1.2,0.5
		c-0.3,0.3-0.5,0.8-0.6,1.4H55.5z"/>
	<path d="M59.3,349.9c-0.2,0.1-0.5,0.2-0.7,0.2c-0.8,0-1.1-0.5-1.1-1.4v-3.5h-0.9v-0.4h0.9v-1.3c0.1,0,0.1-0.1,0.2-0.1
		c0.1,0,0.2-0.1,0.2-0.1v1.5h1.4v0.4h-1.4v3.4c0,0.4,0.1,0.6,0.2,0.8c0.1,0.2,0.3,0.2,0.6,0.2c0.2,0,0.4-0.1,0.6-0.2V349.9z"/>
	<path d="M60.1,349.8v-0.6c0.2,0.1,0.4,0.3,0.6,0.4s0.5,0.1,0.6,0.1c0.8,0,1.2-0.3,1.2-1c0-0.2-0.1-0.4-0.3-0.6s-0.5-0.3-0.9-0.5
		c-0.5-0.2-0.8-0.4-1-0.7c-0.2-0.2-0.3-0.5-0.3-0.8c0-0.4,0.2-0.8,0.5-1c0.3-0.3,0.7-0.4,1.2-0.4c0.4,0,0.8,0.1,1.1,0.3v0.5
		c-0.4-0.3-0.8-0.4-1.2-0.4c-0.3,0-0.6,0.1-0.8,0.3c-0.2,0.2-0.3,0.4-0.3,0.7c0,0.2,0.1,0.4,0.2,0.6c0.1,0.2,0.4,0.3,0.9,0.5
		c0.5,0.2,0.9,0.5,1.1,0.7c0.2,0.2,0.3,0.5,0.3,0.8c0,0.4-0.2,0.7-0.5,1c-0.3,0.3-0.7,0.4-1.3,0.4C60.8,350.1,60.4,350,60.1,349.8z"
		/>
	<path d="M71.4,349.6c0,1-0.2,1.7-0.6,2.1c-0.4,0.5-1.1,0.7-2,0.7c-0.5,0-1-0.1-1.5-0.4v-0.5c0.5,0.3,1.1,0.5,1.6,0.5
		c1.4,0,2.1-0.8,2.1-2.3v-0.7h0c-0.4,0.7-1,1.1-1.9,1.1c-0.6,0-1.2-0.2-1.6-0.7c-0.4-0.5-0.6-1.1-0.6-1.9c0-0.8,0.2-1.5,0.7-2
		c0.4-0.5,1-0.8,1.7-0.8c0.8,0,1.3,0.3,1.7,0.9h0v-0.8h0.5V349.6z M70.9,346.8c0-0.5-0.2-0.9-0.5-1.2c-0.3-0.3-0.7-0.5-1.2-0.5
		c-0.6,0-1,0.2-1.4,0.6c-0.3,0.4-0.5,1-0.5,1.7c0,0.7,0.2,1.3,0.5,1.7c0.3,0.4,0.7,0.6,1.3,0.6c0.6,0,1-0.2,1.3-0.5
		c0.3-0.4,0.5-0.8,0.5-1.3V346.8z"/>
	<path d="M73.1,347.4c0,0.7,0.2,1.3,0.5,1.7c0.3,0.4,0.8,0.6,1.4,0.6c0.6,0,1.1-0.2,1.7-0.6v0.5c-0.5,0.4-1.1,0.6-1.8,0.6
		c-0.7,0-1.2-0.2-1.6-0.7c-0.4-0.5-0.6-1.2-0.6-2c0-0.8,0.2-1.4,0.6-1.9c0.4-0.5,1-0.8,1.7-0.8c0.6,0,1.1,0.2,1.5,0.7
		c0.3,0.5,0.5,1.1,0.5,1.9v0.2H73.1z M76.5,347c0-0.6-0.2-1.1-0.4-1.4s-0.6-0.5-1.1-0.5c-0.5,0-0.9,0.2-1.2,0.5
		c-0.3,0.3-0.5,0.8-0.6,1.4H76.5z"/>
	<path d="M81.8,350v-3c0-1.2-0.4-1.9-1.3-1.9c-0.5,0-0.9,0.2-1.2,0.5s-0.5,0.8-0.5,1.4v3h-0.5v-5.2h0.5v0.9h0c0.4-0.7,1-1.1,1.8-1.1
		c0.6,0,1,0.2,1.3,0.6s0.4,0.9,0.4,1.6v3.2H81.8z"/>
	<path d="M83.9,347.4c0,0.7,0.2,1.3,0.5,1.7c0.3,0.4,0.8,0.6,1.4,0.6c0.6,0,1.1-0.2,1.7-0.6v0.5c-0.5,0.4-1.1,0.6-1.8,0.6
		c-0.7,0-1.2-0.2-1.6-0.7c-0.4-0.5-0.6-1.2-0.6-2c0-0.8,0.2-1.4,0.6-1.9c0.4-0.5,1-0.8,1.7-0.8c0.6,0,1.1,0.2,1.5,0.7
		c0.3,0.5,0.5,1.1,0.5,1.9v0.2H83.9z M87.3,347c0-0.6-0.2-1.1-0.4-1.4s-0.6-0.5-1.1-0.5c-0.5,0-0.9,0.2-1.2,0.5
		c-0.3,0.3-0.5,0.8-0.6,1.4H87.3z"/>
	<path d="M91.5,345.3c-0.2-0.1-0.3-0.2-0.5-0.2c-0.4,0-0.8,0.2-1,0.6c-0.3,0.4-0.4,1-0.4,1.8v2.4H89v-5.2h0.5v1.1h0
		c0.1-0.4,0.3-0.7,0.6-0.9s0.6-0.3,0.9-0.3c0.2,0,0.4,0,0.5,0.1V345.3z"/>
	<path d="M95.6,350v-1h0c-0.2,0.4-0.4,0.6-0.7,0.8c-0.3,0.2-0.7,0.3-1.1,0.3c-0.5,0-0.9-0.1-1.2-0.4c-0.3-0.3-0.4-0.6-0.4-1
		c0-0.9,0.6-1.5,1.8-1.6l1.6-0.2c0-1.1-0.4-1.7-1.3-1.7c-0.6,0-1.1,0.2-1.7,0.7v-0.6c0.2-0.2,0.5-0.3,0.8-0.4
		c0.3-0.1,0.6-0.2,0.9-0.2c0.5,0,0.9,0.2,1.2,0.5c0.3,0.3,0.4,0.8,0.4,1.4v3.4H95.6z M94.1,347.4c-0.5,0.1-0.9,0.2-1.1,0.4
		c-0.2,0.2-0.3,0.5-0.3,0.9c0,0.3,0.1,0.6,0.3,0.8c0.2,0.2,0.5,0.3,0.9,0.3c0.5,0,0.9-0.2,1.2-0.6c0.3-0.4,0.5-0.8,0.5-1.4v-0.5
		L94.1,347.4z"/>
	<path d="M99.6,349.9c-0.2,0.1-0.5,0.2-0.7,0.2c-0.8,0-1.1-0.5-1.1-1.4v-3.5h-0.9v-0.4h0.9v-1.3c0.1,0,0.1-0.1,0.2-0.1
		c0.1,0,0.2-0.1,0.2-0.1v1.5h1.4v0.4h-1.4v3.4c0,0.4,0.1,0.6,0.2,0.8c0.1,0.2,0.3,0.2,0.6,0.2c0.2,0,0.4-0.1,0.6-0.2V349.9z"/>
	<path d="M100.8,347.4c0,0.7,0.2,1.3,0.5,1.7c0.3,0.4,0.8,0.6,1.4,0.6c0.6,0,1.1-0.2,1.7-0.6v0.5c-0.5,0.4-1.1,0.6-1.8,0.6
		c-0.7,0-1.2-0.2-1.6-0.7c-0.4-0.5-0.6-1.2-0.6-2c0-0.8,0.2-1.4,0.6-1.9c0.4-0.5,1-0.8,1.7-0.8c0.6,0,1.1,0.2,1.5,0.7
		c0.3,0.5,0.5,1.1,0.5,1.9v0.2H100.8z M104.1,347c0-0.6-0.2-1.1-0.4-1.4s-0.6-0.5-1.1-0.5c-0.5,0-0.9,0.2-1.2,0.5
		c-0.3,0.3-0.5,0.8-0.6,1.4H104.1z"/>
	<path d="M112.1,349.8c-0.4,0.2-0.8,0.4-1.4,0.4c-0.7,0-1.3-0.2-1.7-0.7c-0.4-0.5-0.6-1.1-0.6-1.9c0-0.8,0.2-1.5,0.7-2
		c0.5-0.5,1.1-0.8,1.9-0.8c0.4,0,0.8,0.1,1.1,0.2v0.5c-0.4-0.2-0.8-0.3-1.2-0.3c-0.6,0-1.1,0.2-1.5,0.7c-0.4,0.4-0.6,1-0.6,1.7
		c0,0.7,0.2,1.2,0.5,1.6c0.3,0.4,0.8,0.6,1.4,0.6c0.5,0,1-0.1,1.4-0.4V349.8z"/>
	<path d="M116.5,350v-1h0c-0.2,0.4-0.4,0.6-0.7,0.8c-0.3,0.2-0.7,0.3-1.1,0.3c-0.5,0-0.9-0.1-1.2-0.4c-0.3-0.3-0.4-0.6-0.4-1
		c0-0.9,0.6-1.5,1.8-1.6l1.6-0.2c0-1.1-0.4-1.7-1.3-1.7c-0.6,0-1.1,0.2-1.7,0.7v-0.6c0.2-0.2,0.5-0.3,0.8-0.4
		c0.3-0.1,0.6-0.2,0.9-0.2c0.5,0,0.9,0.2,1.2,0.5c0.3,0.3,0.4,0.8,0.4,1.4v3.4H116.5z M115,347.4c-0.5,0.1-0.9,0.2-1.1,0.4
		c-0.2,0.2-0.3,0.5-0.3,0.9c0,0.3,0.1,0.6,0.3,0.8c0.2,0.2,0.5,0.3,0.9,0.3c0.5,0,0.9-0.2,1.2-0.6c0.3-0.4,0.5-0.8,0.5-1.4v-0.5
		L115,347.4z"/>
	<path d="M118.2,349.8v-0.6c0.2,0.1,0.4,0.3,0.6,0.4s0.5,0.1,0.6,0.1c0.8,0,1.2-0.3,1.2-1c0-0.2-0.1-0.4-0.3-0.6s-0.5-0.3-0.9-0.5
		c-0.5-0.2-0.8-0.4-1-0.7c-0.2-0.2-0.3-0.5-0.3-0.8c0-0.4,0.2-0.8,0.5-1c0.3-0.3,0.7-0.4,1.2-0.4c0.4,0,0.8,0.1,1.1,0.3v0.5
		c-0.4-0.3-0.8-0.4-1.2-0.4c-0.3,0-0.6,0.1-0.8,0.3c-0.2,0.2-0.3,0.4-0.3,0.7c0,0.2,0.1,0.4,0.2,0.6c0.1,0.2,0.4,0.3,0.9,0.5
		c0.5,0.2,0.9,0.5,1.1,0.7c0.2,0.2,0.3,0.5,0.3,0.8c0,0.4-0.2,0.7-0.5,1c-0.3,0.3-0.7,0.4-1.3,0.4C119,350.1,118.5,350,118.2,349.8z
		"/>
	<path d="M126,350v-3.1c0-0.6-0.1-1.1-0.3-1.4c-0.2-0.3-0.6-0.4-1-0.4c-0.4,0-0.8,0.2-1.2,0.5c-0.3,0.3-0.5,0.8-0.5,1.5v2.9h-0.5
		v-7.7h0.5v3.4h0c0.4-0.7,1-1.1,1.8-1.1c0.6,0,1,0.2,1.3,0.5c0.3,0.4,0.4,0.9,0.4,1.6v3.2H126z"/>
	<path d="M130.3,342.8c-0.1-0.1-0.3-0.1-0.6-0.1c-0.6,0-1,0.4-1,1.3v0.9h1.4v0.4h-1.4v4.8h-0.5v-4.8h-0.9v-0.4h0.9v-0.9
		c0-0.5,0.1-1,0.4-1.2c0.3-0.3,0.6-0.4,1-0.4c0.2,0,0.4,0,0.5,0.1V342.8z"/>
	<path d="M130.9,350v-7.7h0.5v7.7H130.9z"/>
	<path d="M135.1,350.1c-0.8,0-1.4-0.2-1.8-0.7c-0.4-0.5-0.7-1.1-0.7-1.9c0-0.9,0.2-1.5,0.7-2c0.5-0.5,1.1-0.7,1.8-0.7
		c0.7,0,1.3,0.2,1.8,0.7s0.6,1.2,0.6,2c0,0.8-0.2,1.5-0.7,2S135.9,350.1,135.1,350.1z M135.2,345.1c-0.6,0-1.1,0.2-1.5,0.6
		c-0.4,0.4-0.5,1-0.5,1.7c0,0.7,0.2,1.2,0.5,1.6c0.4,0.4,0.8,0.6,1.5,0.6c0.6,0,1.1-0.2,1.4-0.6s0.5-1,0.5-1.7
		c0-0.7-0.2-1.3-0.5-1.7C136.3,345.3,135.8,345.1,135.2,345.1z"/>
	<path d="M143.3,350h-0.4l-1.1-3.9c0-0.1-0.1-0.3-0.1-0.4h0c0,0.1,0,0.2-0.1,0.4l-1.3,3.9h-0.4l-1.6-5.2h0.5l1.2,4.1
		c0,0.1,0.1,0.3,0.1,0.4h0c0-0.1,0-0.2,0.1-0.4l1.3-4.1h0.3l1.2,4.1c0,0.1,0,0.2,0.1,0.4h0c0-0.1,0-0.2,0.1-0.4l1.2-4.1h0.5
		L143.3,350z"/>
	<path d="M151.8,350v-1h0c-0.2,0.4-0.4,0.6-0.7,0.8c-0.3,0.2-0.7,0.3-1.1,0.3c-0.5,0-0.9-0.1-1.2-0.4c-0.3-0.3-0.4-0.6-0.4-1
		c0-0.9,0.6-1.5,1.8-1.6l1.6-0.2c0-1.1-0.4-1.7-1.3-1.7c-0.6,0-1.1,0.2-1.7,0.7v-0.6c0.2-0.2,0.5-0.3,0.8-0.4
		c0.3-0.1,0.6-0.2,0.9-0.2c0.5,0,0.9,0.2,1.2,0.5c0.3,0.3,0.4,0.8,0.4,1.4v3.4H151.8z M150.4,347.4c-0.5,0.1-0.9,0.2-1.1,0.4
		c-0.2,0.2-0.3,0.5-0.3,0.9c0,0.3,0.1,0.6,0.3,0.8c0.2,0.2,0.5,0.3,0.9,0.3c0.5,0,0.9-0.2,1.2-0.6c0.3-0.4,0.5-0.8,0.5-1.4v-0.5
		L150.4,347.4z"/>
	<path d="M157.4,350v-3c0-1.2-0.4-1.9-1.3-1.9c-0.5,0-0.9,0.2-1.2,0.5s-0.5,0.8-0.5,1.4v3h-0.5v-5.2h0.5v0.9h0
		c0.4-0.7,1-1.1,1.8-1.1c0.6,0,1,0.2,1.3,0.6s0.4,0.9,0.4,1.6v3.2H157.4z"/>
	<path d="M163.1,350v-0.9h0c-0.2,0.3-0.4,0.6-0.8,0.8c-0.3,0.2-0.7,0.3-1.1,0.3c-0.6,0-1.2-0.2-1.6-0.7c-0.4-0.5-0.6-1.1-0.6-1.9
		c0-0.8,0.2-1.5,0.7-2c0.4-0.5,1-0.8,1.7-0.8c0.8,0,1.3,0.3,1.7,1h0v-3.3h0.5v7.7H163.1z M163.1,346.8c0-0.5-0.2-0.9-0.5-1.2
		s-0.7-0.5-1.2-0.5c-0.5,0-1,0.2-1.3,0.6c-0.4,0.4-0.5,1-0.5,1.7c0,0.7,0.2,1.3,0.5,1.7s0.7,0.6,1.2,0.6c0.6,0,1-0.2,1.4-0.5
		c0.3-0.4,0.5-0.8,0.5-1.3V346.8z"/>
	<path d="M171.7,350v-0.9h0c-0.2,0.3-0.4,0.6-0.8,0.8c-0.3,0.2-0.7,0.3-1.1,0.3c-0.6,0-1.2-0.2-1.6-0.7c-0.4-0.5-0.6-1.1-0.6-1.9
		c0-0.8,0.2-1.5,0.7-2c0.4-0.5,1-0.8,1.7-0.8c0.8,0,1.3,0.3,1.7,1h0v-3.3h0.5v7.7H171.7z M171.7,346.8c0-0.5-0.2-0.9-0.5-1.2
		s-0.7-0.5-1.2-0.5c-0.5,0-1,0.2-1.3,0.6c-0.4,0.4-0.5,1-0.5,1.7c0,0.7,0.2,1.3,0.5,1.7s0.7,0.6,1.2,0.6c0.6,0,1-0.2,1.4-0.5
		c0.3-0.4,0.5-0.8,0.5-1.3V346.8z"/>
	<path d="M174.1,343.5c-0.1,0-0.2,0-0.3-0.1s-0.1-0.2-0.1-0.3c0-0.1,0-0.2,0.1-0.3s0.2-0.1,0.3-0.1c0.1,0,0.2,0,0.3,0.1
		c0.1,0.1,0.1,0.2,0.1,0.3c0,0.1,0,0.2-0.1,0.3C174.3,343.5,174.2,343.5,174.1,343.5z M173.9,350v-5.2h0.5v5.2H173.9z"/>
	<path d="M177.7,350h-0.4l-2-5.2h0.5l1.5,4.1c0.1,0.2,0.1,0.4,0.2,0.5h0c0-0.2,0.1-0.4,0.1-0.5l1.6-4.1h0.5L177.7,350z"/>
	<path d="M180.9,343.5c-0.1,0-0.2,0-0.3-0.1s-0.1-0.2-0.1-0.3c0-0.1,0-0.2,0.1-0.3s0.2-0.1,0.3-0.1c0.1,0,0.2,0,0.3,0.1
		c0.1,0.1,0.1,0.2,0.1,0.3c0,0.1,0,0.2-0.1,0.3C181.1,343.5,181,343.5,180.9,343.5z M180.7,350v-5.2h0.5v5.2H180.7z"/>
	<path d="M186.5,350v-0.9h0c-0.2,0.3-0.4,0.6-0.8,0.8c-0.3,0.2-0.7,0.3-1.1,0.3c-0.6,0-1.2-0.2-1.6-0.7c-0.4-0.5-0.6-1.1-0.6-1.9
		c0-0.8,0.2-1.5,0.7-2c0.4-0.5,1-0.8,1.7-0.8c0.8,0,1.3,0.3,1.7,1h0v-3.3h0.5v7.7H186.5z M186.5,346.8c0-0.5-0.2-0.9-0.5-1.2
		s-0.7-0.5-1.2-0.5c-0.5,0-1,0.2-1.3,0.6c-0.4,0.4-0.5,1-0.5,1.7c0,0.7,0.2,1.3,0.5,1.7s0.7,0.6,1.2,0.6c0.6,0,1-0.2,1.4-0.5
		c0.3-0.4,0.5-0.8,0.5-1.3V346.8z"/>
	<path d="M188.7,347.4c0,0.7,0.2,1.3,0.5,1.7c0.3,0.4,0.8,0.6,1.4,0.6c0.6,0,1.1-0.2,1.7-0.6v0.5c-0.5,0.4-1.1,0.6-1.8,0.6
		c-0.7,0-1.2-0.2-1.6-0.7c-0.4-0.5-0.6-1.2-0.6-2c0-0.8,0.2-1.4,0.6-1.9c0.4-0.5,1-0.8,1.7-0.8c0.6,0,1.1,0.2,1.5,0.7
		c0.3,0.5,0.5,1.1,0.5,1.9v0.2H188.7z M192.1,347c0-0.6-0.2-1.1-0.4-1.4s-0.6-0.5-1.1-0.5c-0.5,0-0.9,0.2-1.2,0.5
		c-0.3,0.3-0.5,0.8-0.6,1.4H192.1z"/>
	<path d="M197.4,350v-3c0-1.2-0.4-1.9-1.3-1.9c-0.5,0-0.9,0.2-1.2,0.5s-0.5,0.8-0.5,1.4v3h-0.5v-5.2h0.5v0.9h0
		c0.4-0.7,1-1.1,1.8-1.1c0.6,0,1,0.2,1.3,0.6s0.4,0.9,0.4,1.6v3.2H197.4z"/>
	<path d="M203.1,350v-0.9h0c-0.2,0.3-0.4,0.6-0.8,0.8c-0.3,0.2-0.7,0.3-1.1,0.3c-0.6,0-1.2-0.2-1.6-0.7c-0.4-0.5-0.6-1.1-0.6-1.9
		c0-0.8,0.2-1.5,0.7-2c0.4-0.5,1-0.8,1.7-0.8c0.8,0,1.3,0.3,1.7,1h0v-3.3h0.5v7.7H203.1z M203.1,346.8c0-0.5-0.2-0.9-0.5-1.2
		s-0.7-0.5-1.2-0.5c-0.5,0-1,0.2-1.3,0.6c-0.4,0.4-0.5,1-0.5,1.7c0,0.7,0.2,1.3,0.5,1.7s0.7,0.6,1.2,0.6c0.6,0,1-0.2,1.4-0.5
		c0.3-0.4,0.5-0.8,0.5-1.3V346.8z"/>
	<path d="M205,349.8v-0.6c0.2,0.1,0.4,0.3,0.6,0.4s0.5,0.1,0.6,0.1c0.8,0,1.2-0.3,1.2-1c0-0.2-0.1-0.4-0.3-0.6s-0.5-0.3-0.9-0.5
		c-0.5-0.2-0.8-0.4-1-0.7c-0.2-0.2-0.3-0.5-0.3-0.8c0-0.4,0.2-0.8,0.5-1c0.3-0.3,0.7-0.4,1.2-0.4c0.4,0,0.8,0.1,1.1,0.3v0.5
		c-0.4-0.3-0.8-0.4-1.2-0.4c-0.3,0-0.6,0.1-0.8,0.3c-0.2,0.2-0.3,0.4-0.3,0.7c0,0.2,0.1,0.4,0.2,0.6c0.1,0.2,0.4,0.3,0.9,0.5
		c0.5,0.2,0.9,0.5,1.1,0.7c0.2,0.2,0.3,0.5,0.3,0.8c0,0.4-0.2,0.7-0.5,1c-0.3,0.3-0.7,0.4-1.3,0.4C205.7,350.1,205.3,350,205,349.8z
		"/>
	<path d="M214.4,342.8c-0.1-0.1-0.3-0.1-0.6-0.1c-0.6,0-1,0.4-1,1.3v0.9h1.4v0.4h-1.4v4.8h-0.5v-4.8h-0.9v-0.4h0.9v-0.9
		c0-0.5,0.1-1,0.4-1.2c0.3-0.3,0.6-0.4,1-0.4c0.2,0,0.4,0,0.5,0.1V342.8z"/>
	<path d="M217,350.1c-0.8,0-1.4-0.2-1.8-0.7c-0.4-0.5-0.7-1.1-0.7-1.9c0-0.9,0.2-1.5,0.7-2c0.5-0.5,1.1-0.7,1.8-0.7
		c0.7,0,1.3,0.2,1.8,0.7s0.6,1.2,0.6,2c0,0.8-0.2,1.5-0.7,2S217.8,350.1,217,350.1z M217.1,345.1c-0.6,0-1.1,0.2-1.5,0.6
		c-0.4,0.4-0.5,1-0.5,1.7c0,0.7,0.2,1.2,0.5,1.6c0.4,0.4,0.8,0.6,1.5,0.6c0.6,0,1.1-0.2,1.4-0.6s0.5-1,0.5-1.7
		c0-0.7-0.2-1.3-0.5-1.7C218.2,345.3,217.7,345.1,217.1,345.1z"/>
	<path d="M223.2,345.3c-0.2-0.1-0.3-0.2-0.5-0.2c-0.4,0-0.8,0.2-1,0.6c-0.3,0.4-0.4,1-0.4,1.8v2.4h-0.5v-5.2h0.5v1.1h0
		c0.1-0.4,0.3-0.7,0.6-0.9s0.6-0.3,0.9-0.3c0.2,0,0.4,0,0.5,0.1V345.3z"/>
	<path d="M229.1,349.9c-0.2,0.1-0.5,0.2-0.7,0.2c-0.8,0-1.1-0.5-1.1-1.4v-3.5h-0.9v-0.4h0.9v-1.3c0.1,0,0.1-0.1,0.2-0.1
		c0.1,0,0.2-0.1,0.2-0.1v1.5h1.4v0.4h-1.4v3.4c0,0.4,0.1,0.6,0.2,0.8c0.1,0.2,0.3,0.2,0.6,0.2c0.2,0,0.4-0.1,0.6-0.2V349.9z"/>
	<path d="M233.6,350v-3.1c0-0.6-0.1-1.1-0.3-1.4c-0.2-0.3-0.6-0.4-1-0.4c-0.4,0-0.8,0.2-1.2,0.5c-0.3,0.3-0.5,0.8-0.5,1.5v2.9h-0.5
		v-7.7h0.5v3.4h0c0.4-0.7,1-1.1,1.8-1.1c0.6,0,1,0.2,1.3,0.5c0.3,0.4,0.4,0.9,0.4,1.6v3.2H233.6z"/>
	<path d="M235.8,347.4c0,0.7,0.2,1.3,0.5,1.7c0.3,0.4,0.8,0.6,1.4,0.6c0.6,0,1.1-0.2,1.7-0.6v0.5c-0.5,0.4-1.1,0.6-1.8,0.6
		c-0.7,0-1.2-0.2-1.6-0.7c-0.4-0.5-0.6-1.2-0.6-2c0-0.8,0.2-1.4,0.6-1.9c0.4-0.5,1-0.8,1.7-0.8c0.6,0,1.1,0.2,1.5,0.7
		c0.3,0.5,0.5,1.1,0.5,1.9v0.2H235.8z M239.1,347c0-0.6-0.2-1.1-0.4-1.4s-0.6-0.5-1.1-0.5c-0.5,0-0.9,0.2-1.2,0.5
		c-0.3,0.3-0.5,0.8-0.6,1.4H239.1z"/>
	<path d="M244.3,343.2v3h2.7v0.5h-2.7v3.4h-0.5v-7.3h3.4v0.5H244.3z"/>
	<path d="M252,350v-0.9h0c-0.4,0.7-0.9,1.1-1.7,1.1c-1.2,0-1.8-0.8-1.8-2.3v-3h0.5v2.9c0,0.7,0.1,1.2,0.3,1.5s0.6,0.5,1.1,0.5
		c0.5,0,0.9-0.2,1.2-0.5c0.3-0.4,0.4-0.8,0.4-1.4v-2.9h0.5v5.2H252z"/>
	<path d="M257.6,350v-3c0-1.2-0.4-1.9-1.3-1.9c-0.5,0-0.9,0.2-1.2,0.5s-0.5,0.8-0.5,1.4v3h-0.5v-5.2h0.5v0.9h0
		c0.4-0.7,1-1.1,1.8-1.1c0.6,0,1,0.2,1.3,0.6s0.4,0.9,0.4,1.6v3.2H257.6z"/>
	<path d="M263.3,350v-0.9h0c-0.2,0.3-0.4,0.6-0.8,0.8c-0.3,0.2-0.7,0.3-1.1,0.3c-0.6,0-1.2-0.2-1.6-0.7c-0.4-0.5-0.6-1.1-0.6-1.9
		c0-0.8,0.2-1.5,0.7-2c0.4-0.5,1-0.8,1.7-0.8c0.8,0,1.3,0.3,1.7,1h0v-3.3h0.5v7.7H263.3z M263.3,346.8c0-0.5-0.2-0.9-0.5-1.2
		s-0.7-0.5-1.2-0.5c-0.5,0-1,0.2-1.3,0.6c-0.4,0.4-0.5,1-0.5,1.7c0,0.7,0.2,1.3,0.5,1.7s0.7,0.6,1.2,0.6c0.6,0,1-0.2,1.4-0.5
		c0.3-0.4,0.5-0.8,0.5-1.3V346.8z"/>
</g>
<g>
	<rect x="139.1" y="311.6" width="1" height="26.3"/>
</g>
<g>
	<rect x="139.1" y="363.6" width="1" height="13.7"/>
</g>
<g>
	<g>
		<polygon points="145.3,520.9 140.5,525.7 135.7,520.9 		"/>
	</g>
</g>
<g>
	<g>
		<polygon points="454.3,562.3 459.1,567.1 454.3,571.9 		"/>
	</g>
</g>
<g class="st2">
	<path d="M41.6,487.8v-0.3c0-0.2,0-0.4,0.1-0.6s0.1-0.3,0.2-0.5c0.1-0.2,0.2-0.3,0.3-0.4c0.1-0.1,0.2-0.3,0.4-0.4
		c0.2-0.1,0.3-0.3,0.5-0.4c0.2-0.1,0.4-0.3,0.6-0.5c0.2-0.2,0.4-0.3,0.6-0.5c0.2-0.2,0.4-0.3,0.5-0.5c0.1-0.2,0.3-0.4,0.3-0.6
		c0.1-0.2,0.1-0.5,0.1-0.7c0-0.5-0.1-0.8-0.4-1.1s-0.6-0.4-1.1-0.4c-0.3,0-0.6,0.1-0.9,0.2c-0.3,0.1-0.6,0.3-0.9,0.6v-0.5
		c0.3-0.2,0.6-0.4,0.9-0.5s0.7-0.2,1-0.2c0.3,0,0.6,0,0.8,0.1c0.2,0.1,0.4,0.2,0.6,0.4c0.2,0.2,0.3,0.4,0.4,0.6
		c0.1,0.2,0.1,0.5,0.1,0.8c0,0.3,0,0.6-0.1,0.9c-0.1,0.3-0.2,0.5-0.4,0.7s-0.4,0.4-0.6,0.6c-0.2,0.2-0.5,0.4-0.7,0.5
		c-0.3,0.2-0.6,0.4-0.8,0.6c-0.2,0.2-0.4,0.4-0.6,0.5s-0.2,0.3-0.3,0.5c-0.1,0.2-0.1,0.4-0.1,0.6v0.1h3.6v0.4H41.6z"/>
	<path d="M47.6,487.9c-0.1,0-0.2,0-0.3-0.1s-0.1-0.2-0.1-0.3c0-0.1,0-0.2,0.1-0.3s0.2-0.1,0.3-0.1c0.1,0,0.2,0,0.3,0.1
		c0.1,0.1,0.1,0.2,0.1,0.3c0,0.1,0,0.2-0.1,0.3C47.8,487.8,47.7,487.9,47.6,487.9z"/>
	<path d="M55.5,487.9c-1,0-1.8-0.3-2.5-1c-0.6-0.7-0.9-1.6-0.9-2.7c0-1.2,0.3-2.1,0.9-2.8c0.6-0.7,1.5-1,2.6-1c1,0,1.8,0.3,2.4,1
		c0.6,0.7,0.9,1.5,0.9,2.6c0,1.2-0.3,2.1-0.9,2.8c-0.2,0.2-0.4,0.4-0.6,0.5l1.8,1.3h-0.8l-1.4-1.1C56.5,487.8,56,487.9,55.5,487.9z
		 M55.6,480.9c-0.8,0-1.5,0.3-2.1,0.9c-0.5,0.6-0.8,1.4-0.8,2.4c0,1,0.3,1.8,0.8,2.4c0.5,0.6,1.2,0.9,2.1,0.9c0.9,0,1.6-0.3,2.1-0.9
		s0.8-1.4,0.8-2.4c0-1-0.3-1.8-0.8-2.4C57.1,481.1,56.4,480.9,55.6,480.9z"/>
	<path d="M59.9,487.9c-0.1,0-0.2,0-0.3-0.1s-0.1-0.2-0.1-0.3c0-0.1,0-0.2,0.1-0.3s0.2-0.1,0.3-0.1c0.1,0,0.2,0,0.3,0.1
		c0.1,0.1,0.1,0.2,0.1,0.3c0,0.1,0,0.2-0.1,0.3C60.1,487.8,60,487.9,59.9,487.9z"/>
	<path d="M69.6,487.8l-0.8-2.3h-3.1l-0.8,2.3h-0.5l2.7-7.3h0.5l2.7,7.3H69.6z M67.3,481.7c0-0.1-0.1-0.2-0.1-0.3
		c0-0.1,0-0.2-0.1-0.3h0c-0.1,0.2-0.1,0.4-0.2,0.5l-1.2,3.4h2.8L67.3,481.7z"/>
	<path d="M75.1,487.8l-1-2.1c-0.2-0.4-0.4-0.7-0.6-0.9c-0.2-0.2-0.4-0.2-0.7-0.2h-0.9v3.2h-0.5v-7.3h2c0.6,0,1.1,0.2,1.5,0.5
		c0.4,0.3,0.5,0.8,0.5,1.4c0,0.5-0.2,1-0.5,1.3c-0.3,0.4-0.7,0.6-1.3,0.7v0c0.3,0.1,0.6,0.5,0.8,1l1.1,2.3H75.1z M71.9,481v3.1h1.2
		c0.6,0,1-0.1,1.3-0.4c0.3-0.3,0.5-0.7,0.5-1.2c0-0.5-0.1-0.8-0.4-1.1c-0.3-0.3-0.7-0.4-1.3-0.4H71.9z"/>
	<path d="M79.1,481v6.8h-0.5V481h-2.1v-0.5h4.7v0.5H79.1z"/>
	<path d="M87.1,487.8v-3.5h-4.2v3.5h-0.5v-7.3h0.5v3.3h4.2v-3.3h0.5v7.3H87.1z"/>
	<path d="M94.4,484.9c0,2-0.9,3-2.6,3c-1.6,0-2.5-1-2.5-2.9v-4.5h0.5v4.4c0,1.7,0.7,2.5,2.1,2.5c1.3,0,2-0.8,2-2.5v-4.5h0.5V484.9z"
		/>
	<path d="M99.9,487.8l-1-2.1c-0.2-0.4-0.4-0.7-0.6-0.9c-0.2-0.2-0.4-0.2-0.7-0.2h-0.9v3.2h-0.5v-7.3h2c0.6,0,1.1,0.2,1.5,0.5
		c0.4,0.3,0.5,0.8,0.5,1.4c0,0.5-0.2,1-0.5,1.3c-0.3,0.4-0.7,0.6-1.3,0.7v0c0.3,0.1,0.6,0.5,0.8,1l1.1,2.3H99.9z M96.7,481v3.1h1.2
		c0.6,0,1-0.1,1.3-0.4c0.3-0.3,0.5-0.7,0.5-1.2c0-0.5-0.1-0.8-0.4-1.1c-0.3-0.3-0.7-0.4-1.3-0.4H96.7z"/>
	<path d="M104.8,487.8v-7.3h0.5v6.8h2.9v0.5H104.8z"/>
	<path d="M110.6,481v6.8h-0.5V481H108v-0.5h4.7v0.5H110.6z"/>
	<path d="M113.9,487.8v-7.3h1.8c1.2,0,2.1,0.3,2.8,0.9c0.6,0.6,0.9,1.5,0.9,2.6c0,1.1-0.3,2-1,2.7c-0.7,0.7-1.6,1-2.8,1H113.9z
		 M114.4,481v6.3h1.1c1.1,0,1.9-0.3,2.5-0.8c0.6-0.6,0.9-1.4,0.9-2.4c0-2.1-1.1-3.1-3.2-3.1H114.4z"/>
	<path d="M120.6,484.1c-0.1-0.2-0.2-0.3-0.4-0.4c1.4-0.9,2.5-2.2,3.3-3.6l0.5,0.2C123.1,481.9,122,483.2,120.6,484.1z M121.4,484.1
		h6c0,1.2-0.1,2.2-0.1,3c0,1.1-0.6,1.6-1.7,1.6c-0.2,0-0.4,0-0.6,0c-0.1,0-0.2,0-0.3,0c-0.1,0-0.2,0-0.4,0c0-0.2,0-0.4-0.1-0.6
		c0.4,0,0.9,0,1.5,0c0.8,0,1.2-0.3,1.2-1.2c0.1-0.9,0.1-1.7,0.1-2.5h-3.2c0,2.1-1,3.6-2.9,4.4c-0.1-0.2-0.2-0.3-0.3-0.5
		c1.8-0.8,2.7-2.1,2.7-4h-1.8V484.1z M125.5,480.1l0.5-0.2c0.7,1.7,1.8,2.9,3.3,3.7c-0.2,0.2-0.3,0.3-0.4,0.5
		C127.4,483.1,126.2,481.8,125.5,480.1z"/>
	<path d="M130.9,485.5c0.8-0.1,1.6-0.2,2.2-0.2c0,0.1,0,0.3,0,0.5c-1.4,0.1-2.3,0.2-2.7,0.3l-0.2-0.5c0.2-0.1,0.4-0.4,0.7-0.7
		c0.3-0.3,0.6-0.8,1-1.3c-0.8,0-1.4,0-1.8,0.1l-0.2-0.5c0.2-0.1,0.4-0.4,0.6-0.7c0.6-0.9,1.1-1.7,1.5-2.6l0.5,0.2
		c-0.6,1.1-1.3,2.2-1.9,3.1c0.1,0,0.2,0,0.4,0c0.6,0,0.9,0,1.2,0c0.2-0.4,0.5-0.8,0.8-1.3l0.5,0.2
		C132.5,483.5,131.6,484.6,130.9,485.5z M130,488.1l-0.1-0.5c1-0.2,2.1-0.3,3.3-0.6c0,0.1,0,0.1,0,0.3c0,0.1,0,0.2,0,0.2
		C132,487.7,130.9,487.9,130,488.1z M133.5,480.8h5.1v0.5h-2.3v6.6h2.6v0.5H133v-0.5h2.8v-6.6h-2.3V480.8z"/>
	<path d="M141.6,483.3c-0.1,0-0.2,0-0.3-0.1c-0.1-0.1-0.1-0.2-0.1-0.3c0-0.1,0-0.2,0.1-0.3s0.2-0.1,0.3-0.1c0.1,0,0.2,0,0.3,0.1
		c0.1,0.1,0.1,0.2,0.1,0.3c0,0.1,0,0.2-0.1,0.3C141.8,483.3,141.7,483.3,141.6,483.3z M141.6,487.9c-0.1,0-0.2,0-0.3-0.1
		s-0.1-0.2-0.1-0.3c0-0.1,0-0.2,0.1-0.3s0.2-0.1,0.3-0.1c0.1,0,0.2,0,0.3,0.1c0.1,0.1,0.1,0.2,0.1,0.3c0,0.1,0,0.2-0.1,0.3
		C141.8,487.8,141.7,487.9,141.6,487.9z"/>
	<path d="M150.2,481v3h2.7v0.5h-2.7v3.4h-0.5v-7.3h3.4v0.5H150.2z"/>
	<path d="M157.9,487.8v-0.9h0c-0.4,0.7-0.9,1.1-1.7,1.1c-1.2,0-1.8-0.8-1.8-2.3v-3h0.5v2.9c0,0.7,0.1,1.2,0.3,1.5
		c0.2,0.3,0.6,0.5,1.1,0.5c0.5,0,0.9-0.2,1.2-0.5c0.3-0.4,0.4-0.8,0.4-1.4v-2.9h0.5v5.2H157.9z"/>
	<path d="M163.5,487.8v-3c0-1.2-0.4-1.9-1.3-1.9c-0.5,0-0.9,0.2-1.2,0.5c-0.3,0.4-0.5,0.8-0.5,1.4v3H160v-5.2h0.5v0.9h0
		c0.4-0.7,1-1.1,1.8-1.1c0.6,0,1,0.2,1.3,0.6c0.3,0.4,0.4,0.9,0.4,1.6v3.2H163.5z"/>
	<path d="M169.2,487.8v-0.9h0c-0.2,0.3-0.4,0.6-0.8,0.8c-0.3,0.2-0.7,0.3-1.1,0.3c-0.6,0-1.2-0.2-1.6-0.7s-0.6-1.1-0.6-1.9
		c0-0.8,0.2-1.5,0.7-2c0.4-0.5,1-0.8,1.7-0.8c0.8,0,1.3,0.3,1.7,1h0v-3.3h0.5v7.7H169.2z M169.2,484.6c0-0.5-0.2-0.9-0.5-1.2
		s-0.7-0.5-1.2-0.5c-0.5,0-1,0.2-1.3,0.6c-0.4,0.4-0.5,1-0.5,1.7c0,0.7,0.2,1.3,0.5,1.7c0.3,0.4,0.7,0.6,1.2,0.6
		c0.6,0,1-0.2,1.4-0.5c0.3-0.4,0.5-0.8,0.5-1.3V484.6z"/>
	<path d="M174.7,486.9L174.7,486.9l0,3.3h-0.5v-7.6h0.5v1.1h0c0.2-0.4,0.5-0.7,0.8-0.9c0.3-0.2,0.7-0.3,1.1-0.3
		c0.7,0,1.2,0.2,1.5,0.7c0.4,0.5,0.6,1.1,0.6,1.8c0,0.9-0.2,1.6-0.6,2.1c-0.4,0.5-1,0.8-1.7,0.8
		C175.6,487.9,175.1,487.6,174.7,486.9z M174.7,484.9v0.7c0,0.5,0.2,1,0.5,1.3c0.3,0.4,0.8,0.6,1.3,0.6c0.5,0,1-0.2,1.3-0.7
		c0.3-0.5,0.5-1.1,0.5-1.8c0-0.6-0.2-1.2-0.5-1.5c-0.3-0.4-0.7-0.6-1.2-0.6c-0.6,0-1.1,0.2-1.4,0.6
		C174.8,483.9,174.7,484.4,174.7,484.9z"/>
	<path d="M183.1,487.8v-1h0c-0.2,0.4-0.4,0.6-0.7,0.8c-0.3,0.2-0.7,0.3-1.1,0.3c-0.5,0-0.9-0.1-1.2-0.4c-0.3-0.3-0.4-0.6-0.4-1
		c0-0.9,0.6-1.5,1.8-1.6l1.6-0.2c0-1.1-0.4-1.7-1.3-1.7c-0.6,0-1.1,0.2-1.7,0.7V483c0.2-0.2,0.5-0.3,0.8-0.4
		c0.3-0.1,0.6-0.2,0.9-0.2c0.5,0,0.9,0.2,1.2,0.5c0.3,0.3,0.4,0.8,0.4,1.4v3.4H183.1z M181.7,485.2c-0.5,0.1-0.9,0.2-1.1,0.4
		c-0.2,0.2-0.3,0.5-0.3,0.9c0,0.3,0.1,0.6,0.3,0.8c0.2,0.2,0.5,0.3,0.9,0.3c0.5,0,0.9-0.2,1.2-0.6c0.3-0.4,0.5-0.8,0.5-1.4V485
		L181.7,485.2z"/>
	<path d="M186.4,488.8c-0.2,0.5-0.4,0.8-0.6,1c-0.2,0.2-0.5,0.3-0.9,0.3c-0.2,0-0.3,0-0.4-0.1v-0.5c0.1,0,0.3,0.1,0.4,0.1
		c0.4,0,0.7-0.3,1-0.9l0.5-1.2l-2-5.1h0.5l1.6,4.2c0,0.1,0.1,0.2,0.1,0.2c0,0.1,0,0.1,0,0.2h0l0.1-0.4l1.7-4.3h0.5L186.4,488.8z"/>
	<path d="M189.6,487.6V487c0.2,0.2,0.4,0.3,0.6,0.4c0.3,0.1,0.5,0.1,0.6,0.1c0.8,0,1.2-0.3,1.2-1c0-0.2-0.1-0.4-0.3-0.6
		c-0.2-0.2-0.5-0.3-0.9-0.5c-0.5-0.2-0.8-0.4-1-0.7s-0.3-0.5-0.3-0.8c0-0.4,0.2-0.8,0.5-1c0.3-0.3,0.7-0.4,1.2-0.4
		c0.4,0,0.8,0.1,1.1,0.3v0.5c-0.4-0.3-0.8-0.4-1.2-0.4c-0.3,0-0.6,0.1-0.8,0.3c-0.2,0.2-0.3,0.4-0.3,0.7c0,0.2,0.1,0.4,0.2,0.6
		c0.1,0.2,0.4,0.3,0.9,0.5c0.5,0.2,0.9,0.5,1.1,0.7s0.3,0.5,0.3,0.8c0,0.4-0.2,0.7-0.5,1c-0.3,0.3-0.7,0.4-1.3,0.4
		C190.3,487.9,189.9,487.8,189.6,487.6z"/>
	<path d="M200.4,487.8v-0.9h0c-0.2,0.3-0.4,0.6-0.8,0.8c-0.3,0.2-0.7,0.3-1.1,0.3c-0.6,0-1.2-0.2-1.6-0.7s-0.6-1.1-0.6-1.9
		c0-0.8,0.2-1.5,0.7-2c0.4-0.5,1-0.8,1.7-0.8c0.8,0,1.3,0.3,1.7,1h0v-3.3h0.5v7.7H200.4z M200.4,484.6c0-0.5-0.2-0.9-0.5-1.2
		s-0.7-0.5-1.2-0.5c-0.5,0-1,0.2-1.3,0.6c-0.4,0.4-0.5,1-0.5,1.7c0,0.7,0.2,1.3,0.5,1.7c0.3,0.4,0.7,0.6,1.2,0.6
		c0.6,0,1-0.2,1.4-0.5c0.3-0.4,0.5-0.8,0.5-1.3V484.6z"/>
	<path d="M202.7,481.3c-0.1,0-0.2,0-0.3-0.1s-0.1-0.2-0.1-0.3c0-0.1,0-0.2,0.1-0.3s0.2-0.1,0.3-0.1c0.1,0,0.2,0,0.3,0.1
		c0.1,0.1,0.1,0.2,0.1,0.3c0,0.1,0,0.2-0.1,0.3C202.9,481.3,202.8,481.3,202.7,481.3z M202.5,487.8v-5.2h0.5v5.2H202.5z"/>
	<path d="M206.3,487.8h-0.4l-2-5.2h0.5l1.5,4.1c0.1,0.2,0.1,0.4,0.2,0.5h0c0-0.2,0.1-0.4,0.1-0.5l1.6-4.1h0.5L206.3,487.8z"/>
	<path d="M209.6,481.3c-0.1,0-0.2,0-0.3-0.1s-0.1-0.2-0.1-0.3c0-0.1,0-0.2,0.1-0.3s0.2-0.1,0.3-0.1c0.1,0,0.2,0,0.3,0.1
		c0.1,0.1,0.1,0.2,0.1,0.3c0,0.1,0,0.2-0.1,0.3C209.8,481.3,209.7,481.3,209.6,481.3z M209.3,487.8v-5.2h0.5v5.2H209.3z"/>
	<path d="M215.1,487.8v-0.9h0c-0.2,0.3-0.4,0.6-0.8,0.8c-0.3,0.2-0.7,0.3-1.1,0.3c-0.6,0-1.2-0.2-1.6-0.7s-0.6-1.1-0.6-1.9
		c0-0.8,0.2-1.5,0.7-2c0.4-0.5,1-0.8,1.7-0.8c0.8,0,1.3,0.3,1.7,1h0v-3.3h0.5v7.7H215.1z M215.1,484.6c0-0.5-0.2-0.9-0.5-1.2
		s-0.7-0.5-1.2-0.5c-0.5,0-1,0.2-1.3,0.6c-0.4,0.4-0.5,1-0.5,1.7c0,0.7,0.2,1.3,0.5,1.7c0.3,0.4,0.7,0.6,1.2,0.6
		c0.6,0,1-0.2,1.4-0.5c0.3-0.4,0.5-0.8,0.5-1.3V484.6z"/>
	<path d="M217.4,485.2c0,0.7,0.2,1.3,0.5,1.7s0.8,0.6,1.4,0.6c0.6,0,1.1-0.2,1.7-0.6v0.5c-0.5,0.4-1.1,0.6-1.8,0.6
		c-0.7,0-1.2-0.2-1.6-0.7c-0.4-0.5-0.6-1.2-0.6-2c0-0.8,0.2-1.4,0.6-1.9c0.4-0.5,1-0.8,1.7-0.8c0.6,0,1.1,0.2,1.5,0.7
		c0.3,0.5,0.5,1.1,0.5,1.9v0.2H217.4z M220.7,484.8c0-0.6-0.2-1.1-0.4-1.4s-0.6-0.5-1.1-0.5c-0.5,0-0.9,0.2-1.2,0.5
		s-0.5,0.8-0.6,1.4H220.7z"/>
	<path d="M226,487.8v-3c0-1.2-0.4-1.9-1.3-1.9c-0.5,0-0.9,0.2-1.2,0.5c-0.3,0.4-0.5,0.8-0.5,1.4v3h-0.5v-5.2h0.5v0.9h0
		c0.4-0.7,1-1.1,1.8-1.1c0.6,0,1,0.2,1.3,0.6c0.3,0.4,0.4,0.9,0.4,1.6v3.2H226z"/>
	<path d="M231.7,487.8v-0.9h0c-0.2,0.3-0.4,0.6-0.8,0.8c-0.3,0.2-0.7,0.3-1.1,0.3c-0.6,0-1.2-0.2-1.6-0.7s-0.6-1.1-0.6-1.9
		c0-0.8,0.2-1.5,0.7-2c0.4-0.5,1-0.8,1.7-0.8c0.8,0,1.3,0.3,1.7,1h0v-3.3h0.5v7.7H231.7z M231.7,484.6c0-0.5-0.2-0.9-0.5-1.2
		s-0.7-0.5-1.2-0.5c-0.5,0-1,0.2-1.3,0.6c-0.4,0.4-0.5,1-0.5,1.7c0,0.7,0.2,1.3,0.5,1.7c0.3,0.4,0.7,0.6,1.2,0.6
		c0.6,0,1-0.2,1.4-0.5c0.3-0.4,0.5-0.8,0.5-1.3V484.6z"/>
	<path d="M233.6,487.6V487c0.2,0.2,0.4,0.3,0.6,0.4c0.3,0.1,0.5,0.1,0.6,0.1c0.8,0,1.2-0.3,1.2-1c0-0.2-0.1-0.4-0.3-0.6
		c-0.2-0.2-0.5-0.3-0.9-0.5c-0.5-0.2-0.8-0.4-1-0.7s-0.3-0.5-0.3-0.8c0-0.4,0.2-0.8,0.5-1c0.3-0.3,0.7-0.4,1.2-0.4
		c0.4,0,0.8,0.1,1.1,0.3v0.5c-0.4-0.3-0.8-0.4-1.2-0.4c-0.3,0-0.6,0.1-0.8,0.3c-0.2,0.2-0.3,0.4-0.3,0.7c0,0.2,0.1,0.4,0.2,0.6
		c0.1,0.2,0.4,0.3,0.9,0.5c0.5,0.2,0.9,0.5,1.1,0.7s0.3,0.5,0.3,0.8c0,0.4-0.2,0.7-0.5,1c-0.3,0.3-0.7,0.4-1.3,0.4
		C234.4,487.9,233.9,487.8,233.6,487.6z"/>
</g>
<g class="st2">
	<path d="M52.5,499.2c-0.2,0.1-0.5,0.2-0.7,0.2c-0.8,0-1.1-0.5-1.1-1.4v-3.5h-0.9v-0.4h0.9v-1.3c0.1,0,0.1-0.1,0.2-0.1
		c0.1,0,0.2-0.1,0.2-0.1v1.5h1.4v0.4h-1.4v3.4c0,0.4,0.1,0.6,0.2,0.8s0.3,0.2,0.6,0.2c0.2,0,0.4-0.1,0.6-0.2V499.2z"/>
	<path d="M55.6,499.4c-0.8,0-1.4-0.3-1.8-0.7c-0.4-0.5-0.7-1.1-0.7-1.9c0-0.9,0.2-1.5,0.7-2c0.5-0.5,1.1-0.7,1.8-0.7
		c0.7,0,1.3,0.2,1.8,0.7c0.4,0.5,0.6,1.2,0.6,2c0,0.8-0.2,1.5-0.7,2C57,499.2,56.4,499.4,55.6,499.4z M55.7,494.4
		c-0.6,0-1.1,0.2-1.5,0.6c-0.4,0.4-0.5,1-0.5,1.7c0,0.7,0.2,1.2,0.5,1.6c0.4,0.4,0.8,0.6,1.5,0.6c0.6,0,1.1-0.2,1.4-0.6
		c0.3-0.4,0.5-1,0.5-1.7c0-0.7-0.2-1.3-0.5-1.7C56.8,494.6,56.3,494.4,55.7,494.4z"/>
	<path d="M65.3,499.4c-1,0-1.8-0.3-2.5-1c-0.6-0.7-0.9-1.6-0.9-2.7c0-1.2,0.3-2.1,0.9-2.8c0.6-0.7,1.5-1,2.6-1c1,0,1.8,0.3,2.4,1
		c0.6,0.7,0.9,1.5,0.9,2.6c0,1.2-0.3,2.1-0.9,2.8c-0.2,0.2-0.4,0.4-0.6,0.5l1.8,1.3h-0.8l-1.4-1.1C66.3,499.3,65.8,499.4,65.3,499.4
		z M65.3,492.4c-0.8,0-1.5,0.3-2.1,0.9c-0.5,0.6-0.8,1.4-0.8,2.4c0,1,0.3,1.8,0.8,2.4c0.5,0.6,1.2,0.9,2.1,0.9
		c0.9,0,1.6-0.3,2.1-0.9s0.8-1.4,0.8-2.4c0-1-0.3-1.8-0.8-2.4C66.9,492.7,66.2,492.4,65.3,492.4z"/>
	<path d="M69.7,499.4c-0.1,0-0.2,0-0.3-0.1s-0.1-0.2-0.1-0.3c0-0.1,0-0.2,0.1-0.3s0.2-0.1,0.3-0.1c0.1,0,0.2,0,0.3,0.1
		c0.1,0.1,0.1,0.2,0.1,0.3c0,0.1,0,0.2-0.1,0.3C69.9,499.4,69.8,499.4,69.7,499.4z"/>
	<path d="M79.3,499.3l-0.8-2.3h-3.1l-0.8,2.3H74l2.7-7.3h0.5l2.7,7.3H79.3z M77.1,493.2c0-0.1-0.1-0.2-0.1-0.3c0-0.1,0-0.2-0.1-0.3
		h0c-0.1,0.2-0.1,0.4-0.2,0.5l-1.2,3.4h2.8L77.1,493.2z"/>
	<path d="M84.9,499.3l-1-2.1c-0.2-0.4-0.4-0.7-0.6-0.9c-0.2-0.2-0.4-0.2-0.7-0.2h-0.9v3.2h-0.5V492h2c0.6,0,1.1,0.2,1.5,0.5
		c0.4,0.3,0.5,0.8,0.5,1.4c0,0.5-0.2,1-0.5,1.3c-0.3,0.4-0.7,0.6-1.3,0.7v0c0.3,0.1,0.6,0.5,0.8,1l1.1,2.3H84.9z M81.6,492.5v3.1
		h1.2c0.6,0,1-0.1,1.3-0.4c0.3-0.3,0.5-0.7,0.5-1.2c0-0.5-0.1-0.8-0.4-1.1c-0.3-0.3-0.7-0.4-1.3-0.4H81.6z"/>
	<path d="M88.9,492.5v6.8h-0.5v-6.8h-2.1V492H91v0.5H88.9z"/>
	<path d="M96.9,499.3v-3.5h-4.2v3.5h-0.5V492h0.5v3.3h4.2V492h0.5v7.3H96.9z"/>
	<path d="M104.2,496.4c0,2-0.9,3-2.6,3c-1.6,0-2.5-1-2.5-2.9V492h0.5v4.4c0,1.7,0.7,2.5,2.1,2.5c1.3,0,2-0.8,2-2.5V492h0.5V496.4z"
		/>
	<path d="M109.7,499.3l-1-2.1c-0.2-0.4-0.4-0.7-0.6-0.9c-0.2-0.2-0.4-0.2-0.7-0.2h-0.9v3.2h-0.5V492h2c0.6,0,1.1,0.2,1.5,0.5
		c0.4,0.3,0.5,0.8,0.5,1.4c0,0.5-0.2,1-0.5,1.3c-0.3,0.4-0.7,0.6-1.3,0.7v0c0.3,0.1,0.6,0.5,0.8,1l1.1,2.3H109.7z M106.4,492.5v3.1
		h1.2c0.6,0,1-0.1,1.3-0.4c0.3-0.3,0.5-0.7,0.5-1.2c0-0.5-0.1-0.8-0.4-1.1c-0.3-0.3-0.7-0.4-1.3-0.4H106.4z"/>
	<path d="M114.5,499.3V492h0.5v6.8h2.9v0.5H114.5z"/>
	<path d="M120.4,492.5v6.8h-0.5v-6.8h-2.1V492h4.7v0.5H120.4z"/>
	<path d="M123.7,499.3V492h1.8c1.2,0,2.1,0.3,2.8,0.9c0.6,0.6,0.9,1.5,0.9,2.6c0,1.1-0.3,2-1,2.7c-0.7,0.7-1.6,1-2.8,1H123.7z
		 M124.2,492.5v6.3h1.1c1.1,0,1.9-0.3,2.5-0.8c0.6-0.6,0.9-1.4,0.9-2.4c0-2.1-1.1-3.1-3.2-3.1H124.2z"/>
	<path d="M137.1,501.7v-3.3h0c-0.4,0.7-1,1.1-1.9,1.1c-0.6,0-1.2-0.2-1.6-0.7c-0.4-0.5-0.6-1.1-0.6-1.9c0-0.9,0.2-1.5,0.7-2
		c0.4-0.5,1-0.8,1.7-0.8c0.8,0,1.3,0.3,1.6,1h0v-0.8h0.5v7.6H137.1z M137.1,496.2c0-0.5-0.1-0.9-0.5-1.3c-0.3-0.3-0.7-0.5-1.3-0.5
		c-0.5,0-1,0.2-1.3,0.6c-0.4,0.4-0.5,1-0.5,1.7c0,0.7,0.2,1.2,0.5,1.6c0.3,0.4,0.7,0.6,1.2,0.6c0.6,0,1.1-0.2,1.4-0.6
		c0.3-0.4,0.5-0.8,0.5-1.4V496.2z"/>
	<path d="M142.7,499.3v-0.9h0c-0.4,0.7-0.9,1.1-1.7,1.1c-1.2,0-1.8-0.8-1.8-2.3v-3h0.5v2.9c0,0.7,0.1,1.2,0.3,1.5
		c0.2,0.3,0.6,0.5,1.1,0.5c0.5,0,0.9-0.2,1.2-0.5c0.3-0.4,0.4-0.8,0.4-1.4v-2.9h0.5v5.2H142.7z"/>
	<path d="M147.9,499.3v-1h0c-0.2,0.4-0.4,0.6-0.7,0.8c-0.3,0.2-0.7,0.3-1.1,0.3c-0.5,0-0.9-0.1-1.2-0.4c-0.3-0.3-0.4-0.6-0.4-1
		c0-0.9,0.6-1.5,1.8-1.6l1.6-0.2c0-1.1-0.4-1.7-1.3-1.7c-0.6,0-1.1,0.2-1.7,0.7v-0.6c0.2-0.2,0.5-0.3,0.8-0.4
		c0.3-0.1,0.6-0.2,0.9-0.2c0.5,0,0.9,0.2,1.2,0.5c0.3,0.3,0.4,0.8,0.4,1.4v3.4H147.9z M146.5,496.7c-0.5,0.1-0.9,0.2-1.1,0.4
		c-0.2,0.2-0.3,0.5-0.3,0.9c0,0.3,0.1,0.6,0.3,0.8c0.2,0.2,0.5,0.3,0.9,0.3c0.5,0,0.9-0.2,1.2-0.6c0.3-0.4,0.5-0.8,0.5-1.4v-0.5
		L146.5,496.7z"/>
	<path d="M152.4,494.6c-0.2-0.1-0.3-0.2-0.5-0.2c-0.4,0-0.8,0.2-1,0.6c-0.3,0.4-0.4,1-0.4,1.8v2.4h-0.5v-5.2h0.5v1.1h0
		c0.1-0.4,0.3-0.7,0.6-0.9s0.6-0.3,0.9-0.3c0.2,0,0.4,0,0.5,0.1V494.6z"/>
	<path d="M155.9,499.2c-0.2,0.1-0.5,0.2-0.7,0.2c-0.8,0-1.1-0.5-1.1-1.4v-3.5h-0.9v-0.4h0.9v-1.3c0.1,0,0.1-0.1,0.2-0.1
		c0.1,0,0.2-0.1,0.2-0.1v1.5h1.4v0.4h-1.4v3.4c0,0.4,0.1,0.6,0.2,0.8s0.3,0.2,0.6,0.2c0.2,0,0.4-0.1,0.6-0.2V499.2z"/>
	<path d="M157,496.7c0,0.7,0.2,1.3,0.5,1.7s0.8,0.6,1.4,0.6c0.6,0,1.1-0.2,1.7-0.6v0.5c-0.5,0.4-1.1,0.6-1.8,0.6
		c-0.7,0-1.2-0.2-1.6-0.7c-0.4-0.5-0.6-1.2-0.6-2c0-0.8,0.2-1.4,0.6-1.9c0.4-0.5,1-0.8,1.7-0.8c0.6,0,1.1,0.2,1.5,0.7
		c0.3,0.5,0.5,1.1,0.5,1.9v0.2H157z M160.3,496.3c0-0.6-0.2-1.1-0.4-1.4s-0.6-0.5-1.1-0.5c-0.5,0-0.9,0.2-1.2,0.5s-0.5,0.8-0.6,1.4
		H160.3z"/>
	<path d="M164.6,494.6c-0.2-0.1-0.3-0.2-0.5-0.2c-0.4,0-0.8,0.2-1,0.6c-0.3,0.4-0.4,1-0.4,1.8v2.4h-0.5v-5.2h0.5v1.1h0
		c0.1-0.4,0.3-0.7,0.6-0.9s0.6-0.3,0.9-0.3c0.2,0,0.4,0,0.5,0.1V494.6z"/>
	<path d="M165.5,499.3v-7.7h0.5v7.7H165.5z"/>
	<path d="M168.9,500.4c-0.2,0.5-0.4,0.8-0.6,1c-0.2,0.2-0.5,0.3-0.9,0.3c-0.2,0-0.3,0-0.4-0.1v-0.5c0.1,0,0.3,0.1,0.4,0.1
		c0.4,0,0.7-0.3,1-0.9l0.5-1.2l-2-5.1h0.5l1.6,4.2c0,0.1,0.1,0.2,0.1,0.2c0,0.1,0,0.1,0,0.2h0l0.1-0.4l1.7-4.3h0.5L168.9,500.4z"/>
</g>
<g>
	<rect x="140" y="451.3" width="1" height="26.3"/>
</g>
<g>
	<rect x="140" y="507.1" width="1" height="13.7"/>
</g>
<g class="st2">
	<path d="M279.5,562.4c-0.9,0-1.6-0.3-2.1-0.9s-0.8-1.4-0.8-2.4c0-1,0.3-1.9,0.8-2.5c0.5-0.6,1.3-0.9,2.2-0.9c0.9,0,1.5,0.3,2.1,0.9
		c0.5,0.6,0.8,1.4,0.8,2.4c0,1.1-0.3,1.9-0.8,2.6c-0.2,0.2-0.4,0.4-0.6,0.5l1.5,1.2h-0.7l-1.2-1
		C280.3,562.3,279.9,562.4,279.5,562.4z M279.5,556c-0.7,0-1.3,0.3-1.8,0.8s-0.7,1.3-0.7,2.2c0,0.9,0.2,1.6,0.7,2.1
		c0.4,0.5,1,0.8,1.8,0.8c0.8,0,1.4-0.3,1.9-0.8s0.7-1.3,0.7-2.2c0-0.9-0.2-1.6-0.7-2.2C280.9,556.3,280.3,556,279.5,556z"/>
	<path d="M283.3,562.3c-0.1,0-0.2,0-0.3-0.1c-0.1-0.1-0.1-0.2-0.1-0.3c0-0.1,0-0.2,0.1-0.3c0.1-0.1,0.1-0.1,0.3-0.1s0.2,0,0.3,0.1
		s0.1,0.2,0.1,0.3c0,0.1,0,0.2-0.1,0.3S283.4,562.3,283.3,562.3z"/>
	<path d="M291.7,562.3l-0.7-2h-2.7l-0.7,2H287l2.4-6.5h0.4l2.4,6.5H291.7z M289.8,556.8c0-0.1-0.1-0.2-0.1-0.3c0-0.1,0-0.2-0.1-0.2
		h0c0,0.2-0.1,0.4-0.1,0.5l-1.1,3h2.4L289.8,556.8z"/>
	<path d="M296.5,562.3l-0.8-1.9c-0.2-0.4-0.3-0.7-0.5-0.8c-0.2-0.1-0.4-0.2-0.7-0.2h-0.8v2.9h-0.4v-6.5h1.8c0.6,0,1,0.2,1.3,0.5
		c0.3,0.3,0.5,0.7,0.5,1.2c0,0.5-0.1,0.9-0.4,1.2c-0.3,0.3-0.6,0.5-1.1,0.6v0c0.3,0.1,0.5,0.4,0.7,0.9l0.9,2.1H296.5z M293.7,556.1
		v2.8h1.1c0.5,0,0.9-0.1,1.1-0.4s0.4-0.6,0.4-1.1c0-0.4-0.1-0.7-0.4-1c-0.3-0.2-0.6-0.4-1.1-0.4H293.7z"/>
	<path d="M300,556.1v6.1h-0.4v-6.1h-1.8v-0.4h4.1v0.4H300z"/>
	<path d="M306.9,562.3v-3.1h-3.6v3.1h-0.4v-6.5h0.4v3h3.6v-3h0.4v6.5H306.9z"/>
	<path d="M313.3,559.7c0,1.8-0.7,2.7-2.2,2.7c-1.4,0-2.1-0.9-2.1-2.6v-4h0.4v4c0,1.5,0.6,2.3,1.8,2.3c1.2,0,1.7-0.7,1.7-2.2v-4h0.4
		V559.7z"/>
	<path d="M318,562.3l-0.8-1.9c-0.2-0.4-0.3-0.7-0.5-0.8c-0.2-0.1-0.4-0.2-0.6-0.2h-0.8v2.9h-0.4v-6.5h1.8c0.6,0,1,0.2,1.3,0.5
		c0.3,0.3,0.5,0.7,0.5,1.2c0,0.5-0.1,0.9-0.4,1.2c-0.3,0.3-0.6,0.5-1.1,0.6v0c0.3,0.1,0.5,0.4,0.7,0.9l0.9,2.1H318z M315.3,556.1
		v2.8h1.1c0.5,0,0.9-0.1,1.1-0.4c0.3-0.3,0.4-0.6,0.4-1.1c0-0.4-0.1-0.7-0.4-1c-0.3-0.2-0.6-0.4-1.1-0.4H315.3z"/>
	<path d="M322.3,562.3v-6.5h0.4v6.1h2.5v0.4H322.3z"/>
	<path d="M327.4,556.1v6.1h-0.4v-6.1h-1.8v-0.4h4.1v0.4H327.4z"/>
	<path d="M330.3,562.3v-6.5h1.6c1,0,1.8,0.3,2.4,0.8c0.5,0.5,0.8,1.3,0.8,2.4c0,1-0.3,1.8-0.9,2.4c-0.6,0.6-1.4,0.9-2.4,0.9H330.3z
		 M330.7,556.1v5.7h1c0.9,0,1.7-0.3,2.2-0.8c0.5-0.5,0.8-1.2,0.8-2.2c0-1.9-0.9-2.8-2.8-2.8H330.7z"/>
	<path d="M341.7,562.3v-0.8h0c-0.3,0.6-0.8,1-1.5,1c-1.1,0-1.6-0.7-1.6-2.1v-2.7h0.4v2.6c0,0.6,0.1,1.1,0.3,1.4s0.5,0.4,1,0.4
		c0.4,0,0.8-0.2,1-0.5s0.4-0.7,0.4-1.3v-2.6h0.4v4.7H341.7z"/>
	<path d="M343.3,562.1v-0.5c0.2,0.1,0.3,0.2,0.6,0.3c0.2,0.1,0.4,0.1,0.6,0.1c0.7,0,1.1-0.3,1.1-0.9c0-0.2-0.1-0.4-0.2-0.5
		c-0.2-0.1-0.4-0.3-0.8-0.5c-0.4-0.2-0.7-0.4-0.9-0.6c-0.2-0.2-0.3-0.5-0.3-0.8c0-0.4,0.1-0.7,0.4-0.9c0.3-0.2,0.6-0.3,1-0.3
		c0.4,0,0.7,0.1,1,0.2v0.5c-0.3-0.2-0.7-0.3-1-0.3c-0.3,0-0.5,0.1-0.7,0.2c-0.2,0.2-0.3,0.4-0.3,0.6c0,0.2,0.1,0.4,0.2,0.5
		s0.4,0.3,0.8,0.5c0.5,0.2,0.8,0.4,1,0.6c0.2,0.2,0.3,0.4,0.3,0.7c0,0.4-0.1,0.7-0.4,0.9s-0.6,0.4-1.1,0.4
		C344,562.4,343.6,562.3,343.3,562.1z"/>
	<path d="M347.2,559.9c0,0.6,0.1,1.1,0.4,1.5s0.7,0.5,1.2,0.5c0.5,0,1-0.2,1.5-0.6v0.4c-0.5,0.3-1,0.5-1.6,0.5
		c-0.6,0-1.1-0.2-1.4-0.6c-0.4-0.4-0.5-1-0.5-1.8c0-0.7,0.2-1.3,0.6-1.7s0.9-0.7,1.5-0.7c0.6,0,1,0.2,1.3,0.6c0.3,0.4,0.5,1,0.5,1.7
		v0.2H347.2z M350.1,559.6c0-0.5-0.1-1-0.4-1.3c-0.2-0.3-0.5-0.4-1-0.4c-0.4,0-0.8,0.1-1.1,0.4c-0.3,0.3-0.4,0.7-0.5,1.3H350.1z"/>
	<path d="M351.4,562.1v-0.5c0.2,0.1,0.3,0.2,0.6,0.3c0.2,0.1,0.4,0.1,0.6,0.1c0.7,0,1.1-0.3,1.1-0.9c0-0.2-0.1-0.4-0.2-0.5
		c-0.2-0.1-0.4-0.3-0.8-0.5c-0.4-0.2-0.7-0.4-0.9-0.6c-0.2-0.2-0.3-0.5-0.3-0.8c0-0.4,0.1-0.7,0.4-0.9c0.3-0.2,0.6-0.3,1-0.3
		c0.4,0,0.7,0.1,1,0.2v0.5c-0.3-0.2-0.7-0.3-1-0.3c-0.3,0-0.5,0.1-0.7,0.2c-0.2,0.2-0.3,0.4-0.3,0.6c0,0.2,0.1,0.4,0.2,0.5
		s0.4,0.3,0.8,0.5c0.5,0.2,0.8,0.4,1,0.6c0.2,0.2,0.3,0.4,0.3,0.7c0,0.4-0.1,0.7-0.4,0.9s-0.6,0.4-1.1,0.4
		C352,562.4,351.7,562.3,351.4,562.1z"/>
	<path d="M359.7,558c-0.1-0.1-0.3-0.2-0.5-0.2c-0.4,0-0.7,0.2-0.9,0.6s-0.4,0.9-0.4,1.6v2.2h-0.4v-4.7h0.4v1h0
		c0.1-0.4,0.3-0.6,0.5-0.8c0.2-0.2,0.5-0.3,0.8-0.3c0.2,0,0.3,0,0.4,0.1V558z"/>
	<path d="M360.5,559.9c0,0.6,0.1,1.1,0.4,1.5s0.7,0.5,1.2,0.5c0.5,0,1-0.2,1.5-0.6v0.4c-0.5,0.3-1,0.5-1.6,0.5
		c-0.6,0-1.1-0.2-1.4-0.6c-0.4-0.4-0.5-1-0.5-1.8c0-0.7,0.2-1.3,0.6-1.7s0.9-0.7,1.5-0.7c0.6,0,1,0.2,1.3,0.6c0.3,0.4,0.5,1,0.5,1.7
		v0.2H360.5z M363.4,559.6c0-0.5-0.1-1-0.4-1.3c-0.2-0.3-0.5-0.4-1-0.4c-0.4,0-0.8,0.1-1.1,0.4c-0.3,0.3-0.4,0.7-0.5,1.3H363.4z"/>
	<path d="M367.8,562.1c-0.3,0.2-0.7,0.3-1.2,0.3c-0.6,0-1.1-0.2-1.5-0.7c-0.4-0.4-0.6-1-0.6-1.7c0-0.7,0.2-1.3,0.6-1.8
		c0.4-0.5,1-0.7,1.6-0.7c0.3,0,0.7,0.1,1,0.2v0.5c-0.3-0.2-0.7-0.3-1.1-0.3c-0.5,0-1,0.2-1.3,0.6c-0.3,0.4-0.5,0.9-0.5,1.5
		c0,0.6,0.2,1.1,0.5,1.5c0.3,0.4,0.7,0.5,1.2,0.5c0.5,0,0.8-0.1,1.2-0.4V562.1z"/>
	<path d="M369,559.9c0,0.6,0.1,1.1,0.4,1.5s0.7,0.5,1.2,0.5c0.5,0,1-0.2,1.5-0.6v0.4c-0.5,0.3-1,0.5-1.6,0.5c-0.6,0-1.1-0.2-1.4-0.6
		c-0.4-0.4-0.5-1-0.5-1.8c0-0.7,0.2-1.3,0.6-1.7s0.9-0.7,1.5-0.7c0.6,0,1,0.2,1.3,0.6c0.3,0.4,0.5,1,0.5,1.7v0.2H369z M371.9,559.6
		c0-0.5-0.1-1-0.4-1.3c-0.2-0.3-0.5-0.4-1-0.4c-0.4,0-0.8,0.1-1.1,0.4c-0.3,0.3-0.4,0.7-0.5,1.3H371.9z"/>
	<path d="M373.7,556.4c-0.1,0-0.2,0-0.2-0.1c-0.1-0.1-0.1-0.2-0.1-0.3c0-0.1,0-0.2,0.1-0.2c0.1-0.1,0.1-0.1,0.2-0.1
		c0.1,0,0.2,0,0.2,0.1c0.1,0.1,0.1,0.1,0.1,0.2c0,0.1,0,0.2-0.1,0.3C373.9,556.4,373.8,556.4,373.7,556.4z M373.5,562.3v-4.7h0.4
		v4.7H373.5z"/>
	<path d="M376.8,562.3h-0.4l-1.7-4.7h0.5l1.3,3.7c0.1,0.2,0.1,0.3,0.1,0.5h0c0-0.2,0.1-0.3,0.1-0.5l1.4-3.7h0.4L376.8,562.3z"/>
	<path d="M379.5,559.9c0,0.6,0.1,1.1,0.4,1.5s0.7,0.5,1.2,0.5c0.5,0,1-0.2,1.5-0.6v0.4c-0.5,0.3-1,0.5-1.6,0.5
		c-0.6,0-1.1-0.2-1.4-0.6c-0.4-0.4-0.5-1-0.5-1.8c0-0.7,0.2-1.3,0.6-1.7s0.9-0.7,1.5-0.7c0.6,0,1,0.2,1.3,0.6c0.3,0.4,0.5,1,0.5,1.7
		v0.2H379.5z M382.4,559.6c0-0.5-0.1-1-0.4-1.3c-0.2-0.3-0.5-0.4-1-0.4c-0.4,0-0.8,0.1-1.1,0.4c-0.3,0.3-0.4,0.7-0.5,1.3H382.4z"/>
	<path d="M387.2,562.3v-0.8h0c-0.1,0.3-0.4,0.5-0.7,0.7s-0.6,0.3-1,0.3c-0.6,0-1-0.2-1.4-0.6s-0.5-1-0.5-1.7c0-0.8,0.2-1.4,0.6-1.8
		c0.4-0.5,0.9-0.7,1.5-0.7c0.7,0,1.2,0.3,1.4,0.9h0v-3h0.4v6.9H387.2z M387.2,559.4c0-0.4-0.1-0.8-0.4-1.1c-0.3-0.3-0.6-0.5-1.1-0.5
		c-0.5,0-0.9,0.2-1.2,0.6c-0.3,0.4-0.5,0.9-0.5,1.5c0,0.6,0.1,1.1,0.4,1.5c0.3,0.3,0.6,0.5,1.1,0.5c0.5,0,0.9-0.2,1.2-0.5
		s0.4-0.7,0.4-1.2V559.4z"/>
	<path d="M394.7,562.3v-0.8h0c-0.1,0.3-0.4,0.5-0.7,0.7s-0.6,0.3-1,0.3c-0.6,0-1-0.2-1.4-0.6s-0.5-1-0.5-1.7c0-0.8,0.2-1.4,0.6-1.8
		c0.4-0.5,0.9-0.7,1.5-0.7c0.7,0,1.2,0.3,1.4,0.9h0v-3h0.4v6.9H394.7z M394.7,559.4c0-0.4-0.1-0.8-0.4-1.1c-0.3-0.3-0.6-0.5-1.1-0.5
		c-0.5,0-0.9,0.2-1.2,0.6c-0.3,0.4-0.5,0.9-0.5,1.5c0,0.6,0.1,1.1,0.4,1.5c0.3,0.3,0.6,0.5,1.1,0.5c0.5,0,0.9-0.2,1.2-0.5
		s0.4-0.7,0.4-1.2V559.4z"/>
	<path d="M396.7,556.4c-0.1,0-0.2,0-0.2-0.1c-0.1-0.1-0.1-0.2-0.1-0.3c0-0.1,0-0.2,0.1-0.2c0.1-0.1,0.1-0.1,0.2-0.1
		c0.1,0,0.2,0,0.2,0.1c0.1,0.1,0.1,0.1,0.1,0.2c0,0.1,0,0.2-0.1,0.3C396.9,556.4,396.8,556.4,396.7,556.4z M396.5,562.3v-4.7h0.4
		v4.7H396.5z"/>
	<path d="M399.9,562.3h-0.4l-1.7-4.7h0.5l1.3,3.7c0.1,0.2,0.1,0.3,0.1,0.5h0c0-0.2,0.1-0.3,0.1-0.5l1.4-3.7h0.4L399.9,562.3z"/>
	<path d="M402.7,556.4c-0.1,0-0.2,0-0.2-0.1c-0.1-0.1-0.1-0.2-0.1-0.3c0-0.1,0-0.2,0.1-0.2c0.1-0.1,0.1-0.1,0.2-0.1
		c0.1,0,0.2,0,0.2,0.1c0.1,0.1,0.1,0.1,0.1,0.2c0,0.1,0,0.2-0.1,0.3C402.9,556.4,402.8,556.4,402.7,556.4z M402.5,562.3v-4.7h0.4
		v4.7H402.5z"/>
	<path d="M407.5,562.3v-0.8h0c-0.1,0.3-0.4,0.5-0.7,0.7s-0.6,0.3-1,0.3c-0.6,0-1-0.2-1.4-0.6s-0.5-1-0.5-1.7c0-0.8,0.2-1.4,0.6-1.8
		c0.4-0.5,0.9-0.7,1.5-0.7c0.7,0,1.2,0.3,1.4,0.9h0v-3h0.4v6.9H407.5z M407.5,559.4c0-0.4-0.1-0.8-0.4-1.1c-0.3-0.3-0.6-0.5-1.1-0.5
		c-0.5,0-0.9,0.2-1.2,0.6c-0.3,0.4-0.5,0.9-0.5,1.5c0,0.6,0.1,1.1,0.4,1.5c0.3,0.3,0.6,0.5,1.1,0.5c0.5,0,0.9-0.2,1.2-0.5
		s0.4-0.7,0.4-1.2V559.4z"/>
	<path d="M409.5,559.9c0,0.6,0.1,1.1,0.4,1.5s0.7,0.5,1.2,0.5c0.5,0,1-0.2,1.5-0.6v0.4c-0.5,0.3-1,0.5-1.6,0.5
		c-0.6,0-1.1-0.2-1.4-0.6c-0.4-0.4-0.5-1-0.5-1.8c0-0.7,0.2-1.3,0.6-1.7s0.9-0.7,1.5-0.7c0.6,0,1,0.2,1.3,0.6c0.3,0.4,0.5,1,0.5,1.7
		v0.2H409.5z M412.4,559.6c0-0.5-0.1-1-0.4-1.3c-0.2-0.3-0.5-0.4-1-0.4c-0.4,0-0.8,0.1-1.1,0.4c-0.3,0.3-0.4,0.7-0.5,1.3H412.4z"/>
	<path d="M417,562.3v-2.7c0-1.1-0.4-1.7-1.2-1.7c-0.4,0-0.8,0.2-1.1,0.5c-0.3,0.3-0.4,0.7-0.4,1.2v2.7h-0.4v-4.7h0.4v0.8h0
		c0.3-0.6,0.8-1,1.5-1c0.5,0,0.9,0.2,1.1,0.5c0.3,0.3,0.4,0.8,0.4,1.4v2.8H417z"/>
	<path d="M422,562.3v-0.8h0c-0.1,0.3-0.4,0.5-0.7,0.7s-0.6,0.3-1,0.3c-0.6,0-1-0.2-1.4-0.6s-0.5-1-0.5-1.7c0-0.8,0.2-1.4,0.6-1.8
		c0.4-0.5,0.9-0.7,1.5-0.7c0.7,0,1.2,0.3,1.4,0.9h0v-3h0.4v6.9H422z M422,559.4c0-0.4-0.1-0.8-0.4-1.1c-0.3-0.3-0.6-0.5-1.1-0.5
		c-0.5,0-0.9,0.2-1.2,0.6c-0.3,0.4-0.5,0.9-0.5,1.5c0,0.6,0.1,1.1,0.4,1.5c0.3,0.3,0.6,0.5,1.1,0.5c0.5,0,0.9-0.2,1.2-0.5
		s0.4-0.7,0.4-1.2V559.4z"/>
	<path d="M423.6,562.1v-0.5c0.2,0.1,0.3,0.2,0.6,0.3c0.2,0.1,0.4,0.1,0.6,0.1c0.7,0,1.1-0.3,1.1-0.9c0-0.2-0.1-0.4-0.2-0.5
		c-0.2-0.1-0.4-0.3-0.8-0.5c-0.4-0.2-0.7-0.4-0.9-0.6c-0.2-0.2-0.3-0.5-0.3-0.8c0-0.4,0.1-0.7,0.4-0.9c0.3-0.2,0.6-0.3,1-0.3
		c0.4,0,0.7,0.1,1,0.2v0.5c-0.3-0.2-0.7-0.3-1-0.3c-0.3,0-0.5,0.1-0.7,0.2c-0.2,0.2-0.3,0.4-0.3,0.6c0,0.2,0.1,0.4,0.2,0.5
		s0.4,0.3,0.8,0.5c0.5,0.2,0.8,0.4,1,0.6c0.2,0.2,0.3,0.4,0.3,0.7c0,0.4-0.1,0.7-0.4,0.9s-0.6,0.4-1.1,0.4
		C424.2,562.4,423.9,562.3,423.6,562.1z"/>
</g>
<g class="st2">
	<path d="M281.1,573.7c-0.2,0.1-0.4,0.2-0.6,0.2c-0.7,0-1-0.4-1-1.2v-3.1h-0.8v-0.4h0.8v-1.2c0.1,0,0.1,0,0.2-0.1s0.1,0,0.2-0.1v1.4
		h1.2v0.4h-1.2v3.1c0,0.3,0,0.6,0.1,0.7c0.1,0.1,0.3,0.2,0.5,0.2c0.2,0,0.3-0.1,0.5-0.2V573.7z"/>
	<path d="M283.8,573.9c-0.7,0-1.2-0.2-1.6-0.7c-0.4-0.4-0.6-1-0.6-1.7c0-0.8,0.2-1.4,0.6-1.8c0.4-0.4,0.9-0.7,1.6-0.7
		c0.6,0,1.1,0.2,1.5,0.7s0.6,1,0.6,1.8c0,0.7-0.2,1.3-0.6,1.8S284.4,573.9,283.8,573.9z M283.8,569.4c-0.5,0-1,0.2-1.3,0.6
		c-0.3,0.4-0.5,0.9-0.5,1.5c0,0.6,0.2,1.1,0.5,1.5c0.3,0.4,0.7,0.6,1.3,0.6c0.5,0,1-0.2,1.3-0.5s0.4-0.9,0.4-1.5
		c0-0.7-0.1-1.2-0.4-1.5C284.7,569.6,284.3,569.4,283.8,569.4z"/>
	<path d="M289.9,573L289.9,573l0,0.8h-0.4v-6.9h0.4v3.2h0c0.2-0.3,0.4-0.6,0.7-0.8c0.3-0.2,0.6-0.3,1-0.3c0.6,0,1,0.2,1.3,0.6
		c0.3,0.4,0.5,1,0.5,1.7c0,0.8-0.2,1.4-0.6,1.9c-0.4,0.5-0.9,0.7-1.5,0.7C290.7,573.9,290.2,573.6,289.9,573z M289.9,571.2v0.6
		c0,0.5,0.1,0.9,0.4,1.2c0.3,0.3,0.7,0.5,1.1,0.5c0.5,0,0.8-0.2,1.1-0.6s0.4-0.9,0.4-1.6c0-0.6-0.1-1-0.4-1.4
		c-0.3-0.3-0.6-0.5-1.1-0.5c-0.5,0-0.9,0.2-1.2,0.5S289.9,570.7,289.9,571.2z"/>
	<path d="M297.5,573.8v-0.8h0c-0.3,0.6-0.8,1-1.5,1c-1.1,0-1.6-0.7-1.6-2.1v-2.7h0.4v2.6c0,0.6,0.1,1.1,0.3,1.4
		c0.2,0.3,0.5,0.4,0.9,0.4c0.4,0,0.8-0.2,1-0.5c0.3-0.3,0.4-0.7,0.4-1.3v-2.6h0.4v4.7H297.5z"/>
	<path d="M300.5,574.7c-0.2,0.4-0.3,0.7-0.5,0.9c-0.2,0.2-0.5,0.3-0.8,0.3c-0.1,0-0.2,0-0.4-0.1v-0.4c0.1,0,0.2,0.1,0.4,0.1
		c0.4,0,0.6-0.3,0.9-0.8l0.4-1l-1.7-4.6h0.5l1.4,3.8c0,0.1,0,0.1,0.1,0.2c0,0.1,0,0.1,0,0.2h0l0.1-0.3l1.5-3.8h0.4L300.5,574.7z"/>
	<path d="M308.6,573.9c-0.9,0-1.6-0.3-2.1-0.9c-0.5-0.6-0.8-1.4-0.8-2.4c0-1,0.3-1.9,0.8-2.5c0.5-0.6,1.3-0.9,2.2-0.9
		c0.9,0,1.5,0.3,2.1,0.9c0.5,0.6,0.8,1.4,0.8,2.4c0,1.1-0.3,1.9-0.8,2.6c-0.2,0.2-0.4,0.4-0.6,0.5l1.5,1.2H311l-1.2-1
		C309.4,573.8,309,573.9,308.6,573.9z M308.6,567.6c-0.7,0-1.3,0.3-1.8,0.8c-0.5,0.5-0.7,1.3-0.7,2.2c0,0.9,0.2,1.6,0.7,2.1
		c0.4,0.5,1,0.8,1.8,0.8c0.8,0,1.4-0.3,1.9-0.8s0.7-1.3,0.7-2.2c0-0.9-0.2-1.6-0.7-2.2C310,567.8,309.4,567.6,308.6,567.6z"/>
	<path d="M312.4,573.9c-0.1,0-0.2,0-0.3-0.1s-0.1-0.2-0.1-0.3c0-0.1,0-0.2,0.1-0.3s0.2-0.1,0.3-0.1s0.2,0,0.3,0.1
		c0.1,0.1,0.1,0.2,0.1,0.3c0,0.1,0,0.2-0.1,0.3C312.6,573.8,312.5,573.9,312.4,573.9z"/>
	<path d="M318.4,567.7v6.1H318v-6.1h-1.8v-0.4h4.1v0.4H318.4z"/>
	<path d="M321.6,573.9c-0.7,0-1.2-0.2-1.6-0.7c-0.4-0.4-0.6-1-0.6-1.7c0-0.8,0.2-1.4,0.6-1.8c0.4-0.4,0.9-0.7,1.6-0.7
		c0.6,0,1.1,0.2,1.5,0.7s0.6,1,0.6,1.8c0,0.7-0.2,1.3-0.6,1.8C322.8,573.7,322.3,573.9,321.6,573.9z M321.6,569.4
		c-0.5,0-1,0.2-1.3,0.6s-0.5,0.9-0.5,1.5c0,0.6,0.2,1.1,0.5,1.5c0.3,0.4,0.7,0.6,1.3,0.6c0.5,0,1-0.2,1.3-0.5
		c0.3-0.4,0.4-0.9,0.4-1.5c0-0.7-0.1-1.2-0.4-1.5C322.6,569.6,322.2,569.4,321.6,569.4z"/>
	<path d="M327.4,573.8l-2.2-2.3h0v2.3h-0.4v-6.9h0.4v4.5h0l2-2.2h0.5l-2.1,2.3l2.3,2.4H327.4z"/>
	<path d="M329,571.5c0,0.6,0.1,1.1,0.4,1.5s0.7,0.5,1.2,0.5c0.5,0,1-0.2,1.5-0.6v0.4c-0.5,0.3-1,0.5-1.6,0.5c-0.6,0-1.1-0.2-1.4-0.6
		c-0.4-0.4-0.5-1-0.5-1.8c0-0.7,0.2-1.3,0.6-1.7s0.9-0.7,1.5-0.7c0.6,0,1,0.2,1.3,0.6c0.3,0.4,0.5,1,0.5,1.7v0.2H329z M331.9,571.1
		c0-0.5-0.1-1-0.4-1.3c-0.2-0.3-0.5-0.4-1-0.4c-0.4,0-0.8,0.1-1.1,0.4c-0.3,0.3-0.4,0.7-0.5,1.3H331.9z"/>
	<path d="M336.5,573.8v-2.7c0-1.1-0.4-1.7-1.2-1.7c-0.4,0-0.8,0.2-1.1,0.5c-0.3,0.3-0.4,0.7-0.4,1.2v2.7h-0.4v-4.7h0.4v0.8h0
		c0.3-0.6,0.8-1,1.5-1c0.5,0,0.9,0.2,1.1,0.5c0.3,0.3,0.4,0.8,0.4,1.4v2.8H336.5z"/>
	<path d="M342.5,573.9c-0.7,0-1.2-0.2-1.6-0.7c-0.4-0.4-0.6-1-0.6-1.7c0-0.8,0.2-1.4,0.6-1.8c0.4-0.4,0.9-0.7,1.6-0.7
		c0.6,0,1.1,0.2,1.5,0.7s0.6,1,0.6,1.8c0,0.7-0.2,1.3-0.6,1.8C343.7,573.7,343.2,573.9,342.5,573.9z M342.6,569.4
		c-0.5,0-1,0.2-1.3,0.6s-0.5,0.9-0.5,1.5c0,0.6,0.2,1.1,0.5,1.5c0.3,0.4,0.7,0.6,1.3,0.6c0.5,0,1-0.2,1.3-0.5
		c0.3-0.4,0.4-0.9,0.4-1.5c0-0.7-0.1-1.2-0.4-1.5C343.5,569.6,343.1,569.4,342.6,569.4z"/>
	<path d="M348.8,573.8v-2.7c0-1.1-0.4-1.7-1.2-1.7c-0.4,0-0.8,0.2-1.1,0.5c-0.3,0.3-0.4,0.7-0.4,1.2v2.7h-0.4v-4.7h0.4v0.8h0
		c0.3-0.6,0.8-1,1.5-1c0.5,0,0.9,0.2,1.1,0.5c0.3,0.3,0.4,0.8,0.4,1.4v2.8H348.8z"/>
	<path d="M354.9,573.7c-0.2,0.1-0.4,0.2-0.6,0.2c-0.7,0-1-0.4-1-1.2v-3.1h-0.8v-0.4h0.8v-1.2c0.1,0,0.1,0,0.2-0.1
		c0.1,0,0.1,0,0.2-0.1v1.4h1.2v0.4h-1.2v3.1c0,0.3,0,0.6,0.1,0.7c0.1,0.1,0.3,0.2,0.5,0.2c0.2,0,0.3-0.1,0.5-0.2V573.7z"/>
	<path d="M358.8,573.8V571c0-0.6-0.1-1-0.3-1.2s-0.5-0.4-0.9-0.4c-0.4,0-0.7,0.2-1,0.5c-0.3,0.3-0.4,0.8-0.4,1.3v2.6h-0.4v-6.9h0.4
		v3.1h0c0.4-0.6,0.9-1,1.5-1c0.5,0,0.9,0.2,1.1,0.5c0.3,0.3,0.4,0.8,0.4,1.4v2.9H358.8z"/>
	<path d="M360.7,571.5c0,0.6,0.1,1.1,0.4,1.5s0.7,0.5,1.2,0.5c0.5,0,1-0.2,1.5-0.6v0.4c-0.5,0.3-1,0.5-1.6,0.5
		c-0.6,0-1.1-0.2-1.4-0.6c-0.4-0.4-0.5-1-0.5-1.8c0-0.7,0.2-1.3,0.6-1.7s0.9-0.7,1.5-0.7c0.6,0,1,0.2,1.3,0.6c0.3,0.4,0.5,1,0.5,1.7
		v0.2H360.7z M363.6,571.1c0-0.5-0.1-1-0.4-1.3c-0.2-0.3-0.5-0.4-1-0.4c-0.4,0-0.8,0.1-1.1,0.4c-0.3,0.3-0.4,0.7-0.5,1.3H363.6z"/>
	<path d="M369.4,573.9c-0.7,0-1.2-0.2-1.6-0.7c-0.4-0.4-0.6-1-0.6-1.7c0-0.8,0.2-1.4,0.6-1.8c0.4-0.4,0.9-0.7,1.6-0.7
		c0.6,0,1.1,0.2,1.5,0.7s0.6,1,0.6,1.8c0,0.7-0.2,1.3-0.6,1.8C370.6,573.7,370.1,573.9,369.4,573.9z M369.4,569.4
		c-0.5,0-1,0.2-1.3,0.6s-0.5,0.9-0.5,1.5c0,0.6,0.2,1.1,0.5,1.5c0.3,0.4,0.7,0.6,1.3,0.6c0.5,0,1-0.2,1.3-0.5
		c0.3-0.4,0.4-0.9,0.4-1.5c0-0.7-0.1-1.2-0.4-1.5C370.4,569.6,370,569.4,369.4,569.4z"/>
	<path d="M373.1,573L373.1,573l0,3h-0.4v-6.8h0.4v1h0c0.2-0.3,0.4-0.6,0.7-0.8c0.3-0.2,0.6-0.3,1-0.3c0.6,0,1,0.2,1.3,0.6
		s0.5,1,0.5,1.7c0,0.8-0.2,1.4-0.6,1.9c-0.4,0.5-0.9,0.7-1.5,0.7C373.9,573.9,373.4,573.6,373.1,573z M373.1,571.2v0.6
		c0,0.5,0.1,0.9,0.4,1.2c0.3,0.3,0.7,0.5,1.1,0.5c0.5,0,0.8-0.2,1.1-0.6s0.4-0.9,0.4-1.6c0-0.6-0.1-1-0.4-1.4
		c-0.3-0.3-0.6-0.5-1.1-0.5c-0.5,0-0.9,0.2-1.2,0.5S373.1,570.7,373.1,571.2z"/>
	<path d="M377.8,571.5c0,0.6,0.1,1.1,0.4,1.5s0.7,0.5,1.2,0.5c0.5,0,1-0.2,1.5-0.6v0.4c-0.5,0.3-1,0.5-1.6,0.5
		c-0.6,0-1.1-0.2-1.4-0.6c-0.4-0.4-0.5-1-0.5-1.8c0-0.7,0.2-1.3,0.6-1.7s0.9-0.7,1.5-0.7c0.6,0,1,0.2,1.3,0.6c0.3,0.4,0.5,1,0.5,1.7
		v0.2H377.8z M380.7,571.1c0-0.5-0.1-1-0.4-1.3c-0.2-0.3-0.5-0.4-1-0.4c-0.4,0-0.8,0.1-1.1,0.4c-0.3,0.3-0.4,0.7-0.5,1.3H380.7z"/>
	<path d="M385.3,573.8v-2.7c0-1.1-0.4-1.7-1.2-1.7c-0.4,0-0.8,0.2-1.1,0.5c-0.3,0.3-0.4,0.7-0.4,1.2v2.7h-0.4v-4.7h0.4v0.8h0
		c0.3-0.6,0.8-1,1.5-1c0.5,0,0.9,0.2,1.1,0.5c0.3,0.3,0.4,0.8,0.4,1.4v2.8H385.3z"/>
	<path d="M395.2,573.8V571c0-0.6-0.1-1-0.3-1.2c-0.2-0.2-0.5-0.4-0.8-0.4c-0.4,0-0.7,0.2-0.9,0.5c-0.3,0.3-0.4,0.7-0.4,1.2v2.7h-0.4
		v-2.8c0-1-0.4-1.6-1.1-1.6c-0.4,0-0.7,0.2-0.9,0.5c-0.2,0.3-0.4,0.7-0.4,1.2v2.7h-0.4v-4.7h0.4v0.8h0c0.3-0.6,0.8-0.9,1.4-0.9
		c0.3,0,0.6,0.1,0.8,0.3c0.2,0.2,0.4,0.5,0.5,0.8c0.1-0.3,0.3-0.6,0.6-0.8c0.3-0.2,0.5-0.3,0.9-0.3c1,0,1.5,0.6,1.5,1.9v2.9H395.2z"
		/>
	<path d="M399.7,573.8v-0.9h0c-0.1,0.3-0.4,0.6-0.6,0.8s-0.6,0.3-0.9,0.3c-0.4,0-0.8-0.1-1-0.4s-0.4-0.6-0.4-0.9
		c0-0.8,0.5-1.3,1.6-1.5l1.4-0.2c0-1-0.4-1.5-1.1-1.5c-0.5,0-1,0.2-1.4,0.6v-0.5c0.2-0.1,0.4-0.3,0.7-0.4c0.3-0.1,0.6-0.1,0.8-0.1
		c0.5,0,0.8,0.1,1.1,0.4c0.3,0.3,0.4,0.7,0.4,1.3v3H399.7z M398.4,571.5c-0.5,0.1-0.8,0.2-1,0.3c-0.2,0.2-0.3,0.4-0.3,0.8
		c0,0.3,0.1,0.5,0.3,0.7c0.2,0.2,0.4,0.3,0.7,0.3c0.4,0,0.8-0.2,1.1-0.5s0.4-0.8,0.4-1.3v-0.5L398.4,571.5z"/>
	<path d="M403.5,569.6c-0.1-0.1-0.3-0.2-0.5-0.2c-0.4,0-0.7,0.2-0.9,0.6s-0.4,0.9-0.4,1.6v2.2h-0.4v-4.7h0.4v1h0
		c0.1-0.4,0.3-0.6,0.5-0.8c0.2-0.2,0.5-0.3,0.8-0.3c0.2,0,0.3,0,0.4,0.1V569.6z"/>
	<path d="M407,573.8l-2.2-2.3h0v2.3h-0.4v-6.9h0.4v4.5h0l2-2.2h0.5l-2.1,2.3l2.3,2.4H407z"/>
	<path d="M408.5,571.5c0,0.6,0.1,1.1,0.4,1.5s0.7,0.5,1.2,0.5c0.5,0,1-0.2,1.5-0.6v0.4c-0.5,0.3-1,0.5-1.6,0.5
		c-0.6,0-1.1-0.2-1.4-0.6c-0.4-0.4-0.5-1-0.5-1.8c0-0.7,0.2-1.3,0.6-1.7s0.9-0.7,1.5-0.7c0.6,0,1,0.2,1.3,0.6c0.3,0.4,0.5,1,0.5,1.7
		v0.2H408.5z M411.4,571.1c0-0.5-0.1-1-0.4-1.3c-0.2-0.3-0.5-0.4-1-0.4c-0.4,0-0.8,0.1-1.1,0.4c-0.3,0.3-0.4,0.7-0.5,1.3H411.4z"/>
	<path d="M414.7,573.7c-0.2,0.1-0.4,0.2-0.6,0.2c-0.7,0-1-0.4-1-1.2v-3.1h-0.8v-0.4h0.8v-1.2c0.1,0,0.1,0,0.2-0.1
		c0.1,0,0.1,0,0.2-0.1v1.4h1.2v0.4h-1.2v3.1c0,0.3,0,0.6,0.1,0.7c0.1,0.1,0.3,0.2,0.5,0.2c0.2,0,0.3-0.1,0.5-0.2V573.7z"/>
</g>
<g class="st2">
	<path d="M278.1,586.8c-0.9-1.1-1.3-2.4-1.3-4c0-1.6,0.5-3,1.4-4.1h0.4c-0.9,1.1-1.4,2.4-1.4,4c0,1.5,0.5,2.8,1.4,4H278.1z"/>
	<path d="M280.9,585.4c-0.6,0-1-0.3-1.4-0.8c-0.3-0.6-0.5-1.4-0.5-2.4c0-1.2,0.2-2,0.5-2.6s0.8-0.9,1.5-0.9c1.2,0,1.8,1.1,1.8,3.3
		c0,1.1-0.2,2-0.5,2.5C282,585.1,281.5,585.4,280.9,585.4z M281,579c-0.5,0-0.9,0.3-1.1,0.8c-0.3,0.5-0.4,1.3-0.4,2.3
		c0,0.9,0.1,1.7,0.4,2.2c0.3,0.5,0.6,0.8,1.1,0.8c0.5,0,0.8-0.3,1.1-0.8c0.3-0.5,0.4-1.2,0.4-2.2C282.4,580.1,281.9,579,281,579z"/>
	<path d="M284.3,585.4c-0.1,0-0.2,0-0.3-0.1c-0.1-0.1-0.1-0.2-0.1-0.3c0-0.1,0-0.2,0.1-0.3c0.1-0.1,0.1-0.1,0.3-0.1s0.2,0,0.3,0.1
		s0.1,0.2,0.1,0.3c0,0.1,0,0.2-0.1,0.3S284.4,585.4,284.3,585.4z"/>
	<path d="M287.6,578.6v6.7h-0.4v-6c-0.2,0.2-0.4,0.4-0.7,0.5c-0.3,0.1-0.5,0.3-0.9,0.4v-0.4c0.2-0.1,0.4-0.1,0.5-0.2
		s0.3-0.2,0.5-0.3c0.1-0.1,0.3-0.2,0.4-0.3c0.1-0.1,0.3-0.2,0.4-0.4H287.6z"/>
	<path d="M289.2,585.2v-0.5c0.4,0.2,0.8,0.3,1.2,0.3c0.5,0,0.9-0.1,1.2-0.4c0.3-0.3,0.4-0.7,0.4-1.2c0-1.1-0.6-1.6-1.8-1.6
		c-0.3,0-0.6,0-0.9,0.1l0.2-3.1h2.6v0.4h-2.3l-0.1,2.3c0.3,0,0.5,0,0.6,0c0.7,0,1.2,0.2,1.5,0.5c0.3,0.3,0.5,0.8,0.5,1.4
		c0,0.6-0.2,1.1-0.5,1.5s-0.9,0.6-1.6,0.6C289.9,585.4,289.5,585.3,289.2,585.2z"/>
	<path d="M294.9,582c-0.5,0-0.8-0.2-1.1-0.5c-0.3-0.3-0.4-0.7-0.4-1.2c0-0.5,0.1-0.9,0.4-1.2c0.3-0.3,0.6-0.4,1.1-0.4
		c0.4,0,0.8,0.1,1,0.4c0.3,0.3,0.4,0.7,0.4,1.2c0,0.5-0.1,0.9-0.4,1.2C295.7,581.8,295.4,582,294.9,582z M295,579
		c-0.3,0-0.6,0.1-0.8,0.3c-0.2,0.2-0.3,0.6-0.3,1c0,0.4,0.1,0.7,0.3,0.9c0.2,0.2,0.4,0.3,0.8,0.3c0.3,0,0.6-0.1,0.8-0.4
		c0.2-0.2,0.3-0.6,0.3-1c0-0.4-0.1-0.7-0.3-1C295.5,579.1,295.3,579,295,579z M294.9,585.5h-0.4l3.8-6.7h0.4L294.9,585.5z
		 M298.4,585.4c-0.4,0-0.8-0.2-1.1-0.5s-0.4-0.7-0.4-1.2c0-0.5,0.1-1,0.4-1.2s0.6-0.4,1.1-0.4c0.4,0,0.8,0.1,1,0.4
		c0.3,0.3,0.4,0.7,0.4,1.2c0,0.5-0.1,0.9-0.4,1.2C299.2,585.3,298.8,585.4,298.4,585.4z M298.4,582.5c-0.3,0-0.6,0.1-0.8,0.4
		s-0.3,0.6-0.3,1c0,0.4,0.1,0.7,0.3,0.9c0.2,0.2,0.4,0.3,0.8,0.3c0.3,0,0.6-0.1,0.8-0.4c0.2-0.2,0.3-0.6,0.3-1c0-0.4-0.1-0.8-0.3-1
		C299,582.6,298.7,582.5,298.4,582.5z"/>
	<path d="M305.2,585.2c-0.2,0.1-0.4,0.2-0.6,0.2c-0.7,0-1-0.4-1-1.2V581h-0.8v-0.4h0.8v-1.2c0.1,0,0.1,0,0.2-0.1s0.1,0,0.2-0.1v1.4
		h1.2v0.4H304v3.1c0,0.3,0,0.6,0.1,0.7c0.1,0.1,0.3,0.2,0.5,0.2c0.2,0,0.3-0.1,0.5-0.2V585.2z"/>
	<path d="M308.2,581.1c-0.1-0.1-0.3-0.2-0.5-0.2c-0.4,0-0.7,0.2-0.9,0.6c-0.2,0.4-0.4,0.9-0.4,1.6v2.2h-0.4v-4.7h0.4v1h0
		c0.1-0.4,0.3-0.6,0.5-0.8c0.2-0.2,0.5-0.3,0.8-0.3c0.2,0,0.3,0,0.4,0.1V581.1z"/>
	<path d="M311.7,585.3v-0.9h0c-0.1,0.3-0.4,0.6-0.6,0.8s-0.6,0.3-0.9,0.3c-0.4,0-0.8-0.1-1-0.4s-0.4-0.6-0.4-0.9
		c0-0.8,0.5-1.3,1.6-1.5l1.4-0.2c0-1-0.4-1.5-1.1-1.5c-0.5,0-1,0.2-1.4,0.6V581c0.2-0.1,0.4-0.3,0.7-0.4c0.3-0.1,0.6-0.1,0.8-0.1
		c0.5,0,0.8,0.1,1.1,0.4c0.3,0.3,0.4,0.7,0.4,1.3v3H311.7z M310.5,583c-0.5,0.1-0.8,0.2-1,0.3c-0.2,0.2-0.3,0.4-0.3,0.8
		c0,0.3,0.1,0.5,0.3,0.7c0.2,0.2,0.4,0.3,0.7,0.3c0.4,0,0.8-0.2,1.1-0.5c0.3-0.3,0.4-0.8,0.4-1.3v-0.5L310.5,583z"/>
	<path d="M316.7,585.3v-0.8h0c-0.1,0.3-0.4,0.5-0.7,0.7s-0.6,0.3-1,0.3c-0.6,0-1-0.2-1.4-0.6s-0.5-1-0.5-1.7c0-0.8,0.2-1.4,0.6-1.8
		c0.4-0.5,0.9-0.7,1.5-0.7c0.7,0,1.2,0.3,1.4,0.9h0v-3h0.4v6.9H316.7z M316.7,582.5c0-0.4-0.1-0.8-0.4-1.1c-0.3-0.3-0.6-0.5-1.1-0.5
		c-0.5,0-0.9,0.2-1.2,0.6c-0.3,0.4-0.5,0.9-0.5,1.5c0,0.6,0.1,1.1,0.4,1.5c0.3,0.3,0.6,0.5,1.1,0.5c0.5,0,0.9-0.2,1.2-0.5
		s0.4-0.7,0.4-1.2V582.5z"/>
	<path d="M318.7,579.5c-0.1,0-0.2,0-0.2-0.1c-0.1-0.1-0.1-0.2-0.1-0.3c0-0.1,0-0.2,0.1-0.2c0.1-0.1,0.1-0.1,0.2-0.1
		c0.1,0,0.2,0,0.2,0.1c0.1,0.1,0.1,0.1,0.1,0.2c0,0.1,0,0.2-0.1,0.3C318.9,579.4,318.8,579.5,318.7,579.5z M318.5,585.3v-4.7h0.4
		v4.7H318.5z"/>
	<path d="M323.5,585.3v-2.7c0-1.1-0.4-1.7-1.2-1.7c-0.4,0-0.8,0.2-1.1,0.5c-0.3,0.3-0.4,0.7-0.4,1.2v2.7h-0.4v-4.7h0.4v0.8h0
		c0.3-0.6,0.8-1,1.5-1c0.5,0,0.9,0.2,1.1,0.5c0.3,0.3,0.4,0.8,0.4,1.4v2.8H323.5z"/>
	<path d="M328.8,585c0,0.9-0.2,1.5-0.6,1.9s-0.9,0.6-1.7,0.6c-0.4,0-0.9-0.1-1.3-0.4v-0.4c0.5,0.3,0.9,0.4,1.3,0.4
		c1.2,0,1.9-0.7,1.9-2v-0.6h0c-0.4,0.6-0.9,1-1.6,1c-0.6,0-1-0.2-1.4-0.6c-0.4-0.4-0.5-1-0.5-1.7c0-0.7,0.2-1.3,0.6-1.8
		c0.4-0.5,0.9-0.7,1.5-0.7c0.7,0,1.1,0.3,1.4,0.9h0v-0.7h0.4V585z M328.4,582.4c0-0.4-0.1-0.8-0.4-1.1s-0.6-0.5-1-0.5
		c-0.5,0-0.9,0.2-1.2,0.6c-0.3,0.4-0.5,0.9-0.5,1.5c0,0.6,0.1,1.1,0.4,1.5c0.3,0.4,0.6,0.5,1.1,0.5c0.5,0,0.9-0.2,1.2-0.5
		c0.3-0.3,0.4-0.7,0.4-1.2V582.4z"/>
	<path d="M335.7,585.1c-0.3,0.2-0.7,0.3-1.2,0.3c-0.6,0-1.1-0.2-1.5-0.7c-0.4-0.4-0.6-1-0.6-1.7c0-0.7,0.2-1.3,0.6-1.8
		c0.4-0.5,1-0.7,1.6-0.7c0.3,0,0.7,0.1,1,0.2v0.5c-0.3-0.2-0.7-0.3-1.1-0.3c-0.5,0-1,0.2-1.3,0.6c-0.3,0.4-0.5,0.9-0.5,1.5
		c0,0.6,0.2,1.1,0.5,1.5c0.3,0.4,0.7,0.5,1.2,0.5c0.5,0,0.8-0.1,1.2-0.4V585.1z"/>
	<path d="M338.5,585.4c-0.7,0-1.2-0.2-1.6-0.7c-0.4-0.4-0.6-1-0.6-1.7c0-0.8,0.2-1.4,0.6-1.8c0.4-0.4,0.9-0.7,1.6-0.7
		c0.6,0,1.1,0.2,1.5,0.7s0.6,1,0.6,1.8c0,0.7-0.2,1.3-0.6,1.8C339.7,585.2,339.2,585.4,338.5,585.4z M338.6,580.9
		c-0.5,0-1,0.2-1.3,0.6s-0.5,0.9-0.5,1.5c0,0.6,0.2,1.1,0.5,1.5c0.3,0.4,0.7,0.6,1.3,0.6c0.5,0,1-0.2,1.3-0.5
		c0.3-0.4,0.4-0.9,0.4-1.5c0-0.7-0.1-1.2-0.4-1.5C339.5,581.1,339.1,580.9,338.6,580.9z"/>
	<path d="M347.4,585.3v-2.8c0-0.6-0.1-1-0.3-1.2c-0.2-0.2-0.5-0.4-0.8-0.4c-0.4,0-0.7,0.2-0.9,0.5c-0.3,0.3-0.4,0.7-0.4,1.2v2.7
		h-0.4v-2.8c0-1-0.4-1.6-1.1-1.6c-0.4,0-0.7,0.2-0.9,0.5c-0.2,0.3-0.4,0.7-0.4,1.2v2.7h-0.4v-4.7h0.4v0.8h0c0.3-0.6,0.8-0.9,1.4-0.9
		c0.3,0,0.6,0.1,0.8,0.3c0.2,0.2,0.4,0.5,0.5,0.8c0.1-0.3,0.3-0.6,0.6-0.8c0.3-0.2,0.5-0.3,0.9-0.3c1,0,1.5,0.6,1.5,1.9v2.9H347.4z"
		/>
	<path d="M354.9,585.3v-2.8c0-0.6-0.1-1-0.3-1.2c-0.2-0.2-0.5-0.4-0.8-0.4c-0.4,0-0.7,0.2-0.9,0.5c-0.3,0.3-0.4,0.7-0.4,1.2v2.7H352
		v-2.8c0-1-0.4-1.6-1.1-1.6c-0.4,0-0.7,0.2-0.9,0.5c-0.2,0.3-0.4,0.7-0.4,1.2v2.7h-0.4v-4.7h0.4v0.8h0c0.3-0.6,0.8-0.9,1.4-0.9
		c0.3,0,0.6,0.1,0.8,0.3c0.2,0.2,0.4,0.5,0.5,0.8c0.1-0.3,0.3-0.6,0.6-0.8c0.3-0.2,0.5-0.3,0.9-0.3c1,0,1.5,0.6,1.5,1.9v2.9H354.9z"
		/>
	<path d="M356.8,579.5c-0.1,0-0.2,0-0.2-0.1c-0.1-0.1-0.1-0.2-0.1-0.3c0-0.1,0-0.2,0.1-0.2c0.1-0.1,0.1-0.1,0.2-0.1
		c0.1,0,0.2,0,0.2,0.1c0.1,0.1,0.1,0.1,0.1,0.2c0,0.1,0,0.2-0.1,0.3C357,579.4,356.9,579.5,356.8,579.5z M356.6,585.3v-4.7h0.4v4.7
		H356.6z"/>
	<path d="M358.2,585.1v-0.5c0.2,0.1,0.3,0.2,0.6,0.3c0.2,0.1,0.4,0.1,0.6,0.1c0.7,0,1.1-0.3,1.1-0.9c0-0.2-0.1-0.4-0.2-0.5
		c-0.2-0.1-0.4-0.3-0.8-0.5c-0.4-0.2-0.7-0.4-0.9-0.6c-0.2-0.2-0.3-0.5-0.3-0.8c0-0.4,0.1-0.7,0.4-0.9c0.3-0.2,0.6-0.3,1-0.3
		c0.4,0,0.7,0.1,1,0.2v0.5c-0.3-0.2-0.7-0.3-1-0.3c-0.3,0-0.5,0.1-0.7,0.2c-0.2,0.2-0.3,0.4-0.3,0.6c0,0.2,0.1,0.4,0.2,0.5
		s0.4,0.3,0.8,0.5c0.5,0.2,0.8,0.4,1,0.6c0.2,0.2,0.3,0.4,0.3,0.7c0,0.4-0.1,0.7-0.4,0.9s-0.6,0.4-1.1,0.4
		C358.9,585.4,358.5,585.3,358.2,585.1z"/>
	<path d="M361.7,585.1v-0.5c0.2,0.1,0.3,0.2,0.6,0.3c0.2,0.1,0.4,0.1,0.6,0.1c0.7,0,1.1-0.3,1.1-0.9c0-0.2-0.1-0.4-0.2-0.5
		c-0.2-0.1-0.4-0.3-0.8-0.5c-0.4-0.2-0.7-0.4-0.9-0.6c-0.2-0.2-0.3-0.5-0.3-0.8c0-0.4,0.1-0.7,0.4-0.9c0.3-0.2,0.6-0.3,1-0.3
		c0.4,0,0.7,0.1,1,0.2v0.5c-0.3-0.2-0.7-0.3-1-0.3c-0.3,0-0.5,0.1-0.7,0.2c-0.2,0.2-0.3,0.4-0.3,0.6c0,0.2,0.1,0.4,0.2,0.5
		s0.4,0.3,0.8,0.5c0.5,0.2,0.8,0.4,1,0.6c0.2,0.2,0.3,0.4,0.3,0.7c0,0.4-0.1,0.7-0.4,0.9s-0.6,0.4-1.1,0.4
		C362.4,585.4,362,585.3,361.7,585.1z"/>
	<path d="M365.7,579.5c-0.1,0-0.2,0-0.2-0.1c-0.1-0.1-0.1-0.2-0.1-0.3c0-0.1,0-0.2,0.1-0.2c0.1-0.1,0.1-0.1,0.2-0.1
		c0.1,0,0.2,0,0.2,0.1c0.1,0.1,0.1,0.1,0.1,0.2c0,0.1,0,0.2-0.1,0.3C365.8,579.4,365.8,579.5,365.7,579.5z M365.5,585.3v-4.7h0.4
		v4.7H365.5z"/>
	<path d="M369.1,585.4c-0.7,0-1.2-0.2-1.6-0.7c-0.4-0.4-0.6-1-0.6-1.7c0-0.8,0.2-1.4,0.6-1.8c0.4-0.4,0.9-0.7,1.6-0.7
		c0.6,0,1.1,0.2,1.5,0.7s0.6,1,0.6,1.8c0,0.7-0.2,1.3-0.6,1.8C370.3,585.2,369.8,585.4,369.1,585.4z M369.2,580.9
		c-0.5,0-1,0.2-1.3,0.6s-0.5,0.9-0.5,1.5c0,0.6,0.2,1.1,0.5,1.5c0.3,0.4,0.7,0.6,1.3,0.6c0.5,0,1-0.2,1.3-0.5
		c0.3-0.4,0.4-0.9,0.4-1.5c0-0.7-0.1-1.2-0.4-1.5C370.1,581.1,369.7,580.9,369.2,580.9z"/>
	<path d="M375.4,585.3v-2.7c0-1.1-0.4-1.7-1.2-1.7c-0.4,0-0.8,0.2-1.1,0.5c-0.3,0.3-0.4,0.7-0.4,1.2v2.7h-0.4v-4.7h0.4v0.8h0
		c0.3-0.6,0.8-1,1.5-1c0.5,0,0.9,0.2,1.1,0.5c0.3,0.3,0.4,0.8,0.4,1.4v2.8H375.4z"/>
	<path d="M377,586.8h-0.4c0.9-1.1,1.4-2.5,1.4-4c0-1.6-0.5-2.9-1.4-4h0.4c0.9,1.1,1.3,2.4,1.3,4.1
		C378.4,584.4,377.9,585.7,377,586.8z"/>
</g>
<g>
	<rect x="432.2" y="566.6" width="22.1" height="1"/>
</g>
<g>
	<rect x="284.8" y="418.8" width="147.9" height="0.9"/>
</g>
<g>
	<g>
		<polygon points="432.7,414 437.5,418.8 432.7,423.6 		"/>
	</g>
</g>
<g class="st2">
	<path d="M303.6,404.5v8.9H303v-8c-0.3,0.3-0.6,0.5-1,0.7c-0.4,0.2-0.7,0.4-1.2,0.5v-0.5c0.3-0.1,0.5-0.2,0.7-0.3
		c0.2-0.1,0.4-0.2,0.6-0.4s0.4-0.3,0.6-0.4s0.4-0.3,0.6-0.5H303.6z"/>
	<path d="M307.3,409c-0.6,0-1.1-0.2-1.5-0.6c-0.4-0.4-0.5-0.9-0.5-1.6c0-0.7,0.2-1.3,0.6-1.7c0.4-0.4,0.9-0.6,1.5-0.6
		c0.6,0,1.1,0.2,1.4,0.6c0.4,0.4,0.5,0.9,0.5,1.6c0,0.6-0.2,1.2-0.6,1.6C308.5,408.8,308,409,307.3,409z M307.4,405.1
		c-0.5,0-0.8,0.2-1.1,0.5c-0.3,0.3-0.4,0.7-0.4,1.3c0,0.5,0.1,0.9,0.4,1.2s0.6,0.5,1.1,0.5c0.5,0,0.8-0.2,1.1-0.5s0.4-0.7,0.4-1.3
		c0-0.6-0.1-1-0.4-1.3C308.2,405.2,307.8,405.1,307.4,405.1z M307.4,413.7h-0.6l5.2-8.9h0.6L307.4,413.7z M312.1,413.6
		c-0.6,0-1.1-0.2-1.5-0.6c-0.4-0.4-0.5-0.9-0.5-1.6c0-0.7,0.2-1.3,0.6-1.7c0.4-0.4,0.9-0.6,1.5-0.6s1.1,0.2,1.4,0.6
		c0.4,0.4,0.5,0.9,0.5,1.6c0,0.6-0.2,1.2-0.6,1.6C313.2,413.4,312.7,413.6,312.1,413.6z M312.2,409.6c-0.5,0-0.8,0.2-1.1,0.5
		c-0.3,0.3-0.4,0.7-0.4,1.3c0,0.5,0.1,0.9,0.4,1.2c0.3,0.3,0.6,0.5,1.1,0.5c0.5,0,0.8-0.2,1.1-0.5c0.3-0.3,0.4-0.7,0.4-1.3
		c0-0.6-0.1-1-0.4-1.3C313,409.8,312.6,409.6,312.2,409.6z"/>
	<path d="M326.8,413.5v-3.7c0-0.8-0.1-1.3-0.4-1.6c-0.2-0.3-0.6-0.5-1.2-0.5c-0.5,0-0.9,0.2-1.3,0.6c-0.4,0.4-0.5,0.9-0.5,1.6v3.6
		h-0.6v-3.8c0-1.4-0.5-2.1-1.6-2.1c-0.5,0-0.9,0.2-1.3,0.6c-0.3,0.4-0.5,1-0.5,1.6v3.6H319v-6.2h0.6v1h0c0.4-0.8,1.1-1.2,1.9-1.2
		c0.5,0,0.8,0.1,1.2,0.4c0.3,0.3,0.5,0.6,0.7,1c0.2-0.5,0.5-0.8,0.8-1c0.4-0.2,0.8-0.4,1.2-0.4c1.4,0,2,0.8,2,2.5v3.8H326.8z"/>
	<path d="M332.9,413.5v-1.2h0c-0.2,0.4-0.5,0.8-0.9,1c-0.4,0.3-0.8,0.4-1.3,0.4c-0.6,0-1.1-0.2-1.4-0.5c-0.3-0.3-0.5-0.8-0.5-1.3
		c0-1.1,0.7-1.7,2.2-2l1.9-0.3c0-1.3-0.5-2-1.5-2c-0.7,0-1.3,0.3-2,0.8v-0.7c0.2-0.2,0.5-0.3,0.9-0.5s0.8-0.2,1.1-0.2
		c0.6,0,1.1,0.2,1.5,0.6c0.3,0.4,0.5,1,0.5,1.7v4H332.9z M331.2,410.4c-0.7,0.1-1.1,0.2-1.4,0.5s-0.4,0.5-0.4,1
		c0,0.4,0.1,0.7,0.4,0.9s0.6,0.4,1,0.4c0.6,0,1.1-0.2,1.5-0.7s0.6-1,0.6-1.7v-0.6L331.2,410.4z"/>
	<path d="M339.6,413.5v-3.6c0-1.5-0.5-2.2-1.6-2.2c-0.6,0-1.1,0.2-1.5,0.7c-0.4,0.4-0.6,1-0.6,1.6v3.6h-0.6v-6.2h0.6v1.1h0
		c0.5-0.9,1.2-1.3,2.1-1.3c0.7,0,1.2,0.2,1.5,0.7c0.4,0.4,0.5,1.1,0.5,1.9v3.8H339.6z"/>
	<path d="M345.7,413.5v-1.2h0c-0.2,0.4-0.5,0.8-0.9,1c-0.4,0.3-0.8,0.4-1.3,0.4c-0.6,0-1.1-0.2-1.4-0.5c-0.3-0.3-0.5-0.8-0.5-1.3
		c0-1.1,0.7-1.7,2.2-2l1.9-0.3c0-1.3-0.5-2-1.5-2c-0.7,0-1.3,0.3-2,0.8v-0.7c0.2-0.2,0.5-0.3,0.9-0.5s0.8-0.2,1.1-0.2
		c0.6,0,1.1,0.2,1.5,0.6c0.3,0.4,0.5,1,0.5,1.7v4H345.7z M344,410.4c-0.7,0.1-1.1,0.2-1.4,0.5s-0.4,0.5-0.4,1c0,0.4,0.1,0.7,0.4,0.9
		s0.6,0.4,1,0.4c0.6,0,1.1-0.2,1.5-0.7s0.6-1,0.6-1.7v-0.6L344,410.4z"/>
	<path d="M353.2,413c0,1.2-0.3,2-0.8,2.6s-1.3,0.8-2.4,0.8c-0.6,0-1.2-0.2-1.9-0.5v-0.6c0.7,0.4,1.3,0.5,1.9,0.5
		c1.7,0,2.6-0.9,2.6-2.7v-0.8h0c-0.5,0.8-1.2,1.3-2.2,1.3c-0.8,0-1.4-0.3-1.9-0.8s-0.7-1.3-0.7-2.3c0-1,0.3-1.8,0.8-2.4
		c0.5-0.6,1.2-0.9,2.1-0.9c0.9,0,1.6,0.4,2,1.1h0v-1h0.6V413z M352.6,409.6c0-0.6-0.2-1-0.6-1.4c-0.4-0.4-0.9-0.6-1.4-0.6
		c-0.7,0-1.2,0.3-1.7,0.8c-0.4,0.5-0.6,1.2-0.6,2c0,0.9,0.2,1.5,0.6,2c0.4,0.5,0.9,0.7,1.5,0.7c0.7,0,1.2-0.2,1.6-0.6
		c0.4-0.4,0.6-1,0.6-1.6V409.6z"/>
	<path d="M355.3,410.4c0,0.9,0.2,1.5,0.6,2s0.9,0.7,1.6,0.7c0.7,0,1.4-0.3,2-0.8v0.6c-0.6,0.5-1.4,0.7-2.2,0.7
		c-0.8,0-1.5-0.3-1.9-0.9c-0.5-0.6-0.7-1.4-0.7-2.4c0-0.9,0.3-1.7,0.8-2.3s1.2-0.9,2-0.9c0.8,0,1.4,0.3,1.8,0.8
		c0.4,0.5,0.6,1.3,0.6,2.2v0.2H355.3z M359.3,409.9c0-0.7-0.2-1.3-0.5-1.7c-0.3-0.4-0.8-0.6-1.3-0.6c-0.6,0-1.1,0.2-1.5,0.6
		s-0.6,1-0.7,1.7H359.3z"/>
	<path d="M369.2,413.5v-3.7c0-0.8-0.1-1.3-0.4-1.6c-0.2-0.3-0.6-0.5-1.2-0.5c-0.5,0-0.9,0.2-1.3,0.6c-0.4,0.4-0.5,0.9-0.5,1.6v3.6
		h-0.6v-3.8c0-1.4-0.5-2.1-1.6-2.1c-0.5,0-0.9,0.2-1.3,0.6c-0.3,0.4-0.5,1-0.5,1.6v3.6h-0.6v-6.2h0.6v1h0c0.4-0.8,1.1-1.2,1.9-1.2
		c0.5,0,0.8,0.1,1.2,0.4c0.3,0.3,0.5,0.6,0.7,1c0.2-0.5,0.5-0.8,0.8-1c0.4-0.2,0.8-0.4,1.2-0.4c1.4,0,2,0.8,2,2.5v3.8H369.2z"/>
	<path d="M371.8,410.4c0,0.9,0.2,1.5,0.6,2s0.9,0.7,1.6,0.7c0.7,0,1.4-0.3,2-0.8v0.6c-0.6,0.5-1.4,0.7-2.2,0.7
		c-0.8,0-1.5-0.3-1.9-0.9c-0.5-0.6-0.7-1.4-0.7-2.4c0-0.9,0.3-1.7,0.8-2.3s1.2-0.9,2-0.9c0.8,0,1.4,0.3,1.8,0.8
		c0.4,0.5,0.6,1.3,0.6,2.2v0.2H371.8z M375.8,409.9c0-0.7-0.2-1.3-0.5-1.7c-0.3-0.4-0.8-0.6-1.3-0.6c-0.6,0-1.1,0.2-1.5,0.6
		s-0.6,1-0.7,1.7H375.8z"/>
	<path d="M382.2,413.5v-3.6c0-1.5-0.5-2.2-1.6-2.2c-0.6,0-1.1,0.2-1.5,0.7c-0.4,0.4-0.6,1-0.6,1.6v3.6h-0.6v-6.2h0.6v1.1h0
		c0.5-0.9,1.2-1.3,2.1-1.3c0.7,0,1.2,0.2,1.5,0.7c0.4,0.4,0.5,1.1,0.5,1.9v3.8H382.2z"/>
	<path d="M387.1,413.4c-0.3,0.1-0.6,0.2-0.8,0.2c-0.9,0-1.4-0.6-1.4-1.7v-4.2h-1.1v-0.5h1.1v-1.6c0.1,0,0.2-0.1,0.3-0.1
		c0.1,0,0.2-0.1,0.3-0.1v1.8h1.6v0.5h-1.6v4.1c0,0.4,0.1,0.7,0.2,0.9c0.1,0.2,0.4,0.3,0.7,0.3c0.2,0,0.5-0.1,0.7-0.2V413.4z"/>
	<path d="M394.4,404.8c-0.2-0.1-0.4-0.2-0.7-0.2c-0.8,0-1.1,0.5-1.1,1.5v1h1.6v0.5h-1.6v5.7H392v-5.7h-1.1v-0.5h1.1v-1.1
		c0-0.7,0.2-1.2,0.5-1.5c0.3-0.3,0.7-0.5,1.2-0.5c0.3,0,0.5,0,0.7,0.1V404.8z"/>
	<path d="M395.3,410.4c0,0.9,0.2,1.5,0.6,2s0.9,0.7,1.6,0.7c0.7,0,1.4-0.3,2-0.8v0.6c-0.6,0.5-1.4,0.7-2.2,0.7
		c-0.8,0-1.5-0.3-1.9-0.9c-0.5-0.6-0.7-1.4-0.7-2.4c0-0.9,0.3-1.7,0.8-2.3s1.2-0.9,2-0.9c0.8,0,1.4,0.3,1.8,0.8
		c0.4,0.5,0.6,1.3,0.6,2.2v0.2H395.3z M399.3,409.9c0-0.7-0.2-1.3-0.5-1.7c-0.3-0.4-0.8-0.6-1.3-0.6c-0.6,0-1.1,0.2-1.5,0.6
		s-0.6,1-0.7,1.7H399.3z"/>
	<path d="M401.6,410.4c0,0.9,0.2,1.5,0.6,2s0.9,0.7,1.6,0.7c0.7,0,1.4-0.3,2-0.8v0.6c-0.6,0.5-1.4,0.7-2.2,0.7
		c-0.8,0-1.5-0.3-1.9-0.9c-0.5-0.6-0.7-1.4-0.7-2.4c0-0.9,0.3-1.7,0.8-2.3s1.2-0.9,2-0.9c0.8,0,1.4,0.3,1.8,0.8
		c0.4,0.5,0.6,1.3,0.6,2.2v0.2H401.6z M405.6,409.9c0-0.7-0.2-1.3-0.5-1.7c-0.3-0.4-0.8-0.6-1.3-0.6c-0.6,0-1.1,0.2-1.5,0.6
		s-0.6,1-0.7,1.7H405.6z"/>
</g>
<g class="st2">
</g>
<g class="st2">
</g>
<g>
	<g class="st2">
		<path class="st3" d="M465.6,420.4v-8.7h0.6v8.7H465.6z"/>
		<path class="st3" d="M472.6,420.4v-3.6c0-1.5-0.5-2.2-1.6-2.2c-0.6,0-1.1,0.2-1.5,0.7c-0.4,0.4-0.6,1-0.6,1.6v3.6h-0.6v-6.2h0.6
			v1.1h0c0.5-0.9,1.2-1.3,2.1-1.3c0.7,0,1.2,0.2,1.5,0.7c0.4,0.4,0.5,1.1,0.5,1.9v3.8H472.6z"/>
		<path class="st3" d="M477.1,420.4h-0.5l-2.4-6.2h0.6l1.9,5c0.1,0.2,0.2,0.5,0.2,0.7h0c0.1-0.3,0.1-0.5,0.2-0.6l1.9-5h0.6
			L477.1,420.4z"/>
		<path class="st3" d="M480.8,417.3c0,0.9,0.2,1.5,0.6,2s0.9,0.7,1.6,0.7c0.7,0,1.4-0.3,2-0.8v0.6c-0.6,0.5-1.4,0.7-2.2,0.7
			c-0.8,0-1.5-0.3-1.9-0.9c-0.5-0.6-0.7-1.4-0.7-2.4c0-0.9,0.3-1.7,0.8-2.3s1.2-0.9,2-0.9c0.8,0,1.4,0.3,1.8,0.8
			c0.4,0.5,0.6,1.3,0.6,2.2v0.2H480.8z M484.8,416.8c0-0.7-0.2-1.3-0.5-1.7c-0.3-0.4-0.8-0.6-1.3-0.6c-0.6,0-1.1,0.2-1.5,0.6
			s-0.6,1-0.7,1.7H484.8z"/>
		<path class="st3" d="M486.6,420.2v-0.7c0.2,0.2,0.5,0.3,0.8,0.4s0.6,0.2,0.8,0.2c1,0,1.5-0.4,1.5-1.2c0-0.3-0.1-0.5-0.3-0.7
			c-0.2-0.2-0.6-0.4-1-0.6c-0.6-0.3-1-0.5-1.3-0.8c-0.2-0.3-0.4-0.6-0.4-1c0-0.5,0.2-0.9,0.6-1.2c0.4-0.3,0.9-0.5,1.4-0.5
			c0.5,0,1,0.1,1.4,0.3v0.6c-0.5-0.3-0.9-0.5-1.4-0.5c-0.4,0-0.7,0.1-1,0.3c-0.3,0.2-0.4,0.5-0.4,0.8c0,0.3,0.1,0.5,0.2,0.7
			c0.2,0.2,0.5,0.4,1,0.6c0.6,0.3,1.1,0.6,1.3,0.8c0.2,0.2,0.4,0.6,0.4,1c0,0.5-0.2,0.9-0.6,1.2c-0.4,0.3-0.9,0.5-1.5,0.5
			C487.5,420.6,487,420.4,486.6,420.2z"/>
		<path class="st3" d="M494.2,420.3c-0.3,0.1-0.6,0.2-0.8,0.2c-0.9,0-1.4-0.6-1.4-1.7v-4.2h-1.1v-0.5h1.1v-1.6
			c0.1,0,0.2-0.1,0.3-0.1c0.1,0,0.2-0.1,0.3-0.1v1.8h1.6v0.5h-1.6v4.1c0,0.4,0.1,0.7,0.2,0.9c0.1,0.2,0.4,0.3,0.7,0.3
			c0.2,0,0.5-0.1,0.7-0.2V420.3z"/>
		<path class="st3" d="M503.3,420.4v-3.7c0-0.8-0.1-1.3-0.4-1.6c-0.2-0.3-0.6-0.5-1.2-0.5c-0.5,0-0.9,0.2-1.3,0.6
			c-0.4,0.4-0.5,0.9-0.5,1.6v3.6h-0.6v-3.8c0-1.4-0.5-2.1-1.6-2.1c-0.5,0-0.9,0.2-1.3,0.6c-0.3,0.4-0.5,1-0.5,1.6v3.6h-0.6v-6.2h0.6
			v1h0c0.4-0.8,1.1-1.2,1.9-1.2c0.5,0,0.8,0.1,1.2,0.4c0.3,0.3,0.5,0.6,0.7,1c0.2-0.5,0.5-0.8,0.8-1c0.4-0.2,0.8-0.4,1.2-0.4
			c1.4,0,2,0.8,2,2.5v3.8H503.3z"/>
		<path class="st3" d="M505.8,417.3c0,0.9,0.2,1.5,0.6,2s0.9,0.7,1.6,0.7c0.7,0,1.4-0.3,2-0.8v0.6c-0.6,0.5-1.4,0.7-2.2,0.7
			c-0.8,0-1.5-0.3-1.9-0.9c-0.5-0.6-0.7-1.4-0.7-2.4c0-0.9,0.3-1.7,0.8-2.3s1.2-0.9,2-0.9c0.8,0,1.4,0.3,1.8,0.8
			c0.4,0.5,0.6,1.3,0.6,2.2v0.2H505.8z M509.8,416.8c0-0.7-0.2-1.3-0.5-1.7c-0.3-0.4-0.8-0.6-1.3-0.6c-0.6,0-1.1,0.2-1.5,0.6
			s-0.6,1-0.7,1.7H509.8z"/>
		<path class="st3" d="M516.2,420.4v-3.6c0-1.5-0.5-2.2-1.6-2.2c-0.6,0-1.1,0.2-1.5,0.7c-0.4,0.4-0.6,1-0.6,1.6v3.6H512v-6.2h0.6
			v1.1h0c0.5-0.9,1.2-1.3,2.1-1.3c0.7,0,1.2,0.2,1.5,0.7c0.4,0.4,0.5,1.1,0.5,1.9v3.8H516.2z"/>
		<path class="st3" d="M521.1,420.3c-0.3,0.1-0.6,0.2-0.8,0.2c-0.9,0-1.4-0.6-1.4-1.7v-4.2h-1.1v-0.5h1.1v-1.6
			c0.1,0,0.2-0.1,0.3-0.1c0.1,0,0.2-0.1,0.3-0.1v1.8h1.6v0.5h-1.6v4.1c0,0.4,0.1,0.7,0.2,0.9c0.1,0.2,0.4,0.3,0.7,0.3
			c0.2,0,0.5-0.1,0.7-0.2V420.3z"/>
		<path class="st3" d="M529.5,420.4v-1.2h0c-0.2,0.4-0.5,0.8-0.9,1c-0.4,0.3-0.8,0.4-1.3,0.4c-0.6,0-1.1-0.2-1.4-0.5
			c-0.3-0.3-0.5-0.8-0.5-1.3c0-1.1,0.7-1.7,2.2-2l1.9-0.3c0-1.3-0.5-2-1.5-2c-0.7,0-1.3,0.3-2,0.8v-0.7c0.2-0.2,0.5-0.3,0.9-0.5
			s0.8-0.2,1.1-0.2c0.6,0,1.1,0.2,1.5,0.6c0.3,0.4,0.5,1,0.5,1.7v4H529.5z M527.7,417.3c-0.7,0.1-1.1,0.2-1.4,0.5s-0.4,0.5-0.4,1
			c0,0.4,0.1,0.7,0.4,0.9s0.6,0.4,1,0.4c0.6,0,1.1-0.2,1.5-0.7s0.6-1,0.6-1.7v-0.6L527.7,417.3z"/>
		<path class="st3" d="M536.3,420.4v-1.1h0c-0.2,0.4-0.5,0.7-0.9,0.9c-0.4,0.2-0.8,0.3-1.3,0.3c-0.8,0-1.4-0.3-1.9-0.8
			c-0.5-0.6-0.7-1.3-0.7-2.3c0-1,0.3-1.8,0.8-2.4c0.5-0.6,1.2-0.9,2.1-0.9c0.9,0,1.6,0.4,2,1.1h0v-4h0.6v9.2H536.3z M536.3,416.6
			c0-0.6-0.2-1.1-0.5-1.5c-0.4-0.4-0.9-0.6-1.5-0.6c-0.7,0-1.2,0.3-1.6,0.8c-0.4,0.5-0.6,1.2-0.6,2.1c0,0.9,0.2,1.5,0.6,2
			c0.4,0.5,0.9,0.7,1.5,0.7c0.7,0,1.3-0.2,1.6-0.7c0.4-0.4,0.6-1,0.6-1.6V416.6z"/>
		<path class="st3" d="M540.9,420.4h-0.5l-2.4-6.2h0.6l1.9,5c0.1,0.2,0.2,0.5,0.2,0.7h0c0.1-0.3,0.1-0.5,0.2-0.6l1.9-5h0.6
			L540.9,420.4z"/>
		<path class="st3" d="M544.8,412.6c-0.1,0-0.2,0-0.3-0.1c-0.1-0.1-0.1-0.2-0.1-0.3c0-0.1,0-0.2,0.1-0.3c0.1-0.1,0.2-0.1,0.3-0.1
			c0.1,0,0.2,0,0.3,0.1s0.1,0.2,0.1,0.3c0,0.1,0,0.2-0.1,0.3C545,412.6,544.9,412.6,544.8,412.6z M544.5,420.4v-6.2h0.6v6.2H544.5z"
			/>
		<path class="st3" d="M546.7,420.2v-0.7c0.2,0.2,0.5,0.3,0.8,0.4s0.6,0.2,0.8,0.2c1,0,1.5-0.4,1.5-1.2c0-0.3-0.1-0.5-0.3-0.7
			c-0.2-0.2-0.6-0.4-1-0.6c-0.6-0.3-1-0.5-1.3-0.8c-0.2-0.3-0.4-0.6-0.4-1c0-0.5,0.2-0.9,0.6-1.2c0.4-0.3,0.9-0.5,1.4-0.5
			c0.5,0,1,0.1,1.4,0.3v0.6c-0.5-0.3-0.9-0.5-1.4-0.5c-0.4,0-0.7,0.1-1,0.3c-0.3,0.2-0.4,0.5-0.4,0.8c0,0.3,0.1,0.5,0.2,0.7
			c0.2,0.2,0.5,0.4,1,0.6c0.6,0.3,1.1,0.6,1.3,0.8c0.2,0.2,0.4,0.6,0.4,1c0,0.5-0.2,0.9-0.6,1.2c-0.4,0.3-0.9,0.5-1.5,0.5
			C547.6,420.6,547.1,420.4,546.7,420.2z"/>
		<path class="st3" d="M554.4,420.6c-0.9,0-1.6-0.3-2.2-0.9c-0.5-0.6-0.8-1.4-0.8-2.3c0-1,0.3-1.8,0.8-2.4c0.6-0.6,1.3-0.9,2.2-0.9
			c0.9,0,1.6,0.3,2.1,0.9c0.5,0.6,0.8,1.4,0.8,2.4c0,1-0.3,1.8-0.8,2.4S555.3,420.6,554.4,420.6z M554.4,414.6
			c-0.7,0-1.3,0.2-1.8,0.7c-0.4,0.5-0.7,1.2-0.7,2.1c0,0.8,0.2,1.5,0.6,2c0.4,0.5,1,0.7,1.7,0.7c0.8,0,1.3-0.2,1.7-0.7
			c0.4-0.5,0.6-1.2,0.6-2c0-0.9-0.2-1.6-0.6-2C555.7,414.8,555.2,414.6,554.4,414.6z"/>
		<path class="st3" d="M561.8,414.8c-0.2-0.1-0.4-0.2-0.7-0.2c-0.5,0-0.9,0.3-1.2,0.8s-0.5,1.2-0.5,2.2v2.9h-0.5v-6.2h0.5v1.4h0
			c0.1-0.5,0.4-0.8,0.7-1.1c0.3-0.3,0.7-0.4,1.1-0.4c0.2,0,0.4,0,0.6,0.1V414.8z"/>
	</g>
</g>
<g>
	<g>
		<g>
			<path class="st0" d="M523.5,589.8c-2.3,0-5-0.8-7.8-3.1c-0.9-0.7-1.5-1.4-2.1-2.4c-4.5-7.2-6-14.6-4.2-21.9
				c3.5-15,18.7-24.6,19.4-25.1l0.4-0.3l0.7,0.7l-0.3,0.4c-2.6,4.5-2.7,10.2-2.1,14.6c0.8-1.3,1.9-3.4,3.3-5.1l0.3-0.4l0.5,0.2
				c0.3,0.1,0.4,0.4,0.4,0.7c-0.5,6.3,4,10.6,7,13.3l0.4,0.4c0.5,0.4,0.9,0.9,1.2,1.3c1.8,2.5,2.5,4.8,2.1,6.9
				c-0.6,2.9-3.2,4.6-4.7,5.6c-0.1,0.1-0.2,0.1-0.3,0.2c0.5,2.3-2,7.5-6.1,10.8C529.7,588.2,527,589.8,523.5,589.8z M527.6,539.8
				c-4.2,3.1-14.3,11.4-17,23c-1.6,7-0.2,14,4.1,20.9c0.5,0.8,1.2,1.5,1.8,2.1c5.9,4.7,10.9,2.6,14.1,0c4.1-3.4,6.3-8.5,5.7-9.8
				c-0.2-0.3-0.1-0.7,0.2-0.9c0.2-0.1,0.4-0.3,0.7-0.5c1.4-1,3.7-2.4,4.1-4.8c0.3-1.7-0.3-3.7-1.9-6c-0.3-0.4-0.7-0.8-1.1-1.2
				l-0.4-0.4c-2.7-2.5-7-6.6-7.4-12.5c-1.3,2-2.4,4-2.8,4.7c-0.1,0.3-0.5,0.4-0.8,0.4c-0.3-0.1-0.6-0.3-0.6-0.6
				C525.8,550.4,525.6,544.7,527.6,539.8z"/>
		</g>
	</g>
	<g>
		<g>
			<path class="st0" d="M524.5,586.4c-2,0-4-0.8-6-2.2l0,0c-6.5-6.9-8-15.1-4.3-23.8c2.9-6.7,7.9-11.6,8.4-12.1l0.2-0.2l0.6,0.3
				l-0.1,0.3c-2.4,6.7,1.7,13.3,3.7,15.8c-0.2-3.3,0.7-5.2,1.6-7.3c0.1-0.3,0.3-0.6,0.4-0.8l0.1-0.3h0.3c0.2,0,0.3,0.2,0.4,0.4
				c0.7,5.2,4.4,6.7,6.6,7.7c1.2,0.5,2,1.3,2.4,2.5c0.7,1.9,0.6,3.6-0.4,4.8c-1.2,1.4-3.2,2-4.3,2.1c1.2,3.3-0.6,7.9-4,10.7
				C528.3,585.6,526.4,586.4,524.5,586.4z M519.1,583.5c4.9,3.8,9,1.3,10.6,0.1c3.4-2.7,5-7.3,3.6-10.3l-0.1-0.2l0.1-0.2
				c0.1-0.1,0.2-0.2,0.4-0.2c1,0.1,3.2-0.4,4.2-1.8c0.8-1.1,0.9-2.4,0.3-4c-0.3-0.9-1.1-1.6-1.9-2c-2.1-0.9-5.8-2.4-6.9-7.1
				c-1.1,2.3-1.8,4.1-1.3,7.9v0.3l-0.3,0.2c-0.2,0.1-0.4,0-0.5-0.1c-1.2-1.4-6.9-8.4-5.1-16.1c-1.7,1.8-5.1,5.8-7.2,10.8
				C511.3,569.1,512.8,576.8,519.1,583.5z"/>
		</g>
	</g>
</g>
<g class="st2">
	<path class="st3" d="M497,567v-10.2h2.7c0.8,0,1.4,0.2,1.9,0.6s0.7,1,0.7,1.7c0,0.6-0.2,1.1-0.5,1.5c-0.3,0.4-0.8,0.7-1.3,0.9v0
		c0.7,0.1,1.3,0.3,1.7,0.8s0.6,1,0.6,1.7c0,0.9-0.3,1.6-0.8,2.1s-1.3,0.8-2.2,0.8H497z M497.7,557.5v3.9h1.4c0.7,0,1.3-0.2,1.8-0.6
		c0.4-0.4,0.7-0.9,0.7-1.5c0-1.2-0.7-1.8-2.2-1.8H497.7z M497.7,562.1v4.3h1.9c0.8,0,1.4-0.2,1.8-0.6c0.4-0.4,0.6-0.9,0.6-1.6
		c0-1.4-1-2.1-2.9-2.1H497.7z"/>
	<path class="st3" d="M509.5,567v-1.3h0c-0.5,1-1.3,1.5-2.3,1.5c-1.7,0-2.6-1.1-2.6-3.2v-4.2h0.7v4c0,1,0.2,1.7,0.5,2.1
		c0.3,0.4,0.8,0.7,1.5,0.7c0.7,0,1.2-0.2,1.6-0.7s0.6-1.2,0.6-2v-4.1h0.7v7.3H509.5z"/>
	<path class="st3" d="M514.3,568.5c-0.3,0.7-0.6,1.1-0.9,1.5c-0.3,0.3-0.7,0.5-1.2,0.5c-0.2,0-0.4,0-0.6-0.1v-0.6
		c0.2,0.1,0.4,0.1,0.6,0.1c0.6,0,1-0.4,1.4-1.2l0.7-1.6l-2.8-7.2h0.7l2.2,5.9c0,0.1,0.1,0.2,0.1,0.3c0,0.1,0,0.2,0.1,0.2h0l0.2-0.5
		l2.3-6h0.7L514.3,568.5z"/>
	<path class="st3" d="M519,563.1v-0.6h3.9v0.6H519z"/>
	<path class="st3" d="M525.6,565.7L525.6,565.7l0,1.3h-0.6v-10.7h0.6v5h0c0.3-0.5,0.6-0.9,1.1-1.2c0.5-0.3,1-0.4,1.6-0.4
		c0.9,0,1.6,0.3,2.2,1s0.8,1.5,0.8,2.6c0,1.2-0.3,2.2-0.9,2.9c-0.6,0.7-1.4,1.1-2.3,1.1C526.9,567.2,526.1,566.7,525.6,565.7z
		 M525.5,563v0.9c0,0.7,0.2,1.4,0.7,1.9c0.5,0.5,1.1,0.8,1.8,0.8c0.7,0,1.3-0.3,1.8-1c0.5-0.6,0.7-1.5,0.7-2.5
		c0-0.9-0.2-1.6-0.6-2.2c-0.4-0.5-1-0.8-1.7-0.8c-0.8,0-1.5,0.3-2,0.9C525.8,561.6,525.5,562.3,525.5,563z"/>
	<path class="st3" d="M537.4,567v-1.5h0c-0.2,0.5-0.6,0.9-1,1.2c-0.4,0.3-0.9,0.4-1.5,0.4c-0.7,0-1.2-0.2-1.6-0.6
		c-0.4-0.4-0.6-0.9-0.6-1.5c0-1.3,0.8-2,2.5-2.3l2.2-0.3c0-1.6-0.6-2.3-1.8-2.3c-0.8,0-1.6,0.3-2.3,1v-0.8c0.3-0.2,0.6-0.4,1.1-0.5
		c0.5-0.2,0.9-0.2,1.3-0.2c0.7,0,1.3,0.2,1.7,0.7c0.4,0.5,0.6,1.1,0.6,2v4.7H537.4z M535.4,563.4c-0.8,0.1-1.3,0.3-1.6,0.5
		c-0.3,0.2-0.5,0.6-0.5,1.2c0,0.4,0.1,0.8,0.4,1.1c0.3,0.3,0.7,0.4,1.2,0.4c0.7,0,1.3-0.3,1.7-0.8s0.7-1.2,0.7-2v-0.7L535.4,563.4z"
		/>
	<path class="st3" d="M544.9,566.7c-0.5,0.3-1.2,0.5-1.9,0.5c-1,0-1.8-0.3-2.4-1c-0.6-0.7-0.9-1.6-0.9-2.7c0-1.2,0.3-2.1,1-2.8
		s1.6-1.1,2.6-1.1c0.6,0,1.1,0.1,1.6,0.3v0.7c-0.5-0.3-1.1-0.5-1.7-0.5c-0.8,0-1.5,0.3-2.1,0.9c-0.5,0.6-0.8,1.4-0.8,2.4
		c0,0.9,0.2,1.7,0.7,2.3c0.5,0.6,1.1,0.9,1.9,0.9c0.7,0,1.4-0.2,1.9-0.6V566.7z"/>
	<path class="st3" d="M550.8,567l-3.5-3.6h0v3.6h-0.6v-10.7h0.6v6.9h0l3.3-3.4h0.8l-3.4,3.5l3.7,3.7H550.8z"/>
</g>
<g>
	<g class="st2">
		<path class="st3" d="M129,282.1h-1.5l-1-2.8h-4.2l-1,2.8h-1.5l3.9-10.2h1.4L129,282.1z M126.1,278.1l-1.5-4.2
			c0-0.1-0.1-0.4-0.2-0.7h0c0,0.3-0.1,0.5-0.2,0.7l-1.5,4.2H126.1z"/>
		<path class="st3" d="M129.9,280.5c0.6,0.5,1.3,0.7,2.1,0.7c1,0,1.5-0.3,1.5-1c0-0.3-0.1-0.5-0.3-0.7s-0.7-0.4-1.3-0.6
			c-0.8-0.3-1.3-0.6-1.6-1s-0.4-0.7-0.4-1.2c0-0.6,0.3-1.2,0.8-1.5s1.2-0.6,2-0.6c0.6,0,1.2,0.1,1.7,0.3v1.2
			c-0.5-0.3-1.2-0.5-1.8-0.5c-0.4,0-0.7,0.1-1,0.3c-0.3,0.2-0.4,0.4-0.4,0.7c0,0.3,0.1,0.5,0.3,0.7c0.2,0.2,0.6,0.4,1.2,0.6
			c0.8,0.3,1.4,0.6,1.6,0.9c0.3,0.3,0.4,0.7,0.4,1.2c0,0.7-0.3,1.2-0.8,1.6c-0.5,0.4-1.3,0.6-2.1,0.6c-0.8,0-1.4-0.1-2-0.4V280.5z"
			/>
		<path class="st3" d="M136.1,280.5c0.6,0.5,1.3,0.7,2.1,0.7c1,0,1.5-0.3,1.5-1c0-0.3-0.1-0.5-0.3-0.7s-0.7-0.4-1.3-0.6
			c-0.8-0.3-1.3-0.6-1.6-1s-0.4-0.7-0.4-1.2c0-0.6,0.3-1.2,0.8-1.5s1.2-0.6,2-0.6c0.6,0,1.2,0.1,1.7,0.3v1.2
			c-0.5-0.3-1.2-0.5-1.8-0.5c-0.4,0-0.7,0.1-1,0.3c-0.3,0.2-0.4,0.4-0.4,0.7c0,0.3,0.1,0.5,0.3,0.7c0.2,0.2,0.6,0.4,1.2,0.6
			c0.8,0.3,1.4,0.6,1.6,0.9c0.3,0.3,0.4,0.7,0.4,1.2c0,0.7-0.3,1.2-0.8,1.6c-0.5,0.4-1.3,0.6-2.1,0.6c-0.8,0-1.4-0.1-2-0.4V280.5z"
			/>
		<path class="st3" d="M148.6,278.8h-5.1c0,0.8,0.2,1.4,0.6,1.8c0.4,0.4,1,0.6,1.7,0.6c0.8,0,1.6-0.3,2.2-0.8v1.1
			c-0.6,0.5-1.5,0.7-2.5,0.7c-1.1,0-1.9-0.3-2.5-1c-0.6-0.7-0.9-1.6-0.9-2.8c0-1.1,0.3-2,1-2.8s1.4-1.1,2.4-1.1
			c0.9,0,1.7,0.3,2.2,0.9c0.5,0.6,0.8,1.5,0.8,2.6V278.8z M147.4,277.7c0-0.7-0.2-1.2-0.5-1.5c-0.3-0.4-0.7-0.5-1.3-0.5
			c-0.5,0-1,0.2-1.3,0.6c-0.4,0.4-0.6,0.9-0.7,1.5H147.4z"/>
		<path class="st3" d="M153.8,282c-0.3,0.2-0.7,0.2-1.1,0.2c-1.3,0-1.9-0.7-1.9-2.2v-4.2h-1.2v-1.1h1.2v-1.7l1.3-0.4v2.2h1.8v1.1
			H152v4c0,0.5,0.1,0.8,0.2,1c0.2,0.2,0.4,0.3,0.8,0.3c0.3,0,0.5-0.1,0.8-0.2V282z"/>
		<path class="st3" d="M155,280.5c0.6,0.5,1.3,0.7,2.1,0.7c1,0,1.5-0.3,1.5-1c0-0.3-0.1-0.5-0.3-0.7s-0.7-0.4-1.3-0.6
			c-0.8-0.3-1.3-0.6-1.6-1s-0.4-0.7-0.4-1.2c0-0.6,0.3-1.2,0.8-1.5s1.2-0.6,2-0.6c0.6,0,1.2,0.1,1.7,0.3v1.2
			c-0.5-0.3-1.2-0.5-1.8-0.5c-0.4,0-0.7,0.1-1,0.3c-0.3,0.2-0.4,0.4-0.4,0.7c0,0.3,0.1,0.5,0.3,0.7c0.2,0.2,0.6,0.4,1.2,0.6
			c0.8,0.3,1.4,0.6,1.6,0.9c0.3,0.3,0.4,0.7,0.4,1.2c0,0.7-0.3,1.2-0.8,1.6c-0.5,0.4-1.3,0.6-2.1,0.6c-0.8,0-1.4-0.1-2-0.4V280.5z"
			/>
	</g>
</g>
</svg>
