<?xml version="1.0" encoding="utf-8"?>
<!-- Generator: Adobe Illustrator 19.0.0, SVG Export Plug-In . SVG Version: 6.00 Build 0)  -->
<svg version="1.1" id="图层_1" xmlns="http://www.w3.org/2000/svg" xmlns:xlink="http://www.w3.org/1999/xlink" x="0px" y="0px"
	 viewBox="0 0 702 696" style="enable-background:new 0 0 702 696;" xml:space="preserve">
<style type="text/css">
	.st0{fill:none;stroke:#CA9920;stroke-width:1.5;stroke-miterlimit:10;}
	.st1{fill:none;stroke:#CA9920;stroke-miterlimit:10;}
	.st2{fill:none;stroke:#040000;stroke-width:2;stroke-miterlimit:10;}
	.st3{fill:none;stroke:#040000;stroke-miterlimit:10;}
	.st4{fill:#CA9920;}
	.st5{fill:none;stroke:#000000;stroke-width:2;stroke-miterlimit:10;}
	.st6{fill:#C59D32;}
</style>
<g id="XMLID_124_">
	<path id="XMLID_2_" class="st0" d="M334.9,339.6c-1.3-20.1-18.6-35.4-38.6-34.1c-20,1.3-35.2,18.6-34,38.7
		c1.3,20.1,18.6,35.4,38.6,34.1C320.9,377,336.2,359.7,334.9,339.6z"/>
	<path id="XMLID_3_" class="st0" d="M347,338.8c-1.7-26.8-24.8-47.2-51.5-45.4c-26.7,1.7-47,24.8-45.3,51.7
		c1.7,26.8,24.8,47.2,51.5,45.4S348.7,365.6,347,338.8z"/>
	<path id="XMLID_13_" class="st1" d="M327.3,444.8c-1-15.2-14-26.7-29.1-25.7c-15.1,1-26.6,14.1-25.6,29.2s14,26.7,29.1,25.7
		C316.8,473,328.3,459.9,327.3,444.8z"/>
	<path id="XMLID_8_" class="st1" d="M336.4,444.2c-1.3-20.2-18.7-35.6-38.8-34.3c-20.1,1.3-35.4,18.7-34.1,39s18.7,35.6,38.8,34.3
		C322.4,481.8,337.7,464.4,336.4,444.2z"/>
	<path id="XMLID_65_" class="st1" d="M596.2,390.6c-1-16.4-15.1-28.8-31.4-27.7s-28.7,15.2-27.6,31.5s15.1,28.8,31.4,27.7
		S597.3,407,596.2,390.6z"/>
	<path id="XMLID_62_" class="st1" d="M606.1,390c-1.4-21.8-20.1-38.4-41.9-37s-38.2,20.2-36.8,42s20.1,38.4,41.9,37
		S607.5,411.8,606.1,390z"/>
	<path id="XMLID_33_" class="st1" d="M526.2,487.3c-1-15.2-14-26.7-29.1-25.7c-15.1,1-26.6,14.1-25.6,29.2s14,26.7,29.1,25.7
		C515.7,515.6,527.2,502.5,526.2,487.3z"/>
	<path id="XMLID_9_" class="st1" d="M535.3,486.8c-1.3-20.2-18.7-35.6-38.8-34.3s-35.4,18.7-34.1,39s18.7,35.6,38.8,34.3
		C521.3,524.4,536.6,507,535.3,486.8z"/>
	<path id="XMLID_49_" class="st1" d="M548,289.3c-1-15.2-14-26.7-29.1-25.7c-15.1,1-26.6,14.1-25.6,29.2s14,26.7,29.1,25.7
		C537.5,317.5,549,304.5,548,289.3z"/>
	<path id="XMLID_45_" class="st1" d="M557.2,288.7c-1.3-20.2-18.7-35.6-38.8-34.3c-20.1,1.3-35.4,18.7-34.1,39s18.7,35.6,38.8,34.3
		C543.2,326.4,558.5,308.9,557.2,288.7z"/>
	<path id="XMLID_67_" class="st1" d="M456,191.7c-1-15.2-14-26.7-29.1-25.7s-26.6,14.1-25.6,29.2s14,26.7,29.1,25.7
		C445.5,219.9,457,206.9,456,191.7z"/>
	<path id="XMLID_63_" class="st1" d="M465.1,191.1c-1.3-20.2-18.7-35.6-38.8-34.3s-35.4,18.7-34.1,39c1.3,20.2,18.7,35.6,38.8,34.3
		S466.4,211.3,465.1,191.1z"/>
	<path id="XMLID_87_" class="st1" d="M219.9,254.2c-1-15.2-14-26.7-29.1-25.7s-26.6,14.1-25.6,29.2c1,15.2,14,26.7,29.1,25.7
		C209.4,282.5,220.8,269.4,219.9,254.2z"/>
	<path id="XMLID_82_" class="st1" d="M229,253.7c-1.3-20.2-18.7-35.6-38.8-34.3c-20.1,1.3-35.4,18.7-34.1,39s18.7,35.6,38.8,34.3
		C215,291.3,230.3,273.9,229,253.7z"/>
	<path id="XMLID_77_" class="st1" d="M318.3,220.3c-1-15.2-14-26.7-29.1-25.7c-15.1,1-26.6,14.1-25.6,29.2c1,15.2,14,26.7,29.1,25.7
		S319.3,235.5,318.3,220.3z"/>
	<path id="XMLID_70_" class="st1" d="M327.4,219.8c-1.3-20.2-18.7-35.6-38.8-34.3s-35.4,18.7-34.1,39c1.3,20.2,18.7,35.6,38.8,34.3
		C313.4,257.4,328.7,240,327.4,219.8z"/>
	<path id="XMLID_83_" class="st1" d="M428.2,296.7c-1-15.2-14-26.7-29.1-25.7c-15.1,1-26.6,14.1-25.6,29.2c1,15.2,14,26.7,29.1,25.7
		C417.7,325,429.1,311.9,428.2,296.7z"/>
	<path id="XMLID_80_" class="st1" d="M437.3,296.1c-1.3-20.2-18.7-35.6-38.8-34.3c-20.1,1.3-35.4,18.7-34.1,39
		c1.3,20.2,18.7,35.6,38.8,34.3C423.3,333.8,438.6,316.4,437.3,296.1z"/>
	<path id="XMLID_85_" class="st1" d="M201.1,391.4c-1-15.3-14.1-26.9-29.4-25.9S145,379.7,146,395c1,15.3,14.1,26.9,29.4,25.9
		S202.1,406.7,201.1,391.4z"/>
	<path id="XMLID_81_" class="st1" d="M210.3,390.9c-1.3-20.4-18.8-35.9-39.1-34.6s-35.7,18.9-34.4,39.3s18.8,35.9,39.1,34.6
		S211.6,411.2,210.3,390.9z"/>
	<path id="XMLID_59_" class="st1" d="M229.4,502.3c-1-15.2-14-26.7-29.1-25.7c-15.1,1-26.6,14.1-25.6,29.2c1,15.2,14,26.7,29.1,25.7
		S230.4,517.5,229.4,502.3z"/>
	<path id="XMLID_52_" class="st1" d="M238.6,501.7c-1.3-20.2-18.7-35.6-38.8-34.3c-20.1,1.3-35.4,18.7-34.1,39
		c1.3,20.2,18.7,35.6,38.8,34.3S239.8,521.9,238.6,501.7z"/>
	<path id="XMLID_47_" class="st1" d="M425.1,498c-1.1-16.9-15.3-29.7-31.9-28.6c-16.5,1.1-29,15.6-28,32.5
		c1.1,16.9,15.3,29.7,31.9,28.6C413.6,529.4,426.1,514.8,425.1,498z"/>
	<path id="XMLID_40_" class="st1" d="M435,497.3c-1.4-22.5-20.5-39.6-42.5-38.2c-22,1.4-38.7,20.8-37.3,43.3s20.5,39.6,42.5,38.2
		C419.8,539.2,436.5,519.8,435,497.3z"/>
	<path id="XMLID_10_" class="st0" d="M469.3,398c-1.2-18.4-17-32.3-35.3-31.1c-18.3,1.2-32.2,17-31,35.4c1.2,18.4,17,32.3,35.3,31.1
		C456.6,432.2,470.5,416.4,469.3,398z"/>
	<path id="XMLID_6_" class="st0" d="M480.4,397.3c-1.6-24.5-22.6-43.1-47-41.5S390.4,378.5,392,403c1.6,24.5,22.6,43.1,47,41.5
		C463.4,442.9,481.9,421.8,480.4,397.3z"/>
</g>
<ellipse id="XMLID_4_" class="st2" cx="64.7" cy="249.7" rx="64.6" ry="64.9"/>
<ellipse id="XMLID_5_" class="st2" cx="301.8" cy="66" rx="64.6" ry="64.9"/>
<ellipse id="XMLID_7_" class="st2" cx="633.7" cy="512.2" rx="64.6" ry="64.9"/>
<ellipse id="XMLID_17_" class="st2" cx="633.7" cy="225.2" rx="64.6" ry="64.9"/>
<path id="XMLID_12_" class="st2" d="M166.6,586.6c7.8-35-14.2-69.6-49.1-77.4s-69.4,14.3-77.2,49.2c-7.8,35,14.2,69.6,49.1,77.4
	C124.3,643.6,158.9,621.5,166.6,586.6z"/>
<path id="XMLID_15_" class="st2" d="M457.6,644c7.8-35-14.2-69.6-49.1-77.4c-34.9-7.8-69.4,14.3-77.2,49.2
	c-7.8,35,14.2,69.6,49.1,77.4C415.3,701,449.9,679,457.6,644z"/>
<g id="XMLID_16_">
	<line id="XMLID_11_" class="st3" x1="322" y1="241.5" x2="370.6" y2="277.8"/>
	<line id="XMLID_94_" class="st3" x1="409.7" y1="262.9" x2="418.9" y2="228.8"/>
	<line id="XMLID_99_" class="st3" x1="454.2" y1="219.7" x2="494.8" y2="265.1"/>
	<line id="XMLID_100_" class="st3" x1="392.3" y1="197.9" x2="327" y2="216"/>
	<line id="XMLID_101_" class="st3" x1="255.1" y1="234.5" x2="228.3" y2="243.1"/>
	<line id="XMLID_102_" class="st3" x1="188.6" y1="292.5" x2="179.1" y2="355.8"/>
	<line id="XMLID_103_" class="st3" x1="181.1" y1="429.8" x2="193" y2="468.5"/>
	<line id="XMLID_104_" class="st3" x1="221.4" y1="278.5" x2="260.2" y2="312.1"/>
	<line id="XMLID_105_" class="st3" x1="295.5" y1="293.3" x2="293.3" y2="258.7"/>
	<line id="XMLID_106_" class="st3" x1="366.6" y1="311.5" x2="343.7" y2="321.7"/>
	<line id="XMLID_107_" class="st3" x1="253.7" y1="360.3" x2="208.5" y2="381.3"/>
	<line id="XMLID_108_" class="st3" x1="208.5" y1="408" x2="265.7" y2="433.6"/>
	<line id="XMLID_109_" class="st3" x1="300.3" y1="409.6" x2="299" y2="390.6"/>
	<line id="XMLID_110_" class="st3" x1="344.3" y1="359.7" x2="395.2" y2="383.3"/>
	<line id="XMLID_111_" class="st3" x1="413.3" y1="333" x2="421.1" y2="356.6"/>
	<line id="XMLID_112_" class="st3" x1="498" y1="319.8" x2="463.3" y2="362.6"/>
	<line id="XMLID_113_" class="st3" x1="537" y1="325" x2="550.6" y2="357"/>
	<line id="XMLID_114_" class="st3" x1="484.2" y1="293.4" x2="437.3" y2="296.1"/>
	<line id="XMLID_115_" class="st3" x1="392.6" y1="413" x2="334.2" y2="433.8"/>
	<line id="XMLID_116_" class="st3" x1="360.6" y1="479.4" x2="331.9" y2="464.3"/>
	<line id="XMLID_117_" class="st3" x1="267.6" y1="463.7" x2="233.9" y2="486"/>
	<line id="XMLID_118_" class="st3" x1="238.7" y1="503.3" x2="356.3" y2="501.6"/>
	<line id="XMLID_119_" class="st3" x1="435" y1="497.3" x2="462.6" y2="493.9"/>
	<line id="XMLID_120_" class="st3" x1="462.2" y1="436.1" x2="478.3" y2="458.7"/>
	<line id="XMLID_121_" class="st3" x1="418.8" y1="441.7" x2="409.4" y2="461.8"/>
	<line id="XMLID_122_" class="st3" x1="521.2" y1="460.1" x2="544.2" y2="425"/>
	<line id="XMLID_123_" class="st3" x1="527.4" y1="395" x2="480.4" y2="397.3"/>
</g>
<path id="XMLID_141_" class="st4" d="M636.8,261.2c0,0,0,1.9-2.4,1.9c-2.4,0-2.9-1.9-2.9-1.9v-8.4c-9.6-1-15.8-5.6-18.5-13.6
	c0,0-1.2-2.8,1.6-3.8c2.8-1,4.3,1.5,4.3,1.5c2.2,6.1,6.5,9.4,12.7,9.9v-20.1c-6.7-1.6-11.1-3.7-13.1-6.3c-2-2.6-3-5.5-3-8.7
	c0-8.4,5.4-13.5,16.1-15.3v-7.2c0,0,0.6-1.9,2.5-1.9c2,0,2.8,1.9,2.8,1.9v7.2c8.5,0.8,14.1,4.6,16.7,11.5c0,0,0,2.2-2.1,2.8
	c-2.1,0.6-3.8-0.9-3.8-0.9c-1.6-4.7-5.2-7.3-10.9-7.6v18.6c11.9,2.1,17.9,7.5,17.9,16.1c0,3.7-1.4,7.1-4.1,10.3
	c-2.7,3.2-7.3,5-13.8,5.6V261.2z M631.5,202.2c-3,0.2-5.3,1.1-7.1,2.7c-1.8,1.6-2.7,3.6-2.7,6c0,4.8,3.3,7.8,9.8,9V202.2z
	 M636.8,246.9c3.5-0.1,6.3-1.1,8.2-2.9c2-1.8,3-4,3-6.5c0-5.4-3.7-8.6-11.2-9.6V246.9z M636.8,246.9"/>
<g id="XMLID_1_">
	<g id="XMLID_399_">
		<path id="XMLID_407_" class="st4" d="M393.9,666.4l-0.2,0.2c-7.1-7.5-12-15.2-14.6-23.2h10.6c0.3-1.2,0.7-2.3,1.2-3.3h-12.8
			c-0.8-3.7-1.3-7.5-1.3-11.3c0.2-3.8,0.7-7.3,1.5-10.8h30.6c0.5,2.2,1,4.3,1.2,6.5c1-0.2,2.2-0.3,3.3-0.3c-0.2-2.2-0.7-4.2-1.2-6.2
			h17.8c1,3.5,1.7,7.2,1.7,11v0.8c1.2,0.8,2.2,2,3.2,3c0.2-1.3,0.2-2.5,0.2-3.8c0-4.7-0.8-9.2-2.2-13.3v-0.2
			c-5.3-16.2-20.8-28-39-28c-18.3,0-33.7,11.8-39.4,28.2v0.2c-1.3,4.2-2.2,8.7-2.2,13.3c0,4.7,0.8,9.2,2.2,13.3v0.2
			c5.6,16.3,21.1,28.2,39.4,28.2c1.3,0,2.7,0,3.8-0.2C396.2,669.3,395,667.9,393.9,666.4L393.9,666.4z M429.1,614.7h-17.6
			c-3.5-11-10-19.5-13.6-23.7C412,592.6,423.9,601.9,429.1,614.7L429.1,614.7z M408,614.7h-28.6c4-11.8,11.5-20.3,14.3-23.2
			C396.5,594.4,404,602.9,408,614.7L408,614.7z M389.6,590.9c-3.8,4.3-10.3,12.7-13.6,23.7h-17.6
			C363.5,601.9,375.4,592.6,389.6,590.9L389.6,590.9z M355.5,629.1c0-3.8,0.5-7.5,1.7-11h17.8c-0.8,3.3-1.3,7-1.5,10.7
			c-0.2,3.8,0.3,7.7,1.2,11.5h-17.4C356,636.6,355.5,632.9,355.5,629.1L355.5,629.1z M358.3,643.4h17.3c2.5,8.2,7.1,16.2,14.1,23.7
			C375.4,665.8,363.5,656.3,358.3,643.4L358.3,643.4z M358.3,643.4"/>
		<path id="XMLID_403_" class="st4" d="M415.3,629.1c-12,0-21.6,9.7-21.6,21.7c0,12,9.6,21.7,21.6,21.7c12,0,21.6-9.7,21.6-21.7
			C436.9,638.8,427.3,629.1,415.3,629.1L415.3,629.1z M415.3,669.1c-4.9,0-9.5-1.9-12.9-5.4c-3.4-3.4-5.4-8.1-5.3-13
			c0-4.9,1.9-9.5,5.3-13c3.4-3.4,8.1-5.4,12.9-5.4c4.9,0,9.5,1.9,12.9,5.4c3.4,3.4,5.3,8.1,5.3,13c0,4.9-1.9,9.5-5.3,13
			C424.8,667.2,420.2,669.1,415.3,669.1L415.3,669.1z M415.3,669.1"/>
		<path id="XMLID_400_" class="st4" d="M428.8,650.4c0-0.3-0.1-0.6-0.3-0.8v-0.2l-9-8.7c-0.3-0.3-0.7-0.5-1.2-0.5s-0.9,0.2-1.2,0.5
			c-0.3,0.3-0.5,0.7-0.5,1.2c0,0.4,0.2,0.9,0.5,1.2l5.8,5.8h-20.8c-1,0-1.7,0.7-1.7,1.7c0,1,0.7,1.7,1.7,1.7h20.9l-6,6
			c-0.3,0.3-0.5,0.7-0.5,1.2c0,0.5,0.2,0.8,0.5,1.2c0.3,0.3,0.7,0.5,1.2,0.5c0.5,0,0.8-0.2,1.2-0.5l8.6-8.8c0.3-0.3,0.5-0.7,0.5-1
			C428.8,650.8,428.8,650.6,428.8,650.4L428.8,650.4z M428.8,650.4"/>
	</g>
</g>
<g id="XMLID_151_">
	<path id="XMLID_188_" class="st4" d="M105,251.7c-0.9-18.1-13.8-33.4-31.3-37.4c-1.2-0.3-2.4,0.5-2.7,1.7c-0.3,1.2,0.5,2.4,1.7,2.7
		c15.5,3.6,27,17.2,27.8,33.3c0.1,1.2,1.1,2.2,2.4,2.1C104.1,254,105.1,252.9,105,251.7L105,251.7z M53.3,214.8
		c-17.1,5-29.1,20.8-29.1,39c0,4,0.6,7.8,1.7,11.6c0.4,1.2,1.6,1.9,2.8,1.5c1.2-0.4,1.9-1.6,1.5-2.8c-1-3.3-1.5-6.8-1.5-10.3
		c0-16.1,10.7-30.2,25.9-34.6c1.2-0.3,1.9-1.6,1.5-2.8C55.7,215.1,54.5,214.5,53.3,214.8L53.3,214.8z M36.3,282.7
		c7.5,7.4,17.6,11.6,28.3,11.6c11.6,0,22.4-4.9,30-13.4c0.8-0.9,0.8-2.3-0.2-3.2c-0.9-0.8-2.3-0.8-3.2,0.2
		c-6.8,7.5-16.4,11.9-26.7,11.9c-9.6,0-18.5-3.8-25.2-10.3c-0.9-0.9-2.3-0.9-3.2,0C35.4,280.4,35.4,281.8,36.3,282.7L36.3,282.7z
		 M36.3,282.7"/>
	<path id="XMLID_184_" class="st4" d="M63.3,228.6c6.5,0,11.8-5.3,11.8-11.8c0-6.5-5.3-11.8-11.8-11.8c-6.5,0-11.8,5.3-11.8,11.8
		C51.5,223.3,56.8,228.6,63.3,228.6L63.3,228.6z M63.3,224.1c-4,0-7.3-3.3-7.3-7.3c0-4.1,3.3-7.3,7.3-7.3s7.3,3.3,7.3,7.3
		C70.6,220.9,67.3,224.1,63.3,224.1L63.3,224.1z M63.3,224.1"/>
	<path id="XMLID_173_" class="st4" d="M30.5,286.1c6.5,0,11.8-5.3,11.8-11.8c0-6.5-5.3-11.8-11.8-11.8c-6.5,0-11.8,5.3-11.8,11.8
		C18.7,280.8,24,286.1,30.5,286.1L30.5,286.1z M30.5,281.6c-4,0-7.3-3.3-7.3-7.3c0-4.1,3.3-7.3,7.3-7.3c4,0,7.3,3.3,7.3,7.3
		C37.8,278.4,34.6,281.6,30.5,281.6L30.5,281.6z M30.5,281.6"/>
	<path id="XMLID_164_" class="st4" d="M98.8,283.4c6.5,0,11.8-5.3,11.8-11.8s-5.3-11.8-11.8-11.8c-6.5,0-11.8,5.3-11.8,11.8
		S92.2,283.4,98.8,283.4L98.8,283.4z M98.8,278.9c-4,0-7.3-3.3-7.3-7.3c0-4.1,3.3-7.3,7.3-7.3c4,0,7.3,3.3,7.3,7.3
		C106.1,275.6,102.8,278.9,98.8,278.9L98.8,278.9z M98.8,278.9"/>
</g>
<g id="XMLID_168_">
	<g id="XMLID_346_">
		<path id="XMLID_352_" class="st4" d="M274.4,62.2v35.9c0,1,0.9,1.9,1.9,1.9h50.9c1.1,0,1.9-0.8,1.9-1.9V62.2c0-1-0.9-1.9-1.9-1.9
			h-50.9C275.3,60.4,274.4,61.2,274.4,62.2L274.4,62.2z M270.7,62.2c0-1.5,0.6-2.9,1.7-4c1.1-1.1,2.5-1.7,4-1.6h50.9
			c3.1,0,5.6,2.5,5.7,5.7v35.9c0,1.5-0.6,2.9-1.7,4c-1.1,1.1-2.5,1.7-4,1.6h-50.9c-3.1,0-5.6-2.5-5.7-5.7V62.2z M270.7,62.2"/>
		<path id="XMLID_347_" class="st4" d="M285.7,44.3c0-6.8,5.5-12.3,12.2-12.3h6.6c6.8,0,12.2,5.5,12.2,12.3v6.8c0,0,0.5,1.3,2,1.3
			c1.5,0,1.8-1.3,1.8-1.3v-6.8c0-8.9-7.2-16.1-16-16.1H298c-8.8,0-16,7.2-16,16.1v14.2l3.8-0.7V44.3z M285.7,44.3
			c0-6.8,5.5-12.3,12.2-12.3h6.6c6.8,0,12.2,5.5,12.2,12.3v6.8h3.8v-6.8c0-8.9-7.2-16.1-16-16.1H298c-8.8,0-16,7.2-16,16.1v14.2
			l3.8-0.7V44.3z M300.9,70.8v17.8c0,1,0.8,1.9,1.9,1.9c1,0,1.9-0.8,1.9-1.9V70.8c0-1-0.8-1.9-1.9-1.9
			C301.7,68.9,300.9,69.8,300.9,70.8L300.9,70.8z M300.9,70.8"/>
	</g>
</g>
<path id="XMLID_193_" class="st4" d="M138.9,562.1L124.3,542c-0.3-0.5-0.9-0.8-1.4-0.8h-39c0,0-1.1,0.2-1.7,1.2
	c-1.9,3.1-13.7,20.7-13.7,20.7l-0.8,1.2l0.9,1.1l31.7,37.1c0.3,0.3,0.5,0.5,0.8,0.6c0.5,0.3,2.3,0.8,3.4,0c0.3-0.2,0.5-0.5,0.8-0.6
	l29.8-30.7c0.8-0.6,0.8-1.9,0-2.5c-0.6-0.8-1.7-0.8-2.3,0l-25.8,26.7l11.2-30.9h18.3c0.2,0,1.4,0,1.7-0.3l0.2-0.2
	C139.4,564.3,139.5,563.2,138.9,562.1L138.9,562.1z M123.2,544.8l-7,16.5H91.1l-6.2-16.5H123.2z M82.4,548.4l5.3,13.1h-14
	L82.4,548.4z M72.9,564.9h15.7l10.1,30.4L72.9,564.9z M102.9,597.3l-10.7-32.4h22.4L102.9,597.3z M119.8,561.5l5.4-12.2l8.7,12.3
	h-14.1V561.5z M119.8,561.5"/>
<g id="XMLID_148_">
	<g id="XMLID_251_">
		<path id="XMLID_253_" class="st4" d="M670.2,543.9h-65v-65.2c0-1-0.8-1.7-1.7-1.7c-1,0-1.7,0.8-1.7,1.7v67c0,1,0.8,1.7,1.7,1.7
			h66.7c1,0,1.7-0.8,1.7-1.7C671.9,544.7,671.1,543.9,670.2,543.9"/>
		<path id="XMLID_252_" class="st4" d="M611.5,528.6c0.5,0,1-0.2,1.4-0.7l13.2-16.7l16.3,16.4c0.4,0.4,0.9,0.6,1.3,0.5
			c0.5,0,1-0.3,1.3-0.7l20.6-27.6c0.6-0.8,0.4-1.8-0.3-2.4c-0.8-0.6-1.8-0.4-2.4,0.3l-19.4,26l-16.3-16.3c-0.4-0.3-0.8-0.5-1.3-0.5
			c-0.5,0-1,0.3-1.3,0.6l-14.4,18.2c-0.6,0.7-0.5,1.8,0.3,2.4C610.7,528.5,611.1,528.6,611.5,528.6"/>
	</g>
</g>
<line id="XMLID_20_" class="st5" x1="366.4" y1="66" x2="583.1" y2="184.8"/>
<line id="XMLID_171_" class="st5" x1="637.8" y1="290.1" x2="637.8" y2="447.2"/>
<line id="XMLID_178_" class="st5" x1="583.1" y1="553.1" x2="459.2" y2="629.1"/>
<line id="XMLID_179_" class="st5" x1="328.4" y1="637.3" x2="163.2" y2="597.3"/>
<line id="XMLID_180_" class="st5" x1="85.8" y1="507.6" x2="64.7" y2="314.6"/>
<line id="XMLID_181_" class="st5" x1="110.5" y1="204" x2="243.2" y2="90.5"/>
<g id="XMLID_31_">
	<polygon id="XMLID_30_" class="st6" points="306.3,345.1 305.8,337.8 295.7,338.5 296.3,348.6 303.6,348.2 308.8,352.7 309.2,360 
		319.4,359.4 318.7,349.2 311.5,349.7 	"/>
	<path id="XMLID_29_" class="st6" d="M316.9,347.3c1-2.7,1.4-5.4,1.2-8.2c-0.6-9-7-16.5-15.7-18.5c-8.7-2-17.8,2-22.2,9.8
		c-4.4,7.8-3.2,17.7,3,24.1c6.2,6.5,16,8.1,23.9,4c-0.1-1.6-0.2-3.2-0.3-4.8c-1-0.9-2-1.8-3-2.7c-10.7,6-22.5-5.8-16.6-16.5
		c5.8-10.8,22.1-7.1,22.8,5.1c0.1,1.9-0.1,3.6-0.8,5.3c1,0.9,2,1.8,3,2.7C313.8,347.5,315.3,347.4,316.9,347.3z"/>
</g>
<g id="XMLID_34_">
	<polygon id="XMLID_36_" class="st6" points="444.6,404.8 444.1,397.6 434,398.2 434.7,408.4 441.9,407.9 447.1,412.5 447.6,419.8 
		457.7,419.1 457.1,409 449.8,409.4 	"/>
	<path id="XMLID_35_" class="st6" d="M455.3,407c1-2.7,1.4-5.4,1.2-8.2c-0.6-9-7-16.5-15.7-18.5c-8.7-2-17.8,2-22.2,9.8
		c-4.4,7.8-3.2,17.7,3,24.1c6.2,6.5,16,8.1,23.9,4c-0.1-1.6-0.2-3.2-0.3-4.8c-1-0.9-2-1.8-3-2.7c-10.7,6-22.5-5.8-16.6-16.5
		c5.8-10.8,22.1-7.1,22.8,5.1c0.1,1.9-0.1,3.6-0.8,5.3c1,0.9,2,1.8,3,2.7C452.1,407.2,453.7,407.1,455.3,407z"/>
</g>
<g id="XMLID_37_">
	<polygon id="XMLID_201_" class="st6" points="434.7,196.9 434.4,191.6 427.1,192.1 427.5,199.4 432.8,199.1 436.5,202.4 
		436.9,207.7 444.2,207.2 443.8,199.8 438.5,200.2 	"/>
	<path id="XMLID_200_" class="st6" d="M442.4,198.5c0.7-2,1-3.9,0.8-5.9c-0.4-6.5-5-12-11.4-13.4c-6.3-1.5-12.9,1.4-16,7.1
		c-3.2,5.7-2.3,12.8,2.2,17.5c4.5,4.7,11.5,5.9,17.3,2.9c-0.1-1.1-0.1-2.3-0.2-3.4c-0.7-0.6-1.5-1.3-2.2-1.9
		c-7.7,4.3-16.2-4.2-12-11.9c4.2-7.8,16-5.2,16.5,3.7c0.1,1.4-0.1,2.6-0.6,3.8c0.7,0.6,1.5,1.3,2.2,1.9
		C440.1,198.6,441.3,198.5,442.4,198.5z"/>
</g>
</svg>
