<?xml version="1.0" encoding="utf-8"?>
<!-- Generator: Adobe Illustrator 19.0.0, SVG Export Plug-In . SVG Version: 6.00 Build 0)  -->
<svg version="1.1" id="Layer_1" xmlns="http://www.w3.org/2000/svg" xmlns:xlink="http://www.w3.org/1999/xlink" x="0px" y="0px"
	 viewBox="0 0 606 406" style="enable-background:new 0 0 606 406;" xml:space="preserve">
<style type="text/css">
	.st0{fill:#231F20;}
	.st1{fill:#FFFFFF;}
	.st2{fill:#D0D2D3;}
	.st3{fill:#C09000;}
	.st4{fill:#88C7FF;}
	.st5{fill:#BBBDBF;}
	.st6{fill:#FFC000;}
	.st7{fill:#CECECE;}
	.st8{font-family:'MicrosoftYaHei';}
	.st9{font-size:8.0266px;}
</style>
<g>
	<path class="st0" d="M606,388.2c0,8.9-7,16.2-15.8,16.2H15.8C7,404.4,0,397.2,0,388.2V16.2C0,7.2,7,0,15.8,0h574.5
		C599,0,606,7.2,606,16.2V388.2z"/>
</g>
<rect x="16.1" y="20.9" class="st1" width="571.8" height="352.5"/>
<g>
	<rect x="95.2" y="295" class="st2" width="431.3" height="1.5"/>
	<path class="st2" d="M492.1,295.7h-0.6V93.3h0.6V295.7L492.1,295.7z M457.4,295.7h-0.6V93.3h0.6V295.7L457.4,295.7z M422.7,295.7
		h-0.5V93.3h0.5V295.7L422.7,295.7z M388.1,295.7h-0.6V93.3h0.6V295.7L388.1,295.7z M353.4,295.7h-0.5V93.3h0.5V295.7L353.4,295.7z
		 M318.7,295.7h-0.6V93.3h0.6V295.7L318.7,295.7z M284.1,295.7h-0.5V93.3h0.5V295.7L284.1,295.7z M249.4,295.7h-0.5V93.3h0.5V295.7
		L249.4,295.7z M214.7,295.7h-0.5V93.3h0.5V295.7L214.7,295.7z M180,295.7h-0.6V93.3h0.6V295.7L180,295.7z M145.4,295.7h-0.6V93.3
		h0.6V295.7L145.4,295.7z M110.7,295.7h-0.6V93.3h0.6V295.7L110.7,295.7z"/>
	<path class="st2" d="M510.3,295.7h-0.6V93.3h0.6V295.7L510.3,295.7z M475.7,295.7h-0.6V93.3h0.6V295.7L475.7,295.7z M441,295.7
		h-0.5V93.3h0.5V295.7L441,295.7z M406.3,295.7h-0.6V93.3h0.6V295.7L406.3,295.7z M371.6,295.7h-0.5V93.3h0.5V295.7L371.6,295.7z
		 M337,295.7h-0.6V93.3h0.6V295.7L337,295.7z M302.3,295.7h-0.5V93.3h0.5V295.7L302.3,295.7z M267.6,295.7H267V93.3h0.6V295.7
		L267.6,295.7z M232.9,295.7h-0.6V93.3h0.6V295.7L232.9,295.7z M198.3,295.7h-0.6V93.3h0.6V295.7L198.3,295.7z M163.6,295.7H163
		V93.3h0.6V295.7L163.6,295.7z M128.9,295.7h-0.6V93.3h0.6V295.7L128.9,295.7z"/>
	<polygon class="st2" points="526.5,262.5 95.2,262.5 95.2,262 526.5,262 526.5,262.5 	"/>
	<polygon class="st2" points="526.5,229 95.2,229 95.2,228.5 526.5,228.5 526.5,229 	"/>
	<polygon class="st2" points="526.5,195.6 95.2,195.6 95.2,195 526.5,195 526.5,195.6 	"/>
	<path class="st2" d="M526.5,162.1H95.2v-0.6h431.3V162.1L526.5,162.1z M526.5,128.6H95.2V128h431.3V128.6L526.5,128.6z"/>
	<polygon class="st2" points="526.5,245.9 95.2,245.9 95.2,245.4 526.5,245.4 526.5,245.9 	"/>
	<polygon class="st2" points="526.5,278 95.2,278 95.2,277.4 526.5,277.4 526.5,278 	"/>
	<polygon class="st2" points="526.5,212.5 95.2,212.5 95.2,211.9 526.5,211.9 526.5,212.5 	"/>
	<polygon class="st2" points="526.5,179 95.2,179 95.2,178.4 526.5,178.4 526.5,179 	"/>
	<path class="st2" d="M526.5,145.5H95.2V145h431.3V145.5L526.5,145.5z M526.5,112H95.2v-0.6h431.3V112L526.5,112z"/>
</g>
<g>
	<g>
		<g>
			<polygon class="st3" points="124.2,213.2 123.6,213.2 123.6,214.3 121.8,214.3 121.8,219.5 123.6,219.5 123.6,221.2 124.2,221.2 
				124.2,219.5 125.9,219.5 125.9,214.3 124.2,214.3 			"/>
			<polygon class="st3" points="165.7,215.4 165.2,215.4 165.2,219.8 163.4,219.8 163.4,224.1 165.2,224.1 165.2,231 165.7,231 
				165.7,224.1 167.5,224.1 167.5,219.8 165.7,219.8 			"/>
			<polygon class="st3" points="140.8,222.9 140.3,222.9 140.3,225 138.5,225 138.5,234.5 140.3,234.5 140.3,237.6 140.8,237.6 
				140.8,234.5 142.6,234.5 142.6,225 140.8,225 			"/>
			<polygon class="st3" points="157.4,217.8 156.9,217.8 156.9,219.4 155.1,219.4 155.1,226.9 156.9,226.9 156.9,229.2 157.4,229.2 
				157.4,226.9 159.2,226.9 159.2,219.4 157.4,219.4 			"/>
			<polygon class="st3" points="174.1,207.6 173.5,207.6 173.5,214.3 171.7,214.3 171.7,223.8 173.5,223.8 173.5,226.9 174.1,226.9 
				174.1,223.8 175.8,223.8 175.8,214.3 174.1,214.3 			"/>
			<polygon class="st3" points="182.2,205.4 181.7,205.4 181.7,211 180.1,211 180.1,216.1 181.7,216.1 181.7,219.8 182.2,219.8 
				182.2,216.1 183.8,216.1 183.8,211 182.2,211 			"/>
			<polygon class="st3" points="207,222.2 206.4,222.2 206.4,225.6 204.6,225.6 204.6,238.3 206.4,238.3 206.4,241.6 207,241.6 
				207,238.3 208.8,238.3 208.8,225.6 207,225.6 			"/>
			<polygon class="st3" points="256.9,148.6 256.3,148.6 256.3,154.7 254.5,154.7 254.5,182.5 256.3,182.5 256.3,190.9 256.9,190.9 
				256.9,182.5 258.6,182.5 258.6,154.7 256.9,154.7 			"/>
			<polygon class="st3" points="248.5,193.3 248,193.3 248,195.6 246.2,195.6 246.2,202.3 248,202.3 248,203.6 248.5,203.6 
				248.5,202.3 250.3,202.3 250.3,195.6 248.5,195.6 			"/>
			<polygon class="st3" points="231.9,197 231.4,197 231.4,199.9 229.6,199.9 229.6,209.5 231.4,209.5 231.4,211.7 231.9,211.7 
				231.9,209.5 233.7,209.5 233.7,199.9 231.9,199.9 			"/>
			<polygon class="st3" points="223.6,202.8 223.1,202.8 223.1,207 221.3,207 221.3,220.9 223.1,220.9 223.1,224.4 223.6,224.4 
				223.6,220.9 225.4,220.9 225.4,207 223.6,207 			"/>
			<polygon class="st3" points="215.3,215.9 214.7,215.9 214.7,219.1 213,219.1 213,228.6 214.7,228.6 214.7,230.6 215.3,230.6 
				215.3,228.6 217.1,228.6 217.1,219.1 215.3,219.1 			"/>
			<polygon class="st3" points="273.3,153.3 272.8,153.3 272.8,156.9 271.2,156.9 271.2,160 272.8,160 272.8,162.4 273.3,162.4 
				273.3,160 274.9,160 274.9,156.9 273.3,156.9 			"/>
			<polygon class="st3" points="306.4,167.9 305.9,167.9 305.9,172.2 304.1,172.2 304.1,179.9 305.9,179.9 305.9,185.2 306.4,185.2 
				306.4,179.9 308.2,179.9 308.2,172.2 306.4,172.2 			"/>
			<polygon class="st3" points="323,177.2 322.5,177.2 322.5,180.7 320.7,180.7 320.7,192.2 322.5,192.2 322.5,195.2 323,195.2 
				323,192.2 324.8,192.2 324.8,180.7 323,180.7 			"/>
			<polygon class="st3" points="331.4,169.1 330.8,169.1 330.8,171.3 329,171.3 329,178 330.8,178 330.8,179.3 331.4,179.3 
				331.4,178 333.1,178 333.1,171.3 331.4,171.3 			"/>
			<polygon class="st3" points="348,166.5 347.4,166.5 347.4,169.1 345.7,169.1 345.7,180.8 347.4,180.8 347.4,184.3 348,184.3 
				348,180.8 349.8,180.8 349.8,169.1 348,169.1 			"/>
			<polygon class="st3" points="356.3,154.7 355.8,154.7 355.8,158.1 354,158.1 354,170.8 355.8,170.8 355.8,174.1 356.3,174.1 
				356.3,170.8 358.1,170.8 358.1,158.1 356.3,158.1 			"/>
			<polygon class="st3" points="364.6,148.4 364.1,148.4 364.1,151.6 362.3,151.6 362.3,161.1 364.1,161.1 364.1,163.1 364.6,163.1 
				364.6,161.1 366.4,161.1 366.4,151.6 364.6,151.6 			"/>
			<polygon class="st3" points="381.2,131 380.7,131 380.7,136.9 378.9,136.9 378.9,159.3 380.7,159.3 380.7,165.1 381.2,165.1 
				381.2,159.3 383,159.3 383,136.9 381.2,136.9 			"/>
			<polygon class="st3" points="389.4,119.9 388.8,119.9 388.8,128.5 387.2,128.5 387.2,136.1 388.8,136.1 388.8,141.8 389.4,141.8 
				389.4,136.1 391,136.1 391,128.5 389.4,128.5 			"/>
			<polygon class="st3" points="422.3,151.8 421.8,151.8 421.8,157 420.2,157 420.2,161.8 421.8,161.8 421.8,165.3 422.3,165.3 
				422.3,161.8 423.9,161.8 423.9,157 422.3,157 			"/>
			<polygon class="st3" points="438.6,161.4 438,161.4 438,165.7 436.4,165.7 436.4,169.7 438,169.7 438,172.6 438.6,172.6 
				438.6,169.7 440.2,169.7 440.2,165.7 438.6,165.7 			"/>
			<polygon class="st3" points="455,159.4 454.5,159.4 454.5,164.9 452.7,164.9 452.7,172.8 454.5,172.8 454.5,175.3 455,175.3 
				455,172.8 456.8,172.8 456.8,164.9 455,164.9 			"/>
			<polygon class="st3" points="463.3,140.9 462.8,140.9 462.8,150.6 461,150.6 461,164.7 462.8,164.7 462.8,169.2 463.3,169.2 
				463.3,164.7 465.1,164.7 465.1,150.6 463.3,150.6 			"/>
			<polygon class="st3" points="471.5,135.5 470.9,135.5 470.9,143.8 469.3,143.8 469.3,151.2 470.9,151.2 470.9,156.7 471.5,156.7 
				471.5,151.2 473.1,151.2 473.1,143.8 471.5,143.8 			"/>
			<polygon class="st3" points="479.6,135 479.1,135 479.1,137.3 477.3,137.3 477.3,144 479.1,144 479.1,145.3 479.6,145.3 
				479.6,144 481.4,144 481.4,137.3 479.6,137.3 			"/>
			<polygon class="st3" points="496.2,130.7 495.7,130.7 495.7,133.3 493.9,133.3 493.9,144.9 495.7,144.9 495.7,148.5 496.2,148.5 
				496.2,144.9 498,144.9 498,133.3 496.2,133.3 			"/>
			<polygon class="st3" points="504.6,120.8 504,120.8 504,123.4 502.2,123.4 502.2,135 504,135 504,138.6 504.6,138.6 504.6,135 
				506.3,135 506.3,123.4 504.6,123.4 			"/>
			<polygon class="st3" points="512.9,112.4 512.9,109 512.3,109 512.3,112.4 510.6,112.4 510.6,125.1 512.3,125.1 512.3,128.4 
				512.9,128.4 512.9,125.1 514.7,125.1 514.7,112.4 			"/>
		</g>
		<g>
			<path class="st3" d="M108.6,193V207h-1.1h-0.7h-1V193h1.1h0.7H108.6 M107.5,189.4H107v3.1h-1.8v15.1h1.8v4.9h0.5v-4.9h1.8v-15.1
				h-1.8V189.4L107.5,189.4z"/>
			<path class="st3" d="M290.9,164.8v10.1h-1.1h-0.7h-1v-10.1h1.1h0.7H290.9 M289.8,159.6h-0.5v4.6h-1.8v11.3h1.8v4.9h0.5v-4.9h1.8
				v-11.3h-1.8V159.6L289.8,159.6z"/>
			<path class="st3" d="M266.3,150.6v7.9h-1.1h-0.7h-1v-7.9h1.1h0.7H266.3 M265.2,145.9h-0.5v4.1h-1.8v9.2h1.8v5.6h0.5v-5.6h1.8V150
				h-1.8V145.9L265.2,145.9z"/>
			<path class="st3" d="M241.3,199.9v1.2h-1.1h-0.7h-1v-1.2h1.1h0.7H241.3 M240.2,197.6h-0.5v1.7h-1.8v2.4h1.8v0.8h0.5v-0.8h1.8
				v-2.4h-1.8V197.6L240.2,197.6z"/>
			<path class="st3" d="M282.6,159.8v2.8h-1.1h-0.7h-1v-2.8h1.1h0.7H282.6 M281.5,150.6h-0.5v8.7h-1.8v4h1.8v10.7h0.5v-10.7h1.8v-4
				h-1.8V150.6L281.5,150.6z"/>
			<path class="st3" d="M117,207.4v10h-1.1h-0.7h-1v-10h1.1h0.7H117 M115.8,198.5h-0.5v8.3h-1.8V218h1.8v8.3h0.5V218h1.8v-11.2h-1.8
				V198.5L115.8,198.5z"/>
			<path class="st3" d="M133.6,216.5V235h-1.1h-0.7h-1v-18.5h1.1h0.7H133.6 M132.5,212.1h-0.5v3.8h-1.8v19.7h1.8v6.6h0.5v-6.6h1.8
				v-19.7h-1.8V212.1L132.5,212.1z"/>
			<path class="st3" d="M150.2,224.1v4.3h-1.1h-0.7h-1v-4.3h1.1h0.7H150.2 M149.1,219.4h-0.5v4.1h-1.8v5.5h1.8v4.1h0.5V229h1.8v-5.5
				h-1.8V219.4L149.1,219.4z"/>
			<path class="st3" d="M191.5,209.7v19.5h-1.1h-0.7h-1v-19.5h1.1h0.7H191.5 M190.3,203.4h-0.5v5.6H188v20.7h1.8v5.3h0.5v-5.3h1.8
				v-20.7h-1.8V203.4L190.3,203.4z"/>
			<path class="st3" d="M199.8,227.7v7.8h-1.1H198h-1v-7.8h1.1h0.7H199.8 M198.7,225.3h-0.5v1.9h-1.8v9h1.8v4.7h0.5v-4.7h1.8v-9
				h-1.8V225.3L198.7,225.3z"/>
			<path class="st3" d="M431.5,159.4v8.6h-1.1h-0.7h-1v-8.6h1.1h0.7H431.5 M430.4,151.5h-0.5v7.2h-1.8v9.8h1.8v7.2h0.5v-7.2h1.8
				v-9.8h-1.8V151.5L430.4,151.5z"/>
			<path class="st3" d="M415.3,153.4v7.9h-1.1h-0.7h-1v-7.9h1.1h0.7H415.3 M414.2,148.7h-0.5v4.1h-1.8v9.2h1.8v5.6h0.5v-5.6h1.8
				v-9.2h-1.8V148.7L414.2,148.7z"/>
			<path class="st3" d="M489,138.6v6h-1.1h-0.7h-1v-6h1.1h0.7H489 M487.9,132.6h-0.5v5.4h-1.8v7.2h1.8v5.4h0.5v-5.4h1.8V138h-1.8
				V132.6L487.9,132.6z"/>
			<path class="st3" d="M407,142.9v10h-1.1h-0.7h-1v-10h1.1h0.7H407 M405.8,134h-0.5v8.3h-1.8v11.2h1.8v8.3h0.5v-8.3h1.8v-11.2h-1.8
				V134L405.8,134z"/>
			<path class="st3" d="M299.2,175.4v2.8h-1.1h-0.7h-1v-2.8h1.1h0.7H299.2 M298.1,171.9h-0.5v2.9h-1.8v4h1.8v1.4h0.5v-1.4h1.8v-4
				h-1.8V171.9L298.1,171.9z"/>
			<path class="st3" d="M447.8,166.2v2.8h-1.1H446h-1v-2.8h1.1h0.7H447.8 M446.7,162.8h-0.5v2.9h-1.8v4h1.8v1.4h0.5v-1.4h1.8v-4
				h-1.8V162.8L446.7,162.8z"/>
			<path class="st3" d="M340.8,172.8v5.4h-1.1H339h-1v-5.4h1.1h0.7H340.8 M339.7,167.3h-0.5v4.9h-1.8v6.7h1.8v4.9h0.5v-4.9h1.8v-6.7
				h-1.8V167.3L339.7,167.3z"/>
			<path class="st3" d="M398.6,128.5v13.9h-1.1h-0.7h-1v-13.9h1.1h0.7H398.6 M397.5,124.8H397v3.1h-1.8v15.1h1.8v4.9h0.5v-4.9h1.8
				v-15.1h-1.8V124.8L397.5,124.8z"/>
			<path class="st3" d="M315.8,181.4v13.8h-1.1h-0.7h-1v-13.8h1.1h0.7H315.8 M314.7,173.7h-0.5v7.1h-1.8v15h1.8v1.7h0.5v-1.7h1.8
				v-15h-1.8V173.7L314.7,173.7z"/>
			<path class="st3" d="M374,149.5v10h-1.1h-0.7h-1v-10h1.1h0.7H374 M372.9,140.6h-0.5v8.3h-1.8v11.2h1.8v8.3h0.5v-8.3h1.8v-11.2
				h-1.8V140.6L372.9,140.6z"/>
		</g>
	</g>
</g>
<g>
	<g>
		<path class="st4" d="M97.9,291.6l-1.5-0.6c0.4-0.8,36.6-83.3,128.9-76.7c14.1,1,26.5,2.1,37.4,3.1c60.9,5.5,77.3,7,109.8-34.8
			c23-29.6,61-48.9,96.8-49.2c0.3,0,0.7,0,1,0c27,0,49.7,10.5,65.8,30.4l-1.3,1c-19.8-24.5-45.9-29.8-64.6-29.8c-0.3,0-0.6,0-0.9,0
			c-35.3,0.3-72.8,19.4-95.5,48.6c-33,42.5-49.6,41-111.2,35.4c-10.9-1-23.3-2.1-37.4-3.1C134,209.4,98.2,290.8,97.9,291.6
			L97.9,291.6z"/>
		<path class="st4" d="M133.2,247.9c0,2.2-1.8,4-4,4c-2.2,0-4-1.8-4-4c0-2.2,1.8-4,4-4C131.4,243.8,133.2,245.6,133.2,247.9z"/>
		<path class="st4" d="M217.5,214.4c0,2.2-1.8,4-4.1,4c-2.2,0-4-1.8-4-4c0-2.2,1.8-4.1,4-4.1C215.6,210.3,217.5,212.1,217.5,214.4z"
			/>
		<path class="st4" d="M288.1,219.9c0,2.2-1.8,4-4.1,4c-2.2,0-4-1.8-4-4c0-2.2,1.8-4,4-4C286.3,215.9,288.1,217.7,288.1,219.9z"/>
		<path class="st4" d="M356.2,204.8c0,2.2-1.8,4.1-4.1,4.1c-2.2,0-4-1.8-4-4.1c0-2.2,1.8-4,4-4C354.4,200.8,356.2,202.6,356.2,204.8
			z"/>
		<path class="st4" d="M387.8,170.2c0,2.2-1.8,4-4,4c-2.2,0-4-1.8-4-4c0-2.2,1.8-4.1,4-4.1C386,166.2,387.8,168,387.8,170.2z"/>
		<path class="st4" d="M431.3,143c0,2.2-1.8,4-4.1,4c-2.2,0-4-1.8-4-4c0-2.2,1.8-4,4-4C429.5,138.9,431.3,140.7,431.3,143z"/>
		<path class="st4" d="M479.1,134.1c0,2.2-1.8,4-4,4c-2.2,0-4-1.8-4-4c0-2.2,1.8-4,4-4C477.3,130.1,479.1,131.9,479.1,134.1z"/>
		<path class="st4" d="M528.4,152.2c0,2.2-1.8,4.1-4.1,4.1c-2.2,0-4.1-1.8-4.1-4.1c0-2.2,1.8-4,4.1-4
			C526.6,148.1,528.4,149.9,528.4,152.2z"/>
	</g>
</g>
<path class="st5" d="M85.2,295.2c0,2.7-1,4.2-2.8,4.2c-1.6,0-2.6-1.5-2.7-4.1c0-2.7,1.2-4.2,2.8-4.2
	C84.3,291.2,85.2,292.7,85.2,295.2z M80.9,295.3c0,2.1,0.6,3.3,1.6,3.3c1.1,0,1.6-1.3,1.6-3.3c0-2-0.5-3.3-1.6-3.3
	C81.6,292,80.9,293.2,80.9,295.3z"/>
<g>
	<path class="st6" d="M186.7,195.2c0,2.2-1.8,4-4.1,4c-2.2,0-4-1.8-4-4c0-2.2,1.8-4.1,4-4.1C184.9,191.2,186.7,193,186.7,195.2z"/>
	<g>
		<g>
			<path class="st6" d="M124.5,294l-1.1-0.3c1.1-3.9,27.7-96.1,62.3-99c11.2-1,27.3,7.6,46.1,17.6c39,20.8,92.5,49.2,136.9,6.9
				c23.7-22.6,37.9-43.5,49.3-60.2c20.2-29.6,33.5-49.1,78.4-48.1l0,1.1c-44.3-0.9-56.8,17.4-77.5,47.7
				c-11.5,16.8-25.7,37.7-49.5,60.4c-44.9,42.9-98.8,14.2-138.2-6.7c-18.6-9.9-34.6-18.4-45.5-17.5C152,198.7,124.8,293.1,124.5,294
				L124.5,294z"/>
			<path class="st6" d="M132.1,281.9c0,2.2-1.8,4-4.1,4c-2.2,0-4.1-1.8-4.1-4c0-2.2,1.8-4,4.1-4
				C130.3,277.9,132.1,279.7,132.1,281.9z"/>
			<path class="st6" d="M150.3,234.4c0,2.2-1.8,4-4,4c-2.2,0-4.1-1.8-4.1-4c0-2.2,1.8-4,4.1-4C148.5,230.4,150.3,232.2,150.3,234.4z
				"/>
			<path class="st6" d="M234.2,211.3c0,2.2-1.8,4-4.1,4c-2.2,0-4-1.8-4-4c0-2.2,1.8-4,4-4C232.4,207.2,234.2,209,234.2,211.3z"/>
			<path class="st6" d="M278.9,233.3c0,2.2-1.8,4-4,4c-2.2,0-4-1.8-4-4c0-2.2,1.8-4,4-4C277.1,229.3,278.9,231.1,278.9,233.3z"/>
			<path class="st6" d="M344.8,236.3c0,2.2-1.8,4-4,4c-2.2,0-4.1-1.8-4.1-4c0-2.2,1.8-4,4.1-4C343,232.2,344.8,234,344.8,236.3z"/>
			<path class="st6" d="M385.6,207.4c0,2.2-1.8,4-4,4c-2.2,0-4.1-1.8-4.1-4c0-2.2,1.8-4.1,4.1-4.1
				C383.8,203.3,385.6,205.1,385.6,207.4z"/>
			<path class="st6" d="M417.7,165.4c0,2.2-1.8,4.1-4,4.1c-2.2,0-4.1-1.8-4.1-4.1c0-2.2,1.8-4,4.1-4
				C415.8,161.4,417.7,163.2,417.7,165.4z"/>
			<path class="st6" d="M479.1,112.8c0,2.2-1.8,4-4,4c-2.2,0-4-1.8-4-4c0-2.2,1.8-4,4-4C477.3,108.8,479.1,110.6,479.1,112.8z"/>
		</g>
	</g>
</g>
<text transform="matrix(1 0 0 1 471.1572 305.3896)" class="st7 st8 st9">亿</text>
<text transform="matrix(1 0 0 1 363.9697 305.3867)" class="st7 st8 st9">百万</text>
<text transform="matrix(1 0 0 1 412.3799 305.3867)" class="st7 st8 st9">千万</text>
<text transform="matrix(1 0 0 1 310.502 305.3867)" class="st7 st8 st9">十万</text>
<text transform="matrix(1 0 0 1 264.1812 305.3896)" class="st7 st8 st9">万</text>
<text transform="matrix(1 0 0 1 210.5444 305.3867)" class="st7 st8 st9">千</text>
<text transform="matrix(1 0 0 1 159.1147 305.3896)" class="st7 st8 st9">百</text>
<text transform="matrix(1 0 0 1 106.521 305.3906)" class="st7 st8 st9">十</text>
<text transform="matrix(1 0 0 1 78.4687 249.2813)" class="st5 st8 st9">0.5</text>
<text transform="matrix(1 0 0 1 85.1768 181.3901)" class="st5 st8 st9">1</text>
<text transform="matrix(1 0 0 1 85.1772 112.8071)" class="st5 st8 st9">2</text>
</svg>
