<?xml version="1.0" encoding="utf-8"?>
<!-- Generator: Adobe Illustrator 19.0.0, SVG Export Plug-In . SVG Version: 6.00 Build 0)  -->
<svg version="1.1" id="Layer_1" xmlns="http://www.w3.org/2000/svg" xmlns:xlink="http://www.w3.org/1999/xlink" x="0px" y="0px"
	 viewBox="0 0 606 406" style="enable-background:new 0 0 606 406;" xml:space="preserve">
<style type="text/css">
	.st0{fill:#231F20;}
	.st1{fill:#FFFFFF;}
	.st2{fill:#D0D2D3;}
	.st3{fill:#88C7FF;}
	.st4{fill:#C1C1C1;}
	.st5{fill:#FFC000;}
	.st6{fill:#755203;}
</style>
<g>
	<path class="st0" d="M606,388.2c0,8.9-7.1,16.2-15.8,16.2H15.8C7,404.4,0,397.2,0,388.2V16.2C0,7.2,7,0,15.8,0h574.5
		c8.7,0,15.8,7.2,15.8,16.2V388.2z"/>
</g>
<rect x="17.7" y="20.9" class="st1" width="571.8" height="352.5"/>
<path class="st2" d="M511.8,306.4h-0.6V74h0.6V306.4L511.8,306.4z M471.9,306.4h-0.6V74h0.6V306.4L471.9,306.4z M432.1,306.4h-0.6
	V74h0.6V306.4L432.1,306.4z M392.3,306.4h-0.6V74h0.6V306.4L392.3,306.4z M352.5,306.4h-0.6V74h0.6V306.4L352.5,306.4z M312.6,306.4
	H312V74h0.6V306.4L312.6,306.4z M272.8,306.4h-0.6V74h0.6V306.4L272.8,306.4z M233,306.4h-0.6V74h0.6V306.4L233,306.4z M193.2,306.4
	h-0.6V74h0.6V306.4L193.2,306.4z M153.3,306.4h-0.6V74h0.6V306.4L153.3,306.4z M113.5,306.4h-0.6V74h0.6V306.4L113.5,306.4z
	 M73.7,306.4h-0.6V74h0.6V306.4L73.7,306.4z"/>
<path class="st2" d="M532.7,306.4H532V74h0.6V306.4L532.7,306.4z M492.9,306.4h-0.6V74h0.6V306.4L492.9,306.4z M453,306.4h-0.6V74
	h0.6V306.4L453,306.4z M413.2,306.4h-0.6V74h0.6V306.4L413.2,306.4z M373.4,306.4h-0.6V74h0.6V306.4L373.4,306.4z M333.6,306.4h-0.6
	V74h0.6V306.4L333.6,306.4z M293.7,306.4h-0.6V74h0.6V306.4L293.7,306.4z M253.9,306.4h-0.6V74h0.6V306.4L253.9,306.4z M214.1,306.4
	h-0.6V74h0.6V306.4L214.1,306.4z M174.3,306.4h-0.6V74h0.6V306.4L174.3,306.4z M134.4,306.4h-0.6V74h0.6V306.4L134.4,306.4z
	 M94.6,306.4H94V74h0.6V306.4L94.6,306.4z"/>
<polygon class="st2" points="551.3,268.3 56,268.3 56,267.6 551.3,267.6 551.3,268.3 "/>
<polygon class="st2" points="551.3,229.8 56,229.8 56,229.2 551.3,229.2 551.3,229.8 "/>
<polygon class="st2" points="551.3,191.4 56,191.4 56,190.7 551.3,190.7 551.3,191.4 "/>
<path class="st2" d="M551.3,152.9H56v-0.6h495.3V152.9L551.3,152.9z M551.3,114.5H56v-0.6h495.3V114.5L551.3,114.5z"/>
<polygon class="st2" points="551.3,249.3 56,249.3 56,248.6 551.3,248.6 551.3,249.3 "/>
<polygon class="st2" points="551.3,286 56,286 56,285.4 551.3,285.4 551.3,286 "/>
<polygon class="st2" points="551.3,210.8 56,210.8 56,210.2 551.3,210.2 551.3,210.8 "/>
<polygon class="st2" points="551.3,172.4 56,172.4 56,171.7 551.3,171.7 551.3,172.4 "/>
<path class="st2" d="M551.3,133.9H56v-0.6h495.3V133.9L551.3,133.9z M551.3,95.4H56v-0.6h495.3V95.4L551.3,95.4z"/>
<g>
	<rect x="117.5" y="241.3" class="st3" width="8" height="64.2"/>
	<rect x="151.1" y="245.9" class="st3" width="8" height="59.7"/>
	<rect x="458.7" y="261.7" class="st3" width="8" height="43.9"/>
	<rect x="492.3" y="222.5" class="st3" width="8" height="83"/>
	<rect x="184.7" y="283.8" class="st3" width="8" height="21.8"/>
	<rect x="218.3" y="240.4" class="st3" width="8" height="65.1"/>
	<rect x="251.9" y="279.8" class="st3" width="8" height="25.8"/>
	<rect x="289.4" y="194.3" class="st3" width="8" height="111.3"/>
	<rect x="323" y="220.3" class="st3" width="8" height="85.3"/>
	<rect x="390.3" y="211.2" class="st3" width="8" height="94.3"/>
	<rect x="356.6" y="217.5" class="st3" width="8" height="88.1"/>
	<rect x="423.9" y="145.6" class="st3" width="8" height="159.9"/>
</g>
<path class="st4" d="M109.6,309.5h0.9v4.7c0,1.9-0.9,2.4-2.1,2.4c-0.3,0-0.7-0.1-1-0.2l0.1-0.7c0.2,0.1,0.5,0.1,0.8,0.1
	c0.8,0,1.3-0.4,1.3-1.7V309.5"/>
<path class="st4" d="M114.7,313.9c-1,0-2.1,0.1-2.1,1.1c0,0.6,0.4,0.9,0.8,0.9c0.7,0,1.1-0.4,1.2-0.8c0-0.1,0-0.2,0-0.3V313.9z
	 M115.6,315.3c0,0.4,0,0.9,0.1,1.2h-0.8l-0.1-0.6h0c-0.3,0.4-0.8,0.7-1.5,0.7c-1,0-1.5-0.7-1.5-1.4c0-1.2,1.1-1.9,3-1.9v-0.1
	c0-0.4-0.1-1.2-1.1-1.2c-0.5,0-1,0.1-1.3,0.4l-0.2-0.6c0.4-0.3,1-0.4,1.7-0.4c1.5,0,1.9,1,1.9,2V315.3"/>
<path class="st4" d="M117,312.8c0-0.5,0-0.9,0-1.3h0.8l0.1,0.8h0c0.2-0.5,0.8-0.9,1.7-0.9c0.7,0,1.8,0.4,1.8,2.1v3h-0.9v-2.9
	c0-0.8-0.3-1.5-1.2-1.5c-0.6,0-1.1,0.4-1.2,0.9c0,0.1-0.1,0.3-0.1,0.4v3H117V312.8"/>
<polyline class="st4" points="141.1,309.5 144.9,309.5 144.9,310.2 142,310.2 142,312.6 144.6,312.6 144.6,313.3 142,313.3 
	142,316.5 141.1,316.5 141.1,309.5 "/>
<path class="st4" d="M149,313.5c0-0.6-0.2-1.5-1.3-1.5c-0.9,0-1.3,0.8-1.4,1.5H149z M146.3,314.1c0,1.2,0.8,1.7,1.7,1.7
	c0.7,0,1.1-0.1,1.4-0.3l0.2,0.6c-0.3,0.1-0.9,0.3-1.7,0.3c-1.6,0-2.5-1-2.5-2.5c0-1.5,0.9-2.7,2.3-2.7c1.7,0,2.1,1.4,2.1,2.4
	c0,0.2,0,0.3,0,0.4H146.3"/>
<path class="st4" d="M151.9,314.5c0,0.1,0,0.2,0,0.3c0.2,0.6,0.7,1.1,1.4,1.1c1,0,1.5-0.8,1.5-1.9c0-1-0.5-1.9-1.5-1.9
	c-0.6,0-1.2,0.4-1.4,1.1c0,0.1-0.1,0.3-0.1,0.4V314.5z M151,309.1h0.9v3.2h0c0.3-0.6,0.9-0.9,1.7-0.9c1.2,0,2.1,1,2.1,2.6
	c0,1.8-1.1,2.7-2.3,2.7c-0.7,0-1.3-0.3-1.7-0.9h0l-0.1,0.8H151c0-0.3,0-0.9,0-1.3V309.1"/>
<path class="st4" d="M180.9,313.4c-0.1-1-0.1-2.2-0.1-3h0c-0.2,0.8-0.5,1.7-0.9,2.7l-1.2,3.4h-0.7l-1.1-3.3c-0.3-1-0.6-1.9-0.8-2.7
	h0c0,0.9-0.1,2-0.1,3.1l-0.2,3h-0.9l0.5-7h1.1l1.2,3.4c0.3,0.9,0.5,1.6,0.7,2.3h0c0.2-0.7,0.4-1.5,0.7-2.3l1.2-3.4h1.1l0.4,7H181
	L180.9,313.4"/>
<path class="st4" d="M186,313.9c-1,0-2.1,0.1-2.1,1.1c0,0.6,0.4,0.9,0.8,0.9c0.7,0,1.1-0.4,1.2-0.8c0-0.1,0.1-0.2,0.1-0.3V313.9z
	 M186.9,315.3c0,0.4,0,0.9,0.1,1.2h-0.8l-0.1-0.6h0c-0.3,0.4-0.8,0.7-1.5,0.7c-1,0-1.5-0.7-1.5-1.4c0-1.2,1.1-1.9,3-1.9v-0.1
	c0-0.4-0.1-1.2-1.1-1.2c-0.5,0-1,0.1-1.3,0.4l-0.2-0.6c0.4-0.3,1-0.4,1.7-0.4c1.5,0,1.9,1,1.9,2V315.3"/>
<path class="st4" d="M188.4,313c0-0.6,0-1.1-0.1-1.6h0.8l0,1h0c0.2-0.7,0.8-1.1,1.4-1.1c0.1,0,0.2,0,0.2,0v0.9c-0.1,0-0.2,0-0.3,0
	c-0.6,0-1.1,0.5-1.2,1.2c0,0.1,0,0.3,0,0.4v2.7h-0.9V313"/>
<path class="st4" d="M214.6,313.6l-0.7-2c-0.2-0.4-0.3-0.9-0.4-1.3h0c-0.1,0.4-0.2,0.8-0.4,1.3l-0.7,2H214.6z M212.3,314.3l-0.7,2.2
	h-0.9l2.4-7h1.1l2.4,7h-1l-0.8-2.2H212.3"/>
<path class="st4" d="M218.4,314.4c0,0.1,0,0.3,0,0.4c0.2,0.6,0.7,1.1,1.4,1.1c1,0,1.5-0.8,1.5-1.9c0-1-0.5-1.9-1.5-1.9
	c-0.6,0-1.2,0.4-1.4,1.1c0,0.1-0.1,0.3-0.1,0.4V314.4z M217.5,313.1c0-0.7,0-1.2,0-1.6h0.8l0.1,0.8h0c0.4-0.6,1-1,1.8-1
	c1.2,0,2.1,1,2.1,2.5c0,1.8-1.1,2.7-2.3,2.7c-0.7,0-1.2-0.3-1.5-0.8h0v2.7h-0.9V313.1"/>
<path class="st4" d="M223.4,313c0-0.6,0-1.1,0-1.6h0.8l0,1h0c0.2-0.7,0.8-1.1,1.4-1.1c0.1,0,0.2,0,0.2,0v0.9c-0.1,0-0.2,0-0.3,0
	c-0.6,0-1.1,0.5-1.2,1.2c0,0.1,0,0.3,0,0.4v2.7h-0.9V313"/>
<path class="st4" d="M247.4,313.4c0-1-0.1-2.2-0.1-3h0c-0.3,0.8-0.5,1.7-0.9,2.7l-1.2,3.4h-0.7l-1.1-3.3c-0.3-1-0.6-1.9-0.8-2.7h0
	c0,0.9-0.1,2-0.1,3.1l-0.2,3h-0.9l0.5-7h1.1l1.2,3.4c0.3,0.9,0.5,1.6,0.7,2.3h0c0.2-0.7,0.4-1.5,0.7-2.3l1.3-3.4h1.1l0.4,7h-0.9
	L247.4,313.4"/>
<path class="st4" d="M252.5,313.9c-1,0-2.1,0.1-2.1,1.1c0,0.6,0.4,0.9,0.9,0.9c0.7,0,1.1-0.4,1.2-0.8c0-0.1,0-0.2,0-0.3V313.9z
	 M253.4,315.3c0,0.4,0,0.9,0.1,1.2h-0.8l-0.1-0.6h0c-0.3,0.4-0.8,0.7-1.5,0.7c-1,0-1.5-0.7-1.5-1.4c0-1.2,1.1-1.9,3-1.9v-0.1
	c0-0.4-0.1-1.2-1.1-1.2c-0.5,0-1,0.1-1.3,0.4l-0.2-0.6c0.4-0.3,1-0.4,1.6-0.4c1.6,0,1.9,1,1.9,2V315.3"/>
<path class="st4" d="M255.1,311.5l1.1,3c0.1,0.3,0.3,0.7,0.3,1h0c0.1-0.3,0.2-0.7,0.3-1.1l1-2.9h1l-1.4,3.6
	c-0.6,1.7-1.1,2.6-1.7,3.1c-0.4,0.4-0.9,0.5-1.1,0.6l-0.2-0.8c0.2-0.1,0.5-0.2,0.8-0.4c0.2-0.2,0.5-0.6,0.8-1c0-0.1,0.1-0.2,0.1-0.2
	c0-0.1,0-0.1-0.1-0.2l-1.8-4.6H255.1"/>
<path class="st4" d="M281,309.5h0.9v4.7c0,1.9-0.9,2.4-2.1,2.4c-0.4,0-0.8-0.1-1-0.2l0.1-0.7c0.2,0.1,0.5,0.1,0.8,0.1
	c0.8,0,1.3-0.4,1.3-1.7V309.5"/>
<path class="st4" d="M287.6,315.1c0,0.5,0,1,0.1,1.4h-0.8l-0.1-0.8h0c-0.2,0.4-0.8,0.9-1.7,0.9c-0.8,0-1.7-0.4-1.7-2.2v-2.9h0.9v2.8
	c0,1,0.3,1.6,1.1,1.6c0.6,0,1-0.4,1.2-0.8c0.1-0.1,0.1-0.3,0.1-0.5v-3h0.9V315.1"/>
<path class="st4" d="M289.2,312.8c0-0.5,0-0.9-0.1-1.3h0.8l0.1,0.8h0c0.2-0.5,0.8-0.9,1.7-0.9c0.7,0,1.8,0.4,1.8,2.1v3h-0.9v-2.9
	c0-0.8-0.3-1.5-1.2-1.5c-0.6,0-1,0.4-1.2,0.9c0,0.1-0.1,0.3-0.1,0.4v3h-0.9V312.8"/>
<path class="st4" d="M316.4,309.5h0.9v4.7c0,1.9-0.9,2.4-2.1,2.4c-0.3,0-0.7-0.1-1-0.2l0.1-0.7c0.2,0.1,0.5,0.1,0.8,0.1
	c0.8,0,1.3-0.4,1.3-1.7V309.5"/>
<path class="st4" d="M323,315.1c0,0.5,0,1,0.1,1.4h-0.8l-0.1-0.8h0c-0.2,0.4-0.8,0.9-1.7,0.9c-0.8,0-1.7-0.4-1.7-2.2v-2.9h0.9v2.8
	c0,1,0.3,1.6,1.1,1.6c0.6,0,1-0.4,1.2-0.8c0-0.1,0.1-0.3,0.1-0.5v-3h0.9V315.1"/>
<rect x="324.5" y="309.1" class="st4" width="0.9" height="7.4"/>
<path class="st4" d="M351.6,313.6l-0.7-2c-0.1-0.4-0.3-0.9-0.4-1.3h0c-0.1,0.4-0.2,0.8-0.4,1.3l-0.7,2H351.6z M349.3,314.3l-0.7,2.2
	h-0.9l2.4-7h1.1l2.4,7h-1l-0.7-2.2H349.3"/>
<path class="st4" d="M358.6,315.1c0,0.5,0,1,0,1.4h-0.8l-0.1-0.8h0c-0.2,0.4-0.8,0.9-1.7,0.9c-0.8,0-1.7-0.4-1.7-2.2v-2.9h0.9v2.8
	c0,1,0.3,1.6,1.1,1.6c0.6,0,1-0.4,1.2-0.8c0-0.1,0.1-0.3,0.1-0.5v-3h0.9V315.1"/>
<path class="st4" d="M363.5,313.4c0-0.2,0-0.3-0.1-0.4c-0.2-0.5-0.6-1-1.3-1c-0.9,0-1.5,0.7-1.5,1.9c0,1,0.5,1.8,1.5,1.8
	c0.6,0,1.1-0.4,1.3-0.9c0.1-0.2,0.1-0.3,0.1-0.5V313.4z M364.4,315.7c0,1.2-0.2,1.9-0.7,2.3c-0.5,0.4-1.2,0.6-1.9,0.6
	c-0.6,0-1.3-0.1-1.7-0.4l0.2-0.7c0.3,0.2,0.9,0.4,1.5,0.4c0.9,0,1.6-0.5,1.6-1.8v-0.5h0c-0.3,0.5-0.8,0.8-1.6,0.8
	c-1.2,0-2.1-1.1-2.1-2.4c0-1.7,1.1-2.7,2.3-2.7c0.9,0,1.3,0.4,1.6,0.9h0l0-0.8h0.8c0,0.3-0.1,0.8-0.1,1.3V315.7"/>
<path class="st4" d="M381.8,315.4c0.4,0.3,1,0.5,1.6,0.5c0.9,0,1.5-0.5,1.5-1.2c0-0.6-0.4-1-1.3-1.4c-1.1-0.4-1.9-1-1.9-2
	c0-1.1,0.9-1.9,2.3-1.9c0.7,0,1.2,0.2,1.5,0.4l-0.3,0.7c-0.2-0.1-0.7-0.3-1.3-0.3c-1,0-1.3,0.6-1.3,1.1c0,0.7,0.4,1,1.4,1.4
	c1.2,0.5,1.8,1,1.8,2.1c0,1.1-0.8,2-2.4,2c-0.7,0-1.4-0.2-1.8-0.5L381.8,315.4"/>
<path class="st4" d="M390.3,313.5c0-0.6-0.3-1.5-1.3-1.5c-0.9,0-1.3,0.8-1.4,1.5H390.3z M387.6,314.1c0,1.2,0.8,1.7,1.7,1.7
	c0.6,0,1.1-0.1,1.4-0.3l0.2,0.6c-0.3,0.1-0.9,0.3-1.7,0.3c-1.5,0-2.5-1-2.5-2.5c0-1.5,0.9-2.7,2.4-2.7c1.6,0,2.1,1.4,2.1,2.4
	c0,0.2,0,0.3,0,0.4H387.6"/>
<path class="st4" d="M393.2,314.4c0,0.1,0,0.3,0,0.4c0.2,0.6,0.7,1.1,1.4,1.1c1,0,1.5-0.8,1.5-1.9c0-1-0.5-1.9-1.5-1.9
	c-0.6,0-1.2,0.4-1.4,1.1c0,0.1,0,0.3,0,0.4V314.4z M392.3,313.1c0-0.7,0-1.2,0-1.6h0.8l0.1,0.8h0c0.4-0.6,1-1,1.8-1
	c1.2,0,2.1,1,2.1,2.5c0,1.8-1.1,2.7-2.3,2.7c-0.7,0-1.2-0.3-1.5-0.8h0v2.7h-0.9V313.1"/>
<path class="st4" d="M420.8,316.5v-7h1l2.2,3.5c0.5,0.8,0.9,1.6,1.3,2.3l0,0c-0.1-0.9-0.1-1.8-0.1-2.9v-2.9h0.9v7h-0.9l-2.2-3.6
	c-0.5-0.8-1-1.6-1.3-2.3h0c0.1,0.9,0.1,1.7,0.1,2.9v3H420.8"/>
<path class="st4" d="M428.2,314c0,1.1,0.6,1.9,1.5,1.9c0.9,0,1.5-0.8,1.5-1.9c0-0.9-0.4-1.9-1.5-1.9C428.7,312,428.2,313,428.2,314
	L428.2,314z M432.2,313.9c0,1.9-1.3,2.7-2.5,2.7c-1.4,0-2.4-1-2.4-2.6c0-1.7,1.1-2.7,2.5-2.7C431.2,311.4,432.2,312.4,432.2,313.9"
	/>
<path class="st4" d="M433.6,311.5l1,2.8c0.2,0.5,0.3,0.9,0.4,1.3h0c0.1-0.4,0.3-0.8,0.4-1.3l1-2.8h1l-2,5h-0.9l-1.9-5H433.6"/>
<path class="st4" d="M454.1,313c0,1.5,0.8,2.8,2.2,2.8c1.4,0,2.2-1.3,2.2-2.9c0-1.4-0.7-2.9-2.2-2.9
	C454.9,310.1,454.1,311.5,454.1,313L454.1,313z M459.5,312.9c0,2.4-1.5,3.7-3.2,3.7c-1.9,0-3.1-1.4-3.1-3.6c0-2.2,1.4-3.7,3.2-3.7
	C458.3,309.4,459.5,310.8,459.5,312.9"/>
<path class="st4" d="M464.3,316.3c-0.2,0.1-0.8,0.3-1.4,0.3c-1.5,0-2.5-1-2.5-2.6c0-1.6,1.1-2.7,2.7-2.7c0.5,0,1,0.1,1.3,0.3
	l-0.2,0.7c-0.2-0.1-0.6-0.2-1.1-0.2c-1.2,0-1.8,0.9-1.8,1.9c0,1.2,0.7,1.9,1.8,1.9c0.5,0,0.9-0.1,1.1-0.2L464.3,316.3"/>
<path class="st4" d="M466.6,310.3v1.2h1.3v0.7h-1.3v2.7c0,0.6,0.2,1,0.7,1c0.3,0,0.4,0,0.5-0.1l0,0.7c-0.2,0.1-0.5,0.1-0.8,0.1
	c-0.4,0-0.8-0.1-1-0.4c-0.2-0.3-0.3-0.7-0.3-1.3v-2.7H465v-0.7h0.8v-1L466.6,310.3"/>
<path class="st4" d="M484.8,315.8c0.2,0,0.6,0,0.9,0c1.9,0,3-1.1,3-3c0-1.6-0.9-2.7-2.8-2.7c-0.5,0-0.8,0-1.1,0.1V315.8z
	 M483.8,309.6c0.6-0.1,1.2-0.1,1.9-0.1c1.3,0,2.2,0.3,2.8,0.9c0.6,0.6,1,1.4,1,2.5c0,1.1-0.4,2.1-1,2.7c-0.7,0.7-1.7,1-3.1,1
	c-0.7,0-1.2,0-1.7-0.1V309.6"/>
<path class="st4" d="M494,313.5c0-0.6-0.2-1.5-1.3-1.5c-0.9,0-1.3,0.8-1.4,1.5H494z M491.3,314.1c0,1.2,0.8,1.7,1.7,1.7
	c0.6,0,1.1-0.1,1.4-0.3l0.2,0.6c-0.3,0.1-0.9,0.3-1.7,0.3c-1.5,0-2.5-1-2.5-2.5c0-1.5,0.9-2.7,2.4-2.7c1.6,0,2.1,1.4,2.1,2.4
	c0,0.2,0,0.3,0,0.4H491.3"/>
<path class="st4" d="M499.6,316.3c-0.2,0.1-0.8,0.3-1.4,0.3c-1.5,0-2.5-1-2.5-2.6c0-1.6,1.1-2.7,2.7-2.7c0.5,0,1,0.1,1.3,0.3
	l-0.2,0.7c-0.2-0.1-0.6-0.2-1.1-0.2c-1.2,0-1.8,0.9-1.8,1.9c0,1.2,0.8,1.9,1.7,1.9c0.5,0,0.9-0.1,1.1-0.2L499.6,316.3"/>
<g>
	<g>
		<rect x="109.6" y="164.2" class="st5" width="8" height="141.4"/>
		<rect x="143.2" y="147.7" class="st5" width="8" height="157.9"/>
		<rect x="450.7" y="210.5" class="st5" width="8" height="95.1"/>
		<rect x="484.3" y="95.5" class="st5" width="8" height="210"/>
		<rect x="176.8" y="206.6" class="st5" width="8" height="99"/>
		<rect x="210.4" y="225.6" class="st5" width="8" height="79.9"/>
		<rect x="244" y="215" class="st5" width="8" height="90.6"/>
		<rect x="281.5" y="140.4" class="st5" width="8" height="165.2"/>
		<rect x="315.1" y="194.2" class="st5" width="8" height="111.3"/>
		<rect x="348.7" y="157.8" class="st5" width="8" height="147.8"/>
		<rect x="382.3" y="166" class="st5" width="8" height="139.6"/>
		<rect x="415.9" y="135.3" class="st5" width="8" height="170.2"/>
	</g>
</g>
<g>
	<g>
		<polygon class="st6" points="113.9,216.1 113.5,215.6 177.3,168.9 177.5,169 229.1,199.5 263.1,180.7 281.5,188.7 315.5,162.7 
			315.6,162.7 337.7,165.6 370.3,131.1 417.6,129 469.7,94.1 469.8,94.1 486.1,88.4 486.3,89.1 470,94.7 417.9,129.7 417.8,129.7 
			370.6,131.8 338,166.4 315.7,163.4 281.6,189.5 281.4,189.4 263.1,181.5 229.1,200.3 228.9,200.2 177.3,169.7 		"/>
	</g>
	<g>
		<circle class="st6" cx="177.3" cy="169.9" r="3.4"/>
	</g>
	<g>
		<circle class="st6" cx="134.1" cy="200.5" r="3.4"/>
	</g>
	<g>
		<circle class="st6" cx="229.4" cy="199.8" r="3.4"/>
	</g>
	<g>
		<circle class="st6" cx="263.4" cy="181.1" r="3.4"/>
	</g>
	<g>
		<circle class="st6" cx="282.2" cy="189.4" r="3.4"/>
	</g>
	<g>
		<circle class="st6" cx="315.6" cy="163.7" r="3.4"/>
	</g>
	<g>
		<circle class="st6" cx="338.5" cy="165.8" r="3.4"/>
	</g>
	<g>
		<circle class="st6" cx="370.5" cy="131" r="3.4"/>
	</g>
	<g>
		<circle class="st6" cx="417.7" cy="128.9" r="3.4"/>
	</g>
	<g>
		<circle class="st6" cx="469.8" cy="94.9" r="3.4"/>
	</g>
</g>
<rect x="109.6" y="304.9" class="st0" width="390.7" height="1.2"/>
</svg>
