<?xml version="1.0" encoding="utf-8"?>
<!-- Generator: Adobe Illustrator 19.0.0, SVG Export Plug-In . SVG Version: 6.00 Build 0)  -->
<svg version="1.1" id="图层_1" xmlns="http://www.w3.org/2000/svg" xmlns:xlink="http://www.w3.org/1999/xlink" x="0px" y="0px"
	 viewBox="0 0 52 52" style="enable-background:new 0 0 52 52;" xml:space="preserve">
<g>
	<path d="M26,52C11.7,52,0,40.3,0,26C0,11.7,11.7,0,26,0s26,11.7,26,26C52,40.3,40.3,52,26,52z M26,1.4C12.5,1.4,1.4,12.5,1.4,26
		s11,24.6,24.6,24.6s24.6-11,24.6-24.6S39.5,1.4,26,1.4z"/>
</g>
<g>
	<g>
		<g>
			<path d="M26,18.6c-2.2,0-3.9-1.8-3.9-3.9s1.8-3.9,3.9-3.9s3.9,1.8,3.9,3.9S28.2,18.6,26,18.6z M26,12.5c-1.2,0-2.2,1-2.2,2.2
				c0,1.2,1,2.2,2.2,2.2s2.2-1,2.2-2.2C28.2,13.5,27.2,12.5,26,12.5z"/>
		</g>
		<g>
			<path d="M13.7,40.1c-2.2,0-3.9-1.8-3.9-3.9s1.8-3.9,3.9-3.9s3.9,1.8,3.9,3.9S15.9,40.1,13.7,40.1z M13.7,33.9
				c-1.2,0-2.2,1-2.2,2.2c0,1.2,1,2.2,2.2,2.2s2.2-1,2.2-2.2C15.9,34.9,14.9,33.9,13.7,33.9z"/>
		</g>
		<g>
			<path d="M38.3,40.1c-2.2,0-3.9-1.8-3.9-3.9s1.8-3.9,3.9-3.9s3.9,1.8,3.9,3.9S40.4,40.1,38.3,40.1z M38.3,33.9
				c-1.2,0-2.2,1-2.2,2.2c0,1.2,1,2.2,2.2,2.2c1.2,0,2.2-1,2.2-2.2C40.5,34.9,39.5,33.9,38.3,33.9z"/>
		</g>
	</g>
	<g>
		<g>
			<line x1="16.8" y1="36.4" x2="35.2" y2="36.4"/>
			<rect x="16.8" y="35.4" width="18.4" height="1.9"/>
		</g>
		<g>
			<line x1="37" y1="33.3" x2="27.8" y2="17.6"/>
			<rect x="23.3" y="24.5" transform="matrix(0.5027 0.8644 -0.8644 0.5027 38.1413 -15.3656)" width="18.2" height="1.9"/>
		</g>
		<g>
			<line x1="24.1" y1="17.6" x2="15.5" y2="33.3"/>
			<rect x="18.8" y="16.5" transform="matrix(0.8778 0.479 -0.479 0.8778 14.6159 -6.3587)" width="1.9" height="17.9"/>
		</g>
	</g>
</g>
<g>
	<circle cx="26" cy="14.7" r="3.1"/>
</g>
<g>
	<circle cx="38.3" cy="36.1" r="3.1"/>
</g>
<g>
	<circle cx="13.7" cy="36.1" r="3.1"/>
</g>
</svg>
