<?xml version="1.0" encoding="utf-8"?>
<!-- Generator: Adobe Illustrator 19.0.0, SVG Export Plug-In . SVG Version: 6.00 Build 0)  -->
<svg version="1.1" id="Layer_1" xmlns="http://www.w3.org/2000/svg" xmlns:xlink="http://www.w3.org/1999/xlink" x="0px" y="0px"
	 viewBox="0 0 496 496" style="enable-background:new 0 0 496 496;" xml:space="preserve">
<style type="text/css">
	.st0{fill:#FFE0B5;}
	.st1{fill:#FFD184;}
	.st2{fill:#FFC000;}
	.st3{fill:#E2AA00;}
	.st4{fill:#C09000;}
	.st5{fill:#333333;}
</style>
<g>
	<g>
		<path class="st0" d="M357.6,247.9c0,10.9-1.6,21.4-4.6,31.4l131.5,43.4C492,299.1,496,274,496,247.9C496,111.9,386.4,1.4,250.7,0
			v138.4C310,139.8,357.6,188.3,357.6,247.9z"/>
	</g>
	<g>
		<path class="st1" d="M351.4,284.3c-15,42.6-55.6,73.2-103.4,73.2c-24.2,0-46.5-7.8-64.6-21.1l-80.4,112.7
			c40.8,29.4,90.8,46.8,145,46.8c109,0,201.6-70.4,234.8-168.2L351.4,284.3z"/>
	</g>
	<g>
		<path class="st2" d="M145.6,286.8L12.7,326c16,48.3,46.4,89.9,86.2,119.9l80.4-112.7C164.3,321.1,152.5,305.1,145.6,286.8z"/>
	</g>
	<g>
		<path class="st3" d="M144.5,212L10.8,175.5c-7,22.9-10.7,47.2-10.7,72.4c0,25.4,3.8,50,10.9,73.1l132.8-39.2
			c-3.5-10.7-5.3-22-5.3-33.9C138.5,235.3,140.6,223.2,144.5,212z"/>
	</g>
	<g>
		<path class="st4" d="M12.4,170.5L146.4,207c15.9-39.5,54.1-67.6,99-68.7V0C136.7,1.1,44.7,72.3,12.4,170.5z"/>
	</g>
</g>
<g>
	<rect x="208.2" y="189.9" class="st0" width="7.9" height="7.9"/>
</g>
<g>
	<path class="st5" d="M225.9,197.8l-1.1-2.5c-0.2-0.5-0.5-0.9-0.7-1s-0.5-0.3-0.9-0.3h-1v3.8h-0.6v-8.4h2.3c0.7,0,1.3,0.2,1.8,0.6
		c0.4,0.4,0.6,0.9,0.6,1.6c0,0.6-0.2,1.1-0.5,1.5s-0.8,0.7-1.5,0.8v0c0.3,0.1,0.7,0.5,1,1.2l1.3,2.7H225.9z M222.2,189.9v3.6h1.5
		c0.6,0,1.2-0.2,1.5-0.5c0.4-0.3,0.6-0.8,0.6-1.4c0-0.5-0.2-1-0.5-1.3c-0.3-0.3-0.8-0.5-1.5-0.5H222.2z"/>
	<path class="st5" d="M228.3,194.9c0,0.8,0.2,1.5,0.6,1.9c0.4,0.5,0.9,0.7,1.6,0.7c0.7,0,1.3-0.2,2-0.7v0.6
		c-0.6,0.4-1.3,0.7-2.1,0.7c-0.8,0-1.4-0.3-1.9-0.8s-0.7-1.3-0.7-2.4c0-0.9,0.3-1.6,0.8-2.2c0.5-0.6,1.2-0.9,2-0.9
		c0.7,0,1.3,0.3,1.7,0.8c0.4,0.5,0.6,1.2,0.6,2.2v0.2H228.3z M232.2,194.4c0-0.7-0.2-1.2-0.5-1.6c-0.3-0.4-0.7-0.6-1.3-0.6
		c-0.6,0-1,0.2-1.4,0.6c-0.4,0.4-0.6,0.9-0.7,1.6H232.2z"/>
	<path class="st5" d="M237.9,197.8v-1.2h0c-0.2,0.4-0.5,0.7-0.8,1c-0.4,0.2-0.8,0.4-1.2,0.4c-0.6,0-1-0.2-1.4-0.5
		c-0.3-0.3-0.5-0.7-0.5-1.2c0-1.1,0.7-1.7,2.1-1.9l1.9-0.3c0-1.3-0.5-1.9-1.5-1.9c-0.7,0-1.3,0.3-1.9,0.8v-0.7
		c0.2-0.2,0.5-0.3,0.9-0.5c0.4-0.1,0.7-0.2,1.1-0.2c0.6,0,1.1,0.2,1.4,0.6c0.3,0.4,0.5,0.9,0.5,1.7v3.9H237.9z M236.2,194.8
		c-0.6,0.1-1.1,0.2-1.3,0.4c-0.3,0.2-0.4,0.5-0.4,1c0,0.4,0.1,0.6,0.4,0.9c0.2,0.2,0.6,0.3,1,0.3c0.6,0,1.1-0.2,1.4-0.6
		c0.4-0.4,0.6-1,0.6-1.7v-0.6L236.2,194.8z"/>
	<path class="st5" d="M240.2,197.8v-8.9h0.5v8.9H240.2z"/>
	<path class="st5" d="M246.1,197.8v-8.4h3.9v0.5h-3.4v3.4h3.1v0.5h-3.1v3.5h3.6v0.5H246.1z"/>
	<path class="st5" d="M251.7,197.6v-0.6c0.2,0.2,0.5,0.3,0.7,0.4c0.3,0.1,0.5,0.2,0.8,0.2c0.9,0,1.4-0.4,1.4-1.2
		c0-0.3-0.1-0.5-0.3-0.7c-0.2-0.2-0.5-0.4-1-0.6c-0.6-0.3-1-0.5-1.2-0.8c-0.2-0.3-0.4-0.6-0.4-1c0-0.5,0.2-0.9,0.6-1.2
		c0.4-0.3,0.8-0.5,1.4-0.5c0.5,0,1,0.1,1.3,0.3v0.6c-0.4-0.3-0.9-0.4-1.4-0.4c-0.4,0-0.7,0.1-1,0.3c-0.2,0.2-0.4,0.5-0.4,0.8
		c0,0.3,0.1,0.5,0.2,0.7c0.2,0.2,0.5,0.4,1,0.6c0.6,0.3,1.1,0.5,1.3,0.8c0.2,0.2,0.4,0.6,0.4,1c0,0.5-0.2,0.9-0.5,1.2
		s-0.9,0.5-1.5,0.5C252.6,198,252.1,197.9,251.7,197.6z"/>
	<path class="st5" d="M259.1,197.8c-0.3,0.1-0.5,0.2-0.8,0.2c-0.9,0-1.3-0.5-1.3-1.6v-4.1h-1.1v-0.5h1.1v-1.6c0.1,0,0.2-0.1,0.3-0.1
		s0.2-0.1,0.3-0.1v1.8h1.6v0.5h-1.6v4c0,0.4,0.1,0.7,0.2,0.9s0.4,0.3,0.7,0.3c0.2,0,0.5-0.1,0.7-0.2V197.8z"/>
	<path class="st5" d="M263.9,197.8v-1.2h0c-0.2,0.4-0.5,0.7-0.8,1c-0.4,0.2-0.8,0.4-1.2,0.4c-0.6,0-1-0.2-1.4-0.5
		c-0.3-0.3-0.5-0.7-0.5-1.2c0-1.1,0.7-1.7,2.1-1.9l1.9-0.3c0-1.3-0.5-1.9-1.5-1.9c-0.7,0-1.3,0.3-1.9,0.8v-0.7
		c0.2-0.2,0.5-0.3,0.9-0.5s0.7-0.2,1.1-0.2c0.6,0,1.1,0.2,1.4,0.6c0.3,0.4,0.5,0.9,0.5,1.7v3.9H263.9z M262.3,194.8
		c-0.6,0.1-1.1,0.2-1.3,0.4c-0.3,0.2-0.4,0.5-0.4,1c0,0.4,0.1,0.6,0.4,0.9c0.2,0.2,0.6,0.3,1,0.3c0.6,0,1.1-0.2,1.4-0.6
		c0.4-0.4,0.6-1,0.6-1.7v-0.6L262.3,194.8z"/>
	<path class="st5" d="M268.7,197.8c-0.3,0.1-0.5,0.2-0.8,0.2c-0.9,0-1.3-0.5-1.3-1.6v-4.1h-1.1v-0.5h1.1v-1.6c0.1,0,0.2-0.1,0.3-0.1
		c0.1,0,0.2-0.1,0.3-0.1v1.8h1.6v0.5h-1.6v4c0,0.4,0.1,0.7,0.2,0.9s0.4,0.3,0.7,0.3c0.2,0,0.5-0.1,0.7-0.2V197.8z"/>
	<path class="st5" d="M270,194.9c0,0.8,0.2,1.5,0.6,1.9c0.4,0.5,0.9,0.7,1.6,0.7c0.7,0,1.3-0.2,2-0.7v0.6c-0.6,0.4-1.3,0.7-2.1,0.7
		c-0.8,0-1.4-0.3-1.9-0.8c-0.5-0.6-0.7-1.3-0.7-2.4c0-0.9,0.3-1.6,0.8-2.2c0.5-0.6,1.2-0.9,2-0.9c0.7,0,1.3,0.3,1.7,0.8
		s0.6,1.2,0.6,2.2v0.2H270z M273.9,194.4c0-0.7-0.2-1.2-0.5-1.6s-0.7-0.6-1.3-0.6c-0.6,0-1,0.2-1.4,0.6c-0.4,0.4-0.6,0.9-0.7,1.6
		H273.9z"/>
</g>
<g>
	<rect x="208.2" y="215.6" class="st1" width="7.9" height="7.9"/>
</g>
<g>
	<path class="st5" d="M221.6,223.5V215h3.9v0.5h-3.4v3.4h3.1v0.5h-3.1v3.5h3.6v0.5H221.6z"/>
	<path class="st5" d="M231.6,223.5V220c0-1.4-0.5-2.2-1.6-2.2c-0.6,0-1.1,0.2-1.4,0.6s-0.6,1-0.6,1.6v3.5h-0.5v-6h0.5v1.1h0
		c0.4-0.8,1.1-1.2,2.1-1.2c0.7,0,1.1,0.2,1.5,0.7c0.3,0.4,0.5,1.1,0.5,1.9v3.7H231.6z"/>
	<path class="st5" d="M234.1,220.5c0,0.8,0.2,1.5,0.6,1.9c0.4,0.5,0.9,0.7,1.6,0.7c0.7,0,1.3-0.2,2-0.7v0.6
		c-0.6,0.4-1.3,0.7-2.1,0.7c-0.8,0-1.4-0.3-1.9-0.8c-0.5-0.6-0.7-1.3-0.7-2.4c0-0.9,0.3-1.6,0.8-2.2c0.5-0.6,1.2-0.9,2-0.9
		c0.7,0,1.3,0.3,1.7,0.8c0.4,0.5,0.6,1.2,0.6,2.2v0.2H234.1z M238,220c0-0.7-0.2-1.2-0.5-1.6c-0.3-0.4-0.7-0.6-1.3-0.6
		c-0.6,0-1,0.2-1.4,0.6c-0.4,0.4-0.6,0.9-0.7,1.6H238z"/>
	<path class="st5" d="M242.9,218c-0.2-0.1-0.4-0.2-0.6-0.2c-0.5,0-0.9,0.2-1.2,0.7c-0.3,0.5-0.5,1.2-0.5,2.1v2.8h-0.5v-6h0.5v1.3h0
		c0.1-0.5,0.4-0.8,0.7-1.1c0.3-0.3,0.6-0.4,1-0.4c0.2,0,0.4,0,0.6,0.1V218z"/>
	<path class="st5" d="M248.6,223c0,1.1-0.2,2-0.7,2.5c-0.5,0.5-1.3,0.8-2.3,0.8c-0.6,0-1.2-0.2-1.8-0.5v-0.6
		c0.6,0.4,1.2,0.5,1.8,0.5c1.7,0,2.5-0.9,2.5-2.6v-0.8h0c-0.5,0.8-1.2,1.2-2.2,1.2c-0.7,0-1.3-0.3-1.8-0.8c-0.5-0.5-0.7-1.3-0.7-2.3
		c0-1,0.3-1.7,0.8-2.4s1.2-0.9,2-0.9c0.9,0,1.5,0.4,1.9,1.1h0v-1h0.5V223z M248.1,219.8c0-0.5-0.2-1-0.5-1.4s-0.8-0.6-1.4-0.6
		c-0.7,0-1.2,0.2-1.6,0.7c-0.4,0.5-0.6,1.2-0.6,2c0,0.8,0.2,1.5,0.6,1.9c0.4,0.5,0.9,0.7,1.5,0.7c0.7,0,1.2-0.2,1.6-0.6
		c0.4-0.4,0.6-0.9,0.6-1.5V219.8z"/>
	<path class="st5" d="M252,224.7c-0.2,0.5-0.5,0.9-0.7,1.2c-0.3,0.3-0.6,0.4-1,0.4c-0.2,0-0.3,0-0.5-0.1v-0.5
		c0.1,0.1,0.3,0.1,0.5,0.1c0.5,0,0.9-0.3,1.1-1l0.6-1.3l-2.3-6h0.6l1.8,4.9c0,0.1,0.1,0.2,0.1,0.2c0,0.1,0,0.1,0,0.2h0l0.1-0.4
		l1.9-4.9h0.6L252,224.7z"/>
</g>
<g>
	<rect x="208.2" y="244.5" class="st2" width="7.9" height="7.9"/>
</g>
<g>
	<path class="st5" d="M221.6,252.4V244h3.9v0.5h-3.4v3.4h3.1v0.5h-3.1v3.5h3.6v0.5H221.6z"/>
	<path class="st5" d="M231.8,252.4v-1.1h0c-0.2,0.4-0.5,0.7-0.9,0.9c-0.4,0.2-0.8,0.3-1.3,0.3c-0.7,0-1.3-0.3-1.8-0.8
		c-0.5-0.5-0.7-1.3-0.7-2.2c0-1,0.3-1.8,0.8-2.4c0.5-0.6,1.2-0.9,2-0.9c0.9,0,1.5,0.4,1.9,1.1h0v-3.9h0.5v8.9H231.8z M231.8,248.7
		c0-0.6-0.2-1-0.5-1.4c-0.4-0.4-0.8-0.6-1.4-0.6c-0.6,0-1.2,0.2-1.6,0.7c-0.4,0.5-0.6,1.2-0.6,2c0,0.8,0.2,1.5,0.6,1.9
		c0.4,0.5,0.8,0.7,1.4,0.7c0.7,0,1.2-0.2,1.6-0.6c0.4-0.4,0.6-0.9,0.6-1.6V248.7z"/>
	<path class="st5" d="M238.3,252.4v-1.1h0c-0.4,0.8-1.1,1.2-1.9,1.2c-1.4,0-2.1-0.9-2.1-2.7v-3.5h0.6v3.4c0,0.8,0.1,1.4,0.4,1.8
		c0.3,0.4,0.7,0.6,1.3,0.6c0.6,0,1-0.2,1.4-0.6c0.3-0.4,0.5-1,0.5-1.6v-3.4h0.5v6H238.3z"/>
	<path class="st5" d="M244.6,252.1c-0.4,0.3-1,0.4-1.6,0.4c-0.8,0-1.5-0.3-2-0.8c-0.5-0.6-0.8-1.3-0.8-2.2c0-1,0.3-1.7,0.8-2.4
		c0.6-0.6,1.3-0.9,2.2-0.9c0.5,0,0.9,0.1,1.3,0.3v0.6c-0.4-0.3-0.9-0.4-1.4-0.4c-0.7,0-1.3,0.3-1.7,0.8c-0.4,0.5-0.7,1.2-0.7,2
		c0,0.8,0.2,1.4,0.6,1.9c0.4,0.5,0.9,0.7,1.6,0.7c0.6,0,1.1-0.2,1.6-0.5V252.1z"/>
	<path class="st5" d="M249.7,252.4v-1.2h0c-0.2,0.4-0.5,0.7-0.8,1c-0.4,0.2-0.8,0.4-1.2,0.4c-0.6,0-1-0.2-1.4-0.5
		c-0.3-0.3-0.5-0.7-0.5-1.2c0-1.1,0.7-1.7,2.1-1.9l1.9-0.3c0-1.3-0.5-1.9-1.5-1.9c-0.7,0-1.3,0.3-1.9,0.8v-0.7
		c0.2-0.2,0.5-0.3,0.9-0.5c0.4-0.1,0.7-0.2,1.1-0.2c0.6,0,1.1,0.2,1.4,0.6c0.3,0.4,0.5,0.9,0.5,1.7v3.9H249.7z M248,249.4
		c-0.6,0.1-1.1,0.2-1.3,0.4c-0.3,0.2-0.4,0.5-0.4,1c0,0.4,0.1,0.6,0.4,0.9c0.2,0.2,0.6,0.3,1,0.3c0.6,0,1.1-0.2,1.4-0.6
		c0.4-0.4,0.6-1,0.6-1.7v-0.6L248,249.4z"/>
	<path class="st5" d="M254.4,252.3c-0.3,0.1-0.5,0.2-0.8,0.2c-0.9,0-1.3-0.5-1.3-1.6v-4.1h-1.1v-0.5h1.1v-1.6c0.1,0,0.2-0.1,0.3-0.1
		c0.1,0,0.2-0.1,0.3-0.1v1.8h1.6v0.5h-1.6v4c0,0.4,0.1,0.7,0.2,0.9c0.1,0.2,0.4,0.3,0.7,0.3c0.2,0,0.5-0.1,0.7-0.2V252.3z"/>
	<path class="st5" d="M255.9,244.9c-0.1,0-0.2,0-0.3-0.1c-0.1-0.1-0.1-0.2-0.1-0.3c0-0.1,0-0.2,0.1-0.3c0.1-0.1,0.2-0.1,0.3-0.1
		c0.1,0,0.2,0,0.3,0.1c0.1,0.1,0.1,0.2,0.1,0.3c0,0.1,0,0.2-0.1,0.3C256.1,244.8,256,244.9,255.9,244.9z M255.6,252.4v-6h0.5v6
		H255.6z"/>
	<path class="st5" d="M260.5,252.6c-0.9,0-1.6-0.3-2.1-0.9c-0.5-0.6-0.8-1.3-0.8-2.3c0-1,0.3-1.8,0.8-2.4c0.5-0.6,1.2-0.8,2.1-0.8
		c0.9,0,1.5,0.3,2,0.8c0.5,0.6,0.7,1.3,0.7,2.3c0,0.9-0.3,1.7-0.8,2.3C262.1,252.3,261.4,252.6,260.5,252.6z M260.6,246.7
		c-0.7,0-1.3,0.2-1.7,0.7s-0.6,1.1-0.6,2c0,0.8,0.2,1.4,0.6,1.9c0.4,0.5,1,0.7,1.7,0.7c0.7,0,1.3-0.2,1.7-0.7s0.6-1.1,0.6-2
		c0-0.9-0.2-1.5-0.6-2S261.3,246.7,260.6,246.7z"/>
	<path class="st5" d="M269,252.4v-3.5c0-1.4-0.5-2.2-1.6-2.2c-0.6,0-1.1,0.2-1.4,0.6s-0.6,1-0.6,1.6v3.5h-0.5v-6h0.5v1.1h0
		c0.4-0.8,1.1-1.2,2.1-1.2c0.7,0,1.1,0.2,1.5,0.7c0.3,0.4,0.5,1.1,0.5,1.9v3.7H269z"/>
</g>
<g>
	<rect x="208.2" y="270.7" class="st3" width="7.9" height="7.9"/>
</g>
<g>
	<path class="st5" d="M227,278.6v-4.1h-4.8v4.1h-0.6v-8.4h0.6v3.9h4.8v-3.9h0.6v8.4H227z"/>
	<path class="st5" d="M229.8,275.6c0,0.8,0.2,1.5,0.6,1.9c0.4,0.5,0.9,0.7,1.6,0.7c0.7,0,1.3-0.2,2-0.7v0.6
		c-0.6,0.4-1.3,0.7-2.1,0.7c-0.8,0-1.4-0.3-1.9-0.8c-0.5-0.6-0.7-1.3-0.7-2.4c0-0.9,0.3-1.6,0.8-2.2c0.5-0.6,1.2-0.9,2-0.9
		c0.7,0,1.3,0.3,1.7,0.8c0.4,0.5,0.6,1.2,0.6,2.2v0.2H229.8z M233.7,275.1c0-0.7-0.2-1.2-0.5-1.6c-0.3-0.4-0.7-0.6-1.3-0.6
		c-0.6,0-1,0.2-1.4,0.6c-0.4,0.4-0.6,0.9-0.7,1.6H233.7z"/>
	<path class="st5" d="M239.4,278.6v-1.2h0c-0.2,0.4-0.5,0.7-0.8,1c-0.4,0.2-0.8,0.4-1.2,0.4c-0.6,0-1-0.2-1.4-0.5
		c-0.3-0.3-0.5-0.7-0.5-1.2c0-1.1,0.7-1.7,2.1-1.9l1.9-0.3c0-1.3-0.5-1.9-1.5-1.9c-0.7,0-1.3,0.3-1.9,0.8v-0.7
		c0.2-0.2,0.5-0.3,0.9-0.5c0.4-0.1,0.7-0.2,1.1-0.2c0.6,0,1.1,0.2,1.4,0.6s0.5,0.9,0.5,1.7v3.9H239.4z M237.7,275.6
		c-0.6,0.1-1.1,0.2-1.3,0.4c-0.3,0.2-0.4,0.5-0.4,1c0,0.4,0.1,0.6,0.4,0.9c0.2,0.2,0.6,0.3,1,0.3c0.6,0,1.1-0.2,1.4-0.6
		c0.4-0.4,0.6-1,0.6-1.7v-0.6L237.7,275.6z"/>
	<path class="st5" d="M241.7,278.6v-8.9h0.5v8.9H241.7z"/>
	<path class="st5" d="M246.6,278.5c-0.3,0.1-0.5,0.2-0.8,0.2c-0.9,0-1.3-0.5-1.3-1.6v-4.1h-1.1v-0.5h1.1V271c0.1,0,0.2-0.1,0.3-0.1
		s0.2-0.1,0.3-0.1v1.8h1.6v0.5H245v4c0,0.4,0.1,0.7,0.2,0.9c0.1,0.2,0.4,0.3,0.7,0.3c0.2,0,0.5-0.1,0.7-0.2V278.5z"/>
	<path class="st5" d="M251.9,278.6V275c0-0.7-0.1-1.2-0.4-1.6c-0.3-0.3-0.7-0.5-1.2-0.5c-0.5,0-1,0.2-1.4,0.6s-0.6,1-0.6,1.7v3.3
		h-0.5v-8.9h0.5v4h0c0.5-0.8,1.2-1.2,2.1-1.2c0.7,0,1.1,0.2,1.5,0.6c0.3,0.4,0.5,1,0.5,1.8v3.7H251.9z"/>
	<path class="st5" d="M258.1,278.3c-0.4,0.3-1,0.4-1.6,0.4c-0.8,0-1.5-0.3-2-0.8c-0.5-0.6-0.8-1.3-0.8-2.2c0-1,0.3-1.7,0.8-2.4
		c0.6-0.6,1.3-0.9,2.2-0.9c0.5,0,0.9,0.1,1.3,0.3v0.6c-0.4-0.3-0.9-0.4-1.4-0.4c-0.7,0-1.3,0.3-1.7,0.8c-0.4,0.5-0.7,1.2-0.7,2
		c0,0.8,0.2,1.4,0.6,1.9c0.4,0.5,0.9,0.7,1.6,0.7c0.6,0,1.1-0.2,1.6-0.5V278.3z"/>
	<path class="st5" d="M263.2,278.6v-1.2h0c-0.2,0.4-0.5,0.7-0.8,1s-0.8,0.4-1.2,0.4c-0.6,0-1-0.2-1.4-0.5c-0.3-0.3-0.5-0.7-0.5-1.2
		c0-1.1,0.7-1.7,2.1-1.9l1.9-0.3c0-1.3-0.5-1.9-1.5-1.9c-0.7,0-1.3,0.3-1.9,0.8v-0.7c0.2-0.2,0.5-0.3,0.9-0.5
		c0.4-0.1,0.7-0.2,1.1-0.2c0.6,0,1.1,0.2,1.4,0.6c0.3,0.4,0.5,0.9,0.5,1.7v3.9H263.2z M261.5,275.6c-0.6,0.1-1.1,0.2-1.3,0.4
		c-0.3,0.2-0.4,0.5-0.4,1c0,0.4,0.1,0.6,0.4,0.9c0.2,0.2,0.6,0.3,1,0.3c0.6,0,1.1-0.2,1.4-0.6c0.4-0.4,0.6-1,0.6-1.7v-0.6
		L261.5,275.6z"/>
	<path class="st5" d="M268.4,273.1c-0.2-0.1-0.4-0.2-0.6-0.2c-0.5,0-0.9,0.2-1.2,0.7c-0.3,0.5-0.5,1.2-0.5,2.1v2.8h-0.5v-6h0.5v1.3
		h0c0.1-0.5,0.4-0.8,0.7-1.1c0.3-0.3,0.6-0.4,1-0.4c0.2,0,0.4,0,0.6,0.1V273.1z"/>
	<path class="st5" d="M269.4,275.6c0,0.8,0.2,1.5,0.6,1.9c0.4,0.5,0.9,0.7,1.6,0.7c0.7,0,1.3-0.2,2-0.7v0.6
		c-0.6,0.4-1.3,0.7-2.1,0.7c-0.8,0-1.4-0.3-1.9-0.8c-0.5-0.6-0.7-1.3-0.7-2.4c0-0.9,0.3-1.6,0.8-2.2c0.5-0.6,1.2-0.9,2-0.9
		c0.7,0,1.3,0.3,1.7,0.8c0.4,0.5,0.6,1.2,0.6,2.2v0.2H269.4z M273.3,275.1c0-0.7-0.2-1.2-0.5-1.6c-0.3-0.4-0.7-0.6-1.3-0.6
		c-0.6,0-1,0.2-1.4,0.6c-0.4,0.4-0.6,0.9-0.7,1.6H273.3z"/>
</g>
<g>
	<rect x="208.2" y="296.7" class="st4" width="7.9" height="7.9"/>
</g>
<g>
	<path class="st5" d="M222.2,296.8v3.4h3.1v0.5h-3.1v3.9h-0.6v-8.4h3.9v0.5H222.2z"/>
	<path class="st5" d="M229.5,304.8c-0.9,0-1.6-0.3-2.1-0.9c-0.5-0.6-0.8-1.3-0.8-2.3c0-1,0.3-1.8,0.8-2.4c0.5-0.6,1.2-0.8,2.1-0.8
		c0.9,0,1.5,0.3,2,0.8s0.7,1.3,0.7,2.3c0,0.9-0.3,1.7-0.8,2.3S230.4,304.8,229.5,304.8z M229.6,299c-0.7,0-1.3,0.2-1.7,0.7
		c-0.4,0.5-0.6,1.1-0.6,2c0,0.8,0.2,1.4,0.6,1.9s1,0.7,1.7,0.7c0.7,0,1.3-0.2,1.7-0.7s0.6-1.1,0.6-2c0-0.9-0.2-1.5-0.6-2
		C230.8,299.2,230.3,299,229.6,299z"/>
	<path class="st5" d="M236.3,304.8c-0.9,0-1.6-0.3-2.1-0.9c-0.5-0.6-0.8-1.3-0.8-2.3c0-1,0.3-1.8,0.8-2.4c0.5-0.6,1.2-0.8,2.1-0.8
		c0.9,0,1.5,0.3,2,0.8s0.7,1.3,0.7,2.3c0,0.9-0.3,1.7-0.8,2.3S237.2,304.8,236.3,304.8z M236.3,299c-0.7,0-1.3,0.2-1.7,0.7
		c-0.4,0.5-0.6,1.1-0.6,2c0,0.8,0.2,1.4,0.6,1.9s1,0.7,1.7,0.7c0.7,0,1.3-0.2,1.7-0.7s0.6-1.1,0.6-2c0-0.9-0.2-1.5-0.6-2
		C237.6,299.2,237,299,236.3,299z"/>
	<path class="st5" d="M244.9,304.7v-1.1h0c-0.2,0.4-0.5,0.7-0.9,0.9c-0.4,0.2-0.8,0.3-1.3,0.3c-0.7,0-1.3-0.3-1.8-0.8
		c-0.5-0.5-0.7-1.3-0.7-2.2c0-1,0.3-1.8,0.8-2.4c0.5-0.6,1.2-0.9,2-0.9c0.9,0,1.5,0.4,1.9,1.1h0v-3.9h0.5v8.9H244.9z M244.9,301
		c0-0.6-0.2-1-0.5-1.4c-0.4-0.4-0.8-0.6-1.4-0.6c-0.6,0-1.2,0.2-1.6,0.7c-0.4,0.5-0.6,1.2-0.6,2c0,0.8,0.2,1.5,0.6,1.9
		c0.4,0.5,0.8,0.7,1.4,0.7c0.7,0,1.2-0.2,1.6-0.6s0.6-0.9,0.6-1.6V301z"/>
	<path class="st5" d="M253.9,304.7l-1.1-1.1c-0.8,0.8-1.7,1.3-2.8,1.3c-0.8,0-1.5-0.2-1.9-0.6s-0.7-1-0.7-1.6c0-1.1,0.7-1.9,2-2.5
		c-0.6-0.7-1-1.4-1-2c0-0.5,0.2-1,0.6-1.4s0.9-0.6,1.5-0.6c0.6,0,1,0.2,1.3,0.5c0.3,0.3,0.5,0.7,0.5,1.2c0,0.5-0.2,1-0.5,1.4
		s-0.8,0.7-1.5,1c0.6,0.6,1.5,1.5,2.6,2.6c0.5-0.7,0.8-1.6,0.8-2.6h0.6c0,1.1-0.4,2-1,2.9c0.7,0.7,1.2,1.2,1.6,1.5L253.9,304.7z
		 M252.4,303.2c-1.3-1.3-2.2-2.2-2.8-2.8c-1.2,0.5-1.8,1.2-1.8,2.1c0,0.5,0.2,1,0.6,1.3s0.9,0.5,1.5,0.5
		C250.8,304.3,251.6,303.9,252.4,303.2z M249.7,299.8c0.7-0.3,1.2-0.6,1.4-0.9c0.3-0.3,0.4-0.7,0.4-1.1c0-0.4-0.1-0.7-0.4-0.9
		s-0.6-0.3-0.9-0.3c-0.4,0-0.8,0.1-1.1,0.4c-0.3,0.3-0.4,0.6-0.4,1C248.8,298.5,249.1,299.1,249.7,299.8z"/>
	<path class="st5" d="M255.9,304.7v-8.4h2.2c0.7,0,1.2,0.2,1.6,0.5c0.4,0.4,0.6,0.8,0.6,1.4c0,0.5-0.1,0.9-0.4,1.3
		c-0.3,0.4-0.6,0.6-1.1,0.8v0c0.6,0.1,1,0.3,1.4,0.6c0.3,0.4,0.5,0.8,0.5,1.4c0,0.7-0.2,1.3-0.7,1.7c-0.5,0.4-1.1,0.7-1.8,0.7H255.9
		z M256.5,296.8v3.3h1.2c0.6,0,1.1-0.2,1.5-0.5s0.6-0.7,0.6-1.3c0-1-0.6-1.5-1.8-1.5H256.5z M256.5,300.5v3.6h1.6
		c0.7,0,1.2-0.2,1.5-0.5s0.5-0.8,0.5-1.4c0-1.2-0.8-1.8-2.4-1.8H256.5z"/>
	<path class="st5" d="M262.5,301.7c0,0.8,0.2,1.5,0.6,1.9c0.4,0.5,0.9,0.7,1.6,0.7c0.7,0,1.3-0.2,2-0.7v0.6
		c-0.6,0.4-1.3,0.7-2.1,0.7c-0.8,0-1.4-0.3-1.9-0.8c-0.5-0.6-0.7-1.3-0.7-2.4c0-0.9,0.3-1.6,0.8-2.2c0.5-0.6,1.2-0.9,2-0.9
		c0.7,0,1.3,0.3,1.7,0.8s0.6,1.2,0.6,2.2v0.2H262.5z M266.4,301.2c0-0.7-0.2-1.2-0.5-1.6s-0.7-0.6-1.3-0.6c-0.6,0-1,0.2-1.4,0.6
		c-0.4,0.4-0.6,0.9-0.7,1.6H266.4z"/>
	<path class="st5" d="M270.4,304.7h-0.5l-2.3-6h0.6l1.8,4.8c0.1,0.2,0.1,0.4,0.2,0.6h0c0.1-0.2,0.1-0.4,0.2-0.6l1.9-4.8h0.6
		L270.4,304.7z"/>
	<path class="st5" d="M274,301.7c0,0.8,0.2,1.5,0.6,1.9c0.4,0.5,0.9,0.7,1.6,0.7c0.7,0,1.3-0.2,2-0.7v0.6c-0.6,0.4-1.3,0.7-2.1,0.7
		c-0.8,0-1.4-0.3-1.9-0.8c-0.5-0.6-0.7-1.3-0.7-2.4c0-0.9,0.3-1.6,0.8-2.2c0.5-0.6,1.2-0.9,2-0.9c0.7,0,1.3,0.3,1.7,0.8
		s0.6,1.2,0.6,2.2v0.2H274z M277.9,301.2c0-0.7-0.2-1.2-0.5-1.6c-0.3-0.4-0.7-0.6-1.3-0.6c-0.6,0-1,0.2-1.4,0.6
		c-0.4,0.4-0.6,0.9-0.7,1.6H277.9z"/>
	<path class="st5" d="M282.8,299.2c-0.2-0.1-0.4-0.2-0.6-0.2c-0.5,0-0.9,0.2-1.2,0.7c-0.3,0.5-0.5,1.2-0.5,2.1v2.8H280v-6h0.5v1.3h0
		c0.1-0.5,0.4-0.8,0.7-1.1c0.3-0.3,0.6-0.4,1-0.4c0.2,0,0.4,0,0.6,0.1V299.2z"/>
	<path class="st5" d="M287.6,304.7v-1.2h0c-0.2,0.4-0.5,0.7-0.8,1s-0.8,0.4-1.2,0.4c-0.6,0-1-0.2-1.4-0.5c-0.3-0.3-0.5-0.7-0.5-1.2
		c0-1.1,0.7-1.7,2.1-1.9l1.9-0.3c0-1.3-0.5-1.9-1.5-1.9c-0.7,0-1.3,0.3-1.9,0.8v-0.7c0.2-0.2,0.5-0.3,0.9-0.5
		c0.4-0.1,0.7-0.2,1.1-0.2c0.6,0,1.1,0.2,1.4,0.6c0.3,0.4,0.5,0.9,0.5,1.7v3.9H287.6z M285.9,301.7c-0.6,0.1-1.1,0.2-1.3,0.4
		c-0.3,0.2-0.4,0.5-0.4,1c0,0.4,0.1,0.6,0.4,0.9c0.2,0.2,0.6,0.3,1,0.3c0.6,0,1.1-0.2,1.4-0.6s0.6-1,0.6-1.7v-0.6L285.9,301.7z"/>
	<path class="st5" d="M294.8,304.2c0,1.1-0.2,2-0.7,2.5c-0.5,0.5-1.3,0.8-2.3,0.8c-0.6,0-1.2-0.2-1.8-0.5v-0.6
		c0.6,0.4,1.2,0.5,1.8,0.5c1.7,0,2.5-0.9,2.5-2.6v-0.8h0c-0.5,0.8-1.2,1.2-2.2,1.2c-0.7,0-1.3-0.3-1.8-0.8s-0.7-1.3-0.7-2.3
		c0-1,0.3-1.7,0.8-2.4s1.2-0.9,2-0.9c0.9,0,1.5,0.4,1.9,1.1h0v-1h0.5V304.2z M294.2,300.9c0-0.5-0.2-1-0.5-1.4
		c-0.4-0.4-0.8-0.6-1.4-0.6c-0.7,0-1.2,0.2-1.6,0.7s-0.6,1.2-0.6,2c0,0.8,0.2,1.5,0.6,1.9c0.4,0.5,0.9,0.7,1.5,0.7
		c0.7,0,1.2-0.2,1.6-0.6s0.6-0.9,0.6-1.5V300.9z"/>
	<path class="st5" d="M296.8,301.7c0,0.8,0.2,1.5,0.6,1.9c0.4,0.5,0.9,0.7,1.6,0.7c0.7,0,1.3-0.2,2-0.7v0.6
		c-0.6,0.4-1.3,0.7-2.1,0.7c-0.8,0-1.4-0.3-1.9-0.8c-0.5-0.6-0.7-1.3-0.7-2.4c0-0.9,0.3-1.6,0.8-2.2c0.5-0.6,1.2-0.9,2-0.9
		c0.7,0,1.3,0.3,1.7,0.8s0.6,1.2,0.6,2.2v0.2H296.8z M300.7,301.2c0-0.7-0.2-1.2-0.5-1.6c-0.3-0.4-0.7-0.6-1.3-0.6
		c-0.6,0-1,0.2-1.4,0.6c-0.4,0.4-0.6,0.9-0.7,1.6H300.7z"/>
	<path class="st5" d="M302.5,304.4v-0.6c0.2,0.2,0.5,0.3,0.7,0.4s0.5,0.2,0.8,0.2c0.9,0,1.4-0.4,1.4-1.2c0-0.3-0.1-0.5-0.3-0.7
		s-0.5-0.4-1-0.6c-0.6-0.3-1-0.5-1.2-0.8c-0.2-0.3-0.4-0.6-0.4-1c0-0.5,0.2-0.9,0.6-1.2c0.4-0.3,0.8-0.5,1.4-0.5
		c0.5,0,1,0.1,1.3,0.3v0.6c-0.4-0.3-0.9-0.4-1.4-0.4c-0.4,0-0.7,0.1-1,0.3c-0.2,0.2-0.4,0.5-0.4,0.8c0,0.3,0.1,0.5,0.2,0.7
		c0.2,0.2,0.5,0.4,1,0.6c0.6,0.3,1.1,0.5,1.3,0.8c0.2,0.2,0.4,0.6,0.4,1c0,0.5-0.2,0.9-0.5,1.2c-0.4,0.3-0.9,0.5-1.5,0.5
		C303.3,304.8,302.9,304.7,302.5,304.4z"/>
</g>
</svg>
