<?xml version="1.0" encoding="utf-8"?>
<!-- Generator: Adobe Illustrator 19.0.0, SVG Export Plug-In . SVG Version: 6.00 Build 0)  -->
<svg version="1.1" id="Layer_02" xmlns="http://www.w3.org/2000/svg" xmlns:xlink="http://www.w3.org/1999/xlink" x="0px" y="0px"
	 viewBox="-156.9 390.8 60 60" style="enable-background:new -156.9 390.8 60 60;" xml:space="preserve">
<style type="text/css">
	.st0{fill:#FFFFFF;}
</style>
<g>
	<polygon class="st0" points="-115,428.6 -115,417.8 -130,417.8 -130,432.8 -119.2,432.8 -111.9,440.1 -111.9,450.8 -96.9,450.8 
		-96.9,435.8 -107.7,435.8 	"/>
	<path class="st0" d="M-99.4,432.8c1.7-3.9,2.5-7.8,2.5-12c0-13.3-8.7-25-21.5-28.8c-12.7-3.8-26.5,1.2-33.7,12.3
		c-7.3,11.1-6.4,25.7,2.2,35.8c8.6,10.1,22.8,13.5,35,8.1c0-2.3,0-4.7,0-7c-1.4-1.4-2.8-2.8-4.2-4.2c-16.3,7.8-32.6-10.6-23-25.9
		c9.6-15.3,33.3-8.4,33.3,9.6c0,2.8-0.6,5.3-1.7,7.8c1.4,1.4,2.8,2.8,4.2,4.2C-104.1,432.8-101.8,432.8-99.4,432.8z"/>
</g>
</svg>
