<?xml version="1.0" encoding="utf-8"?>
<!-- Generator: Adobe Illustrator 19.0.0, SVG Export Plug-In . SVG Version: 6.00 Build 0)  -->
<svg version="1.1" id="Layer_02" xmlns="http://www.w3.org/2000/svg" xmlns:xlink="http://www.w3.org/1999/xlink" x="0px" y="0px"
	 viewBox="-170.9 376.8 88 88" style="enable-background:new -170.9 376.8 88 88;" xml:space="preserve">
<style type="text/css">
	.st0{fill:#FFFFFF;}
</style>
<g>
	<polygon class="st0" points="-109.4,432.2 -109.4,416.4 -131.4,416.4 -131.4,438.4 -115.6,438.4 -105,449 -105,464.8 -82.9,464.8 
		-82.9,442.8 -98.8,442.8 	"/>
	<path class="st0" d="M-86.7,438.4c2.5-5.7,3.7-11.4,3.7-17.6c0-19.4-12.8-36.6-31.4-42.1c-18.6-5.6-38.7,1.8-49.3,18.1
		c-10.7,16.3-9.4,37.6,3.2,52.4c12.5,14.8,33.4,19.7,51.2,11.9c0-3.4,0-6.8,0-10.3c-2-2-4.2-4.2-6.2-6.2
		c-23.9,11.4-47.8-15.5-33.7-37.9c14.1-22.4,48.7-12.4,48.7,14.1c0,4.1-0.8,7.7-2.5,11.4c2,2,4.2,4.2,6.2,6.2
		C-93.5,438.4-90.1,438.4-86.7,438.4z"/>
</g>
</svg>
