<?xml version="1.0" encoding="utf-8"?>
<!-- Generator: Adobe Illustrator 19.0.0, SVG Export Plug-In . SVG Version: 6.00 Build 0)  -->
<svg version="1.1" id="图层_1" xmlns="http://www.w3.org/2000/svg" xmlns:xlink="http://www.w3.org/1999/xlink" x="0px" y="0px"
	 viewBox="0 0 44 44" style="enable-background:new 0 0 44 44;" xml:space="preserve">
<style type="text/css">
	.st0{fill:none;stroke:#d9ab2d;stroke-width:2;stroke-miterlimit:10;}
	.st1{fill:none;stroke:#d9ab2d;stroke-width:2;stroke-linecap:round;stroke-miterlimit:10;}
</style>
<path id="XMLID_1_" class="st0" d="M25.4,11.8c1.4,0.6,1,0.1,2.1,0.7c1.8,0.9,1.8,3.4,1.8,3.4l0,0l0,0c0,0.4-0.3,0.7-0.7,0.7H15.3
	c-0.4,0-0.7-0.3-0.7-0.7l0,0l0,0c0,0,0-2.5,1.8-3.4c1.2-0.6,0.7-0.1,2.1-0.7c1.4-0.6,1.8-0.8,1.8-0.8l0-1.4c0,0-0.5-0.4-0.7-1.7
	c-0.3,0.1-0.4-0.4-0.5-0.7c0-0.3-0.2-1.2,0.2-1.2c-0.1-0.6-0.1-1.2-0.1-1.5c0.1-1.1,1.1-2.2,2.7-2.2c1.8,0.1,2.6,1.2,2.7,2.2
	c0,0.3,0,0.9-0.1,1.5C25,6,24.8,6.9,24.8,7.2c0,0.3-0.1,0.8-0.5,0.7c-0.2,1.3-0.7,1.7-0.7,1.7l0,1.4C23.6,11,23.9,11.2,25.4,11.8z"
	/>
<path id="XMLID_3_" class="st0" d="M13.7,36.5c1.4,0.6,1,0.1,2.1,0.7c1.8,0.9,1.8,3.4,1.8,3.4l0,0l0,0c0,0.4-0.3,0.7-0.7,0.7H3.7
	C3.3,41.3,3,41,3,40.6l0,0l0,0c0,0,0-2.5,1.8-3.4C6,36.6,5.5,37.1,7,36.5s1.8-0.8,1.8-0.8l0-1.4c0,0-0.5-0.4-0.7-1.7
	c-0.3,0.1-0.4-0.4-0.5-0.7c0-0.3-0.2-1.2,0.2-1.2c-0.1-0.6-0.1-1.2-0.1-1.5c0.1-1.1,1.1-2.2,2.7-2.2c1.8,0.1,2.6,1.2,2.7,2.2
	c0,0.3,0,0.9-0.1,1.5c0.4-0.1,0.2,0.9,0.2,1.2c0,0.3-0.1,0.8-0.5,0.7c-0.2,1.3-0.7,1.7-0.7,1.7l0,1.4C11.9,35.7,12.3,35.9,13.7,36.5
	z"/>
<path id="XMLID_4_" class="st0" d="M37,36.5c1.4,0.6,1,0.1,2.1,0.7c1.8,0.9,1.8,3.4,1.8,3.4l0,0l0,0c0,0.4-0.3,0.7-0.7,0.7H27
	c-0.4,0-0.7-0.3-0.7-0.7l0,0l0,0c0,0,0-2.5,1.8-3.4c1.2-0.6,0.7-0.1,2.1-0.7c1.4-0.6,1.8-0.8,1.8-0.8l0-1.4c0,0-0.5-0.4-0.7-1.7
	c-0.3,0.1-0.4-0.4-0.5-0.7c0-0.3-0.2-1.2,0.2-1.2c-0.1-0.6-0.1-1.2-0.1-1.5c0.1-1.1,1.1-2.2,2.7-2.2c1.8,0.1,2.6,1.2,2.7,2.2
	c0,0.3,0,0.9-0.1,1.5c0.4-0.1,0.2,0.9,0.2,1.2c0,0.3-0.1,0.8-0.5,0.7c-0.2,1.3-0.7,1.7-0.7,1.7l0,1.4C35.3,35.7,35.6,35.9,37,36.5z"
	/>
<line id="XMLID_2_" class="st1" x1="22" y1="19.8" x2="22" y2="25.8"/>
<line id="XMLID_6_" class="st1" x1="16.8" y1="28.8" x2="22" y2="25.8"/>
<line id="XMLID_7_" class="st1" x1="27.2" y1="28.8" x2="22" y2="25.8"/>
</svg>
