<?xml version="1.0" encoding="utf-8"?>
<!-- Generator: Adobe Illustrator 19.0.0, SVG Export Plug-In . SVG Version: 6.00 Build 0)  -->
<svg version="1.1" id="图层_1" xmlns="http://www.w3.org/2000/svg" xmlns:xlink="http://www.w3.org/1999/xlink" x="0px" y="0px"
	 viewBox="0 0 44 44" style="enable-background:new 0 0 44 44;" xml:space="preserve">
<style type="text/css">
	.st0{fill:none;stroke:#d9ab2d;stroke-width:2;stroke-linecap:round;stroke-linejoin:round;stroke-miterlimit:10;}
	.st1{fill:none;stroke:#d9ab2d;stroke-width:2;stroke-miterlimit:10;}
</style>
<g id="XMLID_47_">
	<path id="XMLID_41_" class="st0" d="M40.9,9.2L12.8,37.3L2.2,41.8l0,0l4.4-10.5L34.8,3.1c1-1,2.7-1,3.8,0l2.3,2.3
		C42,6.4,42,8.1,40.9,9.2z"/>
	<line id="XMLID_42_" class="st0" x1="4.5" y1="36.2" x2="7.7" y2="39.4"/>
	<line id="XMLID_43_" class="st0" x1="6.7" y1="31.2" x2="12.8" y2="37.3"/>
	<line id="XMLID_44_" class="st0" x1="32.7" y1="5.2" x2="38.8" y2="11.3"/>
	<line id="XMLID_45_" class="st0" x1="30.4" y1="7.5" x2="36.2" y2="13.3"/>
	<line id="XMLID_46_" class="st0" x1="9.6" y1="34.1" x2="33.3" y2="10.4"/>
</g>
<g id="XMLID_27_">
	<path id="XMLID_49_" class="st1" d="M30.7,23l10.5,10.5c0.2,0.2,0.2,0.4,0,0.5l-7.8,7.8c-0.2,0.2-0.4,0.2-0.5,0L22.4,31.4"/>
	<path id="XMLID_23_" class="st1" d="M12.6,21.6L2.1,11.1c-0.2-0.2-0.2-0.4,0-0.5l7.8-7.8c0.2-0.2,0.4-0.2,0.5,0L21,13.2"/>
	<circle id="XMLID_26_" class="st1" cx="9" cy="10" r="1.6"/>
	<circle id="XMLID_30_" class="st1" cx="34" cy="35" r="1.6"/>
	<line id="XMLID_55_" class="st0" x1="13.3" y1="12.1" x2="16.1" y2="9.2"/>
	<line id="XMLID_54_" class="st0" x1="17" y1="15.8" x2="19.9" y2="12.9"/>
	<line id="XMLID_51_" class="st0" x1="28.2" y1="27" x2="31" y2="24.1"/>
	<line id="XMLID_50_" class="st0" x1="31.9" y1="30.7" x2="34.8" y2="27.8"/>
</g>
</svg>
