<?xml version="1.0" encoding="utf-8"?>
<!-- Generator: Adobe Illustrator 19.0.0, SVG Export Plug-In . SVG Version: 6.00 Build 0)  -->
<svg version="1.1" id="图层_1" xmlns="http://www.w3.org/2000/svg" xmlns:xlink="http://www.w3.org/1999/xlink" x="0px" y="0px"
	 viewBox="0 0 44 44" style="enable-background:new 0 0 44 44;" xml:space="preserve">
<style type="text/css">
	.st0{fill:none;stroke:#d9ab2d;stroke-width:2;stroke-linecap:round;stroke-linejoin:round;stroke-miterlimit:10;}
</style>
<g id="XMLID_1_">
	<path id="XMLID_28_" class="st0" d="M22,24L22,24c-1.7,0-3-1.3-3-3v0c0-1.6,1.3-3,3-3h0c1.6,0,3,1.4,3,3v0C25,22.6,23.7,24,22,24z"
		/>
	<g id="XMLID_48_">
		<path id="XMLID_31_" class="st0" d="M22,33.8L22,33.8c2.2,0,4,1.8,4,4v0c0,2.2-1.8,4-4,4h0c-2.2,0-4-1.8-4-4v0
			C18,35.6,19.8,33.8,22,33.8z"/>
		<path id="XMLID_32_" class="st0" d="M38.6,21.5L38.6,21.5c2.2,0,4,1.8,4,4v0c0,2.2-1.8,4-4,4h0c-2.2,0-4-1.8-4-4v0
			C34.6,23.3,36.4,21.5,38.6,21.5z"/>
		<path id="XMLID_35_" class="st0" d="M5.4,21.5L5.4,21.5c2.2,0,4,1.8,4,4v0c0,2.2-1.8,4-4,4h0c-2.2,0-4-1.8-4-4v0
			C1.4,23.3,3.2,21.5,5.4,21.5z"/>
		<path id="XMLID_37_" class="st0" d="M11.9,2.2L11.9,2.2c2.2,0,4,1.8,4,4v0c0,2.2-1.8,4-4,4h0c-2.2,0-4-1.8-4-4v0
			C7.9,4,9.7,2.2,11.9,2.2z"/>
		<path id="XMLID_38_" class="st0" d="M32.4,2.2L32.4,2.2c2.2,0,4,1.8,4,4v0c0,2.2-1.8,4-4,4h0c-2.2,0-4-1.8-4-4v0
			C28.4,4,30.2,2.2,32.4,2.2z"/>
		<line id="XMLID_40_" class="st0" x1="35.2" y1="28.2" x2="25.4" y2="35.3"/>
		<line id="XMLID_52_" class="st0" x1="33.6" y1="10.2" x2="37.2" y2="21.5"/>
		<line id="XMLID_34_" class="st0" x1="16.2" y1="6.2" x2="28.2" y2="6.2"/>
		<line id="XMLID_39_" class="st0" x1="6.8" y1="21.5" x2="10.4" y2="10.2"/>
		<line id="XMLID_29_" class="st0" x1="18.4" y1="35.2" x2="8.8" y2="28.2"/>
	</g>
</g>
</svg>
