<?xml version="1.0" encoding="utf-8"?>
<!-- Generator: Adobe Illustrator 19.0.0, SVG Export Plug-In . SVG Version: 6.00 Build 0)  -->
<svg version="1.1" id="图层_1" xmlns="http://www.w3.org/2000/svg" xmlns:xlink="http://www.w3.org/1999/xlink" x="0px" y="0px"
	 viewBox="0 0 44 53.3" style="enable-background:new 0 0 44 53.3;" xml:space="preserve">
<style type="text/css">
	.st0{fill:none;stroke:#d9ab2d;stroke-width:2;stroke-linecap:round;stroke-linejoin:round;stroke-miterlimit:10;}
</style>
<g id="XMLID_70_">
	<ellipse id="XMLID_58_" class="st0" cx="22.5" cy="6.7" rx="4.4" ry="5.2"/>
	<line id="XMLID_62_" class="st0" x1="21.4" y1="14.5" x2="23.8" y2="14.5"/>
	<line id="XMLID_63_" class="st0" x1="22.5" y1="14.5" x2="22.5" y2="23.2"/>
	<path id="XMLID_64_" class="st0" d="M31.5,28.5H12.5c-1,0-1.9-0.8-1.9-1.9l0.9-6.5c0-3.1,2.5-5.6,5.6-5.6l5.3,8.6l4.3-8.6
		c3.1,0,5.6,2.5,5.6,5.6l0.9,6.5C33.3,27.7,32.5,28.5,31.5,28.5z"/>
	<line id="XMLID_65_" class="st0" x1="16.1" y1="20.5" x2="15.3" y2="24.8"/>
	<line id="XMLID_67_" class="st0" x1="28.1" y1="20.5" x2="28.9" y2="24.8"/>
	<path id="XMLID_68_" class="st0" d="M15.7,22.7c0,0,1.5-0.3,3.4,0.5c1.9,0.8,3.1-0.4,4-0.3c0.9,0.1,4.6,0.3,5.6,1.1"/>
	<path id="XMLID_66_" class="st0" d="M15.7,24.4c0,0,2,0,4.1,1.4s4.6,2.8,4.6,2.8"/>
	<polygon id="XMLID_69_" class="st0" points="28.5,51.8 24.9,51.8 23.8,36.1 21.4,36.2 20.1,51.8 16.8,51.8 16.8,29.3 28.5,29.3
		"/>
</g>
</svg>
