<?xml version="1.0" encoding="utf-8"?>
<!-- Generator: Adobe Illustrator 19.0.0, SVG Export Plug-In . SVG Version: 6.00 Build 0)  -->
<svg version="1.1" id="图层_1" xmlns="http://www.w3.org/2000/svg" xmlns:xlink="http://www.w3.org/1999/xlink" x="0px" y="0px"
	 viewBox="0 0 44 44" style="enable-background:new 0 0 44 44;" xml:space="preserve">
<style type="text/css">
	.st0{fill:#d9ab2d;}
</style>
<g id="XMLID_1_">
	<path id="XMLID_112_" class="st0" d="M43.6,18.1c-0.1-0.8-0.5-1.5-1.1-2.1l-13-13c-1.3-1.3-3.5-1.3-4.8,0L20,7.7l-3.6-3.6
		c-1.2-1.2-3.2-1.1-4.5,0.2L1.3,14.9l0,0c-1.1,1.3-1.1,3.2,0,4.3l6.2,6.2L7,25.9c-0.6,0.6-1,1.5-1,2.4c0,0.9,0.3,1.7,1,2.4
		c0.6,0.6,1.4,0.9,2.2,1l0.3,0l0,0.3c0,0.8,0.4,1.6,1,2.2c0.6,0.6,1.3,0.9,2.2,1l0.3,0l0,0.3c0,0.8,0.4,1.6,1,2.2
		c0.6,0.6,1.3,0.9,2.2,1l0.3,0l0,0.3c0,0.8,0.4,1.6,1,2.2c0.6,0.6,1.5,1,2.4,1c0.9,0,1.8-0.3,2.4-1l0.4-0.4L23,41
		c0.6,0.6,1.5,1,2.4,1c0.9,0,1.8-0.3,2.4-1c0.6-0.6,0.9-1.3,1-2.1l0-0.3l0.3,0c0.8-0.1,1.6-0.5,2.2-1c0.6-0.6,1-1.3,1-2.1l0-0.3
		l0.3,0c0.8-0.1,1.5-0.5,2.1-1c0.6-0.6,1-1.4,1-2.2l0-0.3l0.3,0c0.8-0.1,1.5-0.4,2.1-1c0.6-0.6,1-1.5,1-2.3c0-0.9-0.3-1.7-0.9-2.3
		l-0.5-0.5l5.2-5.2C43.4,19.7,43.7,18.9,43.6,18.1L43.6,18.1z M9.3,29.8c-0.4,0-0.8-0.2-1.1-0.5c-0.3-0.3-0.4-0.7-0.4-1.1
		c0-0.4,0.2-0.8,0.4-1.1l4.4-4.4c0.6-0.6,1.6-0.6,2.2,0c0.3,0.3,0.4,0.7,0.4,1.1c0,0.4-0.2,0.8-0.4,1.1l-4.3,4.3
		C10.1,29.7,9.8,29.8,9.3,29.8z M13.8,32.9c-0.3,0.3-0.7,0.4-1,0.4c-0.4,0-0.8-0.2-1.1-0.5c-0.3-0.3-0.4-0.7-0.4-1.1
		c0-0.4,0.2-0.8,0.4-1.1l6.1-6.1c0.6-0.6,1.6-0.6,2.2,0c0.3,0.3,0.4,0.7,0.4,1.1c0,0.4-0.2,0.8-0.4,1.1l-0.7,0.7
		c-0.1,0-0.1,0.1-0.1,0.1L13.8,32.9z M16.3,36.8c-0.4,0-0.8-0.2-1.1-0.5c-0.3-0.3-0.4-0.7-0.4-1.1c0-0.4,0.1-0.8,0.4-1.1l0.1-0.1
		l5.3-5.3c0.6-0.5,1.5-0.5,2.1,0.1c0.3,0.3,0.5,0.7,0.4,1.1c0,0.4-0.2,0.8-0.4,1.1l-5.2,5.2C17.1,36.6,16.7,36.8,16.3,36.8z
		 M20.8,39.8c-0.3,0.3-0.7,0.5-1.1,0.5c-0.4,0-0.8-0.2-1.1-0.5c-0.3-0.3-0.4-0.7-0.4-1.1c0-0.4,0.2-0.8,0.4-1.1l4.3-4.3
		c0.6-0.6,1.6-0.6,2.2,0c0.3,0.3,0.4,0.7,0.4,1.1c0,0.4-0.1,0.7-0.3,1l-0.1,0.1L20.8,39.8z M26.5,39.8L26.5,39.8
		c-0.3,0.3-0.7,0.5-1.1,0.5c-0.4,0-0.8-0.2-1.1-0.5l-0.4-0.4l2.2-2.2l0.5,0.5c0.2,0.3,0.4,0.7,0.4,1C26.9,39.1,26.8,39.5,26.5,39.8z
		 M36.9,29.4c-0.6,0.6-1.6,0.6-2.1,0.1l-4.1-4.1c-0.4-0.4-0.9-0.4-1.3,0c-0.4,0.4-0.4,0.9,0,1.3l4.3,4.3c0.3,0.3,0.3,0.7,0.3,0.8
		c0,0.4-0.2,0.8-0.5,1.1c-0.7,0.7-1.5,0.7-1.9,0.3l-4.8-4.6c-0.2-0.1-0.5,0-0.7,0.1l0,0c0,0,0,0,0,0l-0.1,0c0,0,0,0,0,0l0,0
		c-0.1,0.1-0.1,0.2-0.2,0.2l0.1,0.9l0.1,0.2l4.4,4.4c0.3,0.3,0.3,0.7,0.3,0.8c0,0.4-0.2,0.8-0.5,1.1c-0.4,0.4-0.8,0.5-1.2,0.5
		c-0.3,0-0.6-0.1-0.7-0.3l-0.1-0.1c0-0.1-0.1-0.1-0.1-0.1l-0.6-0.6l0.1-0.2c0.1-0.4,0.2-0.8,0.2-1.1c0-0.9-0.3-1.7-1-2.4
		c-0.4-0.4-0.9-0.7-1.4-0.9L24.7,31l0.1-0.3c0-0.2,0.1-0.5,0.1-0.7c0-0.9-0.3-1.7-1-2.4c-0.4-0.4-0.9-0.7-1.4-0.8l-0.3-0.1l0.1-0.3
		c0-0.2,0.1-0.5,0.1-0.7c0-0.9-0.3-1.7-1-2.4c-0.6-0.6-1.5-1-2.4-1c-0.6,0-1.1,0.1-1.6,0.4l-0.3,0.2l-0.2-0.4
		c-0.2-0.4-0.4-0.7-0.7-1c-0.1-0.1-0.3-0.3-0.5-0.4l-0.5-0.3l-0.6-0.2c-1.1-0.3-2.3,0-3.2,0.8l-2.7,2.7L2.5,18
		c-0.5-0.5-0.4-1.3,0.2-2L13.1,5.6c0.6-0.6,1.5-0.7,2-0.2L18.7,9l-5.1,5.1c-0.6,0.6-1,1.5-1,2.4c0,0.9,0.3,1.7,1,2.4l0.9,0.9
		c0.1,0.1,0.3,0.3,0.4,0.4l0.5,0.3l0.5,0.1c1.2,0.3,2.4,0,3.3-0.9l5.1-5.1L37,27.3c0.3,0.3,0.4,0.7,0.4,1
		C37.3,28.7,37.1,29.1,36.9,29.4z M41.6,19l-5.1,5.1L25.6,13.3l0.9-0.9c0.4-0.4,0.4-0.9,0-1.3c-0.4-0.4-0.9-0.3-1.3,0l-7.3,7.3
		c-0.6,0.6-1.6,0.6-2.2,0l-0.9-0.9c-0.3-0.3-0.4-0.7-0.4-1.1c0-0.4,0.2-0.8,0.5-1.1L26,4.2c0.6-0.6,1.6-0.6,2.2,0l13,13
		c0.3,0.3,0.5,0.7,0.6,1.1C41.8,18.6,41.8,18.9,41.6,19z"/>
</g>
</svg>
