<?xml version="1.0" encoding="utf-8"?>
<!-- Generator: Adobe Illustrator 19.0.0, SVG Export Plug-In . SVG Version: 6.00 Build 0)  -->
<svg version="1.1" id="图层_1" xmlns="http://www.w3.org/2000/svg" xmlns:xlink="http://www.w3.org/1999/xlink" x="0px" y="0px"
	 viewBox="-254 377.9 86 86" style="enable-background:new -254 377.9 86 86;" xml:space="preserve">
<style type="text/css">
	.st0{fill:#735606;}
</style>
<g>
	<path class="st0" d="M-211,463.9c-5.8,0-11.4-1.1-16.7-3.4c-5.1-2.2-9.7-5.3-13.7-9.2c-3.9-3.9-7-8.5-9.2-13.7
		c-2.3-5.3-3.4-10.9-3.4-16.7c0-5.8,1.1-11.4,3.4-16.7c2.2-5.1,5.3-9.7,9.2-13.7c3.9-3.9,8.5-7,13.7-9.2c5.3-2.3,10.9-3.4,16.7-3.4
		s11.4,1.1,16.7,3.4c5.1,2.2,9.7,5.3,13.7,9.2c3.9,3.9,7,8.5,9.2,13.7c2.3,5.3,3.4,10.9,3.4,16.7c0,5.8-1.1,11.4-3.4,16.7
		c-2.2,5.1-5.3,9.7-9.2,13.7c-3.9,3.9-8.5,7-13.7,9.2C-199.6,462.8-205.2,463.9-211,463.9z M-211,380.8c-22.1,0-40.1,18-40.1,40.1
		c0,22.1,18,40.1,40.1,40.1s40.1-18,40.1-40.1C-170.9,398.8-188.9,380.8-211,380.8z"/>
</g>
<g>
	<path class="st0" d="M-211,455.1c-19,0-34.4-15.4-34.4-34.2c0-18.8,15.4-34.2,34.4-34.2s34.4,15.3,34.4,34.2
		C-176.6,439.7-192,455.1-211,455.1L-211,455.1z M-211,389.8c-17.3,0-31.4,13.9-31.4,31.1c0,17.2,14.1,31.1,31.4,31.1
		s31.4-14,31.4-31.1C-179.6,403.8-193.7,389.8-211,389.8L-211,389.8z"/>
</g>
<g>
	<polygon class="st0" points="-222.8,425 -214.2,425 -214.2,422.5 -222.8,422.5 -222.8,419.6 -215.9,419.6 -224.9,405.9 
		-218.2,405.9 -210.9,416.9 -203.7,405.9 -197.1,405.9 -206,419.6 -197.8,419.6 -197.8,422.5 -207.5,422.5 -207.5,425 -197.8,425 
		-197.8,427.9 -207.5,427.9 -207.5,435.9 -214.2,435.9 -214.2,427.9 -222.8,427.9 	"/>
</g>
</svg>
