<?xml version="1.0" encoding="utf-8"?>
<!-- Generator: Adobe Illustrator 19.0.0, SVG Export Plug-In . SVG Version: 6.00 Build 0)  -->
<svg version="1.1" id="图层_1" xmlns="http://www.w3.org/2000/svg" xmlns:xlink="http://www.w3.org/1999/xlink" x="0px" y="0px"
	 viewBox="-254 377.9 86 86" style="enable-background:new -254 377.9 86 86;" xml:space="preserve">
<style type="text/css">
	.st0{fill:#735606;}
</style>
<g>
	<path class="st0" d="M-211,455.1c-19,0-34.4-15.3-34.4-34.2c0-18.8,15.4-34.1,34.4-34.1s34.4,15.3,34.4,34.2
		C-176.6,439.8-192,455.1-211,455.1L-211,455.1z M-211,389.8c-17.3,0-31.4,13.9-31.4,31.1c0,17.2,14.1,31.1,31.4,31.1
		s31.4-13.9,31.4-31.1C-179.6,403.7-193.7,389.8-211,389.8L-211,389.8z"/>
</g>
<g>
	<path class="st0" d="M-222.6,421.3h2.1c-0.6-1.3-1.1-2.8-1.2-4.2c-0.2-1.9,0.2-3.7,1.1-5.3c1-1.7,2.7-3.2,5.1-4
		c1.3-0.5,2.8-0.8,4.5-0.9c2.3-0.2,4.7,0.3,6.7,1.3c1.9,0.9,3.5,2.4,4.5,4.2l-5.1,1.7c-0.5-0.9-1.3-1.6-2.2-2.1
		c-1-0.5-2.2-0.7-3.4-0.6c-1.1,0.1-2,0.3-2.7,0.5c-1.2,0.4-1.9,1.1-2.4,1.8c-0.5,0.9-0.7,2-0.6,3.1c0.1,1.1,0.5,2.3,1.1,3.4
		c0.2,0.4,0.4,0.8,0.6,1.2h7.8v2.5h-6.7c0.4,1.1,0.6,2.3,0.5,3.5c0,0.3,0,0.6-0.1,0.9c0.1,0,0.2,0,0.3,0c2.6,0.3,4.3,1,5.8,1.6
		c1.3,0.5,2.1,0.8,3.7-0.5l3.9,3.2c-4.4,3.5-6.5,2.7-10,1.3c-1.1-0.5-2.5-0.9-4.3-1.2c-0.8-0.1-1.9,0.4-2.8,0.9
		c-0.5,0.4-1.1,0.8-1.7,1.2l-3.5-3.5c0,0,0.5-0.4,1.4-1c1.3-1,1.8-2.1,1.9-3.2c0-1.1-0.3-2.2-0.8-3.3h-3.4L-222.6,421.3
		L-222.6,421.3L-222.6,421.3z"/>
</g>
<g>
	<path class="st0" d="M-211,463.9c-5.8,0-11.4-1.1-16.7-3.4c-5.1-2.2-9.7-5.3-13.7-9.2c-3.9-3.9-7-8.5-9.2-13.7
		c-2.3-5.3-3.4-10.9-3.4-16.7c0-5.8,1.1-11.4,3.4-16.7c2.2-5.1,5.3-9.7,9.2-13.7c3.9-3.9,8.5-7,13.7-9.2c5.3-2.3,10.9-3.4,16.7-3.4
		s11.4,1.1,16.7,3.4c5.1,2.2,9.7,5.3,13.7,9.2c3.9,3.9,7,8.5,9.2,13.7c2.3,5.3,3.4,10.9,3.4,16.7c0,5.8-1.1,11.4-3.4,16.7
		c-2.2,5.1-5.3,9.7-9.2,13.7c-3.9,3.9-8.5,7-13.7,9.2C-199.6,462.8-205.2,463.9-211,463.9z M-211,380.8c-22.1,0-40.1,18-40.1,40.1
		c0,22.1,18,40.1,40.1,40.1s40.1-18,40.1-40.1C-170.9,398.8-188.9,380.8-211,380.8z"/>
</g>
</svg>
