<?xml version="1.0" encoding="utf-8"?>
<!-- Generator: Adobe Illustrator 19.0.0, SVG Export Plug-In . SVG Version: 6.00 Build 0)  -->
<svg version="1.1" id="图层_1" xmlns="http://www.w3.org/2000/svg" xmlns:xlink="http://www.w3.org/1999/xlink" x="0px" y="0px"
	 viewBox="-270 399.9 42 42" style="enable-background:new -270 399.9 42 42;" xml:space="preserve">
<style type="text/css">
	.st0{fill:#FFFFFF;}
</style>
<g>
	<g>
		<path class="st0" d="M-249,441.9c-11.6,0-21-9.4-21-21s9.4-21,21-21c11.6,0,21,9.4,21,21S-237.4,441.9-249,441.9z M-249,401.7
			c-10.6,0-19.2,8.6-19.2,19.2c0,10.6,8.6,19.2,19.2,19.2s19.2-8.6,19.2-19.2C-229.8,410.3-238.4,401.7-249,401.7z"/>
	</g>
</g>
<g>
	<g>
		<path class="st0" d="M-256.1,410.8L-256.1,410.8c3.1,0,7.5,2.3,11.1,6c2.4,2.4,4.3,5.2,5.5,8.4c0.7,2.3,0.6,4.1-0.3,5
			c-0.6,0.5-1.5,0.8-2.3,0.7c-3.1,0-7.5-2.3-11.1-6c-2.4-2.4-4.3-5.2-5.5-8.4c-0.7-2.3-0.6-4.1,0.3-5
			C-257.7,411.1-256.9,410.8-256.1,410.8 M-256.1,408.8c-1.4-0.1-2.7,0.4-3.7,1.3c-3,3-0.7,10.3,5.2,16.2c4.2,4.2,9,6.6,12.6,6.6
			c1.4,0.1,2.7-0.4,3.7-1.3c3-3,0.7-10.3-5.2-16.2C-247.7,411.2-252.5,408.8-256.1,408.8z"/>
	</g>
	<g>
		<path class="st0" d="M-241.9,410.8L-241.9,410.8c0.8,0,1.6,0.2,2.3,0.7c0.9,0.9,1,2.7,0.3,5c-1.2,3.2-3.1,6-5.5,8.4
			c-3.6,3.6-8,6-11.1,6c-0.8,0-1.6-0.2-2.3-0.7c-0.9-0.9-1-2.7-0.3-5c1.2-3.2,3.1-6,5.5-8.4C-249.5,413.2-245.1,410.8-241.9,410.8
			 M-241.9,408.8c-3.6,0-8.4,2.4-12.6,6.6c-5.9,5.9-8.3,13.2-5.2,16.2c1,0.9,2.3,1.4,3.7,1.3c3.6,0,8.4-2.4,12.6-6.6
			c5.9-5.9,8.3-13.2,5.2-16.2C-239.3,409.3-240.6,408.8-241.9,408.8z"/>
	</g>
	<g>
		<circle class="st0" cx="-249" cy="420.9" r="2"/>
	</g>
</g>
</svg>
