<?xml version="1.0" encoding="utf-8"?>
<!-- Generator: Adobe Illustrator 19.0.0, SVG Export Plug-In . SVG Version: 6.00 Build 0)  -->
<svg version="1.1" id="图层_1" xmlns="http://www.w3.org/2000/svg" xmlns:xlink="http://www.w3.org/1999/xlink" x="0px" y="0px"
	 viewBox="-270 399.9 42 42" style="enable-background:new -270 399.9 42 42;" xml:space="preserve">
<style type="text/css">
	.st0{fill:#FFFFFF;}
</style>
<g>
	<g>
		<path class="st0" d="M-249,441.9c-11.6,0-21-9.4-21-21c0-11.6,9.4-21,21-21c11.6,0,21,9.4,21,21C-228,432.5-237.4,441.9-249,441.9
			z M-249,401.7c-10.6,0-19.2,8.6-19.2,19.2s8.6,19.2,19.2,19.2c10.6,0,19.2-8.6,19.2-19.2S-238.4,401.7-249,401.7z"/>
	</g>
</g>
<g>
	<g>
		<path class="st0" d="M-249,426.6c-1.5,0-2.9-0.6-4-1.7s-1.7-2.5-1.7-4s0.6-2.9,1.7-4l0,0c2.2-2.2,5.8-2.2,8,0
			c1.1,1.1,1.7,2.5,1.7,4s-0.6,2.9-1.7,4S-247.5,426.6-249,426.6z M-251.6,418.4c-1.4,1.4-1.4,3.8,0,5.2c1.4,1.4,3.8,1.4,5.2,0
			c1.4-1.4,1.4-3.8,0-5.2C-247.8,416.9-250.2,416.9-251.6,418.4L-251.6,418.4z"/>
	</g>
	<g>
		<path class="st0" d="M-257.6,433.3c-1,0-2-0.4-2.7-1.1c-1.5-1.5-1.5-3.9,0-5.4l0,0c1.5-1.5,3.9-1.5,5.4,0c1.5,1.5,1.5,3.9,0,5.4
			C-255.7,432.9-256.7,433.3-257.6,433.3z M-258.9,428.2c-0.7,0.7-0.7,1.9,0,2.6c0.7,0.7,1.9,0.7,2.6,0c0.7-0.7,0.7-1.9,0-2.6
			C-257.1,427.5-258.2,427.5-258.9,428.2z"/>
	</g>
	<g>
		
			<rect x="-255.1" y="423.6" transform="matrix(0.7071 0.7071 -0.7071 0.7071 226.7362 304.3826)" class="st0" width="2" height="4.5"/>
	</g>
	<g>
		<path class="st0" d="M-257.7,416.1c-1,0-2-0.4-2.7-1.1s-1.1-1.7-1.1-2.7s0.4-2,1.1-2.7c1.4-1.4,4-1.4,5.4,0
			c0.7,0.7,1.1,1.7,1.1,2.7s-0.4,2-1.1,2.7C-255.7,415.7-256.6,416.1-257.7,416.1z M-257.7,410.5c-0.5,0-0.9,0.2-1.3,0.5l0,0
			c-0.3,0.3-0.5,0.8-0.5,1.3s0.2,0.9,0.5,1.3c0.7,0.7,1.9,0.7,2.6,0c0.3-0.3,0.5-0.8,0.5-1.3s-0.2-0.9-0.5-1.3
			S-257.2,410.5-257.7,410.5z"/>
	</g>
	<g>
		
			<rect x="-256.3" y="414.9" transform="matrix(0.7071 0.7072 -0.7072 0.7071 219.6897 301.5)" class="st0" width="4.5" height="2"/>
	</g>
	<g>
		<path class="st0" d="M-240.3,416.1c-1,0-2-0.4-2.7-1.1c-0.7-0.7-1.1-1.7-1.1-2.7s0.4-2,1.1-2.7l0,0l0,0l0,0c1.4-1.4,4-1.4,5.4,0
			c0.7,0.7,1.1,1.7,1.1,2.7s-0.4,2-1.1,2.7C-238.4,415.7-239.3,416.1-240.3,416.1z M-240.3,410.5c-0.5,0-0.9,0.2-1.3,0.5l0,0
			c-0.3,0.3-0.5,0.8-0.5,1.3s0.2,0.9,0.5,1.3c0.7,0.7,1.9,0.7,2.6,0c0.3-0.3,0.5-0.8,0.5-1.3s-0.2-0.9-0.5-1.3
			S-239.9,410.5-240.3,410.5z"/>
	</g>
	<g>
		
			<rect x="-244.9" y="413.6" transform="matrix(0.7071 0.7071 -0.7071 0.7071 222.6257 294.3018)" class="st0" width="2" height="4.5"/>
	</g>
	<g>
		<path class="st0" d="M-240.4,433.3c-1,0-2-0.4-2.7-1.1c-0.7-0.7-1.1-1.7-1.1-2.7c0-1,0.4-2,1.1-2.7l0,0l0,0l0,0
			c1.4-1.4,4-1.4,5.4,0c0.7,0.7,1.1,1.7,1.1,2.7s-0.4,2-1.1,2.7C-238.4,432.9-239.4,433.3-240.4,433.3z M-240.4,427.7
			c-0.5,0-0.9,0.2-1.3,0.5l0,0c-0.3,0.3-0.5,0.8-0.5,1.3c0,0.5,0.2,0.9,0.5,1.3c0.7,0.7,1.9,0.7,2.6,0c0.3-0.3,0.5-0.8,0.5-1.3
			c0-0.5-0.2-0.9-0.5-1.3S-239.9,427.7-240.4,427.7z"/>
	</g>
	<g>
		
			<rect x="-246.3" y="424.9" transform="matrix(0.7071 0.7071 -0.7071 0.7071 229.6942 297.2843)" class="st0" width="4.5" height="2"/>
	</g>
</g>
</svg>
