<?xml version="1.0" encoding="utf-8"?>
<!-- Generator: Adobe Illustrator 19.0.0, SVG Export Plug-In . SVG Version: 6.00 Build 0)  -->
<svg version="1.1" id="图层_1" xmlns="http://www.w3.org/2000/svg" xmlns:xlink="http://www.w3.org/1999/xlink" x="0px" y="0px"
	 viewBox="-270 399.9 42 42" style="enable-background:new -270 399.9 42 42;" xml:space="preserve">
<style type="text/css">
	.st0{fill:#FFFFFF;}
</style>
<g>
	<g>
		<rect x="-250" y="415.8" class="st0" width="2" height="17"/>
	</g>
	<g>
		
			<rect x="-257.8" y="412.8" transform="matrix(-0.6428 -0.766 0.766 -0.6428 -731.4803 486.5903)" class="st0" width="11" height="2"/>
	</g>
	<g>
		
			<rect x="-251.1" y="412.9" transform="matrix(0.6428 -0.766 0.766 0.6428 -404.7627 -40.3498)" class="st0" width="11" height="2"/>
	</g>
	<g>
		<rect x="-257" y="419.8" class="st0" width="16" height="2"/>
	</g>
	<g>
		<rect x="-257" y="424.8" class="st0" width="16" height="2"/>
	</g>
</g>
<g>
	<g>
		<path class="st0" d="M-249,441.9c-11.6,0-21-9.4-21-21c0-11.6,9.4-21,21-21c11.6,0,21,9.4,21,21C-228,432.5-237.4,441.9-249,441.9
			z M-249,401.7c-10.6,0-19.2,8.6-19.2,19.2s8.6,19.2,19.2,19.2s19.2-8.6,19.2-19.2S-238.4,401.7-249,401.7z"/>
	</g>
</g>
</svg>
