<?xml version="1.0" encoding="utf-8"?>
<!-- Generator: Adobe Illustrator 19.0.0, SVG Export Plug-In . SVG Version: 6.00 Build 0)  -->
<svg version="1.1" id="图层_1" xmlns="http://www.w3.org/2000/svg" xmlns:xlink="http://www.w3.org/1999/xlink" x="0px" y="0px"
	 viewBox="-270 399.9 42 42" style="enable-background:new -270 399.9 42 42;" xml:space="preserve">
<style type="text/css">
	.st0{fill:#FFFFFF;}
</style>
<g>
	<g>
		<path class="st0" d="M-240.9,412.3v2.6h-14.6c-2.1,0-3.4,1.3-3.4,3.4c0,2.1,1.4,3.6,3.4,3.6h4.6v-2h-4.6c-0.8,0-1.4-0.8-1.4-1.6
			c0-0.8,0.6-1.4,1.4-1.4h19.6L-240.9,412.3z"/>
	</g>
	<g>
		<path class="st0" d="M-242.5,424.9h-19.6l5.1,4.6v-2.6h14.5c2.1,0,3.5-1.3,3.5-3.4c0-2.1-1.5-3.6-3.5-3.6h-4.5v2h4.5
			c0.8,0,1.6,0.8,1.6,1.6C-240.9,424.3-241.7,424.9-242.5,424.9z"/>
	</g>
</g>
<g>
	<g>
		<path class="st0" d="M-249,441.9c-11.6,0-21-9.4-21-21c0-11.6,9.4-21,21-21s21,9.4,21,21C-228,432.5-237.4,441.9-249,441.9z
			 M-249,401.7c-10.6,0-19.2,8.6-19.2,19.2s8.6,19.2,19.2,19.2c10.6,0,19.2-8.6,19.2-19.2S-238.4,401.7-249,401.7z"/>
	</g>
</g>
</svg>
