<?xml version="1.0" encoding="utf-8"?>
<!-- Generator: Adobe Illustrator 19.0.0, SVG Export Plug-In . SVG Version: 6.00 Build 0)  -->
<svg version="1.1" id="图层_1" xmlns="http://www.w3.org/2000/svg" xmlns:xlink="http://www.w3.org/1999/xlink" x="0px" y="0px"
	 viewBox="0 0 76 76" style="enable-background:new 0 0 76 76;" xml:space="preserve">
<g id="XMLID_57_">
	<path id="XMLID_64_" d="M59.7,21.8c-2.6,0-4.6,2.1-4.6,4.6c0,1,0.3,1.9,0.9,2.7l-9.1,10.7c-0.4-0.1-0.7-0.1-1.1-0.1
		c-1.1,0-2.1,0.4-2.9,1l-8.7-6c0-0.2,0.1-0.5,0.1-0.7c0-2.6-2.1-4.6-4.6-4.6c-2.6,0-4.6,2.1-4.6,4.6c0,0.9,0.3,1.7,0.7,2.5L18,45.3
		c-0.5-0.2-1.1-0.3-1.7-0.3c-2.6,0-4.6,2.1-4.6,4.6c0,2.6,2.1,4.6,4.6,4.6c2.6,0,4.6-2.1,4.6-4.6c0-0.9-0.2-1.6-0.6-2.3l7.6-8.9
		c0.5,0.2,1,0.3,1.6,0.3c1.2,0,2.3-0.5,3.1-1.2l8.5,5.9C41.1,43.6,41,44,41,44.4c0,2.6,2.1,4.6,4.6,4.6c2.6,0,4.6-2.1,4.6-4.6
		c0-1.1-0.4-2.1-1-2.8l9-10.6l-0.1-0.1c0.4,0.1,0.9,0.2,1.4,0.2c2.6,0,4.6-2.1,4.6-4.6C64.3,23.9,62.3,21.8,59.7,21.8z"/>
</g>
<g id="XMLID_1_">
	<path id="XMLID_55_" d="M38,76C17,76,0,59,0,38S17,0,38,0s38,17,38,38S59,76,38,76z M38,2.5C18.5,2.5,2.5,18.5,2.5,38
		S18.5,73.5,38,73.5S73.5,57.5,73.5,38S57.5,2.5,38,2.5z"/>
</g>
</svg>
