<?xml version="1.0" encoding="utf-8"?>
<!-- Generator: Adobe Illustrator 19.0.0, SVG Export Plug-In . SVG Version: 6.00 Build 0)  -->
<svg version="1.1" id="图层_1" xmlns="http://www.w3.org/2000/svg" xmlns:xlink="http://www.w3.org/1999/xlink" x="0px" y="0px"
	 viewBox="-259 382.9 76 76" style="enable-background:new -259 382.9 76 76;" xml:space="preserve">
<g id="XMLID_54_">
	<g id="XMLID_60_">
		<path id="XMLID_79_" d="M-221,423.3c-1.4,0-2.4,1.1-2.4,2.4c0,0.7,0.3,1.4,0.8,1.8v2.3c0,0.9,0.7,1.6,1.6,1.6
			c0.9,0,1.6-0.7,1.6-1.6v-2.3c0.5-0.4,0.8-1.1,0.8-1.8C-218.5,424.3-219.6,423.3-221,423.3L-221,423.3z"/>
	</g>
	<g id="XMLID_55_">
		<path id="XMLID_73_" d="M-209.7,416.1h-1.6v-4c0-5.3-4.3-9.7-9.7-9.7c-5.3,0-9.7,4.3-9.7,9.7v4h-1.6c-2.3,0-4,1.8-4,4v15.3
			c0,2.3,1.8,4,4,4h22.6c2.3,0,4-1.8,4-4v-15.3C-205.7,417.8-207.5,416.1-209.7,416.1L-209.7,416.1z M-221,404.6
			c3.9,0,7.2,3.3,7.2,7.2v4.3h-14.4v-4.3C-228.2,407.9-224.9,404.6-221,404.6L-221,404.6z M-208.4,434.8c0,1.2-1,2.3-2.3,2.3h-20.7
			c-1.2,0-2.3-1-2.3-2.3v-14.1c0-1.2,1-2.3,2.3-2.3h20.7c1.2,0,2.3,1,2.3,2.3V434.8z"/>
	</g>
</g>
<g id="XMLID_1_">
	<path id="XMLID_64_" d="M-221,458.9c-20.9,0-38-17.1-38-38s17.1-38,38-38s38,17.1,38,38S-200.1,458.9-221,458.9z M-221,385.5
		c-19.5,0-35.4,15.9-35.4,35.4c0,19.5,15.9,35.4,35.4,35.4s35.4-15.9,35.4-35.4C-185.6,401.3-201.5,385.5-221,385.5z"/>
</g>
</svg>
