<?xml version="1.0" encoding="utf-8"?>
<!-- Generator: Adobe Illustrator 19.0.0, SVG Export Plug-In . SVG Version: 6.00 Build 0)  -->
<svg version="1.1" id="图层_1" xmlns="http://www.w3.org/2000/svg" xmlns:xlink="http://www.w3.org/1999/xlink" x="0px" y="0px"
	 viewBox="0 0 76 76" style="enable-background:new 0 0 76 76;" xml:space="preserve">
<g id="XMLID_68_">
	<path id="XMLID_71_" d="M38,76C17,76,0,59,0,38C0,17,17,0,38,0s38,17,38,38C76,59,59,76,38,76z M38,2.5C18.5,2.5,2.5,18.5,2.5,38
		c0,19.5,15.9,35.5,35.5,35.5S73.5,57.5,73.5,38C73.5,18.5,57.5,2.5,38,2.5z"/>
</g>
<g id="XMLID_67_">
	<polygon id="XMLID_70_" points="4.6,51.8 2.5,49.7 20.7,31.5 35.2,46 49,32.2 51.1,34.3 35.2,50.2 20.7,35.7 	"/>
</g>
<g id="XMLID_63_">
	<polygon id="XMLID_1_" points="58.3,42.5 41.1,25.3 58.3,25.3 	"/>
</g>
</svg>
